ISO-10303-21;
HEADER;
/* Generated by software containing ST-Developer
 * from STEP Tools, Inc. (www.steptools.com) 
 */

FILE_DESCRIPTION(
/* description */ (''),
/* implementation_level */ '2;1');

FILE_NAME(
/* name */ '',
/* time_stamp */ '2026-02-02T15:18:48+03:00',
/* author */ ('DELL'),
/* organization */ (''),
/* preprocessor_version */ 'ST-DEVELOPER v19.2',
/* originating_system */ 'Autodesk Inventor 2023',
/* authorisation */ '');

FILE_SCHEMA (('AUTOMOTIVE_DESIGN { 1 0 10303 214 3 1 1 }'));
ENDSEC;

DATA;
#10=MECHANICAL_DESIGN_GEOMETRIC_PRESENTATION_REPRESENTATION('',(#13),#942);
#11=SHAPE_REPRESENTATION_RELATIONSHIP('SRR','None',#949,#12);
#12=ADVANCED_BREP_SHAPE_REPRESENTATION('',(#14),#941);
#13=STYLED_ITEM('',(#958),#14);
#14=MANIFOLD_SOLID_BREP('\X2\04220432043504400434043E0435\X0\ \X2\04420435043B043E\X0\1',
#565);
#15=CYLINDRICAL_SURFACE('',#605,1.3);
#16=CYLINDRICAL_SURFACE('',#609,1.3);
#17=CYLINDRICAL_SURFACE('',#618,1.6);
#18=CYLINDRICAL_SURFACE('',#619,1.6);
#19=CYLINDRICAL_SURFACE('',#621,2.25);
#20=CYLINDRICAL_SURFACE('',#624,2.25);
#21=FACE_BOUND('',#85,.T.);
#22=FACE_BOUND('',#86,.T.);
#23=FACE_BOUND('',#87,.T.);
#24=FACE_BOUND('',#88,.T.);
#25=FACE_BOUND('',#93,.T.);
#26=FACE_BOUND('',#95,.T.);
#27=FACE_BOUND('',#97,.T.);
#28=FACE_BOUND('',#98,.T.);
#29=CIRCLE('',#597,2.8);
#30=CIRCLE('',#598,1.3);
#31=CIRCLE('',#600,2.25);
#32=CIRCLE('',#601,2.25);
#33=CIRCLE('',#602,2.8);
#34=CIRCLE('',#603,1.6);
#35=CIRCLE('',#604,1.6);
#36=CIRCLE('',#606,1.3);
#37=CIRCLE('',#608,1.3);
#38=CIRCLE('',#610,1.3);
#39=CIRCLE('',#612,2.25);
#40=CIRCLE('',#613,1.6);
#41=CIRCLE('',#615,2.25);
#42=CIRCLE('',#616,1.6);
#43=CONICAL_SURFACE('',#596,2.05,0.785398163397448);
#44=CONICAL_SURFACE('',#607,2.05,0.785398163397448);
#45=FACE_OUTER_BOUND('',#75,.T.);
#46=FACE_OUTER_BOUND('',#76,.T.);
#47=FACE_OUTER_BOUND('',#77,.T.);
#48=FACE_OUTER_BOUND('',#78,.T.);
#49=FACE_OUTER_BOUND('',#79,.T.);
#50=FACE_OUTER_BOUND('',#80,.T.);
#51=FACE_OUTER_BOUND('',#81,.T.);
#52=FACE_OUTER_BOUND('',#82,.T.);
#53=FACE_OUTER_BOUND('',#83,.T.);
#54=FACE_OUTER_BOUND('',#84,.T.);
#55=FACE_OUTER_BOUND('',#89,.T.);
#56=FACE_OUTER_BOUND('',#90,.T.);
#57=FACE_OUTER_BOUND('',#91,.T.);
#58=FACE_OUTER_BOUND('',#92,.T.);
#59=FACE_OUTER_BOUND('',#94,.T.);
#60=FACE_OUTER_BOUND('',#96,.T.);
#61=FACE_OUTER_BOUND('',#99,.T.);
#62=FACE_OUTER_BOUND('',#100,.T.);
#63=FACE_OUTER_BOUND('',#101,.T.);
#64=FACE_OUTER_BOUND('',#102,.T.);
#65=FACE_OUTER_BOUND('',#103,.T.);
#66=FACE_OUTER_BOUND('',#104,.T.);
#67=FACE_OUTER_BOUND('',#105,.T.);
#68=FACE_OUTER_BOUND('',#106,.T.);
#69=FACE_OUTER_BOUND('',#107,.T.);
#70=FACE_OUTER_BOUND('',#108,.T.);
#71=FACE_OUTER_BOUND('',#109,.T.);
#72=FACE_OUTER_BOUND('',#110,.T.);
#73=FACE_OUTER_BOUND('',#111,.T.);
#74=FACE_OUTER_BOUND('',#112,.T.);
#75=EDGE_LOOP('',(#361,#362,#363,#364));
#76=EDGE_LOOP('',(#365,#366,#367,#368,#369));
#77=EDGE_LOOP('',(#370,#371,#372,#373));
#78=EDGE_LOOP('',(#374,#375,#376,#377,#378));
#79=EDGE_LOOP('',(#379,#380,#381,#382,#383,#384));
#80=EDGE_LOOP('',(#385,#386,#387,#388,#389,#390));
#81=EDGE_LOOP('',(#391,#392,#393,#394));
#82=EDGE_LOOP('',(#395,#396,#397,#398));
#83=EDGE_LOOP('',(#399,#400,#401,#402));
#84=EDGE_LOOP('',(#403,#404,#405,#406,#407,#408,#409,#410));
#85=EDGE_LOOP('',(#411));
#86=EDGE_LOOP('',(#412));
#87=EDGE_LOOP('',(#413));
#88=EDGE_LOOP('',(#414));
#89=EDGE_LOOP('',(#415,#416,#417,#418));
#90=EDGE_LOOP('',(#419,#420,#421,#422));
#91=EDGE_LOOP('',(#423,#424,#425,#426));
#92=EDGE_LOOP('',(#427,#428,#429,#430));
#93=EDGE_LOOP('',(#431));
#94=EDGE_LOOP('',(#432,#433,#434,#435));
#95=EDGE_LOOP('',(#436));
#96=EDGE_LOOP('',(#437,#438,#439,#440,#441,#442));
#97=EDGE_LOOP('',(#443));
#98=EDGE_LOOP('',(#444));
#99=EDGE_LOOP('',(#445,#446,#447,#448));
#100=EDGE_LOOP('',(#449,#450,#451,#452));
#101=EDGE_LOOP('',(#453,#454,#455,#456));
#102=EDGE_LOOP('',(#457,#458,#459,#460));
#103=EDGE_LOOP('',(#461,#462,#463,#464));
#104=EDGE_LOOP('',(#465,#466,#467,#468));
#105=EDGE_LOOP('',(#469,#470,#471,#472));
#106=EDGE_LOOP('',(#473,#474,#475,#476));
#107=EDGE_LOOP('',(#477,#478,#479,#480,#481,#482,#483,#484,#485,#486));
#108=EDGE_LOOP('',(#487,#488,#489,#490));
#109=EDGE_LOOP('',(#491,#492,#493,#494,#495,#496,#497,#498,#499,#500));
#110=EDGE_LOOP('',(#501,#502,#503,#504));
#111=EDGE_LOOP('',(#505,#506,#507,#508));
#112=EDGE_LOOP('',(#509,#510,#511,#512));
#113=LINE('',#788,#175);
#114=LINE('',#790,#176);
#115=LINE('',#792,#177);
#116=LINE('',#793,#178);
#117=LINE('',#797,#179);
#118=LINE('',#798,#180);
#119=LINE('',#800,#181);
#120=LINE('',#801,#182);
#121=LINE('',#804,#183);
#122=LINE('',#805,#184);
#123=LINE('',#808,#185);
#124=LINE('',#810,#186);
#125=LINE('',#811,#187);
#126=LINE('',#814,#188);
#127=LINE('',#816,#189);
#128=LINE('',#818,#190);
#129=LINE('',#820,#191);
#130=LINE('',#821,#192);
#131=LINE('',#824,#193);
#132=LINE('',#826,#194);
#133=LINE('',#828,#195);
#134=LINE('',#830,#196);
#135=LINE('',#831,#197);
#136=LINE('',#834,#198);
#137=LINE('',#835,#199);
#138=LINE('',#838,#200);
#139=LINE('',#839,#201);
#140=LINE('',#844,#202);
#141=LINE('',#849,#203);
#142=LINE('',#851,#204);
#143=LINE('',#855,#205);
#144=LINE('',#857,#206);
#145=LINE('',#859,#207);
#146=LINE('',#862,#208);
#147=LINE('',#872,#209);
#148=LINE('',#875,#210);
#149=LINE('',#880,#211);
#150=LINE('',#884,#212);
#151=LINE('',#886,#213);
#152=LINE('',#889,#214);
#153=LINE('',#895,#215);
#154=LINE('',#897,#216);
#155=LINE('',#900,#217);
#156=LINE('',#905,#218);
#157=LINE('',#907,#219);
#158=LINE('',#908,#220);
#159=LINE('',#910,#221);
#160=LINE('',#912,#222);
#161=LINE('',#914,#223);
#162=LINE('',#915,#224);
#163=LINE('',#917,#225);
#164=LINE('',#919,#226);
#165=LINE('',#921,#227);
#166=LINE('',#922,#228);
#167=LINE('',#924,#229);
#168=LINE('',#926,#230);
#169=LINE('',#928,#231);
#170=LINE('',#929,#232);
#171=LINE('',#930,#233);
#172=LINE('',#931,#234);
#173=LINE('',#933,#235);
#174=LINE('',#935,#236);
#175=VECTOR('',#636,10.);
#176=VECTOR('',#637,10.);
#177=VECTOR('',#638,10.);
#178=VECTOR('',#639,10.);
#179=VECTOR('',#642,10.);
#180=VECTOR('',#643,10.);
#181=VECTOR('',#644,10.);
#182=VECTOR('',#645,10.);
#183=VECTOR('',#648,10.);
#184=VECTOR('',#649,10.);
#185=VECTOR('',#652,10.);
#186=VECTOR('',#653,10.);
#187=VECTOR('',#654,10.);
#188=VECTOR('',#657,10.);
#189=VECTOR('',#658,10.);
#190=VECTOR('',#659,10.);
#191=VECTOR('',#660,10.);
#192=VECTOR('',#661,10.);
#193=VECTOR('',#664,10.);
#194=VECTOR('',#665,10.);
#195=VECTOR('',#666,10.);
#196=VECTOR('',#667,10.);
#197=VECTOR('',#668,10.);
#198=VECTOR('',#671,10.);
#199=VECTOR('',#672,10.);
#200=VECTOR('',#675,10.);
#201=VECTOR('',#676,10.);
#202=VECTOR('',#681,2.05);
#203=VECTOR('',#686,10.);
#204=VECTOR('',#687,10.);
#205=VECTOR('',#690,10.);
#206=VECTOR('',#691,10.);
#207=VECTOR('',#692,10.);
#208=VECTOR('',#695,10.);
#209=VECTOR('',#706,1.3);
#210=VECTOR('',#709,2.05);
#211=VECTOR('',#716,1.3);
#212=VECTOR('',#719,10.);
#213=VECTOR('',#720,10.);
#214=VECTOR('',#723,10.);
#215=VECTOR('',#728,10.);
#216=VECTOR('',#729,10.);
#217=VECTOR('',#732,10.);
#218=VECTOR('',#737,10.);
#219=VECTOR('',#738,10.);
#220=VECTOR('',#739,10.);
#221=VECTOR('',#742,1.6);
#222=VECTOR('',#745,1.6);
#223=VECTOR('',#748,10.);
#224=VECTOR('',#749,10.);
#225=VECTOR('',#752,10.);
#226=VECTOR('',#755,10.);
#227=VECTOR('',#758,10.);
#228=VECTOR('',#759,10.);
#229=VECTOR('',#762,10.);
#230=VECTOR('',#765,10.);
#231=VECTOR('',#768,10.);
#232=VECTOR('',#769,10.);
#233=VECTOR('',#770,10.);
#234=VECTOR('',#771,10.);
#235=VECTOR('',#774,10.);
#236=VECTOR('',#777,10.);
#237=VERTEX_POINT('',#786);
#238=VERTEX_POINT('',#787);
#239=VERTEX_POINT('',#789);
#240=VERTEX_POINT('',#791);
#241=VERTEX_POINT('',#795);
#242=VERTEX_POINT('',#796);
#243=VERTEX_POINT('',#799);
#244=VERTEX_POINT('',#803);
#245=VERTEX_POINT('',#807);
#246=VERTEX_POINT('',#809);
#247=VERTEX_POINT('',#813);
#248=VERTEX_POINT('',#815);
#249=VERTEX_POINT('',#817);
#250=VERTEX_POINT('',#819);
#251=VERTEX_POINT('',#823);
#252=VERTEX_POINT('',#825);
#253=VERTEX_POINT('',#827);
#254=VERTEX_POINT('',#829);
#255=VERTEX_POINT('',#833);
#256=VERTEX_POINT('',#837);
#257=VERTEX_POINT('',#841);
#258=VERTEX_POINT('',#843);
#259=VERTEX_POINT('',#847);
#260=VERTEX_POINT('',#848);
#261=VERTEX_POINT('',#850);
#262=VERTEX_POINT('',#852);
#263=VERTEX_POINT('',#854);
#264=VERTEX_POINT('',#856);
#265=VERTEX_POINT('',#858);
#266=VERTEX_POINT('',#860);
#267=VERTEX_POINT('',#863);
#268=VERTEX_POINT('',#865);
#269=VERTEX_POINT('',#867);
#270=VERTEX_POINT('',#870);
#271=VERTEX_POINT('',#874);
#272=VERTEX_POINT('',#878);
#273=VERTEX_POINT('',#882);
#274=VERTEX_POINT('',#883);
#275=VERTEX_POINT('',#885);
#276=VERTEX_POINT('',#887);
#277=VERTEX_POINT('',#890);
#278=VERTEX_POINT('',#893);
#279=VERTEX_POINT('',#894);
#280=VERTEX_POINT('',#896);
#281=VERTEX_POINT('',#898);
#282=VERTEX_POINT('',#901);
#283=VERTEX_POINT('',#904);
#284=VERTEX_POINT('',#906);
#285=EDGE_CURVE('',#237,#238,#113,.T.);
#286=EDGE_CURVE('',#239,#238,#114,.T.);
#287=EDGE_CURVE('',#240,#239,#115,.T.);
#288=EDGE_CURVE('',#237,#240,#116,.T.);
#289=EDGE_CURVE('',#241,#242,#117,.T.);
#290=EDGE_CURVE('',#241,#239,#118,.T.);
#291=EDGE_CURVE('',#243,#238,#119,.T.);
#292=EDGE_CURVE('',#242,#243,#120,.T.);
#293=EDGE_CURVE('',#244,#241,#121,.T.);
#294=EDGE_CURVE('',#244,#240,#122,.T.);
#295=EDGE_CURVE('',#245,#244,#123,.T.);
#296=EDGE_CURVE('',#246,#245,#124,.T.);
#297=EDGE_CURVE('',#237,#246,#125,.T.);
#298=EDGE_CURVE('',#245,#247,#126,.T.);
#299=EDGE_CURVE('',#247,#248,#127,.T.);
#300=EDGE_CURVE('',#248,#249,#128,.T.);
#301=EDGE_CURVE('',#249,#250,#129,.T.);
#302=EDGE_CURVE('',#250,#246,#130,.T.);
#303=EDGE_CURVE('',#243,#251,#131,.T.);
#304=EDGE_CURVE('',#251,#252,#132,.T.);
#305=EDGE_CURVE('',#252,#253,#133,.T.);
#306=EDGE_CURVE('',#253,#254,#134,.T.);
#307=EDGE_CURVE('',#254,#242,#135,.T.);
#308=EDGE_CURVE('',#255,#250,#136,.T.);
#309=EDGE_CURVE('',#255,#237,#137,.T.);
#310=EDGE_CURVE('',#238,#256,#138,.T.);
#311=EDGE_CURVE('',#256,#251,#139,.T.);
#312=EDGE_CURVE('',#257,#257,#29,.T.);
#313=EDGE_CURVE('',#257,#258,#140,.T.);
#314=EDGE_CURVE('',#258,#258,#30,.T.);
#315=EDGE_CURVE('',#259,#260,#141,.T.);
#316=EDGE_CURVE('',#259,#261,#142,.T.);
#317=EDGE_CURVE('',#261,#262,#31,.T.);
#318=EDGE_CURVE('',#262,#263,#143,.T.);
#319=EDGE_CURVE('',#264,#263,#144,.T.);
#320=EDGE_CURVE('',#264,#265,#145,.T.);
#321=EDGE_CURVE('',#265,#266,#32,.T.);
#322=EDGE_CURVE('',#266,#260,#146,.T.);
#323=EDGE_CURVE('',#267,#267,#33,.T.);
#324=EDGE_CURVE('',#268,#268,#34,.T.);
#325=EDGE_CURVE('',#269,#269,#35,.T.);
#326=EDGE_CURVE('',#270,#270,#36,.T.);
#327=EDGE_CURVE('',#270,#258,#147,.T.);
#328=EDGE_CURVE('',#267,#271,#148,.T.);
#329=EDGE_CURVE('',#271,#271,#37,.T.);
#330=EDGE_CURVE('',#272,#272,#38,.T.);
#331=EDGE_CURVE('',#272,#271,#149,.T.);
#332=EDGE_CURVE('',#273,#274,#150,.T.);
#333=EDGE_CURVE('',#273,#275,#151,.T.);
#334=EDGE_CURVE('',#275,#276,#39,.T.);
#335=EDGE_CURVE('',#276,#274,#152,.T.);
#336=EDGE_CURVE('',#277,#277,#40,.T.);
#337=EDGE_CURVE('',#278,#279,#153,.T.);
#338=EDGE_CURVE('',#278,#280,#154,.T.);
#339=EDGE_CURVE('',#280,#281,#41,.T.);
#340=EDGE_CURVE('',#281,#279,#155,.T.);
#341=EDGE_CURVE('',#282,#282,#42,.T.);
#342=EDGE_CURVE('',#256,#283,#156,.T.);
#343=EDGE_CURVE('',#284,#255,#157,.T.);
#344=EDGE_CURVE('',#284,#283,#158,.T.);
#345=EDGE_CURVE('',#282,#268,#159,.T.);
#346=EDGE_CURVE('',#277,#269,#160,.T.);
#347=EDGE_CURVE('',#264,#279,#161,.T.);
#348=EDGE_CURVE('',#265,#281,#162,.T.);
#349=EDGE_CURVE('',#266,#280,#163,.T.);
#350=EDGE_CURVE('',#260,#278,#164,.T.);
#351=EDGE_CURVE('',#259,#274,#165,.T.);
#352=EDGE_CURVE('',#261,#276,#166,.T.);
#353=EDGE_CURVE('',#262,#275,#167,.T.);
#354=EDGE_CURVE('',#263,#273,#168,.T.);
#355=EDGE_CURVE('',#278,#253,#169,.T.);
#356=EDGE_CURVE('',#283,#252,#170,.T.);
#357=EDGE_CURVE('',#284,#249,#171,.T.);
#358=EDGE_CURVE('',#274,#248,#172,.T.);
#359=EDGE_CURVE('',#279,#254,#173,.T.);
#360=EDGE_CURVE('',#273,#247,#174,.T.);
#361=ORIENTED_EDGE('',*,*,#285,.T.);
#362=ORIENTED_EDGE('',*,*,#286,.F.);
#363=ORIENTED_EDGE('',*,*,#287,.F.);
#364=ORIENTED_EDGE('',*,*,#288,.F.);
#365=ORIENTED_EDGE('',*,*,#289,.F.);
#366=ORIENTED_EDGE('',*,*,#290,.T.);
#367=ORIENTED_EDGE('',*,*,#286,.T.);
#368=ORIENTED_EDGE('',*,*,#291,.F.);
#369=ORIENTED_EDGE('',*,*,#292,.F.);
#370=ORIENTED_EDGE('',*,*,#293,.F.);
#371=ORIENTED_EDGE('',*,*,#294,.T.);
#372=ORIENTED_EDGE('',*,*,#287,.T.);
#373=ORIENTED_EDGE('',*,*,#290,.F.);
#374=ORIENTED_EDGE('',*,*,#295,.F.);
#375=ORIENTED_EDGE('',*,*,#296,.F.);
#376=ORIENTED_EDGE('',*,*,#297,.F.);
#377=ORIENTED_EDGE('',*,*,#288,.T.);
#378=ORIENTED_EDGE('',*,*,#294,.F.);
#379=ORIENTED_EDGE('',*,*,#296,.T.);
#380=ORIENTED_EDGE('',*,*,#298,.T.);
#381=ORIENTED_EDGE('',*,*,#299,.T.);
#382=ORIENTED_EDGE('',*,*,#300,.T.);
#383=ORIENTED_EDGE('',*,*,#301,.T.);
#384=ORIENTED_EDGE('',*,*,#302,.T.);
#385=ORIENTED_EDGE('',*,*,#292,.T.);
#386=ORIENTED_EDGE('',*,*,#303,.T.);
#387=ORIENTED_EDGE('',*,*,#304,.T.);
#388=ORIENTED_EDGE('',*,*,#305,.T.);
#389=ORIENTED_EDGE('',*,*,#306,.T.);
#390=ORIENTED_EDGE('',*,*,#307,.T.);
#391=ORIENTED_EDGE('',*,*,#297,.T.);
#392=ORIENTED_EDGE('',*,*,#302,.F.);
#393=ORIENTED_EDGE('',*,*,#308,.F.);
#394=ORIENTED_EDGE('',*,*,#309,.T.);
#395=ORIENTED_EDGE('',*,*,#291,.T.);
#396=ORIENTED_EDGE('',*,*,#310,.T.);
#397=ORIENTED_EDGE('',*,*,#311,.T.);
#398=ORIENTED_EDGE('',*,*,#303,.F.);
#399=ORIENTED_EDGE('',*,*,#312,.T.);
#400=ORIENTED_EDGE('',*,*,#313,.T.);
#401=ORIENTED_EDGE('',*,*,#314,.T.);
#402=ORIENTED_EDGE('',*,*,#313,.F.);
#403=ORIENTED_EDGE('',*,*,#315,.F.);
#404=ORIENTED_EDGE('',*,*,#316,.T.);
#405=ORIENTED_EDGE('',*,*,#317,.T.);
#406=ORIENTED_EDGE('',*,*,#318,.T.);
#407=ORIENTED_EDGE('',*,*,#319,.F.);
#408=ORIENTED_EDGE('',*,*,#320,.T.);
#409=ORIENTED_EDGE('',*,*,#321,.T.);
#410=ORIENTED_EDGE('',*,*,#322,.T.);
#411=ORIENTED_EDGE('',*,*,#323,.F.);
#412=ORIENTED_EDGE('',*,*,#324,.T.);
#413=ORIENTED_EDGE('',*,*,#325,.T.);
#414=ORIENTED_EDGE('',*,*,#312,.F.);
#415=ORIENTED_EDGE('',*,*,#326,.F.);
#416=ORIENTED_EDGE('',*,*,#327,.T.);
#417=ORIENTED_EDGE('',*,*,#314,.F.);
#418=ORIENTED_EDGE('',*,*,#327,.F.);
#419=ORIENTED_EDGE('',*,*,#323,.T.);
#420=ORIENTED_EDGE('',*,*,#328,.T.);
#421=ORIENTED_EDGE('',*,*,#329,.T.);
#422=ORIENTED_EDGE('',*,*,#328,.F.);
#423=ORIENTED_EDGE('',*,*,#330,.F.);
#424=ORIENTED_EDGE('',*,*,#331,.T.);
#425=ORIENTED_EDGE('',*,*,#329,.F.);
#426=ORIENTED_EDGE('',*,*,#331,.F.);
#427=ORIENTED_EDGE('',*,*,#332,.F.);
#428=ORIENTED_EDGE('',*,*,#333,.T.);
#429=ORIENTED_EDGE('',*,*,#334,.T.);
#430=ORIENTED_EDGE('',*,*,#335,.T.);
#431=ORIENTED_EDGE('',*,*,#336,.T.);
#432=ORIENTED_EDGE('',*,*,#337,.F.);
#433=ORIENTED_EDGE('',*,*,#338,.T.);
#434=ORIENTED_EDGE('',*,*,#339,.T.);
#435=ORIENTED_EDGE('',*,*,#340,.T.);
#436=ORIENTED_EDGE('',*,*,#341,.T.);
#437=ORIENTED_EDGE('',*,*,#342,.F.);
#438=ORIENTED_EDGE('',*,*,#310,.F.);
#439=ORIENTED_EDGE('',*,*,#285,.F.);
#440=ORIENTED_EDGE('',*,*,#309,.F.);
#441=ORIENTED_EDGE('',*,*,#343,.F.);
#442=ORIENTED_EDGE('',*,*,#344,.T.);
#443=ORIENTED_EDGE('',*,*,#326,.T.);
#444=ORIENTED_EDGE('',*,*,#330,.T.);
#445=ORIENTED_EDGE('',*,*,#341,.F.);
#446=ORIENTED_EDGE('',*,*,#345,.T.);
#447=ORIENTED_EDGE('',*,*,#324,.F.);
#448=ORIENTED_EDGE('',*,*,#345,.F.);
#449=ORIENTED_EDGE('',*,*,#336,.F.);
#450=ORIENTED_EDGE('',*,*,#346,.T.);
#451=ORIENTED_EDGE('',*,*,#325,.F.);
#452=ORIENTED_EDGE('',*,*,#346,.F.);
#453=ORIENTED_EDGE('',*,*,#320,.F.);
#454=ORIENTED_EDGE('',*,*,#347,.T.);
#455=ORIENTED_EDGE('',*,*,#340,.F.);
#456=ORIENTED_EDGE('',*,*,#348,.F.);
#457=ORIENTED_EDGE('',*,*,#321,.F.);
#458=ORIENTED_EDGE('',*,*,#348,.T.);
#459=ORIENTED_EDGE('',*,*,#339,.F.);
#460=ORIENTED_EDGE('',*,*,#349,.F.);
#461=ORIENTED_EDGE('',*,*,#322,.F.);
#462=ORIENTED_EDGE('',*,*,#349,.T.);
#463=ORIENTED_EDGE('',*,*,#338,.F.);
#464=ORIENTED_EDGE('',*,*,#350,.F.);
#465=ORIENTED_EDGE('',*,*,#316,.F.);
#466=ORIENTED_EDGE('',*,*,#351,.T.);
#467=ORIENTED_EDGE('',*,*,#335,.F.);
#468=ORIENTED_EDGE('',*,*,#352,.F.);
#469=ORIENTED_EDGE('',*,*,#317,.F.);
#470=ORIENTED_EDGE('',*,*,#352,.T.);
#471=ORIENTED_EDGE('',*,*,#334,.F.);
#472=ORIENTED_EDGE('',*,*,#353,.F.);
#473=ORIENTED_EDGE('',*,*,#318,.F.);
#474=ORIENTED_EDGE('',*,*,#353,.T.);
#475=ORIENTED_EDGE('',*,*,#333,.F.);
#476=ORIENTED_EDGE('',*,*,#354,.F.);
#477=ORIENTED_EDGE('',*,*,#355,.T.);
#478=ORIENTED_EDGE('',*,*,#305,.F.);
#479=ORIENTED_EDGE('',*,*,#356,.F.);
#480=ORIENTED_EDGE('',*,*,#344,.F.);
#481=ORIENTED_EDGE('',*,*,#357,.T.);
#482=ORIENTED_EDGE('',*,*,#300,.F.);
#483=ORIENTED_EDGE('',*,*,#358,.F.);
#484=ORIENTED_EDGE('',*,*,#351,.F.);
#485=ORIENTED_EDGE('',*,*,#315,.T.);
#486=ORIENTED_EDGE('',*,*,#350,.T.);
#487=ORIENTED_EDGE('',*,*,#337,.T.);
#488=ORIENTED_EDGE('',*,*,#359,.T.);
#489=ORIENTED_EDGE('',*,*,#306,.F.);
#490=ORIENTED_EDGE('',*,*,#355,.F.);
#491=ORIENTED_EDGE('',*,*,#289,.T.);
#492=ORIENTED_EDGE('',*,*,#307,.F.);
#493=ORIENTED_EDGE('',*,*,#359,.F.);
#494=ORIENTED_EDGE('',*,*,#347,.F.);
#495=ORIENTED_EDGE('',*,*,#319,.T.);
#496=ORIENTED_EDGE('',*,*,#354,.T.);
#497=ORIENTED_EDGE('',*,*,#360,.T.);
#498=ORIENTED_EDGE('',*,*,#298,.F.);
#499=ORIENTED_EDGE('',*,*,#295,.T.);
#500=ORIENTED_EDGE('',*,*,#293,.T.);
#501=ORIENTED_EDGE('',*,*,#332,.T.);
#502=ORIENTED_EDGE('',*,*,#358,.T.);
#503=ORIENTED_EDGE('',*,*,#299,.F.);
#504=ORIENTED_EDGE('',*,*,#360,.F.);
#505=ORIENTED_EDGE('',*,*,#342,.T.);
#506=ORIENTED_EDGE('',*,*,#356,.T.);
#507=ORIENTED_EDGE('',*,*,#304,.F.);
#508=ORIENTED_EDGE('',*,*,#311,.F.);
#509=ORIENTED_EDGE('',*,*,#343,.T.);
#510=ORIENTED_EDGE('',*,*,#308,.T.);
#511=ORIENTED_EDGE('',*,*,#301,.F.);
#512=ORIENTED_EDGE('',*,*,#357,.F.);
#513=PLANE('',#588);
#514=PLANE('',#589);
#515=PLANE('',#590);
#516=PLANE('',#591);
#517=PLANE('',#592);
#518=PLANE('',#593);
#519=PLANE('',#594);
#520=PLANE('',#595);
#521=PLANE('',#599);
#522=PLANE('',#611);
#523=PLANE('',#614);
#524=PLANE('',#617);
#525=PLANE('',#620);
#526=PLANE('',#622);
#527=PLANE('',#623);
#528=PLANE('',#625);
#529=PLANE('',#626);
#530=PLANE('',#627);
#531=PLANE('',#628);
#532=PLANE('',#629);
#533=PLANE('',#630);
#534=PLANE('',#631);
#535=ADVANCED_FACE('',(#45),#513,.F.);
#536=ADVANCED_FACE('',(#46),#514,.F.);
#537=ADVANCED_FACE('',(#47),#515,.F.);
#538=ADVANCED_FACE('',(#48),#516,.F.);
#539=ADVANCED_FACE('',(#49),#517,.T.);
#540=ADVANCED_FACE('',(#50),#518,.T.);
#541=ADVANCED_FACE('',(#51),#519,.T.);
#542=ADVANCED_FACE('',(#52),#520,.T.);
#543=ADVANCED_FACE('',(#53),#43,.F.);
#544=ADVANCED_FACE('',(#54,#21,#22,#23,#24),#521,.F.);
#545=ADVANCED_FACE('',(#55),#15,.F.);
#546=ADVANCED_FACE('',(#56),#44,.F.);
#547=ADVANCED_FACE('',(#57),#16,.F.);
#548=ADVANCED_FACE('',(#58,#25),#522,.F.);
#549=ADVANCED_FACE('',(#59,#26),#523,.F.);
#550=ADVANCED_FACE('',(#60,#27,#28),#524,.F.);
#551=ADVANCED_FACE('',(#61),#17,.F.);
#552=ADVANCED_FACE('',(#62),#18,.F.);
#553=ADVANCED_FACE('',(#63),#525,.T.);
#554=ADVANCED_FACE('',(#64),#19,.T.);
#555=ADVANCED_FACE('',(#65),#526,.T.);
#556=ADVANCED_FACE('',(#66),#527,.T.);
#557=ADVANCED_FACE('',(#67),#20,.T.);
#558=ADVANCED_FACE('',(#68),#528,.T.);
#559=ADVANCED_FACE('',(#69),#529,.T.);
#560=ADVANCED_FACE('',(#70),#530,.T.);
#561=ADVANCED_FACE('',(#71),#531,.T.);
#562=ADVANCED_FACE('',(#72),#532,.T.);
#563=ADVANCED_FACE('',(#73),#533,.T.);
#564=ADVANCED_FACE('',(#74),#534,.T.);
#565=CLOSED_SHELL('',(#535,#536,#537,#538,#539,#540,#541,#542,#543,#544,
#545,#546,#547,#548,#549,#550,#551,#552,#553,#554,#555,#556,#557,#558,#559,
#560,#561,#562,#563,#564));
#566=DERIVED_UNIT_ELEMENT(#569,1.);
#567=DERIVED_UNIT_ELEMENT(#944,-3.);
#568=DIMENSIONAL_EXPONENTS(0.,1.,0.,0.,0.,0.,0.);
#569=(
CONVERSION_BASED_UNIT('gram',#571)
MASS_UNIT()
NAMED_UNIT(#568)
);
#570=(
MASS_UNIT()
NAMED_UNIT(*)
SI_UNIT(.KILO.,.GRAM.)
);
#571=MASS_MEASURE_WITH_UNIT(MASS_MEASURE(0.001),#570);
#572=DERIVED_UNIT((#566,#567));
#573=MEASURE_REPRESENTATION_ITEM('density measure',
POSITIVE_RATIO_MEASURE(1.),#572);
#574=PROPERTY_DEFINITION_REPRESENTATION(#579,#576);
#575=PROPERTY_DEFINITION_REPRESENTATION(#580,#577);
#576=REPRESENTATION('material name',(#578),#941);
#577=REPRESENTATION('density',(#573),#941);
#578=DESCRIPTIVE_REPRESENTATION_ITEM('\X2\04220438043F043E0432044B0435\X0\',
'\X2\04220438043F043E0432044B0435\X0\');
#579=PROPERTY_DEFINITION('material property','material name',#951);
#580=PROPERTY_DEFINITION('material property','density of part',#951);
#581=DATE_TIME_ROLE('creation_date');
#582=APPLIED_DATE_AND_TIME_ASSIGNMENT(#583,#581,(#951));
#583=DATE_AND_TIME(#584,#585);
#584=CALENDAR_DATE(2026,30,1);
#585=LOCAL_TIME(0,0,0.,#586);
#586=COORDINATED_UNIVERSAL_TIME_OFFSET(0,0,.BEHIND.);
#587=AXIS2_PLACEMENT_3D('placement',#784,#632,#633);
#588=AXIS2_PLACEMENT_3D('',#785,#634,#635);
#589=AXIS2_PLACEMENT_3D('',#794,#640,#641);
#590=AXIS2_PLACEMENT_3D('',#802,#646,#647);
#591=AXIS2_PLACEMENT_3D('',#806,#650,#651);
#592=AXIS2_PLACEMENT_3D('',#812,#655,#656);
#593=AXIS2_PLACEMENT_3D('',#822,#662,#663);
#594=AXIS2_PLACEMENT_3D('',#832,#669,#670);
#595=AXIS2_PLACEMENT_3D('',#836,#673,#674);
#596=AXIS2_PLACEMENT_3D('',#840,#677,#678);
#597=AXIS2_PLACEMENT_3D('',#842,#679,#680);
#598=AXIS2_PLACEMENT_3D('',#845,#682,#683);
#599=AXIS2_PLACEMENT_3D('',#846,#684,#685);
#600=AXIS2_PLACEMENT_3D('',#853,#688,#689);
#601=AXIS2_PLACEMENT_3D('',#861,#693,#694);
#602=AXIS2_PLACEMENT_3D('',#864,#696,#697);
#603=AXIS2_PLACEMENT_3D('',#866,#698,#699);
#604=AXIS2_PLACEMENT_3D('',#868,#700,#701);
#605=AXIS2_PLACEMENT_3D('',#869,#702,#703);
#606=AXIS2_PLACEMENT_3D('',#871,#704,#705);
#607=AXIS2_PLACEMENT_3D('',#873,#707,#708);
#608=AXIS2_PLACEMENT_3D('',#876,#710,#711);
#609=AXIS2_PLACEMENT_3D('',#877,#712,#713);
#610=AXIS2_PLACEMENT_3D('',#879,#714,#715);
#611=AXIS2_PLACEMENT_3D('',#881,#717,#718);
#612=AXIS2_PLACEMENT_3D('',#888,#721,#722);
#613=AXIS2_PLACEMENT_3D('',#891,#724,#725);
#614=AXIS2_PLACEMENT_3D('',#892,#726,#727);
#615=AXIS2_PLACEMENT_3D('',#899,#730,#731);
#616=AXIS2_PLACEMENT_3D('',#902,#733,#734);
#617=AXIS2_PLACEMENT_3D('',#903,#735,#736);
#618=AXIS2_PLACEMENT_3D('',#909,#740,#741);
#619=AXIS2_PLACEMENT_3D('',#911,#743,#744);
#620=AXIS2_PLACEMENT_3D('',#913,#746,#747);
#621=AXIS2_PLACEMENT_3D('',#916,#750,#751);
#622=AXIS2_PLACEMENT_3D('',#918,#753,#754);
#623=AXIS2_PLACEMENT_3D('',#920,#756,#757);
#624=AXIS2_PLACEMENT_3D('',#923,#760,#761);
#625=AXIS2_PLACEMENT_3D('',#925,#763,#764);
#626=AXIS2_PLACEMENT_3D('',#927,#766,#767);
#627=AXIS2_PLACEMENT_3D('',#932,#772,#773);
#628=AXIS2_PLACEMENT_3D('',#934,#775,#776);
#629=AXIS2_PLACEMENT_3D('',#936,#778,#779);
#630=AXIS2_PLACEMENT_3D('',#937,#780,#781);
#631=AXIS2_PLACEMENT_3D('',#938,#782,#783);
#632=DIRECTION('axis',(0.,0.,1.));
#633=DIRECTION('refdir',(1.,0.,0.));
#634=DIRECTION('center_axis',(-1.,0.,5.55111512312578E-16));
#635=DIRECTION('ref_axis',(5.55111512312578E-16,0.,1.));
#636=DIRECTION('',(0.,0.,1.));
#637=DIRECTION('',(0.,1.,0.));
#638=DIRECTION('',(4.40176529587066E-16,0.,1.));
#639=DIRECTION('',(1.66527407663327E-26,-1.,3.78319597865764E-11));
#640=DIRECTION('center_axis',(5.55111512312578E-16,0.,1.));
#641=DIRECTION('ref_axis',(0.,1.,0.));
#642=DIRECTION('',(0.,1.,0.));
#643=DIRECTION('',(-1.,0.,5.55111512312578E-16));
#644=DIRECTION('',(0.,-1.,0.));
#645=DIRECTION('',(-1.,0.,5.55111512312578E-16));
#646=DIRECTION('center_axis',(0.,-1.,0.));
#647=DIRECTION('ref_axis',(4.40176529587066E-16,0.,1.));
#648=DIRECTION('',(4.40176529587066E-16,0.,1.));
#649=DIRECTION('',(-1.,0.,5.55111512312578E-16));
#650=DIRECTION('center_axis',(-5.55111512312578E-16,-3.78319597865764E-11,
-1.));
#651=DIRECTION('ref_axis',(1.66527407663327E-26,-1.,3.78319597865764E-11));
#652=DIRECTION('',(1.66527407663327E-26,-1.,3.78319597865764E-11));
#653=DIRECTION('',(1.,0.,-5.55111512312578E-16));
#654=DIRECTION('',(0.,1.,-3.78319597865764E-11));
#655=DIRECTION('center_axis',(0.,1.,0.));
#656=DIRECTION('ref_axis',(0.,0.,1.));
#657=DIRECTION('',(-4.40176529587066E-16,0.,-1.));
#658=DIRECTION('',(-1.,0.,5.50523813863316E-16));
#659=DIRECTION('',(-7.40148683083451E-16,0.,1.));
#660=DIRECTION('',(1.,0.,0.));
#661=DIRECTION('',(0.,0.,1.));
#662=DIRECTION('center_axis',(0.,1.,0.));
#663=DIRECTION('ref_axis',(0.,0.,1.));
#664=DIRECTION('',(0.,0.,1.));
#665=DIRECTION('',(-1.,0.,0.));
#666=DIRECTION('',(8.88178419700122E-15,0.,1.));
#667=DIRECTION('',(1.,0.,-5.50523813863317E-16));
#668=DIRECTION('',(-4.40176529587066E-16,0.,-1.));
#669=DIRECTION('center_axis',(-1.,0.,0.));
#670=DIRECTION('ref_axis',(0.,0.,1.));
#671=DIRECTION('',(0.,1.,0.));
#672=DIRECTION('',(0.,0.,1.));
#673=DIRECTION('center_axis',(-1.,0.,0.));
#674=DIRECTION('ref_axis',(0.,0.,1.));
#675=DIRECTION('',(0.,0.,1.));
#676=DIRECTION('',(0.,1.,0.));
#677=DIRECTION('center_axis',(0.,-1.,0.));
#678=DIRECTION('ref_axis',(-1.,0.,0.));
#679=DIRECTION('center_axis',(0.,-1.,0.));
#680=DIRECTION('ref_axis',(-1.,0.,0.));
#681=DIRECTION('',(-0.707106781186547,0.707106781186548,-8.65956056235493E-17));
#682=DIRECTION('center_axis',(0.,1.,0.));
#683=DIRECTION('ref_axis',(-1.,0.,0.));
#684=DIRECTION('center_axis',(0.,1.,0.));
#685=DIRECTION('ref_axis',(0.,0.,1.));
#686=DIRECTION('',(-7.40148683083451E-16,0.,1.));
#687=DIRECTION('',(0.457334426005196,0.,-0.889294789589199));
#688=DIRECTION('center_axis',(0.,-1.,0.));
#689=DIRECTION('ref_axis',(1.,0.,0.));
#690=DIRECTION('',(0.642875812920627,0.,0.765970423163743));
#691=DIRECTION('',(-4.40176529587066E-16,0.,-1.));
#692=DIRECTION('',(-0.642875812920628,0.,0.765970423163741));
#693=DIRECTION('center_axis',(0.,-1.,0.));
#694=DIRECTION('ref_axis',(1.,0.,0.));
#695=DIRECTION('',(-0.457334426005195,0.,-0.889294789589199));
#696=DIRECTION('center_axis',(0.,-1.,0.));
#697=DIRECTION('ref_axis',(-1.,0.,0.));
#698=DIRECTION('center_axis',(0.,1.,0.));
#699=DIRECTION('ref_axis',(-1.,0.,0.));
#700=DIRECTION('center_axis',(0.,1.,0.));
#701=DIRECTION('ref_axis',(-1.,0.,0.));
#702=DIRECTION('center_axis',(0.,1.,0.));
#703=DIRECTION('ref_axis',(-1.,0.,0.));
#704=DIRECTION('center_axis',(0.,-1.,0.));
#705=DIRECTION('ref_axis',(-1.,0.,0.));
#706=DIRECTION('',(0.,-1.,0.));
#707=DIRECTION('center_axis',(0.,-1.,0.));
#708=DIRECTION('ref_axis',(-1.,0.,0.));
#709=DIRECTION('',(-0.707106781186548,0.707106781186548,-8.65956056235493E-17));
#710=DIRECTION('center_axis',(0.,1.,0.));
#711=DIRECTION('ref_axis',(-1.,0.,0.));
#712=DIRECTION('center_axis',(0.,1.,0.));
#713=DIRECTION('ref_axis',(-1.,0.,0.));
#714=DIRECTION('center_axis',(0.,-1.,0.));
#715=DIRECTION('ref_axis',(-1.,0.,0.));
#716=DIRECTION('',(0.,-1.,0.));
#717=DIRECTION('center_axis',(0.,-1.,0.));
#718=DIRECTION('ref_axis',(0.,0.,-1.));
#719=DIRECTION('',(-1.,0.,5.50523813863316E-16));
#720=DIRECTION('',(-0.642875812920627,0.,-0.765970423163743));
#721=DIRECTION('center_axis',(0.,1.,0.));
#722=DIRECTION('ref_axis',(1.,0.,0.));
#723=DIRECTION('',(-0.457334426005196,0.,0.889294789589199));
#724=DIRECTION('center_axis',(0.,-1.,0.));
#725=DIRECTION('ref_axis',(-1.,0.,0.));
#726=DIRECTION('center_axis',(0.,-1.,0.));
#727=DIRECTION('ref_axis',(0.,0.,-1.));
#728=DIRECTION('',(1.,0.,-5.50523813863317E-16));
#729=DIRECTION('',(0.457334426005195,0.,0.889294789589199));
#730=DIRECTION('center_axis',(0.,1.,0.));
#731=DIRECTION('ref_axis',(1.,0.,0.));
#732=DIRECTION('',(0.642875812920628,0.,-0.765970423163741));
#733=DIRECTION('center_axis',(0.,-1.,0.));
#734=DIRECTION('ref_axis',(-1.,0.,0.));
#735=DIRECTION('center_axis',(0.,-1.,0.));
#736=DIRECTION('ref_axis',(0.,0.,-1.));
#737=DIRECTION('',(-1.,0.,0.));
#738=DIRECTION('',(1.,0.,0.));
#739=DIRECTION('',(2.44542516437259E-16,0.,1.));
#740=DIRECTION('center_axis',(0.,1.,0.));
#741=DIRECTION('ref_axis',(-1.,0.,0.));
#742=DIRECTION('',(0.,-1.,0.));
#743=DIRECTION('center_axis',(0.,1.,0.));
#744=DIRECTION('ref_axis',(-1.,0.,0.));
#745=DIRECTION('',(0.,-1.,0.));
#746=DIRECTION('center_axis',(0.765970423163741,0.,0.642875812920628));
#747=DIRECTION('ref_axis',(0.642875812920628,0.,-0.765970423163741));
#748=DIRECTION('',(0.,1.,0.));
#749=DIRECTION('',(0.,1.,0.));
#750=DIRECTION('center_axis',(0.,1.,0.));
#751=DIRECTION('ref_axis',(1.,0.,0.));
#752=DIRECTION('',(0.,1.,0.));
#753=DIRECTION('center_axis',(-0.8892947895892,0.,0.457334426005195));
#754=DIRECTION('ref_axis',(0.457334426005195,0.,0.889294789589199));
#755=DIRECTION('',(0.,1.,0.));
#756=DIRECTION('center_axis',(-0.889294789589199,0.,-0.457334426005197));
#757=DIRECTION('ref_axis',(-0.457334426005196,0.,0.889294789589199));
#758=DIRECTION('',(0.,1.,0.));
#759=DIRECTION('',(0.,1.,0.));
#760=DIRECTION('center_axis',(0.,1.,0.));
#761=DIRECTION('ref_axis',(1.,0.,0.));
#762=DIRECTION('',(0.,1.,0.));
#763=DIRECTION('center_axis',(0.765970423163743,0.,-0.642875812920627));
#764=DIRECTION('ref_axis',(-0.642875812920627,0.,-0.765970423163743));
#765=DIRECTION('',(0.,1.,0.));
#766=DIRECTION('center_axis',(-1.,0.,8.88178419700122E-15));
#767=DIRECTION('ref_axis',(8.88178419700122E-15,0.,1.));
#768=DIRECTION('',(0.,1.,0.));
#769=DIRECTION('',(0.,1.,0.));
#770=DIRECTION('',(0.,1.,0.));
#771=DIRECTION('',(0.,1.,0.));
#772=DIRECTION('center_axis',(5.50523813863317E-16,0.,1.));
#773=DIRECTION('ref_axis',(1.,0.,-5.50523813863317E-16));
#774=DIRECTION('',(0.,1.,0.));
#775=DIRECTION('center_axis',(1.,0.,-4.40176529587066E-16));
#776=DIRECTION('ref_axis',(-4.40176529587066E-16,0.,-1.));
#777=DIRECTION('',(0.,1.,0.));
#778=DIRECTION('center_axis',(-5.50523813863316E-16,0.,-1.));
#779=DIRECTION('ref_axis',(-1.,0.,5.50523813863316E-16));
#780=DIRECTION('center_axis',(0.,0.,-1.));
#781=DIRECTION('ref_axis',(-1.,0.,0.));
#782=DIRECTION('center_axis',(0.,0.,1.));
#783=DIRECTION('ref_axis',(1.,0.,0.));
#784=CARTESIAN_POINT('',(0.,0.,0.));
#785=CARTESIAN_POINT('Origin',(5.05000000000874,5.99999999999272,-1.01862962509358E-11));
#786=CARTESIAN_POINT('',(5.05000000000873,3.,-9.34999999999999));
#787=CARTESIAN_POINT('',(5.05000000000874,3.,9.35000000001455));
#788=CARTESIAN_POINT('',(5.05,3.,-12.3875));
#789=CARTESIAN_POINT('',(5.05000000000874,1.99999999998545,9.35000000001455));
#790=CARTESIAN_POINT('',(5.05000000000874,10.,9.35000000001455));
#791=CARTESIAN_POINT('',(5.05000000000873,1.99999999998545,-9.34999999996216));
#792=CARTESIAN_POINT('',(5.05000000000874,1.99999999998545,9.35000000001455));
#793=CARTESIAN_POINT('',(5.05000000000873,1.99999999998545,-9.34999999996216));
#794=CARTESIAN_POINT('Origin',(7.05000000000874,1.99999999998545,9.35000000001455));
#795=CARTESIAN_POINT('',(7.05000000000874,1.99999999998545,9.35000000001455));
#796=CARTESIAN_POINT('',(7.05000000000874,10.,9.35000000001455));
#797=CARTESIAN_POINT('',(7.05000000000874,0.999999999992724,9.35000000001455));
#798=CARTESIAN_POINT('',(7.05000000000874,1.99999999998545,9.35000000001455));
#799=CARTESIAN_POINT('',(5.05000000000874,10.,9.35000000001455));
#800=CARTESIAN_POINT('',(5.05,0.999999999992724,9.35000000001455));
#801=CARTESIAN_POINT('',(4.02500000000656,10.,9.35000000001455));
#802=CARTESIAN_POINT('Origin',(7.05000000000873,1.99999999998545,-9.34999999996217));
#803=CARTESIAN_POINT('',(7.05000000000873,1.99999999998545,-9.34999999996217));
#804=CARTESIAN_POINT('',(7.05000000000874,1.99999999998545,1.00000000001892));
#805=CARTESIAN_POINT('',(7.05000000000873,1.99999999998545,-9.34999999996217));
#806=CARTESIAN_POINT('Origin',(7.05000000000873,10.,-9.35000000026482));
#807=CARTESIAN_POINT('',(7.05000000000873,10.,-9.35000000003492));
#808=CARTESIAN_POINT('',(7.05000000000873,4.99999999960844,-9.35000000007566));
#809=CARTESIAN_POINT('',(5.05000000000873,10.,-9.35000000003492));
#810=CARTESIAN_POINT('',(4.02500000000655,10.,-9.35000000026482));
#811=CARTESIAN_POINT('',(5.05,5.00000000000946,-9.35000000007566));
#812=CARTESIAN_POINT('Origin',(1.00000000000437,10.,2.22044604925031E-15));
#813=CARTESIAN_POINT('',(7.05000000000873,10.,-11.35));
#814=CARTESIAN_POINT('',(7.05000000000874,10.,11.35));
#815=CARTESIAN_POINT('',(-5.05000000000001,10.,-11.35));
#816=CARTESIAN_POINT('',(7.05000000000873,10.,-11.35));
#817=CARTESIAN_POINT('',(-5.05,10.,-9.85));
#818=CARTESIAN_POINT('',(-5.05000000000001,10.,-11.35));
#819=CARTESIAN_POINT('',(5.05,10.,-9.85));
#820=CARTESIAN_POINT('',(-5.05,10.,-9.85));
#821=CARTESIAN_POINT('',(5.05,10.,-9.85));
#822=CARTESIAN_POINT('Origin',(1.00000000000437,10.,2.22044604925031E-15));
#823=CARTESIAN_POINT('',(5.05,10.,9.85));
#824=CARTESIAN_POINT('',(5.05,10.,-9.85));
#825=CARTESIAN_POINT('',(-5.05,10.,9.85));
#826=CARTESIAN_POINT('',(5.05,10.,9.85));
#827=CARTESIAN_POINT('',(-5.04999999999999,10.,11.35));
#828=CARTESIAN_POINT('',(-5.05,10.,9.85));
#829=CARTESIAN_POINT('',(7.05000000000874,10.,11.35));
#830=CARTESIAN_POINT('',(-5.04999999999999,10.,11.35));
#831=CARTESIAN_POINT('',(7.05000000000874,10.,11.35));
#832=CARTESIAN_POINT('Origin',(5.05,0.,-9.85));
#833=CARTESIAN_POINT('',(5.05,3.,-9.85));
#834=CARTESIAN_POINT('',(5.05,0.,-9.85));
#835=CARTESIAN_POINT('',(5.05,3.,-12.3875));
#836=CARTESIAN_POINT('Origin',(5.05,0.,-9.85));
#837=CARTESIAN_POINT('',(5.05,3.,9.85));
#838=CARTESIAN_POINT('',(5.05,3.,-12.3875));
#839=CARTESIAN_POINT('',(5.05,0.,9.85));
#840=CARTESIAN_POINT('Origin',(2.55,0.75,4.75));
#841=CARTESIAN_POINT('',(5.35,0.,4.75));
#842=CARTESIAN_POINT('Origin',(2.55,0.,4.75));
#843=CARTESIAN_POINT('',(3.85,1.5,4.75));
#844=CARTESIAN_POINT('',(4.6,0.75,4.75));
#845=CARTESIAN_POINT('Origin',(2.55,1.5,4.75));
#846=CARTESIAN_POINT('Origin',(1.00000000000437,0.,1.11022302462516E-15));
#847=CARTESIAN_POINT('',(-5.05000000000001,0.,-11.35));
#848=CARTESIAN_POINT('',(-5.04999999999999,0.,11.35));
#849=CARTESIAN_POINT('',(-5.05000000000001,0.,-11.35));
#850=CARTESIAN_POINT('',(-2.0009132765757,0.,-17.2790024585117));
#851=CARTESIAN_POINT('',(-5.05000000000001,0.,-11.35));
#852=CARTESIAN_POINT('',(1.72343345211843,0.,-17.6964705790714));
#853=CARTESIAN_POINT('Origin',(1.99005104861445E-15,0.,-16.25));
#854=CARTESIAN_POINT('',(7.05000000000873,0.,-11.35));
#855=CARTESIAN_POINT('',(1.72343345211843,0.,-17.6964705790714));
#856=CARTESIAN_POINT('',(7.05000000000874,0.,11.35));
#857=CARTESIAN_POINT('',(7.05000000000874,0.,11.35));
#858=CARTESIAN_POINT('',(1.72343345211841,0.,17.6964705790714));
#859=CARTESIAN_POINT('',(7.05000000000874,0.,11.35));
#860=CARTESIAN_POINT('',(-2.00091327657571,0.,17.2790024585117));
#861=CARTESIAN_POINT('Origin',(-7.9602041944578E-15,0.,16.25));
#862=CARTESIAN_POINT('',(-2.00091327657571,0.,17.2790024585117));
#863=CARTESIAN_POINT('',(5.35,0.,-4.75));
#864=CARTESIAN_POINT('Origin',(2.55,0.,-4.75));
#865=CARTESIAN_POINT('',(1.59999999999999,0.,16.25));
#866=CARTESIAN_POINT('Origin',(-7.9602041944578E-15,0.,16.25));
#867=CARTESIAN_POINT('',(1.6,0.,-16.25));
#868=CARTESIAN_POINT('Origin',(1.99005104861445E-15,0.,-16.25));
#869=CARTESIAN_POINT('Origin',(2.55,0.,4.75));
#870=CARTESIAN_POINT('',(3.85,3.,4.75));
#871=CARTESIAN_POINT('Origin',(2.55,3.,4.75));
#872=CARTESIAN_POINT('',(3.85,0.,4.75));
#873=CARTESIAN_POINT('Origin',(2.55,0.75,-4.75));
#874=CARTESIAN_POINT('',(3.85,1.5,-4.75));
#875=CARTESIAN_POINT('',(4.6,0.75,-4.75));
#876=CARTESIAN_POINT('Origin',(2.55,1.5,-4.75));
#877=CARTESIAN_POINT('Origin',(2.55,0.,-4.75));
#878=CARTESIAN_POINT('',(3.85,3.,-4.75));
#879=CARTESIAN_POINT('Origin',(2.55,3.,-4.75));
#880=CARTESIAN_POINT('',(3.85,0.,-4.75));
#881=CARTESIAN_POINT('Origin',(1.00000000000436,3.,-14.925));
#882=CARTESIAN_POINT('',(7.05000000000873,3.,-11.35));
#883=CARTESIAN_POINT('',(-5.05000000000001,3.,-11.35));
#884=CARTESIAN_POINT('',(4.02500000000655,3.,-11.35));
#885=CARTESIAN_POINT('',(1.72343345211843,3.,-17.6964705790714));
#886=CARTESIAN_POINT('',(1.72343345211843,3.,-17.6964705790714));
#887=CARTESIAN_POINT('',(-2.0009132765757,3.,-17.2790024585117));
#888=CARTESIAN_POINT('Origin',(1.99005104861445E-15,3.,-16.25));
#889=CARTESIAN_POINT('',(-5.05000000000001,3.,-11.35));
#890=CARTESIAN_POINT('',(1.6,3.,-16.25));
#891=CARTESIAN_POINT('Origin',(1.99005104861445E-15,3.,-16.25));
#892=CARTESIAN_POINT('Origin',(1.00000000000436,3.,-14.925));
#893=CARTESIAN_POINT('',(-5.05,3.,11.35));
#894=CARTESIAN_POINT('',(7.05000000000874,3.,11.35));
#895=CARTESIAN_POINT('',(-2.02499999999781,3.,11.35));
#896=CARTESIAN_POINT('',(-2.00091327657571,3.,17.2790024585117));
#897=CARTESIAN_POINT('',(-2.00091327657571,3.,17.2790024585117));
#898=CARTESIAN_POINT('',(1.72343345211841,3.,17.6964705790714));
#899=CARTESIAN_POINT('Origin',(-7.9602041944578E-15,3.,16.25));
#900=CARTESIAN_POINT('',(7.05000000000874,3.,11.35));
#901=CARTESIAN_POINT('',(1.59999999999999,3.,16.25));
#902=CARTESIAN_POINT('Origin',(-7.9602041944578E-15,3.,16.25));
#903=CARTESIAN_POINT('Origin',(1.00000000000436,3.,-14.925));
#904=CARTESIAN_POINT('',(-5.05,3.,9.85));
#905=CARTESIAN_POINT('',(3.02500000000218,3.,9.85));
#906=CARTESIAN_POINT('',(-5.05000000000001,3.,-9.85));
#907=CARTESIAN_POINT('',(-2.02499999999782,3.,-9.85));
#908=CARTESIAN_POINT('',(-5.05,3.,11.35));
#909=CARTESIAN_POINT('Origin',(-7.9602041944578E-15,0.,16.25));
#910=CARTESIAN_POINT('',(1.59999999999999,0.,16.25));
#911=CARTESIAN_POINT('Origin',(1.99005104861445E-15,0.,-16.25));
#912=CARTESIAN_POINT('',(1.6,0.,-16.25));
#913=CARTESIAN_POINT('Origin',(1.72343345211841,0.,17.6964705790714));
#914=CARTESIAN_POINT('',(7.05000000000874,0.,11.35));
#915=CARTESIAN_POINT('',(1.72343345211841,0.,17.6964705790714));
#916=CARTESIAN_POINT('Origin',(-7.9602041944578E-15,0.,16.25));
#917=CARTESIAN_POINT('',(-2.00091327657571,0.,17.2790024585117));
#918=CARTESIAN_POINT('Origin',(-5.05,0.,11.35));
#919=CARTESIAN_POINT('',(-5.04999999999999,0.,11.35));
#920=CARTESIAN_POINT('Origin',(-2.0009132765757,0.,-17.2790024585117));
#921=CARTESIAN_POINT('',(-5.05000000000001,0.,-11.35));
#922=CARTESIAN_POINT('',(-2.0009132765757,0.,-17.2790024585117));
#923=CARTESIAN_POINT('Origin',(1.99005104861445E-15,0.,-16.25));
#924=CARTESIAN_POINT('',(1.72343345211843,0.,-17.6964705790714));
#925=CARTESIAN_POINT('Origin',(7.05000000000873,0.,-11.35));
#926=CARTESIAN_POINT('',(7.05000000000873,0.,-11.35));
#927=CARTESIAN_POINT('Origin',(-5.05,0.,9.85));
#928=CARTESIAN_POINT('',(-5.04999999999999,0.,11.35));
#929=CARTESIAN_POINT('',(-5.05,0.,9.85));
#930=CARTESIAN_POINT('',(-5.05,0.,-9.85));
#931=CARTESIAN_POINT('',(-5.05000000000001,0.,-11.35));
#932=CARTESIAN_POINT('Origin',(-5.04999999999999,0.,11.35));
#933=CARTESIAN_POINT('',(7.05000000000874,0.,11.35));
#934=CARTESIAN_POINT('Origin',(7.05000000000874,0.,11.35));
#935=CARTESIAN_POINT('',(7.05000000000873,0.,-11.35));
#936=CARTESIAN_POINT('Origin',(7.05000000000873,0.,-11.35));
#937=CARTESIAN_POINT('Origin',(5.05,0.,9.85));
#938=CARTESIAN_POINT('Origin',(-5.05,0.,-9.85));
#939=UNCERTAINTY_MEASURE_WITH_UNIT(LENGTH_MEASURE(0.01),#943,
'DISTANCE_ACCURACY_VALUE',
'Maximum model space distance between geometric entities at asserted c
onnectivities');
#940=UNCERTAINTY_MEASURE_WITH_UNIT(LENGTH_MEASURE(0.01),#943,
'DISTANCE_ACCURACY_VALUE',
'Maximum model space distance between geometric entities at asserted c
onnectivities');
#941=(
GEOMETRIC_REPRESENTATION_CONTEXT(3)
GLOBAL_UNCERTAINTY_ASSIGNED_CONTEXT((#939))
GLOBAL_UNIT_ASSIGNED_CONTEXT((#943,#945,#946))
REPRESENTATION_CONTEXT('','3D')
);
#942=(
GEOMETRIC_REPRESENTATION_CONTEXT(3)
GLOBAL_UNCERTAINTY_ASSIGNED_CONTEXT((#940))
GLOBAL_UNIT_ASSIGNED_CONTEXT((#943,#945,#946))
REPRESENTATION_CONTEXT('','3D')
);
#943=(
LENGTH_UNIT()
NAMED_UNIT(*)
SI_UNIT(.MILLI.,.METRE.)
);
#944=(
LENGTH_UNIT()
NAMED_UNIT(*)
SI_UNIT(.CENTI.,.METRE.)
);
#945=(
NAMED_UNIT(*)
PLANE_ANGLE_UNIT()
SI_UNIT($,.RADIAN.)
);
#946=(
NAMED_UNIT(*)
SI_UNIT($,.STERADIAN.)
SOLID_ANGLE_UNIT()
);
#947=SHAPE_DEFINITION_REPRESENTATION(#948,#949);
#948=PRODUCT_DEFINITION_SHAPE('',$,#951);
#949=SHAPE_REPRESENTATION('',(#587),#941);
#950=PRODUCT_DEFINITION_CONTEXT('part definition',#955,'design');
#951=PRODUCT_DEFINITION('\X2\043A04400435043F\X0\_\X2\043A043E043D0446043504320438043A0430\X0\',
'\X2\043A04400435043F\X0\_\X2\043A043E043D0446043504320438043A0430\X0\',
#952,#950);
#952=PRODUCT_DEFINITION_FORMATION('',$,#957);
#953=PRODUCT_RELATED_PRODUCT_CATEGORY('\X2\043A04400435043F\X0\_\X2\043A043E043D0446043504320438043A0430\X0\',
'\X2\043A04400435043F\X0\_\X2\043A043E043D0446043504320438043A0430\X0\',
(#957));
#954=APPLICATION_PROTOCOL_DEFINITION('international standard',
'automotive_design',2009,#955);
#955=APPLICATION_CONTEXT(
'Core Data for Automotive Mechanical Design Process');
#956=PRODUCT_CONTEXT('part definition',#955,'mechanical');
#957=PRODUCT('\X2\043A04400435043F\X0\_\X2\043A043E043D0446043504320438043A0430\X0\',
'\X2\043A04400435043F\X0\_\X2\043A043E043D0446043504320438043A0430\X0\',
$,(#956));
#958=PRESENTATION_STYLE_ASSIGNMENT((#959));
#959=SURFACE_STYLE_USAGE(.BOTH.,#962);
#960=SURFACE_STYLE_RENDERING_WITH_PROPERTIES($,#966,(#961));
#961=SURFACE_STYLE_TRANSPARENT(0.);
#962=SURFACE_SIDE_STYLE('',(#963,#960));
#963=SURFACE_STYLE_FILL_AREA(#964);
#964=FILL_AREA_STYLE('',(#965));
#965=FILL_AREA_STYLE_COLOUR('',#966);
#966=COLOUR_RGB('',0.32156862745098,0.411764705882353,0.168627450980392);
ENDSEC;
END-ISO-10303-21;
