ISO-10303-21;
HEADER;
/* Generated by software containing ST-Developer
 * from STEP Tools, Inc. (www.steptools.com) 
 */

FILE_DESCRIPTION(
/* description */ (''),
/* implementation_level */ '2;1');

FILE_NAME(
/* name */ '',
/* time_stamp */ '2026-02-02T15:19:03+03:00',
/* author */ ('DELL'),
/* organization */ (''),
/* preprocessor_version */ 'ST-DEVELOPER v19.2',
/* originating_system */ 'Autodesk Inventor 2023',
/* authorisation */ '');

FILE_SCHEMA (('AUTOMOTIVE_DESIGN { 1 0 10303 214 3 1 1 }'));
ENDSEC;

DATA;
#10=MECHANICAL_DESIGN_GEOMETRIC_PRESENTATION_REPRESENTATION('',(#13),#623);
#11=SHAPE_REPRESENTATION_RELATIONSHIP('SRR','None',#630,#12);
#12=ADVANCED_BREP_SHAPE_REPRESENTATION('',(#14),#622);
#13=STYLED_ITEM('',(#639),#14);
#14=MANIFOLD_SOLID_BREP('\X2\04220432043504400434043E0435\X0\ \X2\04420435043B043E\X0\1',
#365);
#15=CYLINDRICAL_SURFACE('',#396,2.5);
#16=CYLINDRICAL_SURFACE('',#403,1.6);
#17=CYLINDRICAL_SURFACE('',#404,1.6);
#18=CYLINDRICAL_SURFACE('',#406,3.5);
#19=CONICAL_SURFACE('',#392,3.,0.785398163397448);
#20=CONICAL_SURFACE('',#401,2.425,0.785398163397448);
#21=FACE_BOUND('',#47,.T.);
#22=FACE_BOUND('',#48,.T.);
#23=FACE_BOUND('',#52,.T.);
#24=FACE_BOUND('',#54,.T.);
#25=FACE_BOUND('',#62,.T.);
#26=FACE_OUTER_BOUND('',#46,.T.);
#27=FACE_OUTER_BOUND('',#49,.T.);
#28=FACE_OUTER_BOUND('',#50,.T.);
#29=FACE_OUTER_BOUND('',#51,.T.);
#30=FACE_OUTER_BOUND('',#53,.T.);
#31=FACE_OUTER_BOUND('',#55,.T.);
#32=FACE_OUTER_BOUND('',#56,.T.);
#33=FACE_OUTER_BOUND('',#57,.T.);
#34=FACE_OUTER_BOUND('',#58,.T.);
#35=FACE_OUTER_BOUND('',#59,.T.);
#36=FACE_OUTER_BOUND('',#60,.T.);
#37=FACE_OUTER_BOUND('',#61,.T.);
#38=FACE_OUTER_BOUND('',#63,.T.);
#39=FACE_OUTER_BOUND('',#64,.T.);
#40=FACE_OUTER_BOUND('',#65,.T.);
#41=FACE_OUTER_BOUND('',#66,.T.);
#42=FACE_OUTER_BOUND('',#67,.T.);
#43=FACE_OUTER_BOUND('',#68,.T.);
#44=FACE_OUTER_BOUND('',#69,.T.);
#45=FACE_OUTER_BOUND('',#70,.T.);
#46=EDGE_LOOP('',(#235,#236,#237,#238,#239,#240));
#47=EDGE_LOOP('',(#241));
#48=EDGE_LOOP('',(#242));
#49=EDGE_LOOP('',(#243,#244,#245,#246,#247));
#50=EDGE_LOOP('',(#248,#249,#250,#251,#252));
#51=EDGE_LOOP('',(#253,#254,#255,#256));
#52=EDGE_LOOP('',(#257));
#53=EDGE_LOOP('',(#258));
#54=EDGE_LOOP('',(#259));
#55=EDGE_LOOP('',(#260,#261,#262,#263));
#56=EDGE_LOOP('',(#264,#265,#266,#267));
#57=EDGE_LOOP('',(#268,#269,#270,#271));
#58=EDGE_LOOP('',(#272,#273,#274,#275));
#59=EDGE_LOOP('',(#276,#277,#278,#279));
#60=EDGE_LOOP('',(#280,#281,#282,#283));
#61=EDGE_LOOP('',(#284,#285,#286,#287));
#62=EDGE_LOOP('',(#288));
#63=EDGE_LOOP('',(#289,#290,#291,#292,#293,#294,#295,#296));
#64=EDGE_LOOP('',(#297,#298,#299,#300,#301,#302,#303,#304));
#65=EDGE_LOOP('',(#305,#306,#307,#308));
#66=EDGE_LOOP('',(#309,#310,#311,#312));
#67=EDGE_LOOP('',(#313,#314,#315,#316));
#68=EDGE_LOOP('',(#317,#318,#319,#320,#321));
#69=EDGE_LOOP('',(#322,#323,#324,#325,#326));
#70=EDGE_LOOP('',(#327,#328,#329,#330));
#71=CIRCLE('',#389,3.5);
#72=CIRCLE('',#390,3.25);
#73=CIRCLE('',#391,1.6);
#74=CIRCLE('',#393,3.5);
#75=CIRCLE('',#394,2.5);
#76=CIRCLE('',#395,2.5);
#77=CIRCLE('',#397,2.5);
#78=CIRCLE('',#400,1.6);
#79=CIRCLE('',#402,1.6);
#80=CIRCLE('',#405,1.6);
#81=CIRCLE('',#407,3.5);
#82=LINE('',#524,#119);
#83=LINE('',#526,#120);
#84=LINE('',#528,#121);
#85=LINE('',#532,#122);
#86=LINE('',#533,#123);
#87=LINE('',#542,#124);
#88=LINE('',#549,#125);
#89=LINE('',#553,#126);
#90=LINE('',#555,#127);
#91=LINE('',#557,#128);
#92=LINE('',#558,#129);
#93=LINE('',#564,#130);
#94=LINE('',#567,#131);
#95=LINE('',#571,#132);
#96=LINE('',#574,#133);
#97=LINE('',#577,#134);
#98=LINE('',#580,#135);
#99=LINE('',#581,#136);
#100=LINE('',#584,#137);
#101=LINE('',#585,#138);
#102=LINE('',#587,#139);
#103=LINE('',#590,#140);
#104=LINE('',#592,#141);
#105=LINE('',#593,#142);
#106=LINE('',#595,#143);
#107=LINE('',#597,#144);
#108=LINE('',#598,#145);
#109=LINE('',#601,#146);
#110=LINE('',#603,#147);
#111=LINE('',#604,#148);
#112=LINE('',#606,#149);
#113=LINE('',#608,#150);
#114=LINE('',#609,#151);
#115=LINE('',#611,#152);
#116=LINE('',#613,#153);
#117=LINE('',#616,#154);
#118=LINE('',#618,#155);
#119=VECTOR('',#423,10.);
#120=VECTOR('',#424,10.);
#121=VECTOR('',#425,10.);
#122=VECTOR('',#428,10.);
#123=VECTOR('',#429,10.);
#124=VECTOR('',#438,3.);
#125=VECTOR('',#447,2.5);
#126=VECTOR('',#450,10.);
#127=VECTOR('',#451,10.);
#128=VECTOR('',#452,10.);
#129=VECTOR('',#453,10.);
#130=VECTOR('',#460,2.425);
#131=VECTOR('',#465,1.6);
#132=VECTOR('',#470,1.6);
#133=VECTOR('',#473,10.);
#134=VECTOR('',#476,10.);
#135=VECTOR('',#479,10.);
#136=VECTOR('',#480,10.);
#137=VECTOR('',#483,10.);
#138=VECTOR('',#484,10.);
#139=VECTOR('',#487,10.);
#140=VECTOR('',#490,10.);
#141=VECTOR('',#491,10.);
#142=VECTOR('',#492,10.);
#143=VECTOR('',#493,10.);
#144=VECTOR('',#494,10.);
#145=VECTOR('',#495,10.);
#146=VECTOR('',#498,10.);
#147=VECTOR('',#499,10.);
#148=VECTOR('',#500,10.);
#149=VECTOR('',#501,10.);
#150=VECTOR('',#502,10.);
#151=VECTOR('',#503,10.);
#152=VECTOR('',#506,10.);
#153=VECTOR('',#509,10.);
#154=VECTOR('',#514,10.);
#155=VECTOR('',#517,10.);
#156=VERTEX_POINT('',#522);
#157=VERTEX_POINT('',#523);
#158=VERTEX_POINT('',#525);
#159=VERTEX_POINT('',#527);
#160=VERTEX_POINT('',#529);
#161=VERTEX_POINT('',#531);
#162=VERTEX_POINT('',#534);
#163=VERTEX_POINT('',#536);
#164=VERTEX_POINT('',#539);
#165=VERTEX_POINT('',#541);
#166=VERTEX_POINT('',#543);
#167=VERTEX_POINT('',#547);
#168=VERTEX_POINT('',#551);
#169=VERTEX_POINT('',#552);
#170=VERTEX_POINT('',#554);
#171=VERTEX_POINT('',#556);
#172=VERTEX_POINT('',#560);
#173=VERTEX_POINT('',#563);
#174=VERTEX_POINT('',#569);
#175=VERTEX_POINT('',#573);
#176=VERTEX_POINT('',#575);
#177=VERTEX_POINT('',#579);
#178=VERTEX_POINT('',#583);
#179=VERTEX_POINT('',#589);
#180=VERTEX_POINT('',#591);
#181=VERTEX_POINT('',#594);
#182=VERTEX_POINT('',#596);
#183=VERTEX_POINT('',#600);
#184=VERTEX_POINT('',#602);
#185=VERTEX_POINT('',#605);
#186=VERTEX_POINT('',#607);
#187=EDGE_CURVE('',#156,#157,#82,.T.);
#188=EDGE_CURVE('',#157,#158,#83,.T.);
#189=EDGE_CURVE('',#158,#159,#84,.T.);
#190=EDGE_CURVE('',#159,#160,#71,.T.);
#191=EDGE_CURVE('',#160,#161,#85,.T.);
#192=EDGE_CURVE('',#161,#156,#86,.T.);
#193=EDGE_CURVE('',#162,#162,#72,.T.);
#194=EDGE_CURVE('',#163,#163,#73,.T.);
#195=EDGE_CURVE('',#164,#164,#74,.T.);
#196=EDGE_CURVE('',#164,#165,#87,.T.);
#197=EDGE_CURVE('',#165,#166,#75,.T.);
#198=EDGE_CURVE('',#166,#165,#76,.T.);
#199=EDGE_CURVE('',#167,#167,#77,.T.);
#200=EDGE_CURVE('',#167,#166,#88,.T.);
#201=EDGE_CURVE('',#168,#169,#89,.T.);
#202=EDGE_CURVE('',#169,#170,#90,.T.);
#203=EDGE_CURVE('',#170,#171,#91,.T.);
#204=EDGE_CURVE('',#171,#168,#92,.T.);
#205=EDGE_CURVE('',#172,#172,#78,.T.);
#206=EDGE_CURVE('',#162,#173,#93,.T.);
#207=EDGE_CURVE('',#173,#173,#79,.T.);
#208=EDGE_CURVE('',#172,#173,#94,.T.);
#209=EDGE_CURVE('',#174,#174,#80,.T.);
#210=EDGE_CURVE('',#174,#163,#95,.T.);
#211=EDGE_CURVE('',#159,#175,#96,.T.);
#212=EDGE_CURVE('',#176,#175,#81,.T.);
#213=EDGE_CURVE('',#160,#176,#97,.T.);
#214=EDGE_CURVE('',#177,#176,#98,.T.);
#215=EDGE_CURVE('',#177,#161,#99,.T.);
#216=EDGE_CURVE('',#178,#158,#100,.T.);
#217=EDGE_CURVE('',#175,#178,#101,.T.);
#218=EDGE_CURVE('',#177,#178,#102,.T.);
#219=EDGE_CURVE('',#179,#156,#103,.T.);
#220=EDGE_CURVE('',#179,#180,#104,.T.);
#221=EDGE_CURVE('',#180,#169,#105,.T.);
#222=EDGE_CURVE('',#168,#181,#106,.T.);
#223=EDGE_CURVE('',#181,#182,#107,.T.);
#224=EDGE_CURVE('',#182,#157,#108,.T.);
#225=EDGE_CURVE('',#181,#183,#109,.T.);
#226=EDGE_CURVE('',#184,#183,#110,.T.);
#227=EDGE_CURVE('',#184,#180,#111,.T.);
#228=EDGE_CURVE('',#185,#179,#112,.T.);
#229=EDGE_CURVE('',#186,#185,#113,.T.);
#230=EDGE_CURVE('',#182,#186,#114,.T.);
#231=EDGE_CURVE('',#183,#171,#115,.T.);
#232=EDGE_CURVE('',#184,#170,#116,.T.);
#233=EDGE_CURVE('',#186,#178,#117,.T.);
#234=EDGE_CURVE('',#185,#177,#118,.T.);
#235=ORIENTED_EDGE('',*,*,#187,.T.);
#236=ORIENTED_EDGE('',*,*,#188,.T.);
#237=ORIENTED_EDGE('',*,*,#189,.T.);
#238=ORIENTED_EDGE('',*,*,#190,.T.);
#239=ORIENTED_EDGE('',*,*,#191,.T.);
#240=ORIENTED_EDGE('',*,*,#192,.T.);
#241=ORIENTED_EDGE('',*,*,#193,.F.);
#242=ORIENTED_EDGE('',*,*,#194,.T.);
#243=ORIENTED_EDGE('',*,*,#195,.T.);
#244=ORIENTED_EDGE('',*,*,#196,.T.);
#245=ORIENTED_EDGE('',*,*,#197,.T.);
#246=ORIENTED_EDGE('',*,*,#198,.T.);
#247=ORIENTED_EDGE('',*,*,#196,.F.);
#248=ORIENTED_EDGE('',*,*,#199,.F.);
#249=ORIENTED_EDGE('',*,*,#200,.T.);
#250=ORIENTED_EDGE('',*,*,#197,.F.);
#251=ORIENTED_EDGE('',*,*,#198,.F.);
#252=ORIENTED_EDGE('',*,*,#200,.F.);
#253=ORIENTED_EDGE('',*,*,#201,.T.);
#254=ORIENTED_EDGE('',*,*,#202,.T.);
#255=ORIENTED_EDGE('',*,*,#203,.T.);
#256=ORIENTED_EDGE('',*,*,#204,.T.);
#257=ORIENTED_EDGE('',*,*,#195,.F.);
#258=ORIENTED_EDGE('',*,*,#199,.T.);
#259=ORIENTED_EDGE('',*,*,#205,.T.);
#260=ORIENTED_EDGE('',*,*,#193,.T.);
#261=ORIENTED_EDGE('',*,*,#206,.T.);
#262=ORIENTED_EDGE('',*,*,#207,.T.);
#263=ORIENTED_EDGE('',*,*,#206,.F.);
#264=ORIENTED_EDGE('',*,*,#205,.F.);
#265=ORIENTED_EDGE('',*,*,#208,.T.);
#266=ORIENTED_EDGE('',*,*,#207,.F.);
#267=ORIENTED_EDGE('',*,*,#208,.F.);
#268=ORIENTED_EDGE('',*,*,#209,.F.);
#269=ORIENTED_EDGE('',*,*,#210,.T.);
#270=ORIENTED_EDGE('',*,*,#194,.F.);
#271=ORIENTED_EDGE('',*,*,#210,.F.);
#272=ORIENTED_EDGE('',*,*,#190,.F.);
#273=ORIENTED_EDGE('',*,*,#211,.T.);
#274=ORIENTED_EDGE('',*,*,#212,.F.);
#275=ORIENTED_EDGE('',*,*,#213,.F.);
#276=ORIENTED_EDGE('',*,*,#191,.F.);
#277=ORIENTED_EDGE('',*,*,#213,.T.);
#278=ORIENTED_EDGE('',*,*,#214,.F.);
#279=ORIENTED_EDGE('',*,*,#215,.T.);
#280=ORIENTED_EDGE('',*,*,#189,.F.);
#281=ORIENTED_EDGE('',*,*,#216,.F.);
#282=ORIENTED_EDGE('',*,*,#217,.F.);
#283=ORIENTED_EDGE('',*,*,#211,.F.);
#284=ORIENTED_EDGE('',*,*,#217,.T.);
#285=ORIENTED_EDGE('',*,*,#218,.F.);
#286=ORIENTED_EDGE('',*,*,#214,.T.);
#287=ORIENTED_EDGE('',*,*,#212,.T.);
#288=ORIENTED_EDGE('',*,*,#209,.T.);
#289=ORIENTED_EDGE('',*,*,#219,.F.);
#290=ORIENTED_EDGE('',*,*,#220,.T.);
#291=ORIENTED_EDGE('',*,*,#221,.T.);
#292=ORIENTED_EDGE('',*,*,#201,.F.);
#293=ORIENTED_EDGE('',*,*,#222,.T.);
#294=ORIENTED_EDGE('',*,*,#223,.T.);
#295=ORIENTED_EDGE('',*,*,#224,.T.);
#296=ORIENTED_EDGE('',*,*,#187,.F.);
#297=ORIENTED_EDGE('',*,*,#225,.T.);
#298=ORIENTED_EDGE('',*,*,#226,.F.);
#299=ORIENTED_EDGE('',*,*,#227,.T.);
#300=ORIENTED_EDGE('',*,*,#220,.F.);
#301=ORIENTED_EDGE('',*,*,#228,.F.);
#302=ORIENTED_EDGE('',*,*,#229,.F.);
#303=ORIENTED_EDGE('',*,*,#230,.F.);
#304=ORIENTED_EDGE('',*,*,#223,.F.);
#305=ORIENTED_EDGE('',*,*,#204,.F.);
#306=ORIENTED_EDGE('',*,*,#231,.F.);
#307=ORIENTED_EDGE('',*,*,#225,.F.);
#308=ORIENTED_EDGE('',*,*,#222,.F.);
#309=ORIENTED_EDGE('',*,*,#226,.T.);
#310=ORIENTED_EDGE('',*,*,#231,.T.);
#311=ORIENTED_EDGE('',*,*,#203,.F.);
#312=ORIENTED_EDGE('',*,*,#232,.F.);
#313=ORIENTED_EDGE('',*,*,#227,.F.);
#314=ORIENTED_EDGE('',*,*,#232,.T.);
#315=ORIENTED_EDGE('',*,*,#202,.F.);
#316=ORIENTED_EDGE('',*,*,#221,.F.);
#317=ORIENTED_EDGE('',*,*,#230,.T.);
#318=ORIENTED_EDGE('',*,*,#233,.T.);
#319=ORIENTED_EDGE('',*,*,#216,.T.);
#320=ORIENTED_EDGE('',*,*,#188,.F.);
#321=ORIENTED_EDGE('',*,*,#224,.F.);
#322=ORIENTED_EDGE('',*,*,#228,.T.);
#323=ORIENTED_EDGE('',*,*,#219,.T.);
#324=ORIENTED_EDGE('',*,*,#192,.F.);
#325=ORIENTED_EDGE('',*,*,#215,.F.);
#326=ORIENTED_EDGE('',*,*,#234,.F.);
#327=ORIENTED_EDGE('',*,*,#218,.T.);
#328=ORIENTED_EDGE('',*,*,#233,.F.);
#329=ORIENTED_EDGE('',*,*,#229,.T.);
#330=ORIENTED_EDGE('',*,*,#234,.T.);
#331=PLANE('',#388);
#332=PLANE('',#398);
#333=PLANE('',#399);
#334=PLANE('',#408);
#335=PLANE('',#409);
#336=PLANE('',#410);
#337=PLANE('',#411);
#338=PLANE('',#412);
#339=PLANE('',#413);
#340=PLANE('',#414);
#341=PLANE('',#415);
#342=PLANE('',#416);
#343=PLANE('',#417);
#344=PLANE('',#418);
#345=ADVANCED_FACE('',(#26,#21,#22),#331,.T.);
#346=ADVANCED_FACE('',(#27),#19,.T.);
#347=ADVANCED_FACE('',(#28),#15,.T.);
#348=ADVANCED_FACE('',(#29,#23),#332,.F.);
#349=ADVANCED_FACE('',(#30,#24),#333,.T.);
#350=ADVANCED_FACE('',(#31),#20,.F.);
#351=ADVANCED_FACE('',(#32),#16,.F.);
#352=ADVANCED_FACE('',(#33),#17,.F.);
#353=ADVANCED_FACE('',(#34),#18,.T.);
#354=ADVANCED_FACE('',(#35),#334,.T.);
#355=ADVANCED_FACE('',(#36),#335,.T.);
#356=ADVANCED_FACE('',(#37,#25),#336,.F.);
#357=ADVANCED_FACE('',(#38),#337,.T.);
#358=ADVANCED_FACE('',(#39),#338,.F.);
#359=ADVANCED_FACE('',(#40),#339,.T.);
#360=ADVANCED_FACE('',(#41),#340,.T.);
#361=ADVANCED_FACE('',(#42),#341,.T.);
#362=ADVANCED_FACE('',(#43),#342,.T.);
#363=ADVANCED_FACE('',(#44),#343,.T.);
#364=ADVANCED_FACE('',(#45),#344,.T.);
#365=CLOSED_SHELL('',(#345,#346,#347,#348,#349,#350,#351,#352,#353,#354,
#355,#356,#357,#358,#359,#360,#361,#362,#363,#364));
#366=DERIVED_UNIT_ELEMENT(#369,1.);
#367=DERIVED_UNIT_ELEMENT(#625,-3.);
#368=DIMENSIONAL_EXPONENTS(0.,1.,0.,0.,0.,0.,0.);
#369=(
CONVERSION_BASED_UNIT('gram',#371)
MASS_UNIT()
NAMED_UNIT(#368)
);
#370=(
MASS_UNIT()
NAMED_UNIT(*)
SI_UNIT(.KILO.,.GRAM.)
);
#371=MASS_MEASURE_WITH_UNIT(MASS_MEASURE(0.001),#370);
#372=DERIVED_UNIT((#366,#367));
#373=MEASURE_REPRESENTATION_ITEM('density measure',
POSITIVE_RATIO_MEASURE(0.899),#372);
#374=PROPERTY_DEFINITION_REPRESENTATION(#379,#376);
#375=PROPERTY_DEFINITION_REPRESENTATION(#380,#377);
#376=REPRESENTATION('material name',(#378),#622);
#377=REPRESENTATION('density',(#373),#622);
#378=DESCRIPTIVE_REPRESENTATION_ITEM('\X2\041F043E043B0438043F0440043E043F0438043B0435043D\X0\',
'\X2\041F043E043B0438043F0440043E043F0438043B0435043D\X0\');
#379=PROPERTY_DEFINITION('material property','material name',#632);
#380=PROPERTY_DEFINITION('material property','density of part',#632);
#381=DATE_TIME_ROLE('creation_date');
#382=APPLIED_DATE_AND_TIME_ASSIGNMENT(#383,#381,(#632));
#383=DATE_AND_TIME(#384,#385);
#384=CALENDAR_DATE(2025,30,12);
#385=LOCAL_TIME(0,0,0.,#386);
#386=COORDINATED_UNIVERSAL_TIME_OFFSET(0,0,.BEHIND.);
#387=AXIS2_PLACEMENT_3D('placement',#520,#419,#420);
#388=AXIS2_PLACEMENT_3D('',#521,#421,#422);
#389=AXIS2_PLACEMENT_3D('',#530,#426,#427);
#390=AXIS2_PLACEMENT_3D('',#535,#430,#431);
#391=AXIS2_PLACEMENT_3D('',#537,#432,#433);
#392=AXIS2_PLACEMENT_3D('',#538,#434,#435);
#393=AXIS2_PLACEMENT_3D('',#540,#436,#437);
#394=AXIS2_PLACEMENT_3D('',#544,#439,#440);
#395=AXIS2_PLACEMENT_3D('',#545,#441,#442);
#396=AXIS2_PLACEMENT_3D('',#546,#443,#444);
#397=AXIS2_PLACEMENT_3D('',#548,#445,#446);
#398=AXIS2_PLACEMENT_3D('',#550,#448,#449);
#399=AXIS2_PLACEMENT_3D('',#559,#454,#455);
#400=AXIS2_PLACEMENT_3D('',#561,#456,#457);
#401=AXIS2_PLACEMENT_3D('',#562,#458,#459);
#402=AXIS2_PLACEMENT_3D('',#565,#461,#462);
#403=AXIS2_PLACEMENT_3D('',#566,#463,#464);
#404=AXIS2_PLACEMENT_3D('',#568,#466,#467);
#405=AXIS2_PLACEMENT_3D('',#570,#468,#469);
#406=AXIS2_PLACEMENT_3D('',#572,#471,#472);
#407=AXIS2_PLACEMENT_3D('',#576,#474,#475);
#408=AXIS2_PLACEMENT_3D('',#578,#477,#478);
#409=AXIS2_PLACEMENT_3D('',#582,#481,#482);
#410=AXIS2_PLACEMENT_3D('',#586,#485,#486);
#411=AXIS2_PLACEMENT_3D('',#588,#488,#489);
#412=AXIS2_PLACEMENT_3D('',#599,#496,#497);
#413=AXIS2_PLACEMENT_3D('',#610,#504,#505);
#414=AXIS2_PLACEMENT_3D('',#612,#507,#508);
#415=AXIS2_PLACEMENT_3D('',#614,#510,#511);
#416=AXIS2_PLACEMENT_3D('',#615,#512,#513);
#417=AXIS2_PLACEMENT_3D('',#617,#515,#516);
#418=AXIS2_PLACEMENT_3D('',#619,#518,#519);
#419=DIRECTION('axis',(0.,0.,1.));
#420=DIRECTION('refdir',(1.,0.,0.));
#421=DIRECTION('center_axis',(0.,1.,0.));
#422=DIRECTION('ref_axis',(0.,0.,1.));
#423=DIRECTION('',(-1.,0.,2.44005060357685E-16));
#424=DIRECTION('',(1.86592104978835E-16,0.,1.));
#425=DIRECTION('',(0.742268041234385,0.,0.670103092786527));
#426=DIRECTION('center_axis',(0.,1.,0.));
#427=DIRECTION('ref_axis',(-0.670103092786528,0.,0.742268041234385));
#428=DIRECTION('',(0.742268041237975,0.,-0.67010309278255));
#429=DIRECTION('',(-6.21973683262785E-17,0.,-1.));
#430=DIRECTION('center_axis',(0.,1.,0.));
#431=DIRECTION('ref_axis',(1.,0.,0.));
#432=DIRECTION('center_axis',(0.,-1.,0.));
#433=DIRECTION('ref_axis',(-1.,0.,0.));
#434=DIRECTION('center_axis',(0.,1.,0.));
#435=DIRECTION('ref_axis',(-1.,0.,0.));
#436=DIRECTION('center_axis',(0.,-1.,0.));
#437=DIRECTION('ref_axis',(-1.,0.,0.));
#438=DIRECTION('',(-0.707106781186548,-0.707106781186548,8.65956056235493E-17));
#439=DIRECTION('center_axis',(0.,1.,0.));
#440=DIRECTION('ref_axis',(-1.,0.,0.));
#441=DIRECTION('center_axis',(0.,1.,0.));
#442=DIRECTION('ref_axis',(-1.,0.,0.));
#443=DIRECTION('center_axis',(0.,-1.,0.));
#444=DIRECTION('ref_axis',(1.,0.,0.));
#445=DIRECTION('center_axis',(0.,-1.,0.));
#446=DIRECTION('ref_axis',(1.,0.,0.));
#447=DIRECTION('',(0.,1.,0.));
#448=DIRECTION('center_axis',(0.,1.,0.));
#449=DIRECTION('ref_axis',(0.,0.,1.));
#450=DIRECTION('',(1.,0.,-2.44005060357685E-16));
#451=DIRECTION('',(3.70074341541719E-16,0.,1.));
#452=DIRECTION('',(-1.,0.,3.127388801761E-16));
#453=DIRECTION('',(-3.50228083477967E-16,0.,-1.));
#454=DIRECTION('center_axis',(0.,-1.,0.));
#455=DIRECTION('ref_axis',(0.,0.,-1.));
#456=DIRECTION('center_axis',(0.,1.,0.));
#457=DIRECTION('ref_axis',(-1.,0.,0.));
#458=DIRECTION('center_axis',(0.,1.,0.));
#459=DIRECTION('ref_axis',(1.,0.,0.));
#460=DIRECTION('',(0.707106781186548,-0.707106781186548,-8.65956056235493E-17));
#461=DIRECTION('center_axis',(0.,-1.,0.));
#462=DIRECTION('ref_axis',(1.,0.,0.));
#463=DIRECTION('center_axis',(0.,1.,0.));
#464=DIRECTION('ref_axis',(1.,0.,0.));
#465=DIRECTION('',(0.,1.,0.));
#466=DIRECTION('center_axis',(0.,-1.,0.));
#467=DIRECTION('ref_axis',(-1.,0.,0.));
#468=DIRECTION('center_axis',(0.,1.,0.));
#469=DIRECTION('ref_axis',(-1.,0.,0.));
#470=DIRECTION('',(0.,1.,0.));
#471=DIRECTION('center_axis',(0.,-1.,0.));
#472=DIRECTION('ref_axis',(-0.670103092786528,0.,0.742268041234385));
#473=DIRECTION('',(0.,-1.,0.));
#474=DIRECTION('center_axis',(0.,-1.,0.));
#475=DIRECTION('ref_axis',(-0.670103092786528,0.,0.742268041234385));
#476=DIRECTION('',(0.,-1.,0.));
#477=DIRECTION('center_axis',(0.67010309278255,0.,0.742268041237975));
#478=DIRECTION('ref_axis',(-0.742268041237975,0.,0.67010309278255));
#479=DIRECTION('',(-0.742268041237975,0.,0.67010309278255));
#480=DIRECTION('',(0.,1.,0.));
#481=DIRECTION('center_axis',(-0.670103092786527,0.,0.742268041234385));
#482=DIRECTION('ref_axis',(-0.742268041234385,0.,-0.670103092786527));
#483=DIRECTION('',(0.,1.,0.));
#484=DIRECTION('',(-0.742268041234385,0.,-0.670103092786527));
#485=DIRECTION('center_axis',(0.,1.,0.));
#486=DIRECTION('ref_axis',(0.,0.,1.));
#487=DIRECTION('',(-1.,0.,2.44005060357685E-16));
#488=DIRECTION('center_axis',(-2.44005060357685E-16,0.,-1.));
#489=DIRECTION('ref_axis',(-1.,0.,2.44005060357685E-16));
#490=DIRECTION('',(0.,1.,0.));
#491=DIRECTION('',(-1.,0.,2.44005060357685E-16));
#492=DIRECTION('',(2.22044604925031E-16,1.,-5.41800072268305E-32));
#493=DIRECTION('',(0.,-1.,0.));
#494=DIRECTION('',(-1.,0.,2.44005060357685E-16));
#495=DIRECTION('',(0.,1.,0.));
#496=DIRECTION('center_axis',(0.,1.,0.));
#497=DIRECTION('ref_axis',(0.,0.,1.));
#498=DIRECTION('',(3.70074341541719E-16,0.,1.));
#499=DIRECTION('',(-1.,0.,3.127388801761E-16));
#500=DIRECTION('',(-3.70074341541719E-16,0.,-1.));
#501=DIRECTION('',(-6.21973683262785E-17,0.,-1.));
#502=DIRECTION('',(1.,0.,-2.44005060357685E-16));
#503=DIRECTION('',(1.86592104978835E-16,0.,1.));
#504=DIRECTION('center_axis',(1.,0.,-3.50228083477967E-16));
#505=DIRECTION('ref_axis',(-3.50228083477967E-16,0.,-1.));
#506=DIRECTION('',(0.,1.,0.));
#507=DIRECTION('center_axis',(-3.127388801761E-16,0.,-1.));
#508=DIRECTION('ref_axis',(-1.,0.,3.127388801761E-16));
#509=DIRECTION('',(0.,1.,0.));
#510=DIRECTION('center_axis',(-1.,0.,1.75114041738984E-16));
#511=DIRECTION('ref_axis',(1.75114041738984E-16,0.,1.));
#512=DIRECTION('center_axis',(-1.,0.,1.86592104978835E-16));
#513=DIRECTION('ref_axis',(1.86592104978835E-16,0.,1.));
#514=DIRECTION('',(0.,1.,0.));
#515=DIRECTION('center_axis',(1.,0.,-6.21973683262785E-17));
#516=DIRECTION('ref_axis',(-6.21973683262785E-17,0.,-1.));
#517=DIRECTION('',(0.,1.,0.));
#518=DIRECTION('center_axis',(2.44005060357685E-16,0.,1.));
#519=DIRECTION('ref_axis',(1.,0.,-2.44005060357685E-16));
#520=CARTESIAN_POINT('',(0.,0.,0.));
#521=CARTESIAN_POINT('Origin',(3.63786778478925E-11,13.,0.));
#522=CARTESIAN_POINT('',(9.10000000001746,13.,-17.8500000000175));
#523=CARTESIAN_POINT('',(-9.09999999994471,13.,-17.8500000000175));
#524=CARTESIAN_POINT('',(3.63737245451672E-11,13.,-17.8500000000175));
#525=CARTESIAN_POINT('',(-9.0999999999447,13.,17.8500000000175));
#526=CARTESIAN_POINT('',(-9.09999999994471,13.,-17.8500000000175));
#527=CARTESIAN_POINT('',(-2.34536082475284,13.,23.9479381443378));
#528=CARTESIAN_POINT('',(-9.0999999999447,13.,17.8500000000175));
#529=CARTESIAN_POINT('',(2.34536082473893,13.,23.9479381443504));
#530=CARTESIAN_POINT('Origin',(2.43231034551731E-15,13.,21.3500000000175));
#531=CARTESIAN_POINT('',(9.10000000001746,13.,17.8500000000175));
#532=CARTESIAN_POINT('',(2.34536082473893,13.,23.9479381443504));
#533=CARTESIAN_POINT('',(9.10000000001746,13.,17.8500000000175));
#534=CARTESIAN_POINT('',(-3.25000000000001,13.,-8.65000000000009));
#535=CARTESIAN_POINT('Origin',(-6.66133814775094E-15,13.,-8.65000000000009));
#536=CARTESIAN_POINT('',(1.6,13.,21.3500000000175));
#537=CARTESIAN_POINT('Origin',(2.43231034551731E-15,13.,21.3500000000175));
#538=CARTESIAN_POINT('Origin',(-6.66133814775094E-15,9.5,-8.65000000000009));
#539=CARTESIAN_POINT('',(3.49999999999999,10.,-8.65000000000009));
#540=CARTESIAN_POINT('Origin',(-6.66133814775094E-15,10.,-8.65000000000009));
#541=CARTESIAN_POINT('',(2.49999999999999,9.,-8.65000000000009));
#542=CARTESIAN_POINT('',(2.99999999999999,9.5,-8.65000000000009));
#543=CARTESIAN_POINT('',(-2.50000000000001,9.,-8.65000000000009));
#544=CARTESIAN_POINT('Origin',(-6.66133814775094E-15,9.,-8.65000000000009));
#545=CARTESIAN_POINT('Origin',(-6.66133814775094E-15,9.,-8.65000000000009));
#546=CARTESIAN_POINT('Origin',(-6.66133814775094E-15,10.,-8.65000000000009));
#547=CARTESIAN_POINT('',(-2.50000000000001,1.6,-8.65000000000009));
#548=CARTESIAN_POINT('Origin',(-6.66133814775094E-15,1.6,-8.65000000000009));
#549=CARTESIAN_POINT('',(-2.50000000000001,10.,-8.65000000000009));
#550=CARTESIAN_POINT('Origin',(3.63786778478925E-11,10.,0.));
#551=CARTESIAN_POINT('',(-7.0999999999447,10.,-17.8500000000175));
#552=CARTESIAN_POINT('',(7.10000000001746,10.,-17.8500000000175));
#553=CARTESIAN_POINT('',(3.63737245451672E-11,10.,-17.8500000000175));
#554=CARTESIAN_POINT('',(7.1,10.,15.85));
#555=CARTESIAN_POINT('',(7.10000000001746,10.,-17.8500000000175));
#556=CARTESIAN_POINT('',(-7.1,10.,15.85));
#557=CARTESIAN_POINT('',(7.1,10.,15.85));
#558=CARTESIAN_POINT('',(-7.1,10.,15.85));
#559=CARTESIAN_POINT('Origin',(-6.66133814775094E-15,1.6,-8.65000000000009));
#560=CARTESIAN_POINT('',(-1.60000000000001,1.6,-8.65000000000009));
#561=CARTESIAN_POINT('Origin',(-6.66133814775094E-15,1.6,-8.65000000000009));
#562=CARTESIAN_POINT('Origin',(-6.66133814775094E-15,12.175,-8.65000000000009));
#563=CARTESIAN_POINT('',(-1.60000000000001,11.35,-8.65000000000009));
#564=CARTESIAN_POINT('',(-2.42500000000001,12.175,-8.65000000000009));
#565=CARTESIAN_POINT('Origin',(-6.66133814775094E-15,11.35,-8.65000000000009));
#566=CARTESIAN_POINT('Origin',(-6.66133814775094E-15,10.,-8.65000000000009));
#567=CARTESIAN_POINT('',(-1.60000000000001,10.,-8.65000000000009));
#568=CARTESIAN_POINT('Origin',(2.43231034551731E-15,13.,21.3500000000175));
#569=CARTESIAN_POINT('',(1.6,10.,21.3500000000175));
#570=CARTESIAN_POINT('Origin',(2.43231034551731E-15,10.,21.3500000000175));
#571=CARTESIAN_POINT('',(1.6,13.,21.3500000000175));
#572=CARTESIAN_POINT('Origin',(2.43231034551731E-15,13.,21.3500000000175));
#573=CARTESIAN_POINT('',(-2.34536082475284,10.,23.9479381443378));
#574=CARTESIAN_POINT('',(-2.34536082475284,13.,23.9479381443378));
#575=CARTESIAN_POINT('',(2.34536082473893,10.,23.9479381443504));
#576=CARTESIAN_POINT('Origin',(2.43231034551731E-15,10.,21.3500000000175));
#577=CARTESIAN_POINT('',(2.34536082473893,13.,23.9479381443504));
#578=CARTESIAN_POINT('Origin',(9.10000000001746,13.,17.8500000000175));
#579=CARTESIAN_POINT('',(9.10000000001746,10.,17.8500000000175));
#580=CARTESIAN_POINT('',(2.34536082473893,10.,23.9479381443504));
#581=CARTESIAN_POINT('',(9.10000000001746,0.,17.8500000000175));
#582=CARTESIAN_POINT('Origin',(-2.34536082475284,13.,23.9479381443378));
#583=CARTESIAN_POINT('',(-9.0999999999447,10.,17.8500000000175));
#584=CARTESIAN_POINT('',(-9.0999999999447,0.,17.8500000000175));
#585=CARTESIAN_POINT('',(-9.0999999999447,10.,17.8500000000175));
#586=CARTESIAN_POINT('Origin',(3.63825636284787E-11,10.,21.3500000000175));
#587=CARTESIAN_POINT('',(-4.54999999995416,10.,17.8500000000175));
#588=CARTESIAN_POINT('Origin',(9.10000000001746,0.,-17.8500000000175));
#589=CARTESIAN_POINT('',(9.10000000001746,0.,-17.8500000000175));
#590=CARTESIAN_POINT('',(9.10000000001746,0.,-17.8500000000175));
#591=CARTESIAN_POINT('',(7.10000000001746,-1.11022302462516E-15,-17.8500000000175));
#592=CARTESIAN_POINT('',(9.10000000001746,0.,-17.8500000000175));
#593=CARTESIAN_POINT('',(7.10000000001746,-3.33066907387547E-16,-17.8500000000175));
#594=CARTESIAN_POINT('',(-7.0999999999447,1.11022302462516E-15,-17.8500000000175));
#595=CARTESIAN_POINT('',(-7.0999999999447,5.,-17.8500000000175));
#596=CARTESIAN_POINT('',(-9.09999999994471,0.,-17.8500000000175));
#597=CARTESIAN_POINT('',(9.10000000001746,0.,-17.8500000000175));
#598=CARTESIAN_POINT('',(-9.09999999994471,0.,-17.8500000000175));
#599=CARTESIAN_POINT('Origin',(3.63786778478925E-11,0.,0.));
#600=CARTESIAN_POINT('',(-7.1,0.,15.85));
#601=CARTESIAN_POINT('',(-7.0999999999447,0.,-8.92500000000873));
#602=CARTESIAN_POINT('',(7.1,0.,15.85));
#603=CARTESIAN_POINT('',(7.1,0.,15.85));
#604=CARTESIAN_POINT('',(7.10000000001746,0.,-8.92500000000873));
#605=CARTESIAN_POINT('',(9.10000000001746,0.,17.8500000000175));
#606=CARTESIAN_POINT('',(9.10000000001746,0.,17.8500000000175));
#607=CARTESIAN_POINT('',(-9.0999999999447,0.,17.8500000000175));
#608=CARTESIAN_POINT('',(-9.0999999999447,0.,17.8500000000175));
#609=CARTESIAN_POINT('',(-9.09999999994471,0.,-17.8500000000175));
#610=CARTESIAN_POINT('Origin',(-7.1,0.,15.85));
#611=CARTESIAN_POINT('',(-7.1,0.,15.85));
#612=CARTESIAN_POINT('Origin',(7.1,0.,15.85));
#613=CARTESIAN_POINT('',(7.1,0.,15.85));
#614=CARTESIAN_POINT('Origin',(7.1,0.,-15.85));
#615=CARTESIAN_POINT('Origin',(-9.09999999994471,0.,-17.8500000000175));
#616=CARTESIAN_POINT('',(-9.0999999999447,0.,17.8500000000175));
#617=CARTESIAN_POINT('Origin',(9.10000000001746,0.,17.8500000000175));
#618=CARTESIAN_POINT('',(9.10000000001746,0.,17.8500000000175));
#619=CARTESIAN_POINT('Origin',(-9.0999999999447,0.,17.8500000000175));
#620=UNCERTAINTY_MEASURE_WITH_UNIT(LENGTH_MEASURE(0.01),#624,
'DISTANCE_ACCURACY_VALUE',
'Maximum model space distance between geometric entities at asserted c
onnectivities');
#621=UNCERTAINTY_MEASURE_WITH_UNIT(LENGTH_MEASURE(0.01),#624,
'DISTANCE_ACCURACY_VALUE',
'Maximum model space distance between geometric entities at asserted c
onnectivities');
#622=(
GEOMETRIC_REPRESENTATION_CONTEXT(3)
GLOBAL_UNCERTAINTY_ASSIGNED_CONTEXT((#620))
GLOBAL_UNIT_ASSIGNED_CONTEXT((#624,#626,#627))
REPRESENTATION_CONTEXT('','3D')
);
#623=(
GEOMETRIC_REPRESENTATION_CONTEXT(3)
GLOBAL_UNCERTAINTY_ASSIGNED_CONTEXT((#621))
GLOBAL_UNIT_ASSIGNED_CONTEXT((#624,#626,#627))
REPRESENTATION_CONTEXT('','3D')
);
#624=(
LENGTH_UNIT()
NAMED_UNIT(*)
SI_UNIT(.MILLI.,.METRE.)
);
#625=(
LENGTH_UNIT()
NAMED_UNIT(*)
SI_UNIT(.CENTI.,.METRE.)
);
#626=(
NAMED_UNIT(*)
PLANE_ANGLE_UNIT()
SI_UNIT($,.RADIAN.)
);
#627=(
NAMED_UNIT(*)
SI_UNIT($,.STERADIAN.)
SOLID_ANGLE_UNIT()
);
#628=SHAPE_DEFINITION_REPRESENTATION(#629,#630);
#629=PRODUCT_DEFINITION_SHAPE('',$,#632);
#630=SHAPE_REPRESENTATION('',(#387),#622);
#631=PRODUCT_DEFINITION_CONTEXT('part definition',#636,'design');
#632=PRODUCT_DEFINITION('\X2\043A04400435043F\X0\_\X2\043E043F0442\X0\',
'\X2\043A04400435043F\X0\_\X2\043E043F0442\X0\',#633,#631);
#633=PRODUCT_DEFINITION_FORMATION('',$,#638);
#634=PRODUCT_RELATED_PRODUCT_CATEGORY('\X2\043A04400435043F\X0\_\X2\043E043F0442\X0\',
'\X2\043A04400435043F\X0\_\X2\043E043F0442\X0\',(#638));
#635=APPLICATION_PROTOCOL_DEFINITION('international standard',
'automotive_design',2009,#636);
#636=APPLICATION_CONTEXT(
'Core Data for Automotive Mechanical Design Process');
#637=PRODUCT_CONTEXT('part definition',#636,'mechanical');
#638=PRODUCT('\X2\043A04400435043F\X0\_\X2\043E043F0442\X0\',
'\X2\043A04400435043F\X0\_\X2\043E043F0442\X0\',$,(#637));
#639=PRESENTATION_STYLE_ASSIGNMENT((#640));
#640=SURFACE_STYLE_USAGE(.BOTH.,#643);
#641=SURFACE_STYLE_RENDERING_WITH_PROPERTIES($,#647,(#642));
#642=SURFACE_STYLE_TRANSPARENT(0.);
#643=SURFACE_SIDE_STYLE('',(#644,#641));
#644=SURFACE_STYLE_FILL_AREA(#645);
#645=FILL_AREA_STYLE('',(#646));
#646=FILL_AREA_STYLE_COLOUR('',#647);
#647=COLOUR_RGB('',0.772549019607843,0.76078431372549,0.580392156862745);
ENDSEC;
END-ISO-10303-21;
