ISO-10303-21;
HEADER;
/* Generated by software containing ST-Developer
 * from STEP Tools, Inc. (www.steptools.com) 
 */

FILE_DESCRIPTION(
/* description */ (''),
/* implementation_level */ '2;1');

FILE_NAME(
/* name */ '',
/* time_stamp */ '2026-02-02T15:18:21+03:00',
/* author */ ('DELL'),
/* organization */ (''),
/* preprocessor_version */ 'ST-DEVELOPER v19.2',
/* originating_system */ 'Autodesk Inventor 2023',
/* authorisation */ '');

FILE_SCHEMA (('AUTOMOTIVE_DESIGN { 1 0 10303 214 3 1 1 }'));
ENDSEC;

DATA;
#10=MECHANICAL_DESIGN_GEOMETRIC_PRESENTATION_REPRESENTATION('',(#589,#590,
#591,#592,#593,#594,#595,#596,#597,#598,#599,#600,#601,#602,#603,#604,#605,
#606,#607,#608,#609,#610,#611,#612,#613,#614,#615,#616,#617,#618,#619,#620),
#1045);
#11=SHAPE_REPRESENTATION_RELATIONSHIP('SRR','None',#1052,#12);
#12=ADVANCED_BREP_SHAPE_REPRESENTATION('',(#13),#1044);
#13=MANIFOLD_SOLID_BREP('\X2\04220432043504400434043E0435\X0\ \X2\04420435043B043E\X0\1',
#652);
#14=FACE_BOUND('',#88,.T.);
#15=FACE_BOUND('',#91,.T.);
#16=FACE_BOUND('',#92,.T.);
#17=FACE_BOUND('',#99,.T.);
#18=FACE_BOUND('',#104,.T.);
#19=FACE_BOUND('',#108,.T.);
#20=FACE_BOUND('',#112,.T.);
#21=PLANE('',#678);
#22=PLANE('',#682);
#23=PLANE('',#683);
#24=PLANE('',#684);
#25=PLANE('',#685);
#26=PLANE('',#686);
#27=PLANE('',#687);
#28=PLANE('',#691);
#29=PLANE('',#692);
#30=PLANE('',#693);
#31=PLANE('',#694);
#32=PLANE('',#695);
#33=PLANE('',#696);
#34=PLANE('',#697);
#35=PLANE('',#699);
#36=PLANE('',#702);
#37=PLANE('',#703);
#38=PLANE('',#704);
#39=PLANE('',#705);
#40=PLANE('',#706);
#41=PLANE('',#707);
#42=PLANE('',#708);
#43=PLANE('',#709);
#44=PLANE('',#710);
#45=PLANE('',#711);
#46=PLANE('',#712);
#47=PLANE('',#713);
#48=FACE_OUTER_BOUND('',#79,.T.);
#49=FACE_OUTER_BOUND('',#80,.T.);
#50=FACE_OUTER_BOUND('',#81,.T.);
#51=FACE_OUTER_BOUND('',#82,.T.);
#52=FACE_OUTER_BOUND('',#83,.T.);
#53=FACE_OUTER_BOUND('',#84,.T.);
#54=FACE_OUTER_BOUND('',#85,.T.);
#55=FACE_OUTER_BOUND('',#86,.T.);
#56=FACE_OUTER_BOUND('',#87,.T.);
#57=FACE_OUTER_BOUND('',#89,.T.);
#58=FACE_OUTER_BOUND('',#90,.T.);
#59=FACE_OUTER_BOUND('',#93,.T.);
#60=FACE_OUTER_BOUND('',#94,.T.);
#61=FACE_OUTER_BOUND('',#95,.T.);
#62=FACE_OUTER_BOUND('',#96,.T.);
#63=FACE_OUTER_BOUND('',#97,.T.);
#64=FACE_OUTER_BOUND('',#98,.T.);
#65=FACE_OUTER_BOUND('',#100,.T.);
#66=FACE_OUTER_BOUND('',#101,.T.);
#67=FACE_OUTER_BOUND('',#102,.T.);
#68=FACE_OUTER_BOUND('',#103,.T.);
#69=FACE_OUTER_BOUND('',#105,.T.);
#70=FACE_OUTER_BOUND('',#106,.T.);
#71=FACE_OUTER_BOUND('',#107,.T.);
#72=FACE_OUTER_BOUND('',#109,.T.);
#73=FACE_OUTER_BOUND('',#110,.T.);
#74=FACE_OUTER_BOUND('',#111,.T.);
#75=FACE_OUTER_BOUND('',#113,.T.);
#76=FACE_OUTER_BOUND('',#114,.T.);
#77=FACE_OUTER_BOUND('',#115,.T.);
#78=FACE_OUTER_BOUND('',#116,.T.);
#79=EDGE_LOOP('',(#417,#418,#419,#420));
#80=EDGE_LOOP('',(#421));
#81=EDGE_LOOP('',(#422,#423,#424,#425));
#82=EDGE_LOOP('',(#426,#427,#428,#429));
#83=EDGE_LOOP('',(#430,#431,#432,#433));
#84=EDGE_LOOP('',(#434,#435,#436,#437));
#85=EDGE_LOOP('',(#438,#439,#440,#441));
#86=EDGE_LOOP('',(#442,#443,#444,#445));
#87=EDGE_LOOP('',(#446,#447,#448,#449,#450,#451));
#88=EDGE_LOOP('',(#452));
#89=EDGE_LOOP('',(#453,#454,#455,#456));
#90=EDGE_LOOP('',(#457,#458,#459,#460,#461,#462,#463,#464,#465,#466,#467,
#468,#469,#470,#471,#472));
#91=EDGE_LOOP('',(#473));
#92=EDGE_LOOP('',(#474));
#93=EDGE_LOOP('',(#475,#476,#477,#478));
#94=EDGE_LOOP('',(#479,#480,#481,#482));
#95=EDGE_LOOP('',(#483,#484,#485,#486));
#96=EDGE_LOOP('',(#487,#488,#489,#490));
#97=EDGE_LOOP('',(#491,#492,#493,#494));
#98=EDGE_LOOP('',(#495,#496,#497,#498,#499,#500));
#99=EDGE_LOOP('',(#501));
#100=EDGE_LOOP('',(#502,#503,#504,#505,#506,#507,#508,#509,#510,#511,#512,
#513,#514,#515,#516,#517));
#101=EDGE_LOOP('',(#518,#519,#520,#521));
#102=EDGE_LOOP('',(#522,#523,#524,#525));
#103=EDGE_LOOP('',(#526,#527,#528,#529));
#104=EDGE_LOOP('',(#530));
#105=EDGE_LOOP('',(#531,#532,#533,#534));
#106=EDGE_LOOP('',(#535,#536,#537,#538));
#107=EDGE_LOOP('',(#539,#540,#541,#542));
#108=EDGE_LOOP('',(#543));
#109=EDGE_LOOP('',(#544,#545,#546,#547));
#110=EDGE_LOOP('',(#548,#549,#550,#551));
#111=EDGE_LOOP('',(#552,#553,#554,#555));
#112=EDGE_LOOP('',(#556));
#113=EDGE_LOOP('',(#557,#558,#559,#560));
#114=EDGE_LOOP('',(#561,#562,#563,#564,#565,#566,#567,#568));
#115=EDGE_LOOP('',(#569,#570,#571,#572,#573,#574,#575,#576));
#116=EDGE_LOOP('',(#577,#578,#579,#580,#581,#582,#583,#584));
#117=LINE('',#875,#193);
#118=LINE('',#882,#194);
#119=LINE('',#887,#195);
#120=LINE('',#889,#196);
#121=LINE('',#891,#197);
#122=LINE('',#892,#198);
#123=LINE('',#895,#199);
#124=LINE('',#897,#200);
#125=LINE('',#898,#201);
#126=LINE('',#902,#202);
#127=LINE('',#904,#203);
#128=LINE('',#906,#204);
#129=LINE('',#907,#205);
#130=LINE('',#910,#206);
#131=LINE('',#912,#207);
#132=LINE('',#913,#208);
#133=LINE('',#915,#209);
#134=LINE('',#916,#210);
#135=LINE('',#918,#211);
#136=LINE('',#924,#212);
#137=LINE('',#927,#213);
#138=LINE('',#929,#214);
#139=LINE('',#931,#215);
#140=LINE('',#933,#216);
#141=LINE('',#935,#217);
#142=LINE('',#937,#218);
#143=LINE('',#939,#219);
#144=LINE('',#941,#220);
#145=LINE('',#943,#221);
#146=LINE('',#945,#222);
#147=LINE('',#946,#223);
#148=LINE('',#949,#224);
#149=LINE('',#951,#225);
#150=LINE('',#952,#226);
#151=LINE('',#955,#227);
#152=LINE('',#956,#228);
#153=LINE('',#959,#229);
#154=LINE('',#961,#230);
#155=LINE('',#962,#231);
#156=LINE('',#965,#232);
#157=LINE('',#966,#233);
#158=LINE('',#968,#234);
#159=LINE('',#970,#235);
#160=LINE('',#975,#236);
#161=LINE('',#977,#237);
#162=LINE('',#979,#238);
#163=LINE('',#981,#239);
#164=LINE('',#983,#240);
#165=LINE('',#985,#241);
#166=LINE('',#986,#242);
#167=LINE('',#990,#243);
#168=LINE('',#993,#244);
#169=LINE('',#995,#245);
#170=LINE('',#996,#246);
#171=LINE('',#999,#247);
#172=LINE('',#1000,#248);
#173=LINE('',#1003,#249);
#174=LINE('',#1004,#250);
#175=LINE('',#1007,#251);
#176=LINE('',#1009,#252);
#177=LINE('',#1010,#253);
#178=LINE('',#1013,#254);
#179=LINE('',#1014,#255);
#180=LINE('',#1017,#256);
#181=LINE('',#1018,#257);
#182=LINE('',#1021,#258);
#183=LINE('',#1023,#259);
#184=LINE('',#1024,#260);
#185=LINE('',#1027,#261);
#186=LINE('',#1029,#262);
#187=LINE('',#1030,#263);
#188=LINE('',#1033,#264);
#189=LINE('',#1035,#265);
#190=LINE('',#1036,#266);
#191=LINE('',#1038,#267);
#192=LINE('',#1039,#268);
#193=VECTOR('',#720,2.1);
#194=VECTOR('',#729,1.6);
#195=VECTOR('',#734,10.);
#196=VECTOR('',#735,10.);
#197=VECTOR('',#736,10.);
#198=VECTOR('',#737,10.);
#199=VECTOR('',#740,10.);
#200=VECTOR('',#741,10.);
#201=VECTOR('',#742,10.);
#202=VECTOR('',#745,10.);
#203=VECTOR('',#746,10.);
#204=VECTOR('',#747,10.);
#205=VECTOR('',#748,10.);
#206=VECTOR('',#751,10.);
#207=VECTOR('',#752,10.);
#208=VECTOR('',#753,10.);
#209=VECTOR('',#756,10.);
#210=VECTOR('',#757,10.);
#211=VECTOR('',#760,10.);
#212=VECTOR('',#767,1.6);
#213=VECTOR('',#770,10.);
#214=VECTOR('',#771,10.);
#215=VECTOR('',#772,10.);
#216=VECTOR('',#773,10.);
#217=VECTOR('',#774,10.);
#218=VECTOR('',#775,10.);
#219=VECTOR('',#776,10.);
#220=VECTOR('',#777,10.);
#221=VECTOR('',#778,10.);
#222=VECTOR('',#779,10.);
#223=VECTOR('',#780,10.);
#224=VECTOR('',#783,10.);
#225=VECTOR('',#784,10.);
#226=VECTOR('',#785,10.);
#227=VECTOR('',#788,10.);
#228=VECTOR('',#789,10.);
#229=VECTOR('',#792,10.);
#230=VECTOR('',#793,10.);
#231=VECTOR('',#794,10.);
#232=VECTOR('',#797,10.);
#233=VECTOR('',#798,10.);
#234=VECTOR('',#801,10.);
#235=VECTOR('',#804,10.);
#236=VECTOR('',#809,10.);
#237=VECTOR('',#810,10.);
#238=VECTOR('',#811,10.);
#239=VECTOR('',#812,10.);
#240=VECTOR('',#813,10.);
#241=VECTOR('',#814,10.);
#242=VECTOR('',#815,10.);
#243=VECTOR('',#820,1.6);
#244=VECTOR('',#823,10.);
#245=VECTOR('',#824,10.);
#246=VECTOR('',#825,10.);
#247=VECTOR('',#828,10.);
#248=VECTOR('',#829,10.);
#249=VECTOR('',#832,10.);
#250=VECTOR('',#833,10.);
#251=VECTOR('',#836,10.);
#252=VECTOR('',#837,10.);
#253=VECTOR('',#838,10.);
#254=VECTOR('',#841,10.);
#255=VECTOR('',#842,10.);
#256=VECTOR('',#845,10.);
#257=VECTOR('',#846,10.);
#258=VECTOR('',#849,10.);
#259=VECTOR('',#850,10.);
#260=VECTOR('',#851,10.);
#261=VECTOR('',#854,10.);
#262=VECTOR('',#855,10.);
#263=VECTOR('',#856,10.);
#264=VECTOR('',#859,10.);
#265=VECTOR('',#860,10.);
#266=VECTOR('',#861,10.);
#267=VECTOR('',#864,10.);
#268=VECTOR('',#865,10.);
#269=CIRCLE('',#676,2.1);
#270=CIRCLE('',#677,2.1);
#271=CIRCLE('',#680,1.6);
#272=CIRCLE('',#681,1.6);
#273=CIRCLE('',#688,1.6);
#274=CIRCLE('',#690,1.6);
#275=CIRCLE('',#698,1.6);
#276=CIRCLE('',#701,1.6);
#277=VERTEX_POINT('',#872);
#278=VERTEX_POINT('',#874);
#279=VERTEX_POINT('',#879);
#280=VERTEX_POINT('',#881);
#281=VERTEX_POINT('',#885);
#282=VERTEX_POINT('',#886);
#283=VERTEX_POINT('',#888);
#284=VERTEX_POINT('',#890);
#285=VERTEX_POINT('',#894);
#286=VERTEX_POINT('',#896);
#287=VERTEX_POINT('',#900);
#288=VERTEX_POINT('',#901);
#289=VERTEX_POINT('',#903);
#290=VERTEX_POINT('',#905);
#291=VERTEX_POINT('',#909);
#292=VERTEX_POINT('',#911);
#293=VERTEX_POINT('',#919);
#294=VERTEX_POINT('',#922);
#295=VERTEX_POINT('',#926);
#296=VERTEX_POINT('',#928);
#297=VERTEX_POINT('',#930);
#298=VERTEX_POINT('',#932);
#299=VERTEX_POINT('',#934);
#300=VERTEX_POINT('',#936);
#301=VERTEX_POINT('',#938);
#302=VERTEX_POINT('',#940);
#303=VERTEX_POINT('',#942);
#304=VERTEX_POINT('',#944);
#305=VERTEX_POINT('',#948);
#306=VERTEX_POINT('',#950);
#307=VERTEX_POINT('',#954);
#308=VERTEX_POINT('',#958);
#309=VERTEX_POINT('',#960);
#310=VERTEX_POINT('',#964);
#311=VERTEX_POINT('',#971);
#312=VERTEX_POINT('',#974);
#313=VERTEX_POINT('',#976);
#314=VERTEX_POINT('',#978);
#315=VERTEX_POINT('',#980);
#316=VERTEX_POINT('',#982);
#317=VERTEX_POINT('',#984);
#318=VERTEX_POINT('',#988);
#319=VERTEX_POINT('',#992);
#320=VERTEX_POINT('',#994);
#321=VERTEX_POINT('',#998);
#322=VERTEX_POINT('',#1002);
#323=VERTEX_POINT('',#1006);
#324=VERTEX_POINT('',#1008);
#325=VERTEX_POINT('',#1012);
#326=VERTEX_POINT('',#1016);
#327=VERTEX_POINT('',#1020);
#328=VERTEX_POINT('',#1022);
#329=VERTEX_POINT('',#1026);
#330=VERTEX_POINT('',#1028);
#331=VERTEX_POINT('',#1032);
#332=VERTEX_POINT('',#1034);
#333=EDGE_CURVE('',#277,#277,#269,.T.);
#334=EDGE_CURVE('',#277,#278,#117,.T.);
#335=EDGE_CURVE('',#278,#278,#270,.T.);
#336=EDGE_CURVE('',#279,#279,#271,.T.);
#337=EDGE_CURVE('',#279,#280,#118,.T.);
#338=EDGE_CURVE('',#280,#280,#272,.T.);
#339=EDGE_CURVE('',#281,#282,#119,.T.);
#340=EDGE_CURVE('',#282,#283,#120,.T.);
#341=EDGE_CURVE('',#283,#284,#121,.T.);
#342=EDGE_CURVE('',#281,#284,#122,.T.);
#343=EDGE_CURVE('',#282,#285,#123,.T.);
#344=EDGE_CURVE('',#285,#286,#124,.T.);
#345=EDGE_CURVE('',#286,#283,#125,.T.);
#346=EDGE_CURVE('',#287,#288,#126,.T.);
#347=EDGE_CURVE('',#288,#289,#127,.T.);
#348=EDGE_CURVE('',#289,#290,#128,.T.);
#349=EDGE_CURVE('',#290,#287,#129,.T.);
#350=EDGE_CURVE('',#288,#291,#130,.T.);
#351=EDGE_CURVE('',#291,#292,#131,.T.);
#352=EDGE_CURVE('',#292,#289,#132,.T.);
#353=EDGE_CURVE('',#291,#281,#133,.T.);
#354=EDGE_CURVE('',#284,#292,#134,.T.);
#355=EDGE_CURVE('',#286,#290,#135,.T.);
#356=EDGE_CURVE('',#293,#293,#273,.T.);
#357=EDGE_CURVE('',#294,#294,#274,.T.);
#358=EDGE_CURVE('',#294,#293,#136,.T.);
#359=EDGE_CURVE('',#295,#287,#137,.T.);
#360=EDGE_CURVE('',#296,#295,#138,.T.);
#361=EDGE_CURVE('',#296,#297,#139,.T.);
#362=EDGE_CURVE('',#297,#298,#140,.T.);
#363=EDGE_CURVE('',#299,#298,#141,.T.);
#364=EDGE_CURVE('',#300,#299,#142,.T.);
#365=EDGE_CURVE('',#301,#300,#143,.T.);
#366=EDGE_CURVE('',#302,#301,#144,.T.);
#367=EDGE_CURVE('',#303,#302,#145,.T.);
#368=EDGE_CURVE('',#304,#303,#146,.T.);
#369=EDGE_CURVE('',#285,#304,#147,.T.);
#370=EDGE_CURVE('',#302,#305,#148,.T.);
#371=EDGE_CURVE('',#306,#305,#149,.T.);
#372=EDGE_CURVE('',#303,#306,#150,.T.);
#373=EDGE_CURVE('',#307,#306,#151,.T.);
#374=EDGE_CURVE('',#307,#304,#152,.T.);
#375=EDGE_CURVE('',#299,#308,#153,.T.);
#376=EDGE_CURVE('',#309,#308,#154,.T.);
#377=EDGE_CURVE('',#300,#309,#155,.T.);
#378=EDGE_CURVE('',#310,#309,#156,.T.);
#379=EDGE_CURVE('',#301,#310,#157,.T.);
#380=EDGE_CURVE('',#305,#310,#158,.T.);
#381=EDGE_CURVE('',#308,#307,#159,.T.);
#382=EDGE_CURVE('',#311,#311,#275,.T.);
#383=EDGE_CURVE('',#298,#312,#160,.T.);
#384=EDGE_CURVE('',#313,#312,#161,.T.);
#385=EDGE_CURVE('',#314,#313,#162,.T.);
#386=EDGE_CURVE('',#315,#314,#163,.T.);
#387=EDGE_CURVE('',#316,#315,#164,.T.);
#388=EDGE_CURVE('',#317,#316,#165,.T.);
#389=EDGE_CURVE('',#295,#317,#166,.T.);
#390=EDGE_CURVE('',#318,#318,#276,.T.);
#391=EDGE_CURVE('',#318,#311,#167,.T.);
#392=EDGE_CURVE('',#313,#319,#168,.T.);
#393=EDGE_CURVE('',#319,#320,#169,.T.);
#394=EDGE_CURVE('',#320,#314,#170,.T.);
#395=EDGE_CURVE('',#312,#321,#171,.T.);
#396=EDGE_CURVE('',#321,#319,#172,.T.);
#397=EDGE_CURVE('',#322,#320,#173,.T.);
#398=EDGE_CURVE('',#322,#321,#174,.T.);
#399=EDGE_CURVE('',#315,#323,#175,.T.);
#400=EDGE_CURVE('',#323,#324,#176,.T.);
#401=EDGE_CURVE('',#316,#324,#177,.T.);
#402=EDGE_CURVE('',#324,#325,#178,.T.);
#403=EDGE_CURVE('',#317,#325,#179,.T.);
#404=EDGE_CURVE('',#323,#326,#180,.T.);
#405=EDGE_CURVE('',#325,#326,#181,.T.);
#406=EDGE_CURVE('',#327,#296,#182,.T.);
#407=EDGE_CURVE('',#327,#328,#183,.T.);
#408=EDGE_CURVE('',#328,#297,#184,.T.);
#409=EDGE_CURVE('',#329,#327,#185,.T.);
#410=EDGE_CURVE('',#329,#330,#186,.T.);
#411=EDGE_CURVE('',#330,#328,#187,.T.);
#412=EDGE_CURVE('',#331,#329,#188,.T.);
#413=EDGE_CURVE('',#331,#332,#189,.T.);
#414=EDGE_CURVE('',#332,#330,#190,.T.);
#415=EDGE_CURVE('',#322,#332,#191,.T.);
#416=EDGE_CURVE('',#326,#331,#192,.T.);
#417=ORIENTED_EDGE('',*,*,#333,.T.);
#418=ORIENTED_EDGE('',*,*,#334,.T.);
#419=ORIENTED_EDGE('',*,*,#335,.F.);
#420=ORIENTED_EDGE('',*,*,#334,.F.);
#421=ORIENTED_EDGE('',*,*,#335,.T.);
#422=ORIENTED_EDGE('',*,*,#336,.T.);
#423=ORIENTED_EDGE('',*,*,#337,.T.);
#424=ORIENTED_EDGE('',*,*,#338,.T.);
#425=ORIENTED_EDGE('',*,*,#337,.F.);
#426=ORIENTED_EDGE('',*,*,#339,.T.);
#427=ORIENTED_EDGE('',*,*,#340,.T.);
#428=ORIENTED_EDGE('',*,*,#341,.T.);
#429=ORIENTED_EDGE('',*,*,#342,.F.);
#430=ORIENTED_EDGE('',*,*,#343,.T.);
#431=ORIENTED_EDGE('',*,*,#344,.T.);
#432=ORIENTED_EDGE('',*,*,#345,.T.);
#433=ORIENTED_EDGE('',*,*,#340,.F.);
#434=ORIENTED_EDGE('',*,*,#346,.T.);
#435=ORIENTED_EDGE('',*,*,#347,.T.);
#436=ORIENTED_EDGE('',*,*,#348,.T.);
#437=ORIENTED_EDGE('',*,*,#349,.T.);
#438=ORIENTED_EDGE('',*,*,#350,.T.);
#439=ORIENTED_EDGE('',*,*,#351,.T.);
#440=ORIENTED_EDGE('',*,*,#352,.T.);
#441=ORIENTED_EDGE('',*,*,#347,.F.);
#442=ORIENTED_EDGE('',*,*,#353,.T.);
#443=ORIENTED_EDGE('',*,*,#342,.T.);
#444=ORIENTED_EDGE('',*,*,#354,.T.);
#445=ORIENTED_EDGE('',*,*,#351,.F.);
#446=ORIENTED_EDGE('',*,*,#354,.F.);
#447=ORIENTED_EDGE('',*,*,#341,.F.);
#448=ORIENTED_EDGE('',*,*,#345,.F.);
#449=ORIENTED_EDGE('',*,*,#355,.T.);
#450=ORIENTED_EDGE('',*,*,#348,.F.);
#451=ORIENTED_EDGE('',*,*,#352,.F.);
#452=ORIENTED_EDGE('',*,*,#356,.T.);
#453=ORIENTED_EDGE('',*,*,#357,.T.);
#454=ORIENTED_EDGE('',*,*,#358,.T.);
#455=ORIENTED_EDGE('',*,*,#356,.F.);
#456=ORIENTED_EDGE('',*,*,#358,.F.);
#457=ORIENTED_EDGE('',*,*,#346,.F.);
#458=ORIENTED_EDGE('',*,*,#359,.F.);
#459=ORIENTED_EDGE('',*,*,#360,.F.);
#460=ORIENTED_EDGE('',*,*,#361,.T.);
#461=ORIENTED_EDGE('',*,*,#362,.T.);
#462=ORIENTED_EDGE('',*,*,#363,.F.);
#463=ORIENTED_EDGE('',*,*,#364,.F.);
#464=ORIENTED_EDGE('',*,*,#365,.F.);
#465=ORIENTED_EDGE('',*,*,#366,.F.);
#466=ORIENTED_EDGE('',*,*,#367,.F.);
#467=ORIENTED_EDGE('',*,*,#368,.F.);
#468=ORIENTED_EDGE('',*,*,#369,.F.);
#469=ORIENTED_EDGE('',*,*,#343,.F.);
#470=ORIENTED_EDGE('',*,*,#339,.F.);
#471=ORIENTED_EDGE('',*,*,#353,.F.);
#472=ORIENTED_EDGE('',*,*,#350,.F.);
#473=ORIENTED_EDGE('',*,*,#333,.F.);
#474=ORIENTED_EDGE('',*,*,#336,.F.);
#475=ORIENTED_EDGE('',*,*,#367,.T.);
#476=ORIENTED_EDGE('',*,*,#370,.T.);
#477=ORIENTED_EDGE('',*,*,#371,.F.);
#478=ORIENTED_EDGE('',*,*,#372,.F.);
#479=ORIENTED_EDGE('',*,*,#368,.T.);
#480=ORIENTED_EDGE('',*,*,#372,.T.);
#481=ORIENTED_EDGE('',*,*,#373,.F.);
#482=ORIENTED_EDGE('',*,*,#374,.T.);
#483=ORIENTED_EDGE('',*,*,#364,.T.);
#484=ORIENTED_EDGE('',*,*,#375,.T.);
#485=ORIENTED_EDGE('',*,*,#376,.F.);
#486=ORIENTED_EDGE('',*,*,#377,.F.);
#487=ORIENTED_EDGE('',*,*,#365,.T.);
#488=ORIENTED_EDGE('',*,*,#377,.T.);
#489=ORIENTED_EDGE('',*,*,#378,.F.);
#490=ORIENTED_EDGE('',*,*,#379,.F.);
#491=ORIENTED_EDGE('',*,*,#366,.T.);
#492=ORIENTED_EDGE('',*,*,#379,.T.);
#493=ORIENTED_EDGE('',*,*,#380,.F.);
#494=ORIENTED_EDGE('',*,*,#370,.F.);
#495=ORIENTED_EDGE('',*,*,#380,.T.);
#496=ORIENTED_EDGE('',*,*,#378,.T.);
#497=ORIENTED_EDGE('',*,*,#376,.T.);
#498=ORIENTED_EDGE('',*,*,#381,.T.);
#499=ORIENTED_EDGE('',*,*,#373,.T.);
#500=ORIENTED_EDGE('',*,*,#371,.T.);
#501=ORIENTED_EDGE('',*,*,#382,.T.);
#502=ORIENTED_EDGE('',*,*,#349,.F.);
#503=ORIENTED_EDGE('',*,*,#355,.F.);
#504=ORIENTED_EDGE('',*,*,#344,.F.);
#505=ORIENTED_EDGE('',*,*,#369,.T.);
#506=ORIENTED_EDGE('',*,*,#374,.F.);
#507=ORIENTED_EDGE('',*,*,#381,.F.);
#508=ORIENTED_EDGE('',*,*,#375,.F.);
#509=ORIENTED_EDGE('',*,*,#363,.T.);
#510=ORIENTED_EDGE('',*,*,#383,.T.);
#511=ORIENTED_EDGE('',*,*,#384,.F.);
#512=ORIENTED_EDGE('',*,*,#385,.F.);
#513=ORIENTED_EDGE('',*,*,#386,.F.);
#514=ORIENTED_EDGE('',*,*,#387,.F.);
#515=ORIENTED_EDGE('',*,*,#388,.F.);
#516=ORIENTED_EDGE('',*,*,#389,.F.);
#517=ORIENTED_EDGE('',*,*,#359,.T.);
#518=ORIENTED_EDGE('',*,*,#390,.T.);
#519=ORIENTED_EDGE('',*,*,#391,.T.);
#520=ORIENTED_EDGE('',*,*,#382,.F.);
#521=ORIENTED_EDGE('',*,*,#391,.F.);
#522=ORIENTED_EDGE('',*,*,#385,.T.);
#523=ORIENTED_EDGE('',*,*,#392,.T.);
#524=ORIENTED_EDGE('',*,*,#393,.T.);
#525=ORIENTED_EDGE('',*,*,#394,.T.);
#526=ORIENTED_EDGE('',*,*,#384,.T.);
#527=ORIENTED_EDGE('',*,*,#395,.T.);
#528=ORIENTED_EDGE('',*,*,#396,.T.);
#529=ORIENTED_EDGE('',*,*,#392,.F.);
#530=ORIENTED_EDGE('',*,*,#390,.F.);
#531=ORIENTED_EDGE('',*,*,#397,.T.);
#532=ORIENTED_EDGE('',*,*,#393,.F.);
#533=ORIENTED_EDGE('',*,*,#396,.F.);
#534=ORIENTED_EDGE('',*,*,#398,.F.);
#535=ORIENTED_EDGE('',*,*,#387,.T.);
#536=ORIENTED_EDGE('',*,*,#399,.T.);
#537=ORIENTED_EDGE('',*,*,#400,.T.);
#538=ORIENTED_EDGE('',*,*,#401,.F.);
#539=ORIENTED_EDGE('',*,*,#388,.T.);
#540=ORIENTED_EDGE('',*,*,#401,.T.);
#541=ORIENTED_EDGE('',*,*,#402,.T.);
#542=ORIENTED_EDGE('',*,*,#403,.F.);
#543=ORIENTED_EDGE('',*,*,#357,.F.);
#544=ORIENTED_EDGE('',*,*,#402,.F.);
#545=ORIENTED_EDGE('',*,*,#400,.F.);
#546=ORIENTED_EDGE('',*,*,#404,.T.);
#547=ORIENTED_EDGE('',*,*,#405,.F.);
#548=ORIENTED_EDGE('',*,*,#406,.F.);
#549=ORIENTED_EDGE('',*,*,#407,.T.);
#550=ORIENTED_EDGE('',*,*,#408,.T.);
#551=ORIENTED_EDGE('',*,*,#361,.F.);
#552=ORIENTED_EDGE('',*,*,#409,.F.);
#553=ORIENTED_EDGE('',*,*,#410,.T.);
#554=ORIENTED_EDGE('',*,*,#411,.T.);
#555=ORIENTED_EDGE('',*,*,#407,.F.);
#556=ORIENTED_EDGE('',*,*,#338,.F.);
#557=ORIENTED_EDGE('',*,*,#412,.F.);
#558=ORIENTED_EDGE('',*,*,#413,.T.);
#559=ORIENTED_EDGE('',*,*,#414,.T.);
#560=ORIENTED_EDGE('',*,*,#410,.F.);
#561=ORIENTED_EDGE('',*,*,#394,.F.);
#562=ORIENTED_EDGE('',*,*,#397,.F.);
#563=ORIENTED_EDGE('',*,*,#415,.T.);
#564=ORIENTED_EDGE('',*,*,#413,.F.);
#565=ORIENTED_EDGE('',*,*,#416,.F.);
#566=ORIENTED_EDGE('',*,*,#404,.F.);
#567=ORIENTED_EDGE('',*,*,#399,.F.);
#568=ORIENTED_EDGE('',*,*,#386,.T.);
#569=ORIENTED_EDGE('',*,*,#362,.F.);
#570=ORIENTED_EDGE('',*,*,#408,.F.);
#571=ORIENTED_EDGE('',*,*,#411,.F.);
#572=ORIENTED_EDGE('',*,*,#414,.F.);
#573=ORIENTED_EDGE('',*,*,#415,.F.);
#574=ORIENTED_EDGE('',*,*,#398,.T.);
#575=ORIENTED_EDGE('',*,*,#395,.F.);
#576=ORIENTED_EDGE('',*,*,#383,.F.);
#577=ORIENTED_EDGE('',*,*,#360,.T.);
#578=ORIENTED_EDGE('',*,*,#389,.T.);
#579=ORIENTED_EDGE('',*,*,#403,.T.);
#580=ORIENTED_EDGE('',*,*,#405,.T.);
#581=ORIENTED_EDGE('',*,*,#416,.T.);
#582=ORIENTED_EDGE('',*,*,#412,.T.);
#583=ORIENTED_EDGE('',*,*,#409,.T.);
#584=ORIENTED_EDGE('',*,*,#406,.T.);
#585=CYLINDRICAL_SURFACE('',#675,2.1);
#586=CYLINDRICAL_SURFACE('',#679,1.6);
#587=CYLINDRICAL_SURFACE('',#689,1.6);
#588=CYLINDRICAL_SURFACE('',#700,1.6);
#589=STYLED_ITEM('',(#1061),#621);
#590=STYLED_ITEM('',(#1061),#622);
#591=STYLED_ITEM('',(#1061),#623);
#592=STYLED_ITEM('',(#1061),#624);
#593=STYLED_ITEM('',(#1061),#625);
#594=STYLED_ITEM('',(#1061),#626);
#595=STYLED_ITEM('',(#1061),#627);
#596=STYLED_ITEM('',(#1061),#628);
#597=STYLED_ITEM('',(#1061),#629);
#598=STYLED_ITEM('',(#1061),#630);
#599=STYLED_ITEM('',(#1061),#631);
#600=STYLED_ITEM('',(#1061),#632);
#601=STYLED_ITEM('',(#1061),#633);
#602=STYLED_ITEM('',(#1061),#634);
#603=STYLED_ITEM('',(#1061),#635);
#604=STYLED_ITEM('',(#1061),#636);
#605=STYLED_ITEM('',(#1061),#637);
#606=STYLED_ITEM('',(#1061),#638);
#607=STYLED_ITEM('',(#1061),#639);
#608=STYLED_ITEM('',(#1061),#640);
#609=STYLED_ITEM('',(#1061),#641);
#610=STYLED_ITEM('',(#1061),#642);
#611=STYLED_ITEM('',(#1061),#643);
#612=STYLED_ITEM('',(#1061),#644);
#613=STYLED_ITEM('',(#1061),#645);
#614=STYLED_ITEM('',(#1061),#646);
#615=STYLED_ITEM('',(#1061),#647);
#616=STYLED_ITEM('',(#1061),#648);
#617=STYLED_ITEM('',(#1061),#649);
#618=STYLED_ITEM('',(#1061),#650);
#619=STYLED_ITEM('',(#1061),#651);
#620=STYLED_ITEM('',(#1061),#13);
#621=ADVANCED_FACE('',(#48),#585,.F.);
#622=ADVANCED_FACE('',(#49),#21,.F.);
#623=ADVANCED_FACE('',(#50),#586,.F.);
#624=ADVANCED_FACE('',(#51),#22,.F.);
#625=ADVANCED_FACE('',(#52),#23,.F.);
#626=ADVANCED_FACE('',(#53),#24,.F.);
#627=ADVANCED_FACE('',(#54),#25,.F.);
#628=ADVANCED_FACE('',(#55),#26,.F.);
#629=ADVANCED_FACE('',(#56,#14),#27,.T.);
#630=ADVANCED_FACE('',(#57),#587,.F.);
#631=ADVANCED_FACE('',(#58,#15,#16),#28,.F.);
#632=ADVANCED_FACE('',(#59),#29,.T.);
#633=ADVANCED_FACE('',(#60),#30,.T.);
#634=ADVANCED_FACE('',(#61),#31,.T.);
#635=ADVANCED_FACE('',(#62),#32,.T.);
#636=ADVANCED_FACE('',(#63),#33,.T.);
#637=ADVANCED_FACE('',(#64,#17),#34,.F.);
#638=ADVANCED_FACE('',(#65),#35,.F.);
#639=ADVANCED_FACE('',(#66),#588,.F.);
#640=ADVANCED_FACE('',(#67),#36,.F.);
#641=ADVANCED_FACE('',(#68,#18),#37,.F.);
#642=ADVANCED_FACE('',(#69),#38,.F.);
#643=ADVANCED_FACE('',(#70),#39,.F.);
#644=ADVANCED_FACE('',(#71,#19),#40,.F.);
#645=ADVANCED_FACE('',(#72),#41,.F.);
#646=ADVANCED_FACE('',(#73),#42,.F.);
#647=ADVANCED_FACE('',(#74,#20),#43,.F.);
#648=ADVANCED_FACE('',(#75),#44,.F.);
#649=ADVANCED_FACE('',(#76),#45,.F.);
#650=ADVANCED_FACE('',(#77),#46,.F.);
#651=ADVANCED_FACE('',(#78),#47,.T.);
#652=CLOSED_SHELL('',(#621,#622,#623,#624,#625,#626,#627,#628,#629,#630,
#631,#632,#633,#634,#635,#636,#637,#638,#639,#640,#641,#642,#643,#644,#645,
#646,#647,#648,#649,#650,#651));
#653=DERIVED_UNIT_ELEMENT(#656,1.);
#654=DERIVED_UNIT_ELEMENT(#1047,-3.);
#655=DIMENSIONAL_EXPONENTS(0.,1.,0.,0.,0.,0.,0.);
#656=(
CONVERSION_BASED_UNIT('gram',#658)
MASS_UNIT()
NAMED_UNIT(#655)
);
#657=(
MASS_UNIT()
NAMED_UNIT(*)
SI_UNIT(.KILO.,.GRAM.)
);
#658=MASS_MEASURE_WITH_UNIT(MASS_MEASURE(0.001),#657);
#659=DERIVED_UNIT((#653,#654));
#660=MEASURE_REPRESENTATION_ITEM('density measure',
POSITIVE_RATIO_MEASURE(0.899),#659);
#661=PROPERTY_DEFINITION_REPRESENTATION(#666,#663);
#662=PROPERTY_DEFINITION_REPRESENTATION(#667,#664);
#663=REPRESENTATION('material name',(#665),#1044);
#664=REPRESENTATION('density',(#660),#1044);
#665=DESCRIPTIVE_REPRESENTATION_ITEM('\X2\041F043E043B0438043F0440043E043F0438043B0435043D\X0\',
'\X2\041F043E043B0438043F0440043E043F0438043B0435043D\X0\');
#666=PROPERTY_DEFINITION('material property','material name',#1054);
#667=PROPERTY_DEFINITION('material property','density of part',#1054);
#668=DATE_TIME_ROLE('creation_date');
#669=APPLIED_DATE_AND_TIME_ASSIGNMENT(#670,#668,(#1054));
#670=DATE_AND_TIME(#671,#672);
#671=CALENDAR_DATE(2025,23,12);
#672=LOCAL_TIME(0,0,0.,#673);
#673=COORDINATED_UNIVERSAL_TIME_OFFSET(0,0,.BEHIND.);
#674=AXIS2_PLACEMENT_3D('placement',#870,#714,#715);
#675=AXIS2_PLACEMENT_3D('',#871,#716,#717);
#676=AXIS2_PLACEMENT_3D('',#873,#718,#719);
#677=AXIS2_PLACEMENT_3D('',#876,#721,#722);
#678=AXIS2_PLACEMENT_3D('',#877,#723,#724);
#679=AXIS2_PLACEMENT_3D('',#878,#725,#726);
#680=AXIS2_PLACEMENT_3D('',#880,#727,#728);
#681=AXIS2_PLACEMENT_3D('',#883,#730,#731);
#682=AXIS2_PLACEMENT_3D('',#884,#732,#733);
#683=AXIS2_PLACEMENT_3D('',#893,#738,#739);
#684=AXIS2_PLACEMENT_3D('',#899,#743,#744);
#685=AXIS2_PLACEMENT_3D('',#908,#749,#750);
#686=AXIS2_PLACEMENT_3D('',#914,#754,#755);
#687=AXIS2_PLACEMENT_3D('',#917,#758,#759);
#688=AXIS2_PLACEMENT_3D('',#920,#761,#762);
#689=AXIS2_PLACEMENT_3D('',#921,#763,#764);
#690=AXIS2_PLACEMENT_3D('',#923,#765,#766);
#691=AXIS2_PLACEMENT_3D('',#925,#768,#769);
#692=AXIS2_PLACEMENT_3D('',#947,#781,#782);
#693=AXIS2_PLACEMENT_3D('',#953,#786,#787);
#694=AXIS2_PLACEMENT_3D('',#957,#790,#791);
#695=AXIS2_PLACEMENT_3D('',#963,#795,#796);
#696=AXIS2_PLACEMENT_3D('',#967,#799,#800);
#697=AXIS2_PLACEMENT_3D('',#969,#802,#803);
#698=AXIS2_PLACEMENT_3D('',#972,#805,#806);
#699=AXIS2_PLACEMENT_3D('',#973,#807,#808);
#700=AXIS2_PLACEMENT_3D('',#987,#816,#817);
#701=AXIS2_PLACEMENT_3D('',#989,#818,#819);
#702=AXIS2_PLACEMENT_3D('',#991,#821,#822);
#703=AXIS2_PLACEMENT_3D('',#997,#826,#827);
#704=AXIS2_PLACEMENT_3D('',#1001,#830,#831);
#705=AXIS2_PLACEMENT_3D('',#1005,#834,#835);
#706=AXIS2_PLACEMENT_3D('',#1011,#839,#840);
#707=AXIS2_PLACEMENT_3D('',#1015,#843,#844);
#708=AXIS2_PLACEMENT_3D('',#1019,#847,#848);
#709=AXIS2_PLACEMENT_3D('',#1025,#852,#853);
#710=AXIS2_PLACEMENT_3D('',#1031,#857,#858);
#711=AXIS2_PLACEMENT_3D('',#1037,#862,#863);
#712=AXIS2_PLACEMENT_3D('',#1040,#866,#867);
#713=AXIS2_PLACEMENT_3D('',#1041,#868,#869);
#714=DIRECTION('axis',(0.,0.,1.));
#715=DIRECTION('refdir',(1.,0.,0.));
#716=DIRECTION('center_axis',(-2.22044604925031E-16,1.,0.));
#717=DIRECTION('ref_axis',(1.,2.22044604925031E-16,0.));
#718=DIRECTION('center_axis',(-2.36217664813863E-16,1.,0.));
#719=DIRECTION('ref_axis',(1.,2.22044604925031E-16,0.));
#720=DIRECTION('',(2.22044604925031E-16,-1.,0.));
#721=DIRECTION('center_axis',(-2.36217664813863E-16,1.,0.));
#722=DIRECTION('ref_axis',(1.,2.36217664813863E-16,0.));
#723=DIRECTION('center_axis',(2.36217664813863E-16,-1.,0.));
#724=DIRECTION('ref_axis',(0.,0.,-1.));
#725=DIRECTION('center_axis',(-2.37904933848248E-16,1.,0.));
#726=DIRECTION('ref_axis',(1.,2.37904933848248E-16,0.));
#727=DIRECTION('center_axis',(-2.36217664813863E-16,1.,0.));
#728=DIRECTION('ref_axis',(1.,2.37904933848248E-16,0.));
#729=DIRECTION('',(2.37904933848248E-16,-1.,0.));
#730=DIRECTION('center_axis',(1.01798056974041E-16,-1.,0.));
#731=DIRECTION('ref_axis',(1.,2.37904933848248E-16,0.));
#732=DIRECTION('center_axis',(0.500000000000002,0.,-0.866025403784438));
#733=DIRECTION('ref_axis',(0.866025403784438,2.04570498551443E-16,0.500000000000002));
#734=DIRECTION('',(-0.866025403784438,-2.04570498551443E-16,-0.500000000000002));
#735=DIRECTION('',(0.,-1.,0.));
#736=DIRECTION('',(0.866025403784438,2.04570498551443E-16,0.500000000000002));
#737=DIRECTION('',(0.,-1.,0.));
#738=DIRECTION('center_axis',(-0.5,0.,-0.866025403784439));
#739=DIRECTION('ref_axis',(0.866025403784438,2.04570498551443E-16,-0.5));
#740=DIRECTION('',(-0.866025403784438,-2.04570498551443E-16,0.5));
#741=DIRECTION('',(0.,-1.,0.));
#742=DIRECTION('',(0.866025403784438,2.04570498551443E-16,-0.5));
#743=DIRECTION('center_axis',(-0.5,0.,0.866025403784439));
#744=DIRECTION('ref_axis',(-0.866025403784439,-2.04570498551443E-16,-0.5));
#745=DIRECTION('',(0.866025403784439,2.04570498551443E-16,0.5));
#746=DIRECTION('',(0.,-1.,0.));
#747=DIRECTION('',(-0.866025403784439,-2.04570498551443E-16,-0.5));
#748=DIRECTION('',(0.,1.,0.));
#749=DIRECTION('center_axis',(0.499999999999999,0.,0.866025403784439));
#750=DIRECTION('ref_axis',(-0.866025403784439,-2.04570498551443E-16,0.499999999999999));
#751=DIRECTION('',(0.866025403784439,2.04570498551443E-16,-0.499999999999999));
#752=DIRECTION('',(0.,-1.,0.));
#753=DIRECTION('',(-0.866025403784439,-2.04570498551443E-16,0.499999999999999));
#754=DIRECTION('center_axis',(1.,0.,2.79703663473974E-15));
#755=DIRECTION('ref_axis',(-2.79703663473974E-15,-6.60709462257047E-31,
1.));
#756=DIRECTION('',(2.79703663473974E-15,6.60709462257047E-31,-1.));
#757=DIRECTION('',(-2.79703663473974E-15,-6.60709462257047E-31,1.));
#758=DIRECTION('center_axis',(-2.36217664813863E-16,1.,0.));
#759=DIRECTION('ref_axis',(0.,0.,1.));
#760=DIRECTION('',(0.,0.,1.));
#761=DIRECTION('center_axis',(2.36217664813863E-16,-1.,0.));
#762=DIRECTION('ref_axis',(1.,0.,0.));
#763=DIRECTION('center_axis',(0.,1.,0.));
#764=DIRECTION('ref_axis',(1.,0.,0.));
#765=DIRECTION('center_axis',(0.,-1.,0.));
#766=DIRECTION('ref_axis',(1.,0.,0.));
#767=DIRECTION('',(0.,1.,0.));
#768=DIRECTION('center_axis',(2.36217664813863E-16,-1.,0.));
#769=DIRECTION('ref_axis',(-1.,-2.36217664813863E-16,0.));
#770=DIRECTION('',(0.,0.,-1.));
#771=DIRECTION('',(-1.,-2.36217664813863E-16,0.));
#772=DIRECTION('',(0.,0.,-1.));
#773=DIRECTION('',(-1.,-2.36217664813863E-16,0.));
#774=DIRECTION('',(0.,0.,-1.));
#775=DIRECTION('',(-0.866025403784439,-2.04570498551443E-16,0.5));
#776=DIRECTION('',(-0.866025403784439,-2.04570498551443E-16,-0.499999999999999));
#777=DIRECTION('',(-2.79703663473974E-15,-6.60709462257047E-31,-1.));
#778=DIRECTION('',(0.866025403784438,2.04570498551443E-16,-0.500000000000002));
#779=DIRECTION('',(0.866025403784438,2.04570498551443E-16,0.5));
#780=DIRECTION('',(0.,0.,-1.));
#781=DIRECTION('center_axis',(-0.500000000000002,0.,-0.866025403784438));
#782=DIRECTION('ref_axis',(0.866025403784438,2.04570498551443E-16,-0.500000000000002));
#783=DIRECTION('',(0.,-1.,0.));
#784=DIRECTION('',(0.866025403784438,2.04570498551443E-16,-0.500000000000002));
#785=DIRECTION('',(0.,-1.,0.));
#786=DIRECTION('center_axis',(0.5,0.,-0.866025403784439));
#787=DIRECTION('ref_axis',(0.866025403784438,2.04570498551443E-16,0.5));
#788=DIRECTION('',(0.866025403784438,2.04570498551443E-16,0.5));
#789=DIRECTION('',(0.,1.,0.));
#790=DIRECTION('center_axis',(0.5,0.,0.866025403784439));
#791=DIRECTION('ref_axis',(-0.866025403784439,-2.04570498551443E-16,0.5));
#792=DIRECTION('',(0.,-1.,0.));
#793=DIRECTION('',(-0.866025403784439,-2.04570498551443E-16,0.5));
#794=DIRECTION('',(0.,-1.,0.));
#795=DIRECTION('center_axis',(-0.499999999999999,0.,0.866025403784439));
#796=DIRECTION('ref_axis',(-0.866025403784439,-2.04570498551443E-16,-0.499999999999999));
#797=DIRECTION('',(-0.866025403784439,-2.04570498551443E-16,-0.499999999999999));
#798=DIRECTION('',(0.,-1.,0.));
#799=DIRECTION('center_axis',(-1.,0.,2.79703663473974E-15));
#800=DIRECTION('ref_axis',(-2.79703663473974E-15,-6.60709462257047E-31,
-1.));
#801=DIRECTION('',(-2.79703663473974E-15,-6.60709462257047E-31,-1.));
#802=DIRECTION('center_axis',(2.36217664813863E-16,-1.,0.));
#803=DIRECTION('ref_axis',(0.,0.,-1.));
#804=DIRECTION('',(0.,0.,1.));
#805=DIRECTION('center_axis',(2.36217664813863E-16,-1.,0.));
#806=DIRECTION('ref_axis',(1.,0.,0.));
#807=DIRECTION('center_axis',(1.,0.,0.));
#808=DIRECTION('ref_axis',(0.,-1.,0.));
#809=DIRECTION('',(0.,-1.,0.));
#810=DIRECTION('',(0.,0.,-1.));
#811=DIRECTION('',(0.,-1.,0.));
#812=DIRECTION('',(0.,0.,-1.));
#813=DIRECTION('',(0.,1.,0.));
#814=DIRECTION('',(0.,0.,-1.));
#815=DIRECTION('',(0.,-1.,0.));
#816=DIRECTION('center_axis',(0.,-1.,0.));
#817=DIRECTION('ref_axis',(1.,0.,0.));
#818=DIRECTION('center_axis',(0.,-1.,0.));
#819=DIRECTION('ref_axis',(1.,0.,0.));
#820=DIRECTION('',(0.,1.,0.));
#821=DIRECTION('center_axis',(0.,0.,-1.));
#822=DIRECTION('ref_axis',(0.,1.,0.));
#823=DIRECTION('',(1.,0.,0.));
#824=DIRECTION('',(0.,1.,0.));
#825=DIRECTION('',(-1.,0.,0.));
#826=DIRECTION('center_axis',(0.,1.,0.));
#827=DIRECTION('ref_axis',(0.,0.,1.));
#828=DIRECTION('',(1.,0.,0.));
#829=DIRECTION('',(0.,0.,1.));
#830=DIRECTION('center_axis',(-1.,0.,0.));
#831=DIRECTION('ref_axis',(0.,0.,1.));
#832=DIRECTION('',(0.,0.,1.));
#833=DIRECTION('',(0.,-1.,0.));
#834=DIRECTION('center_axis',(0.,0.,1.));
#835=DIRECTION('ref_axis',(0.,-1.,0.));
#836=DIRECTION('',(1.,0.,0.));
#837=DIRECTION('',(0.,-1.,0.));
#838=DIRECTION('',(1.,0.,0.));
#839=DIRECTION('center_axis',(0.,1.,0.));
#840=DIRECTION('ref_axis',(0.,0.,1.));
#841=DIRECTION('',(0.,0.,1.));
#842=DIRECTION('',(1.,0.,0.));
#843=DIRECTION('center_axis',(-1.,0.,0.));
#844=DIRECTION('ref_axis',(0.,0.,1.));
#845=DIRECTION('',(0.,0.,1.));
#846=DIRECTION('',(0.,1.,0.));
#847=DIRECTION('center_axis',(-1.,-2.77555756156289E-16,0.));
#848=DIRECTION('ref_axis',(-2.77555756156289E-16,1.,0.));
#849=DIRECTION('',(-2.77555756156289E-16,1.,0.));
#850=DIRECTION('',(0.,0.,-1.));
#851=DIRECTION('',(-2.77555756156289E-16,1.,0.));
#852=DIRECTION('center_axis',(-1.01798056974041E-16,1.,0.));
#853=DIRECTION('ref_axis',(1.,1.01798056974041E-16,0.));
#854=DIRECTION('',(1.,1.01798056974041E-16,0.));
#855=DIRECTION('',(0.,0.,-1.));
#856=DIRECTION('',(1.,1.01798056974041E-16,0.));
#857=DIRECTION('center_axis',(1.,0.,0.));
#858=DIRECTION('ref_axis',(0.,-1.,0.));
#859=DIRECTION('',(0.,-1.,0.));
#860=DIRECTION('',(0.,0.,-1.));
#861=DIRECTION('',(0.,-1.,0.));
#862=DIRECTION('center_axis',(0.,1.,0.));
#863=DIRECTION('ref_axis',(1.,0.,0.));
#864=DIRECTION('',(1.,0.,0.));
#865=DIRECTION('',(1.,0.,0.));
#866=DIRECTION('center_axis',(0.,0.,1.));
#867=DIRECTION('ref_axis',(1.,0.,0.));
#868=DIRECTION('center_axis',(0.,0.,1.));
#869=DIRECTION('ref_axis',(1.,0.,0.));
#870=CARTESIAN_POINT('',(0.,0.,0.));
#871=CARTESIAN_POINT('Origin',(1.80000000000066,16.,-18.));
#872=CARTESIAN_POINT('',(-0.299999999999338,16.,-18.));
#873=CARTESIAN_POINT('Origin',(1.80000000000066,16.,-18.));
#874=CARTESIAN_POINT('',(-0.299999999999337,11.,-18.));
#875=CARTESIAN_POINT('',(-0.299999999999338,16.,-18.));
#876=CARTESIAN_POINT('Origin',(1.80000000000066,11.,-18.));
#877=CARTESIAN_POINT('Origin',(1.80000000000066,11.,-18.));
#878=CARTESIAN_POINT('Origin',(4.80000000000001,16.,-52.));
#879=CARTESIAN_POINT('',(3.20000000000001,16.,-52.));
#880=CARTESIAN_POINT('Origin',(4.80000000000001,16.,-52.));
#881=CARTESIAN_POINT('',(3.20000000000002,1.83979815509312E-15,-52.));
#882=CARTESIAN_POINT('',(3.20000000000001,16.,-52.));
#883=CARTESIAN_POINT('Origin',(4.80000000000002,2.22044604925031E-15,-52.));
#884=CARTESIAN_POINT('Origin',(-17.4,16.,-9.17542648054294));
#885=CARTESIAN_POINT('',(-14.65,16.,-7.58771324027146));
#886=CARTESIAN_POINT('',(-17.4,16.,-9.17542648054294));
#887=CARTESIAN_POINT('',(-5.81346189432335,16.,-2.48593558625465));
#888=CARTESIAN_POINT('',(-17.4,13.6,-9.17542648054294));
#889=CARTESIAN_POINT('',(-17.4,16.,-9.17542648054294));
#890=CARTESIAN_POINT('',(-14.65,13.6,-7.58771324027146));
#891=CARTESIAN_POINT('',(-14.65,13.6,-7.58771324027146));
#892=CARTESIAN_POINT('',(-14.65,16.,-7.58771324027146));
#893=CARTESIAN_POINT('Origin',(-20.,16.,-7.6743157806499));
#894=CARTESIAN_POINT('',(-20.,16.,-7.6743157806499));
#895=CARTESIAN_POINT('',(-11.0865381056767,16.,-12.820505404749));
#896=CARTESIAN_POINT('',(-20.,13.6,-7.6743157806499));
#897=CARTESIAN_POINT('',(-20.,16.,-7.6743157806499));
#898=CARTESIAN_POINT('',(-17.4,13.6,-9.17542648054294));
#899=CARTESIAN_POINT('Origin',(-17.4,16.,-2.82457351945706));
#900=CARTESIAN_POINT('',(-20.,16.,-4.32568421935009));
#901=CARTESIAN_POINT('',(-17.4,16.,-2.82457351945706));
#902=CARTESIAN_POINT('',(-7.18846189432333,16.,3.07106075469548));
#903=CARTESIAN_POINT('',(-17.4,13.6,-2.82457351945706));
#904=CARTESIAN_POINT('',(-17.4,16.,-2.82457351945706));
#905=CARTESIAN_POINT('',(-20.,13.6,-4.32568421935009));
#906=CARTESIAN_POINT('',(-20.15,13.6,-4.41228675972853));
#907=CARTESIAN_POINT('',(-20.,16.,-4.3256842193501));
#908=CARTESIAN_POINT('Origin',(-14.65,16.,-4.41228675972853));
#909=CARTESIAN_POINT('',(-14.65,16.,-4.41228675972853));
#910=CARTESIAN_POINT('',(-7.03653810567664,16.,-8.80792103388106));
#911=CARTESIAN_POINT('',(-14.65,13.6,-4.41228675972853));
#912=CARTESIAN_POINT('',(-14.65,16.,-4.41228675972853));
#913=CARTESIAN_POINT('',(-17.4,13.6,-2.82457351945706));
#914=CARTESIAN_POINT('Origin',(-14.65,16.,-7.58771324027146));
#915=CARTESIAN_POINT('',(-14.65,16.,-3.79385662013576));
#916=CARTESIAN_POINT('',(-14.65,13.6,-4.41228675972853));
#917=CARTESIAN_POINT('Origin',(-17.325,13.6,-6.00000000000001));
#918=CARTESIAN_POINT('',(-20.,13.6,-3.));
#919=CARTESIAN_POINT('',(-19.,13.6,-6.00000000000001));
#920=CARTESIAN_POINT('Origin',(-17.4,13.6,-6.00000000000001));
#921=CARTESIAN_POINT('Origin',(-17.4,0.,-6.00000000000001));
#922=CARTESIAN_POINT('',(-19.,0.,-6.00000000000001));
#923=CARTESIAN_POINT('Origin',(-17.4,0.,-6.00000000000001));
#924=CARTESIAN_POINT('',(-19.,0.,-6.00000000000001));
#925=CARTESIAN_POINT('Origin',(8.2,16.,0.));
#926=CARTESIAN_POINT('',(-20.,16.,0.));
#927=CARTESIAN_POINT('',(-20.,16.,0.));
#928=CARTESIAN_POINT('',(8.2,16.,0.));
#929=CARTESIAN_POINT('',(8.2,16.,0.));
#930=CARTESIAN_POINT('',(8.2,16.,-56.));
#931=CARTESIAN_POINT('',(8.2,16.,0.));
#932=CARTESIAN_POINT('',(-20.,16.,-56.));
#933=CARTESIAN_POINT('',(8.2,16.,-56.));
#934=CARTESIAN_POINT('',(-20.,16.,-51.6743157806499));
#935=CARTESIAN_POINT('',(-20.,16.,0.));
#936=CARTESIAN_POINT('',(-17.4,16.,-53.1754264805429));
#937=CARTESIAN_POINT('',(-19.3128175473055,16.,-52.0710607546955));
#938=CARTESIAN_POINT('',(-14.65,16.,-51.5877132402715));
#939=CARTESIAN_POINT('',(5.08781754730549,16.,-40.192078966119));
#940=CARTESIAN_POINT('',(-14.65,16.,-48.4122867597285));
#941=CARTESIAN_POINT('',(-14.6499999999999,16.,-24.2061433798642));
#942=CARTESIAN_POINT('',(-17.4,16.,-46.8245735194571));
#943=CARTESIAN_POINT('',(-17.9378175473055,16.,-46.5140644137453));
#944=CARTESIAN_POINT('',(-20.,16.,-48.3256842193501));
#945=CARTESIAN_POINT('',(1.03781754730549,16.,-36.179494595251));
#946=CARTESIAN_POINT('',(-20.,16.,0.));
#947=CARTESIAN_POINT('Origin',(-17.4,16.,-46.8245735194571));
#948=CARTESIAN_POINT('',(-14.65,13.6,-48.4122867597285));
#949=CARTESIAN_POINT('',(-14.65,16.,-48.4122867597285));
#950=CARTESIAN_POINT('',(-17.4,13.6,-46.8245735194571));
#951=CARTESIAN_POINT('',(-14.65,13.6,-48.4122867597285));
#952=CARTESIAN_POINT('',(-17.4,16.,-46.8245735194571));
#953=CARTESIAN_POINT('Origin',(-20.,16.,-48.3256842193501));
#954=CARTESIAN_POINT('',(-20.,13.6,-48.3256842193501));
#955=CARTESIAN_POINT('',(-17.4,13.6,-46.8245735194571));
#956=CARTESIAN_POINT('',(-20.,16.,-48.3256842193501));
#957=CARTESIAN_POINT('Origin',(-17.4,16.,-53.1754264805429));
#958=CARTESIAN_POINT('',(-20.,13.6,-51.6743157806499));
#959=CARTESIAN_POINT('',(-20.,16.,-51.6743157806499));
#960=CARTESIAN_POINT('',(-17.4,13.6,-53.1754264805429));
#961=CARTESIAN_POINT('',(-20.15,13.6,-51.5877132402715));
#962=CARTESIAN_POINT('',(-17.4,16.,-53.1754264805429));
#963=CARTESIAN_POINT('Origin',(-14.65,16.,-51.5877132402715));
#964=CARTESIAN_POINT('',(-14.65,13.6,-51.5877132402715));
#965=CARTESIAN_POINT('',(-17.4,13.6,-53.1754264805429));
#966=CARTESIAN_POINT('',(-14.65,16.,-51.5877132402715));
#967=CARTESIAN_POINT('Origin',(-14.65,16.,-48.4122867597285));
#968=CARTESIAN_POINT('',(-14.65,13.6,-51.5877132402715));
#969=CARTESIAN_POINT('Origin',(-17.325,13.6,-50.));
#970=CARTESIAN_POINT('',(-20.,13.6,-25.));
#971=CARTESIAN_POINT('',(-19.,13.6,-50.));
#972=CARTESIAN_POINT('Origin',(-17.4,13.6,-50.));
#973=CARTESIAN_POINT('Origin',(-20.,16.,0.));
#974=CARTESIAN_POINT('',(-20.,0.,-56.));
#975=CARTESIAN_POINT('',(-20.,16.,-56.));
#976=CARTESIAN_POINT('',(-20.,0.,-48.));
#977=CARTESIAN_POINT('',(-20.,0.,0.));
#978=CARTESIAN_POINT('',(-20.,10.,-48.));
#979=CARTESIAN_POINT('',(-20.,10.,-48.));
#980=CARTESIAN_POINT('',(-20.,10.,-8.));
#981=CARTESIAN_POINT('',(-20.,10.,0.));
#982=CARTESIAN_POINT('',(-20.,1.11022302462516E-15,-8.));
#983=CARTESIAN_POINT('',(-20.,-8.88178419700125E-15,-8.));
#984=CARTESIAN_POINT('',(-20.,0.,0.));
#985=CARTESIAN_POINT('',(-20.,0.,0.));
#986=CARTESIAN_POINT('',(-20.,16.,0.));
#987=CARTESIAN_POINT('Origin',(-17.4,0.,-50.));
#988=CARTESIAN_POINT('',(-19.,0.,-50.));
#989=CARTESIAN_POINT('Origin',(-17.4,0.,-50.));
#990=CARTESIAN_POINT('',(-19.,0.,-50.));
#991=CARTESIAN_POINT('Origin',(-20.,0.,-48.));
#992=CARTESIAN_POINT('',(-14.8,0.,-48.));
#993=CARTESIAN_POINT('',(-20.,0.,-48.));
#994=CARTESIAN_POINT('',(-14.8,10.,-48.));
#995=CARTESIAN_POINT('',(-14.8,10.,-48.));
#996=CARTESIAN_POINT('',(-20.,10.,-48.));
#997=CARTESIAN_POINT('Origin',(-20.,0.,-56.));
#998=CARTESIAN_POINT('',(-14.8,0.,-56.));
#999=CARTESIAN_POINT('',(-20.,0.,-56.));
#1000=CARTESIAN_POINT('',(-14.8,0.,0.));
#1001=CARTESIAN_POINT('Origin',(-14.8,5.,-52.));
#1002=CARTESIAN_POINT('',(-14.8,10.,-56.));
#1003=CARTESIAN_POINT('',(-14.8,10.,-26.));
#1004=CARTESIAN_POINT('',(-14.8,0.,-56.));
#1005=CARTESIAN_POINT('Origin',(-20.,10.,-8.));
#1006=CARTESIAN_POINT('',(-14.8,10.,-8.));
#1007=CARTESIAN_POINT('',(-20.,10.,-8.));
#1008=CARTESIAN_POINT('',(-14.8,1.11022302462516E-15,-8.));
#1009=CARTESIAN_POINT('',(-14.8,-8.88178419700125E-15,-8.));
#1010=CARTESIAN_POINT('',(-20.,1.11022302462516E-15,-8.));
#1011=CARTESIAN_POINT('Origin',(-20.,0.,-8.));
#1012=CARTESIAN_POINT('',(-14.8,0.,0.));
#1013=CARTESIAN_POINT('',(-14.8,0.,0.));
#1014=CARTESIAN_POINT('',(-20.,0.,0.));
#1015=CARTESIAN_POINT('Origin',(-14.8,5.,-4.));
#1016=CARTESIAN_POINT('',(-14.8,10.,0.));
#1017=CARTESIAN_POINT('',(-14.8,10.,-2.));
#1018=CARTESIAN_POINT('',(-14.8,10.,0.));
#1019=CARTESIAN_POINT('Origin',(8.2,8.3474406718714E-16,0.));
#1020=CARTESIAN_POINT('',(8.2,8.3474406718714E-16,0.));
#1021=CARTESIAN_POINT('',(8.2,8.3474406718714E-16,0.));
#1022=CARTESIAN_POINT('',(8.2,0.,-56.));
#1023=CARTESIAN_POINT('',(8.2,8.3474406718714E-16,0.));
#1024=CARTESIAN_POINT('',(8.2,8.3474406718714E-16,-56.));
#1025=CARTESIAN_POINT('Origin',(0.,0.,0.));
#1026=CARTESIAN_POINT('',(0.,0.,0.));
#1027=CARTESIAN_POINT('',(0.,0.,0.));
#1028=CARTESIAN_POINT('',(0.,0.,-56.));
#1029=CARTESIAN_POINT('',(0.,0.,0.));
#1030=CARTESIAN_POINT('',(0.,0.,-56.));
#1031=CARTESIAN_POINT('Origin',(0.,10.,0.));
#1032=CARTESIAN_POINT('',(0.,10.,0.));
#1033=CARTESIAN_POINT('',(0.,10.,0.));
#1034=CARTESIAN_POINT('',(0.,10.,-56.));
#1035=CARTESIAN_POINT('',(0.,10.,0.));
#1036=CARTESIAN_POINT('',(0.,10.,-56.));
#1037=CARTESIAN_POINT('Origin',(-20.,10.,0.));
#1038=CARTESIAN_POINT('',(-20.,10.,-56.));
#1039=CARTESIAN_POINT('',(-20.,10.,0.));
#1040=CARTESIAN_POINT('Origin',(-5.9,8.,-56.));
#1041=CARTESIAN_POINT('Origin',(-5.9,8.,0.));
#1042=UNCERTAINTY_MEASURE_WITH_UNIT(LENGTH_MEASURE(0.01),#1046,
'DISTANCE_ACCURACY_VALUE',
'Maximum model space distance between geometric entities at asserted c
onnectivities');
#1043=UNCERTAINTY_MEASURE_WITH_UNIT(LENGTH_MEASURE(0.01),#1046,
'DISTANCE_ACCURACY_VALUE',
'Maximum model space distance between geometric entities at asserted c
onnectivities');
#1044=(
GEOMETRIC_REPRESENTATION_CONTEXT(3)
GLOBAL_UNCERTAINTY_ASSIGNED_CONTEXT((#1042))
GLOBAL_UNIT_ASSIGNED_CONTEXT((#1046,#1048,#1049))
REPRESENTATION_CONTEXT('','3D')
);
#1045=(
GEOMETRIC_REPRESENTATION_CONTEXT(3)
GLOBAL_UNCERTAINTY_ASSIGNED_CONTEXT((#1043))
GLOBAL_UNIT_ASSIGNED_CONTEXT((#1046,#1048,#1049))
REPRESENTATION_CONTEXT('','3D')
);
#1046=(
LENGTH_UNIT()
NAMED_UNIT(*)
SI_UNIT(.MILLI.,.METRE.)
);
#1047=(
LENGTH_UNIT()
NAMED_UNIT(*)
SI_UNIT(.CENTI.,.METRE.)
);
#1048=(
NAMED_UNIT(*)
PLANE_ANGLE_UNIT()
SI_UNIT($,.RADIAN.)
);
#1049=(
NAMED_UNIT(*)
SI_UNIT($,.STERADIAN.)
SOLID_ANGLE_UNIT()
);
#1050=SHAPE_DEFINITION_REPRESENTATION(#1051,#1052);
#1051=PRODUCT_DEFINITION_SHAPE('',$,#1054);
#1052=SHAPE_REPRESENTATION('',(#674),#1044);
#1053=PRODUCT_DEFINITION_CONTEXT('part definition',#1058,'design');
#1054=PRODUCT_DEFINITION('\X2\043A04400435043F\X0\_\X2\04460435043D04420440\X0\_
\X2\043C\X0\2_MIR1','\X2\043A04400435043F\X0\_\X2\04460435043D04420440\X0\_
\X2\043C\X0\2_MIR1',#1055,#1053);
#1055=PRODUCT_DEFINITION_FORMATION('',$,#1060);
#1056=PRODUCT_RELATED_PRODUCT_CATEGORY('\X2\043A04400435043F\X0\_\X2\04460435043D04420440\X0\_
\X2\043C\X0\2_MIR1','\X2\043A04400435043F\X0\_\X2\04460435043D04420440\X0\_
\X2\043C\X0\2_MIR1',(#1060));
#1057=APPLICATION_PROTOCOL_DEFINITION('international standard',
'automotive_design',2009,#1058);
#1058=APPLICATION_CONTEXT(
'Core Data for Automotive Mechanical Design Process');
#1059=PRODUCT_CONTEXT('part definition',#1058,'mechanical');
#1060=PRODUCT('\X2\043A04400435043F\X0\_\X2\04460435043D04420440\X0\_\X2\043C\X0\2
_MIR1','\X2\043A04400435043F\X0\_\X2\04460435043D04420440\X0\_\X2\043C\X0\2
_MIR1',$,(#1059));
#1061=PRESENTATION_STYLE_ASSIGNMENT((#1062));
#1062=SURFACE_STYLE_USAGE(.BOTH.,#1065);
#1063=SURFACE_STYLE_RENDERING_WITH_PROPERTIES($,#1069,(#1064));
#1064=SURFACE_STYLE_TRANSPARENT(0.);
#1065=SURFACE_SIDE_STYLE('',(#1066,#1063));
#1066=SURFACE_STYLE_FILL_AREA(#1067);
#1067=FILL_AREA_STYLE('',(#1068));
#1068=FILL_AREA_STYLE_COLOUR('',#1069);
#1069=COLOUR_RGB('',0.180392156862745,0.541176470588235,0.341176470588235);
ENDSEC;
END-ISO-10303-21;
