ISO-10303-21;
HEADER;
/* Generated by software containing ST-Developer
 * from STEP Tools, Inc. (www.steptools.com) 
 */

FILE_DESCRIPTION(
/* description */ (''),
/* implementation_level */ '2;1');

FILE_NAME(
/* name */ '',
/* time_stamp */ '2026-02-20T13:16:12+03:00',
/* author */ ('DELL'),
/* organization */ (''),
/* preprocessor_version */ 'ST-DEVELOPER v19.2',
/* originating_system */ 'Autodesk Inventor 2023',
/* authorisation */ '');

FILE_SCHEMA (('AUTOMOTIVE_DESIGN { 1 0 10303 214 3 1 1 }'));
ENDSEC;

DATA;
#10=MECHANICAL_DESIGN_GEOMETRIC_PRESENTATION_REPRESENTATION('',(#13),#1531);
#11=SHAPE_REPRESENTATION_RELATIONSHIP('SRR','None',#1538,#12);
#12=ADVANCED_BREP_SHAPE_REPRESENTATION('',(#14),#1530);
#13=STYLED_ITEM('',(#1547),#14);
#14=MANIFOLD_SOLID_BREP('\X2\04220432043504400434043E0435\X0\ \X2\04420435043B043E\X0\1',
#926);
#15=FACE_BOUND('',#125,.T.);
#16=FACE_BOUND('',#126,.T.);
#17=FACE_BOUND('',#131,.T.);
#18=FACE_BOUND('',#132,.T.);
#19=FACE_BOUND('',#133,.T.);
#20=FACE_BOUND('',#134,.T.);
#21=FACE_BOUND('',#135,.T.);
#22=FACE_BOUND('',#136,.T.);
#23=FACE_BOUND('',#137,.T.);
#24=FACE_BOUND('',#138,.T.);
#25=FACE_BOUND('',#143,.T.);
#26=FACE_BOUND('',#144,.T.);
#27=FACE_BOUND('',#148,.T.);
#28=FACE_BOUND('',#151,.T.);
#29=FACE_BOUND('',#155,.T.);
#30=FACE_BOUND('',#158,.T.);
#31=FACE_BOUND('',#171,.T.);
#32=FACE_BOUND('',#173,.T.);
#33=FACE_BOUND('',#174,.T.);
#34=FACE_BOUND('',#176,.T.);
#35=FACE_BOUND('',#178,.T.);
#36=FACE_BOUND('',#179,.T.);
#37=FACE_BOUND('',#182,.T.);
#38=FACE_BOUND('',#184,.T.);
#39=FACE_BOUND('',#185,.T.);
#40=FACE_BOUND('',#187,.T.);
#41=FACE_BOUND('',#189,.T.);
#42=FACE_BOUND('',#190,.T.);
#43=FACE_BOUND('',#195,.T.);
#44=FACE_BOUND('',#196,.T.);
#45=FACE_BOUND('',#197,.T.);
#46=FACE_BOUND('',#198,.T.);
#47=FACE_BOUND('',#199,.T.);
#48=FACE_BOUND('',#200,.T.);
#49=PLANE('',#952);
#50=PLANE('',#953);
#51=PLANE('',#959);
#52=PLANE('',#963);
#53=PLANE('',#974);
#54=PLANE('',#975);
#55=PLANE('',#976);
#56=PLANE('',#977);
#57=PLANE('',#978);
#58=PLANE('',#980);
#59=PLANE('',#981);
#60=PLANE('',#985);
#61=PLANE('',#986);
#62=PLANE('',#988);
#63=PLANE('',#989);
#64=PLANE('',#1015);
#65=PLANE('',#1016);
#66=PLANE('',#1017);
#67=PLANE('',#1018);
#68=PLANE('',#1019);
#69=PLANE('',#1020);
#70=PLANE('',#1021);
#71=PLANE('',#1022);
#72=PLANE('',#1023);
#73=PLANE('',#1024);
#74=PLANE('',#1025);
#75=PLANE('',#1026);
#76=PLANE('',#1027);
#77=FACE_OUTER_BOUND('',#122,.T.);
#78=FACE_OUTER_BOUND('',#123,.T.);
#79=FACE_OUTER_BOUND('',#124,.T.);
#80=FACE_OUTER_BOUND('',#127,.T.);
#81=FACE_OUTER_BOUND('',#128,.T.);
#82=FACE_OUTER_BOUND('',#129,.T.);
#83=FACE_OUTER_BOUND('',#130,.T.);
#84=FACE_OUTER_BOUND('',#139,.T.);
#85=FACE_OUTER_BOUND('',#140,.T.);
#86=FACE_OUTER_BOUND('',#141,.T.);
#87=FACE_OUTER_BOUND('',#142,.T.);
#88=FACE_OUTER_BOUND('',#145,.T.);
#89=FACE_OUTER_BOUND('',#146,.T.);
#90=FACE_OUTER_BOUND('',#147,.T.);
#91=FACE_OUTER_BOUND('',#149,.T.);
#92=FACE_OUTER_BOUND('',#150,.T.);
#93=FACE_OUTER_BOUND('',#152,.T.);
#94=FACE_OUTER_BOUND('',#153,.T.);
#95=FACE_OUTER_BOUND('',#154,.T.);
#96=FACE_OUTER_BOUND('',#156,.T.);
#97=FACE_OUTER_BOUND('',#157,.T.);
#98=FACE_OUTER_BOUND('',#159,.T.);
#99=FACE_OUTER_BOUND('',#160,.T.);
#100=FACE_OUTER_BOUND('',#161,.T.);
#101=FACE_OUTER_BOUND('',#162,.T.);
#102=FACE_OUTER_BOUND('',#163,.T.);
#103=FACE_OUTER_BOUND('',#164,.T.);
#104=FACE_OUTER_BOUND('',#165,.T.);
#105=FACE_OUTER_BOUND('',#166,.T.);
#106=FACE_OUTER_BOUND('',#167,.T.);
#107=FACE_OUTER_BOUND('',#168,.T.);
#108=FACE_OUTER_BOUND('',#169,.T.);
#109=FACE_OUTER_BOUND('',#170,.T.);
#110=FACE_OUTER_BOUND('',#172,.T.);
#111=FACE_OUTER_BOUND('',#175,.T.);
#112=FACE_OUTER_BOUND('',#177,.T.);
#113=FACE_OUTER_BOUND('',#180,.T.);
#114=FACE_OUTER_BOUND('',#181,.T.);
#115=FACE_OUTER_BOUND('',#183,.T.);
#116=FACE_OUTER_BOUND('',#186,.T.);
#117=FACE_OUTER_BOUND('',#188,.T.);
#118=FACE_OUTER_BOUND('',#191,.T.);
#119=FACE_OUTER_BOUND('',#192,.T.);
#120=FACE_OUTER_BOUND('',#193,.T.);
#121=FACE_OUTER_BOUND('',#194,.T.);
#122=EDGE_LOOP('',(#618,#619,#620,#621));
#123=EDGE_LOOP('',(#622,#623,#624,#625));
#124=EDGE_LOOP('',(#626,#627,#628,#629,#630,#631));
#125=EDGE_LOOP('',(#632));
#126=EDGE_LOOP('',(#633));
#127=EDGE_LOOP('',(#634,#635,#636,#637));
#128=EDGE_LOOP('',(#638,#639,#640,#641,#642,#643,#644));
#129=EDGE_LOOP('',(#645,#646,#647,#648));
#130=EDGE_LOOP('',(#649,#650,#651,#652,#653,#654));
#131=EDGE_LOOP('',(#655,#656,#657,#658));
#132=EDGE_LOOP('',(#659,#660,#661,#662));
#133=EDGE_LOOP('',(#663));
#134=EDGE_LOOP('',(#664));
#135=EDGE_LOOP('',(#665));
#136=EDGE_LOOP('',(#666));
#137=EDGE_LOOP('',(#667));
#138=EDGE_LOOP('',(#668));
#139=EDGE_LOOP('',(#669,#670,#671,#672));
#140=EDGE_LOOP('',(#673,#674,#675,#676));
#141=EDGE_LOOP('',(#677,#678,#679,#680,#681,#682,#683));
#142=EDGE_LOOP('',(#684,#685,#686,#687,#688,#689));
#143=EDGE_LOOP('',(#690));
#144=EDGE_LOOP('',(#691));
#145=EDGE_LOOP('',(#692,#693,#694,#695));
#146=EDGE_LOOP('',(#696,#697,#698,#699));
#147=EDGE_LOOP('',(#700,#701,#702,#703));
#148=EDGE_LOOP('',(#704));
#149=EDGE_LOOP('',(#705,#706,#707,#708));
#150=EDGE_LOOP('',(#709,#710,#711,#712));
#151=EDGE_LOOP('',(#713));
#152=EDGE_LOOP('',(#714,#715,#716,#717));
#153=EDGE_LOOP('',(#718,#719,#720,#721));
#154=EDGE_LOOP('',(#722,#723,#724,#725));
#155=EDGE_LOOP('',(#726));
#156=EDGE_LOOP('',(#727,#728,#729,#730));
#157=EDGE_LOOP('',(#731,#732,#733,#734));
#158=EDGE_LOOP('',(#735));
#159=EDGE_LOOP('',(#736,#737,#738,#739));
#160=EDGE_LOOP('',(#740,#741,#742,#743));
#161=EDGE_LOOP('',(#744,#745,#746,#747));
#162=EDGE_LOOP('',(#748,#749,#750,#751));
#163=EDGE_LOOP('',(#752,#753,#754,#755));
#164=EDGE_LOOP('',(#756,#757,#758,#759));
#165=EDGE_LOOP('',(#760,#761,#762,#763));
#166=EDGE_LOOP('',(#764,#765,#766,#767));
#167=EDGE_LOOP('',(#768,#769,#770,#771));
#168=EDGE_LOOP('',(#772,#773,#774,#775));
#169=EDGE_LOOP('',(#776,#777,#778,#779));
#170=EDGE_LOOP('',(#780,#781,#782,#783));
#171=EDGE_LOOP('',(#784,#785,#786,#787));
#172=EDGE_LOOP('',(#788,#789,#790,#791));
#173=EDGE_LOOP('',(#792));
#174=EDGE_LOOP('',(#793));
#175=EDGE_LOOP('',(#794,#795,#796,#797));
#176=EDGE_LOOP('',(#798,#799,#800,#801));
#177=EDGE_LOOP('',(#802,#803,#804,#805));
#178=EDGE_LOOP('',(#806));
#179=EDGE_LOOP('',(#807));
#180=EDGE_LOOP('',(#808,#809,#810,#811));
#181=EDGE_LOOP('',(#812,#813,#814,#815));
#182=EDGE_LOOP('',(#816,#817,#818,#819));
#183=EDGE_LOOP('',(#820,#821,#822,#823));
#184=EDGE_LOOP('',(#824));
#185=EDGE_LOOP('',(#825));
#186=EDGE_LOOP('',(#826,#827,#828,#829));
#187=EDGE_LOOP('',(#830,#831,#832,#833));
#188=EDGE_LOOP('',(#834,#835,#836,#837));
#189=EDGE_LOOP('',(#838));
#190=EDGE_LOOP('',(#839));
#191=EDGE_LOOP('',(#840,#841,#842,#843));
#192=EDGE_LOOP('',(#844,#845,#846,#847));
#193=EDGE_LOOP('',(#848,#849,#850,#851));
#194=EDGE_LOOP('',(#852,#853,#854,#855,#856,#857));
#195=EDGE_LOOP('',(#858));
#196=EDGE_LOOP('',(#859));
#197=EDGE_LOOP('',(#860));
#198=EDGE_LOOP('',(#861));
#199=EDGE_LOOP('',(#862));
#200=EDGE_LOOP('',(#863));
#201=LINE('',#1283,#290);
#202=LINE('',#1286,#291);
#203=LINE('',#1289,#292);
#204=LINE('',#1291,#293);
#205=LINE('',#1292,#294);
#206=LINE('',#1295,#295);
#207=LINE('',#1297,#296);
#208=LINE('',#1299,#297);
#209=LINE('',#1308,#298);
#210=LINE('',#1313,#299);
#211=LINE('',#1315,#300);
#212=LINE('',#1317,#301);
#213=LINE('',#1318,#302);
#214=LINE('',#1322,#303);
#215=LINE('',#1325,#304);
#216=LINE('',#1327,#305);
#217=LINE('',#1329,#306);
#218=LINE('',#1330,#307);
#219=LINE('',#1333,#308);
#220=LINE('',#1335,#309);
#221=LINE('',#1337,#310);
#222=LINE('',#1338,#311);
#223=LINE('',#1341,#312);
#224=LINE('',#1343,#313);
#225=LINE('',#1345,#314);
#226=LINE('',#1346,#315);
#227=LINE('',#1362,#316);
#228=LINE('',#1366,#317);
#229=LINE('',#1369,#318);
#230=LINE('',#1371,#319);
#231=LINE('',#1372,#320);
#232=LINE('',#1374,#321);
#233=LINE('',#1377,#322);
#234=LINE('',#1378,#323);
#235=LINE('',#1382,#324);
#236=LINE('',#1384,#325);
#237=LINE('',#1386,#326);
#238=LINE('',#1387,#327);
#239=LINE('',#1390,#328);
#240=LINE('',#1392,#329);
#241=LINE('',#1393,#330);
#242=LINE('',#1398,#331);
#243=LINE('',#1400,#332);
#244=LINE('',#1401,#333);
#245=LINE('',#1403,#334);
#246=LINE('',#1404,#335);
#247=LINE('',#1410,#336);
#248=LINE('',#1414,#337);
#249=LINE('',#1416,#338);
#250=LINE('',#1418,#339);
#251=LINE('',#1419,#340);
#252=LINE('',#1422,#341);
#253=LINE('',#1424,#342);
#254=LINE('',#1425,#343);
#255=LINE('',#1430,#344);
#256=LINE('',#1432,#345);
#257=LINE('',#1433,#346);
#258=LINE('',#1435,#347);
#259=LINE('',#1436,#348);
#260=LINE('',#1442,#349);
#261=LINE('',#1445,#350);
#262=LINE('',#1449,#351);
#263=LINE('',#1453,#352);
#264=LINE('',#1457,#353);
#265=LINE('',#1463,#354);
#266=LINE('',#1469,#355);
#267=LINE('',#1473,#356);
#268=LINE('',#1477,#357);
#269=LINE('',#1481,#358);
#270=LINE('',#1485,#359);
#271=LINE('',#1489,#360);
#272=LINE('',#1491,#361);
#273=LINE('',#1492,#362);
#274=LINE('',#1495,#363);
#275=LINE('',#1496,#364);
#276=LINE('',#1499,#365);
#277=LINE('',#1500,#366);
#278=LINE('',#1502,#367);
#279=LINE('',#1506,#368);
#280=LINE('',#1508,#369);
#281=LINE('',#1509,#370);
#282=LINE('',#1512,#371);
#283=LINE('',#1513,#372);
#284=LINE('',#1516,#373);
#285=LINE('',#1517,#374);
#286=LINE('',#1519,#375);
#287=LINE('',#1523,#376);
#288=LINE('',#1524,#377);
#289=LINE('',#1526,#378);
#290=VECTOR('',#1034,10.);
#291=VECTOR('',#1037,10.);
#292=VECTOR('',#1040,10.);
#293=VECTOR('',#1041,10.);
#294=VECTOR('',#1042,10.);
#295=VECTOR('',#1045,10.);
#296=VECTOR('',#1046,10.);
#297=VECTOR('',#1047,10.);
#298=VECTOR('',#1058,10.);
#299=VECTOR('',#1063,10.);
#300=VECTOR('',#1064,10.);
#301=VECTOR('',#1065,10.);
#302=VECTOR('',#1066,10.);
#303=VECTOR('',#1071,10.);
#304=VECTOR('',#1074,10.);
#305=VECTOR('',#1075,10.);
#306=VECTOR('',#1076,10.);
#307=VECTOR('',#1077,10.);
#308=VECTOR('',#1078,10.);
#309=VECTOR('',#1079,10.);
#310=VECTOR('',#1080,10.);
#311=VECTOR('',#1081,10.);
#312=VECTOR('',#1082,10.);
#313=VECTOR('',#1083,10.);
#314=VECTOR('',#1084,10.);
#315=VECTOR('',#1085,10.);
#316=VECTOR('',#1102,1.6);
#317=VECTOR('',#1107,1.6);
#318=VECTOR('',#1110,10.);
#319=VECTOR('',#1111,10.);
#320=VECTOR('',#1112,10.);
#321=VECTOR('',#1115,10.);
#322=VECTOR('',#1118,10.);
#323=VECTOR('',#1119,10.);
#324=VECTOR('',#1122,10.);
#325=VECTOR('',#1123,10.);
#326=VECTOR('',#1124,10.);
#327=VECTOR('',#1125,10.);
#328=VECTOR('',#1128,10.);
#329=VECTOR('',#1129,10.);
#330=VECTOR('',#1130,10.);
#331=VECTOR('',#1135,10.);
#332=VECTOR('',#1136,10.);
#333=VECTOR('',#1137,10.);
#334=VECTOR('',#1140,10.);
#335=VECTOR('',#1141,10.);
#336=VECTOR('',#1148,1.25);
#337=VECTOR('',#1151,10.);
#338=VECTOR('',#1152,10.);
#339=VECTOR('',#1153,10.);
#340=VECTOR('',#1154,10.);
#341=VECTOR('',#1157,10.);
#342=VECTOR('',#1158,10.);
#343=VECTOR('',#1159,10.);
#344=VECTOR('',#1164,10.);
#345=VECTOR('',#1165,10.);
#346=VECTOR('',#1166,10.);
#347=VECTOR('',#1169,10.);
#348=VECTOR('',#1170,10.);
#349=VECTOR('',#1177,1.25);
#350=VECTOR('',#1180,1.6);
#351=VECTOR('',#1185,1.59999999999999);
#352=VECTOR('',#1190,1.59999999999999);
#353=VECTOR('',#1195,1.59999999999999);
#354=VECTOR('',#1202,1.25);
#355=VECTOR('',#1209,1.25);
#356=VECTOR('',#1214,1.25);
#357=VECTOR('',#1219,1.25);
#358=VECTOR('',#1224,1.6);
#359=VECTOR('',#1229,1.6);
#360=VECTOR('',#1234,10.);
#361=VECTOR('',#1235,10.);
#362=VECTOR('',#1236,10.);
#363=VECTOR('',#1239,10.);
#364=VECTOR('',#1240,10.);
#365=VECTOR('',#1243,10.);
#366=VECTOR('',#1244,10.);
#367=VECTOR('',#1247,10.);
#368=VECTOR('',#1252,10.);
#369=VECTOR('',#1253,10.);
#370=VECTOR('',#1254,10.);
#371=VECTOR('',#1257,10.);
#372=VECTOR('',#1258,10.);
#373=VECTOR('',#1261,10.);
#374=VECTOR('',#1262,10.);
#375=VECTOR('',#1265,10.);
#376=VECTOR('',#1270,10.);
#377=VECTOR('',#1271,10.);
#378=VECTOR('',#1274,10.);
#379=CIRCLE('',#950,1.);
#380=CIRCLE('',#951,1.);
#381=CIRCLE('',#954,1.);
#382=CIRCLE('',#955,1.6);
#383=CIRCLE('',#956,1.6);
#384=CIRCLE('',#958,1.);
#385=CIRCLE('',#960,2.);
#386=CIRCLE('',#962,2.);
#387=CIRCLE('',#964,1.6);
#388=CIRCLE('',#965,1.6);
#389=CIRCLE('',#966,1.59999999999999);
#390=CIRCLE('',#967,1.59999999999999);
#391=CIRCLE('',#968,1.59999999999999);
#392=CIRCLE('',#969,1.6);
#393=CIRCLE('',#971,1.6);
#394=CIRCLE('',#973,1.6);
#395=CIRCLE('',#979,1.25);
#396=CIRCLE('',#982,1.25);
#397=CIRCLE('',#984,1.25);
#398=CIRCLE('',#987,1.25);
#399=CIRCLE('',#990,1.25);
#400=CIRCLE('',#992,1.25);
#401=CIRCLE('',#994,1.6);
#402=CIRCLE('',#996,1.59999999999999);
#403=CIRCLE('',#998,1.59999999999999);
#404=CIRCLE('',#1000,1.59999999999999);
#405=CIRCLE('',#1002,1.25);
#406=CIRCLE('',#1003,1.25);
#407=CIRCLE('',#1005,1.25);
#408=CIRCLE('',#1006,1.25);
#409=CIRCLE('',#1008,1.25);
#410=CIRCLE('',#1010,1.25);
#411=CIRCLE('',#1012,1.6);
#412=CIRCLE('',#1014,1.6);
#413=VERTEX_POINT('',#1279);
#414=VERTEX_POINT('',#1280);
#415=VERTEX_POINT('',#1282);
#416=VERTEX_POINT('',#1284);
#417=VERTEX_POINT('',#1288);
#418=VERTEX_POINT('',#1290);
#419=VERTEX_POINT('',#1294);
#420=VERTEX_POINT('',#1296);
#421=VERTEX_POINT('',#1298);
#422=VERTEX_POINT('',#1301);
#423=VERTEX_POINT('',#1303);
#424=VERTEX_POINT('',#1306);
#425=VERTEX_POINT('',#1310);
#426=VERTEX_POINT('',#1312);
#427=VERTEX_POINT('',#1314);
#428=VERTEX_POINT('',#1316);
#429=VERTEX_POINT('',#1320);
#430=VERTEX_POINT('',#1324);
#431=VERTEX_POINT('',#1326);
#432=VERTEX_POINT('',#1328);
#433=VERTEX_POINT('',#1331);
#434=VERTEX_POINT('',#1332);
#435=VERTEX_POINT('',#1334);
#436=VERTEX_POINT('',#1336);
#437=VERTEX_POINT('',#1339);
#438=VERTEX_POINT('',#1340);
#439=VERTEX_POINT('',#1342);
#440=VERTEX_POINT('',#1344);
#441=VERTEX_POINT('',#1347);
#442=VERTEX_POINT('',#1349);
#443=VERTEX_POINT('',#1351);
#444=VERTEX_POINT('',#1353);
#445=VERTEX_POINT('',#1355);
#446=VERTEX_POINT('',#1357);
#447=VERTEX_POINT('',#1360);
#448=VERTEX_POINT('',#1364);
#449=VERTEX_POINT('',#1368);
#450=VERTEX_POINT('',#1370);
#451=VERTEX_POINT('',#1376);
#452=VERTEX_POINT('',#1380);
#453=VERTEX_POINT('',#1381);
#454=VERTEX_POINT('',#1383);
#455=VERTEX_POINT('',#1385);
#456=VERTEX_POINT('',#1389);
#457=VERTEX_POINT('',#1391);
#458=VERTEX_POINT('',#1394);
#459=VERTEX_POINT('',#1397);
#460=VERTEX_POINT('',#1399);
#461=VERTEX_POINT('',#1405);
#462=VERTEX_POINT('',#1408);
#463=VERTEX_POINT('',#1412);
#464=VERTEX_POINT('',#1413);
#465=VERTEX_POINT('',#1415);
#466=VERTEX_POINT('',#1417);
#467=VERTEX_POINT('',#1421);
#468=VERTEX_POINT('',#1423);
#469=VERTEX_POINT('',#1426);
#470=VERTEX_POINT('',#1429);
#471=VERTEX_POINT('',#1431);
#472=VERTEX_POINT('',#1437);
#473=VERTEX_POINT('',#1440);
#474=VERTEX_POINT('',#1444);
#475=VERTEX_POINT('',#1448);
#476=VERTEX_POINT('',#1452);
#477=VERTEX_POINT('',#1456);
#478=VERTEX_POINT('',#1460);
#479=VERTEX_POINT('',#1462);
#480=VERTEX_POINT('',#1466);
#481=VERTEX_POINT('',#1468);
#482=VERTEX_POINT('',#1472);
#483=VERTEX_POINT('',#1476);
#484=VERTEX_POINT('',#1480);
#485=VERTEX_POINT('',#1484);
#486=VERTEX_POINT('',#1488);
#487=VERTEX_POINT('',#1490);
#488=VERTEX_POINT('',#1494);
#489=VERTEX_POINT('',#1498);
#490=VERTEX_POINT('',#1505);
#491=VERTEX_POINT('',#1507);
#492=VERTEX_POINT('',#1511);
#493=VERTEX_POINT('',#1515);
#494=VERTEX_POINT('',#1522);
#495=EDGE_CURVE('',#413,#414,#379,.T.);
#496=EDGE_CURVE('',#414,#415,#201,.T.);
#497=EDGE_CURVE('',#415,#416,#380,.T.);
#498=EDGE_CURVE('',#416,#413,#202,.T.);
#499=EDGE_CURVE('',#416,#417,#203,.T.);
#500=EDGE_CURVE('',#418,#417,#204,.T.);
#501=EDGE_CURVE('',#413,#418,#205,.T.);
#502=EDGE_CURVE('',#419,#415,#206,.T.);
#503=EDGE_CURVE('',#420,#419,#207,.T.);
#504=EDGE_CURVE('',#421,#420,#208,.T.);
#505=EDGE_CURVE('',#417,#421,#381,.T.);
#506=EDGE_CURVE('',#422,#422,#382,.T.);
#507=EDGE_CURVE('',#423,#423,#383,.T.);
#508=EDGE_CURVE('',#424,#418,#384,.T.);
#509=EDGE_CURVE('',#421,#424,#209,.T.);
#510=EDGE_CURVE('',#425,#420,#385,.T.);
#511=EDGE_CURVE('',#426,#425,#210,.T.);
#512=EDGE_CURVE('',#427,#426,#211,.T.);
#513=EDGE_CURVE('',#427,#428,#212,.T.);
#514=EDGE_CURVE('',#424,#428,#213,.T.);
#515=EDGE_CURVE('',#429,#419,#386,.F.);
#516=EDGE_CURVE('',#429,#425,#214,.T.);
#517=EDGE_CURVE('',#429,#430,#215,.T.);
#518=EDGE_CURVE('',#430,#431,#216,.T.);
#519=EDGE_CURVE('',#431,#432,#217,.T.);
#520=EDGE_CURVE('',#432,#426,#218,.T.);
#521=EDGE_CURVE('',#433,#434,#219,.T.);
#522=EDGE_CURVE('',#434,#435,#220,.T.);
#523=EDGE_CURVE('',#435,#436,#221,.T.);
#524=EDGE_CURVE('',#436,#433,#222,.T.);
#525=EDGE_CURVE('',#437,#438,#223,.T.);
#526=EDGE_CURVE('',#438,#439,#224,.T.);
#527=EDGE_CURVE('',#439,#440,#225,.T.);
#528=EDGE_CURVE('',#440,#437,#226,.T.);
#529=EDGE_CURVE('',#441,#441,#387,.T.);
#530=EDGE_CURVE('',#442,#442,#388,.T.);
#531=EDGE_CURVE('',#443,#443,#389,.T.);
#532=EDGE_CURVE('',#444,#444,#390,.T.);
#533=EDGE_CURVE('',#445,#445,#391,.T.);
#534=EDGE_CURVE('',#446,#446,#392,.T.);
#535=EDGE_CURVE('',#447,#447,#393,.T.);
#536=EDGE_CURVE('',#447,#422,#227,.T.);
#537=EDGE_CURVE('',#448,#448,#394,.T.);
#538=EDGE_CURVE('',#448,#423,#228,.T.);
#539=EDGE_CURVE('',#449,#414,#229,.T.);
#540=EDGE_CURVE('',#450,#449,#230,.T.);
#541=EDGE_CURVE('',#430,#450,#231,.T.);
#542=EDGE_CURVE('',#428,#449,#232,.T.);
#543=EDGE_CURVE('',#450,#451,#233,.T.);
#544=EDGE_CURVE('',#451,#431,#234,.T.);
#545=EDGE_CURVE('',#452,#453,#235,.T.);
#546=EDGE_CURVE('',#454,#452,#236,.T.);
#547=EDGE_CURVE('',#455,#454,#237,.T.);
#548=EDGE_CURVE('',#455,#453,#238,.T.);
#549=EDGE_CURVE('',#453,#456,#239,.T.);
#550=EDGE_CURVE('',#457,#455,#240,.T.);
#551=EDGE_CURVE('',#457,#456,#241,.T.);
#552=EDGE_CURVE('',#458,#458,#395,.T.);
#553=EDGE_CURVE('',#456,#459,#242,.T.);
#554=EDGE_CURVE('',#460,#457,#243,.T.);
#555=EDGE_CURVE('',#460,#459,#244,.T.);
#556=EDGE_CURVE('',#459,#452,#245,.T.);
#557=EDGE_CURVE('',#454,#460,#246,.T.);
#558=EDGE_CURVE('',#461,#461,#396,.T.);
#559=EDGE_CURVE('',#462,#462,#397,.T.);
#560=EDGE_CURVE('',#462,#461,#247,.T.);
#561=EDGE_CURVE('',#463,#464,#248,.T.);
#562=EDGE_CURVE('',#465,#463,#249,.T.);
#563=EDGE_CURVE('',#466,#465,#250,.T.);
#564=EDGE_CURVE('',#466,#464,#251,.T.);
#565=EDGE_CURVE('',#464,#467,#252,.T.);
#566=EDGE_CURVE('',#468,#466,#253,.T.);
#567=EDGE_CURVE('',#468,#467,#254,.T.);
#568=EDGE_CURVE('',#469,#469,#398,.T.);
#569=EDGE_CURVE('',#467,#470,#255,.T.);
#570=EDGE_CURVE('',#471,#468,#256,.T.);
#571=EDGE_CURVE('',#471,#470,#257,.T.);
#572=EDGE_CURVE('',#470,#463,#258,.T.);
#573=EDGE_CURVE('',#465,#471,#259,.T.);
#574=EDGE_CURVE('',#472,#472,#399,.T.);
#575=EDGE_CURVE('',#473,#473,#400,.T.);
#576=EDGE_CURVE('',#473,#469,#260,.T.);
#577=EDGE_CURVE('',#446,#474,#261,.T.);
#578=EDGE_CURVE('',#474,#474,#401,.T.);
#579=EDGE_CURVE('',#445,#475,#262,.T.);
#580=EDGE_CURVE('',#475,#475,#402,.T.);
#581=EDGE_CURVE('',#444,#476,#263,.T.);
#582=EDGE_CURVE('',#476,#476,#403,.T.);
#583=EDGE_CURVE('',#443,#477,#264,.T.);
#584=EDGE_CURVE('',#477,#477,#404,.T.);
#585=EDGE_CURVE('',#478,#478,#405,.T.);
#586=EDGE_CURVE('',#478,#479,#265,.T.);
#587=EDGE_CURVE('',#479,#479,#406,.T.);
#588=EDGE_CURVE('',#480,#480,#407,.T.);
#589=EDGE_CURVE('',#480,#481,#266,.T.);
#590=EDGE_CURVE('',#481,#481,#408,.T.);
#591=EDGE_CURVE('',#458,#482,#267,.T.);
#592=EDGE_CURVE('',#482,#482,#409,.T.);
#593=EDGE_CURVE('',#472,#483,#268,.T.);
#594=EDGE_CURVE('',#483,#483,#410,.T.);
#595=EDGE_CURVE('',#442,#484,#269,.T.);
#596=EDGE_CURVE('',#484,#484,#411,.T.);
#597=EDGE_CURVE('',#441,#485,#270,.T.);
#598=EDGE_CURVE('',#485,#485,#412,.T.);
#599=EDGE_CURVE('',#437,#486,#271,.T.);
#600=EDGE_CURVE('',#487,#486,#272,.T.);
#601=EDGE_CURVE('',#438,#487,#273,.T.);
#602=EDGE_CURVE('',#488,#487,#274,.T.);
#603=EDGE_CURVE('',#439,#488,#275,.T.);
#604=EDGE_CURVE('',#489,#488,#276,.T.);
#605=EDGE_CURVE('',#440,#489,#277,.T.);
#606=EDGE_CURVE('',#486,#489,#278,.T.);
#607=EDGE_CURVE('',#433,#490,#279,.T.);
#608=EDGE_CURVE('',#491,#490,#280,.T.);
#609=EDGE_CURVE('',#434,#491,#281,.T.);
#610=EDGE_CURVE('',#492,#491,#282,.T.);
#611=EDGE_CURVE('',#435,#492,#283,.T.);
#612=EDGE_CURVE('',#493,#492,#284,.T.);
#613=EDGE_CURVE('',#436,#493,#285,.T.);
#614=EDGE_CURVE('',#490,#493,#286,.T.);
#615=EDGE_CURVE('',#494,#427,#287,.T.);
#616=EDGE_CURVE('',#494,#432,#288,.T.);
#617=EDGE_CURVE('',#451,#494,#289,.T.);
#618=ORIENTED_EDGE('',*,*,#495,.T.);
#619=ORIENTED_EDGE('',*,*,#496,.T.);
#620=ORIENTED_EDGE('',*,*,#497,.T.);
#621=ORIENTED_EDGE('',*,*,#498,.T.);
#622=ORIENTED_EDGE('',*,*,#498,.F.);
#623=ORIENTED_EDGE('',*,*,#499,.T.);
#624=ORIENTED_EDGE('',*,*,#500,.F.);
#625=ORIENTED_EDGE('',*,*,#501,.F.);
#626=ORIENTED_EDGE('',*,*,#497,.F.);
#627=ORIENTED_EDGE('',*,*,#502,.F.);
#628=ORIENTED_EDGE('',*,*,#503,.F.);
#629=ORIENTED_EDGE('',*,*,#504,.F.);
#630=ORIENTED_EDGE('',*,*,#505,.F.);
#631=ORIENTED_EDGE('',*,*,#499,.F.);
#632=ORIENTED_EDGE('',*,*,#506,.T.);
#633=ORIENTED_EDGE('',*,*,#507,.T.);
#634=ORIENTED_EDGE('',*,*,#508,.T.);
#635=ORIENTED_EDGE('',*,*,#500,.T.);
#636=ORIENTED_EDGE('',*,*,#505,.T.);
#637=ORIENTED_EDGE('',*,*,#509,.T.);
#638=ORIENTED_EDGE('',*,*,#509,.F.);
#639=ORIENTED_EDGE('',*,*,#504,.T.);
#640=ORIENTED_EDGE('',*,*,#510,.F.);
#641=ORIENTED_EDGE('',*,*,#511,.F.);
#642=ORIENTED_EDGE('',*,*,#512,.F.);
#643=ORIENTED_EDGE('',*,*,#513,.T.);
#644=ORIENTED_EDGE('',*,*,#514,.F.);
#645=ORIENTED_EDGE('',*,*,#515,.F.);
#646=ORIENTED_EDGE('',*,*,#516,.T.);
#647=ORIENTED_EDGE('',*,*,#510,.T.);
#648=ORIENTED_EDGE('',*,*,#503,.T.);
#649=ORIENTED_EDGE('',*,*,#516,.F.);
#650=ORIENTED_EDGE('',*,*,#517,.T.);
#651=ORIENTED_EDGE('',*,*,#518,.T.);
#652=ORIENTED_EDGE('',*,*,#519,.T.);
#653=ORIENTED_EDGE('',*,*,#520,.T.);
#654=ORIENTED_EDGE('',*,*,#511,.T.);
#655=ORIENTED_EDGE('',*,*,#521,.T.);
#656=ORIENTED_EDGE('',*,*,#522,.T.);
#657=ORIENTED_EDGE('',*,*,#523,.T.);
#658=ORIENTED_EDGE('',*,*,#524,.T.);
#659=ORIENTED_EDGE('',*,*,#525,.T.);
#660=ORIENTED_EDGE('',*,*,#526,.T.);
#661=ORIENTED_EDGE('',*,*,#527,.T.);
#662=ORIENTED_EDGE('',*,*,#528,.T.);
#663=ORIENTED_EDGE('',*,*,#529,.T.);
#664=ORIENTED_EDGE('',*,*,#530,.T.);
#665=ORIENTED_EDGE('',*,*,#531,.T.);
#666=ORIENTED_EDGE('',*,*,#532,.T.);
#667=ORIENTED_EDGE('',*,*,#533,.T.);
#668=ORIENTED_EDGE('',*,*,#534,.T.);
#669=ORIENTED_EDGE('',*,*,#535,.F.);
#670=ORIENTED_EDGE('',*,*,#536,.T.);
#671=ORIENTED_EDGE('',*,*,#506,.F.);
#672=ORIENTED_EDGE('',*,*,#536,.F.);
#673=ORIENTED_EDGE('',*,*,#537,.F.);
#674=ORIENTED_EDGE('',*,*,#538,.T.);
#675=ORIENTED_EDGE('',*,*,#507,.F.);
#676=ORIENTED_EDGE('',*,*,#538,.F.);
#677=ORIENTED_EDGE('',*,*,#496,.F.);
#678=ORIENTED_EDGE('',*,*,#539,.F.);
#679=ORIENTED_EDGE('',*,*,#540,.F.);
#680=ORIENTED_EDGE('',*,*,#541,.F.);
#681=ORIENTED_EDGE('',*,*,#517,.F.);
#682=ORIENTED_EDGE('',*,*,#515,.T.);
#683=ORIENTED_EDGE('',*,*,#502,.T.);
#684=ORIENTED_EDGE('',*,*,#495,.F.);
#685=ORIENTED_EDGE('',*,*,#501,.T.);
#686=ORIENTED_EDGE('',*,*,#508,.F.);
#687=ORIENTED_EDGE('',*,*,#514,.T.);
#688=ORIENTED_EDGE('',*,*,#542,.T.);
#689=ORIENTED_EDGE('',*,*,#539,.T.);
#690=ORIENTED_EDGE('',*,*,#535,.T.);
#691=ORIENTED_EDGE('',*,*,#537,.T.);
#692=ORIENTED_EDGE('',*,*,#541,.T.);
#693=ORIENTED_EDGE('',*,*,#543,.T.);
#694=ORIENTED_EDGE('',*,*,#544,.T.);
#695=ORIENTED_EDGE('',*,*,#518,.F.);
#696=ORIENTED_EDGE('',*,*,#545,.F.);
#697=ORIENTED_EDGE('',*,*,#546,.F.);
#698=ORIENTED_EDGE('',*,*,#547,.F.);
#699=ORIENTED_EDGE('',*,*,#548,.T.);
#700=ORIENTED_EDGE('',*,*,#549,.F.);
#701=ORIENTED_EDGE('',*,*,#548,.F.);
#702=ORIENTED_EDGE('',*,*,#550,.F.);
#703=ORIENTED_EDGE('',*,*,#551,.T.);
#704=ORIENTED_EDGE('',*,*,#552,.F.);
#705=ORIENTED_EDGE('',*,*,#553,.F.);
#706=ORIENTED_EDGE('',*,*,#551,.F.);
#707=ORIENTED_EDGE('',*,*,#554,.F.);
#708=ORIENTED_EDGE('',*,*,#555,.T.);
#709=ORIENTED_EDGE('',*,*,#556,.F.);
#710=ORIENTED_EDGE('',*,*,#555,.F.);
#711=ORIENTED_EDGE('',*,*,#557,.F.);
#712=ORIENTED_EDGE('',*,*,#546,.T.);
#713=ORIENTED_EDGE('',*,*,#558,.F.);
#714=ORIENTED_EDGE('',*,*,#559,.F.);
#715=ORIENTED_EDGE('',*,*,#560,.T.);
#716=ORIENTED_EDGE('',*,*,#558,.T.);
#717=ORIENTED_EDGE('',*,*,#560,.F.);
#718=ORIENTED_EDGE('',*,*,#561,.F.);
#719=ORIENTED_EDGE('',*,*,#562,.F.);
#720=ORIENTED_EDGE('',*,*,#563,.F.);
#721=ORIENTED_EDGE('',*,*,#564,.T.);
#722=ORIENTED_EDGE('',*,*,#565,.F.);
#723=ORIENTED_EDGE('',*,*,#564,.F.);
#724=ORIENTED_EDGE('',*,*,#566,.F.);
#725=ORIENTED_EDGE('',*,*,#567,.T.);
#726=ORIENTED_EDGE('',*,*,#568,.F.);
#727=ORIENTED_EDGE('',*,*,#569,.F.);
#728=ORIENTED_EDGE('',*,*,#567,.F.);
#729=ORIENTED_EDGE('',*,*,#570,.F.);
#730=ORIENTED_EDGE('',*,*,#571,.T.);
#731=ORIENTED_EDGE('',*,*,#572,.F.);
#732=ORIENTED_EDGE('',*,*,#571,.F.);
#733=ORIENTED_EDGE('',*,*,#573,.F.);
#734=ORIENTED_EDGE('',*,*,#562,.T.);
#735=ORIENTED_EDGE('',*,*,#574,.F.);
#736=ORIENTED_EDGE('',*,*,#575,.F.);
#737=ORIENTED_EDGE('',*,*,#576,.T.);
#738=ORIENTED_EDGE('',*,*,#568,.T.);
#739=ORIENTED_EDGE('',*,*,#576,.F.);
#740=ORIENTED_EDGE('',*,*,#534,.F.);
#741=ORIENTED_EDGE('',*,*,#577,.T.);
#742=ORIENTED_EDGE('',*,*,#578,.F.);
#743=ORIENTED_EDGE('',*,*,#577,.F.);
#744=ORIENTED_EDGE('',*,*,#533,.F.);
#745=ORIENTED_EDGE('',*,*,#579,.T.);
#746=ORIENTED_EDGE('',*,*,#580,.F.);
#747=ORIENTED_EDGE('',*,*,#579,.F.);
#748=ORIENTED_EDGE('',*,*,#532,.F.);
#749=ORIENTED_EDGE('',*,*,#581,.T.);
#750=ORIENTED_EDGE('',*,*,#582,.F.);
#751=ORIENTED_EDGE('',*,*,#581,.F.);
#752=ORIENTED_EDGE('',*,*,#531,.F.);
#753=ORIENTED_EDGE('',*,*,#583,.T.);
#754=ORIENTED_EDGE('',*,*,#584,.F.);
#755=ORIENTED_EDGE('',*,*,#583,.F.);
#756=ORIENTED_EDGE('',*,*,#585,.F.);
#757=ORIENTED_EDGE('',*,*,#586,.T.);
#758=ORIENTED_EDGE('',*,*,#587,.F.);
#759=ORIENTED_EDGE('',*,*,#586,.F.);
#760=ORIENTED_EDGE('',*,*,#588,.F.);
#761=ORIENTED_EDGE('',*,*,#589,.T.);
#762=ORIENTED_EDGE('',*,*,#590,.F.);
#763=ORIENTED_EDGE('',*,*,#589,.F.);
#764=ORIENTED_EDGE('',*,*,#552,.T.);
#765=ORIENTED_EDGE('',*,*,#591,.T.);
#766=ORIENTED_EDGE('',*,*,#592,.F.);
#767=ORIENTED_EDGE('',*,*,#591,.F.);
#768=ORIENTED_EDGE('',*,*,#574,.T.);
#769=ORIENTED_EDGE('',*,*,#593,.T.);
#770=ORIENTED_EDGE('',*,*,#594,.F.);
#771=ORIENTED_EDGE('',*,*,#593,.F.);
#772=ORIENTED_EDGE('',*,*,#530,.F.);
#773=ORIENTED_EDGE('',*,*,#595,.T.);
#774=ORIENTED_EDGE('',*,*,#596,.F.);
#775=ORIENTED_EDGE('',*,*,#595,.F.);
#776=ORIENTED_EDGE('',*,*,#529,.F.);
#777=ORIENTED_EDGE('',*,*,#597,.T.);
#778=ORIENTED_EDGE('',*,*,#598,.F.);
#779=ORIENTED_EDGE('',*,*,#597,.F.);
#780=ORIENTED_EDGE('',*,*,#525,.F.);
#781=ORIENTED_EDGE('',*,*,#599,.T.);
#782=ORIENTED_EDGE('',*,*,#600,.F.);
#783=ORIENTED_EDGE('',*,*,#601,.F.);
#784=ORIENTED_EDGE('',*,*,#570,.T.);
#785=ORIENTED_EDGE('',*,*,#566,.T.);
#786=ORIENTED_EDGE('',*,*,#563,.T.);
#787=ORIENTED_EDGE('',*,*,#573,.T.);
#788=ORIENTED_EDGE('',*,*,#526,.F.);
#789=ORIENTED_EDGE('',*,*,#601,.T.);
#790=ORIENTED_EDGE('',*,*,#602,.F.);
#791=ORIENTED_EDGE('',*,*,#603,.F.);
#792=ORIENTED_EDGE('',*,*,#587,.T.);
#793=ORIENTED_EDGE('',*,*,#594,.T.);
#794=ORIENTED_EDGE('',*,*,#527,.F.);
#795=ORIENTED_EDGE('',*,*,#603,.T.);
#796=ORIENTED_EDGE('',*,*,#604,.F.);
#797=ORIENTED_EDGE('',*,*,#605,.F.);
#798=ORIENTED_EDGE('',*,*,#569,.T.);
#799=ORIENTED_EDGE('',*,*,#572,.T.);
#800=ORIENTED_EDGE('',*,*,#561,.T.);
#801=ORIENTED_EDGE('',*,*,#565,.T.);
#802=ORIENTED_EDGE('',*,*,#528,.F.);
#803=ORIENTED_EDGE('',*,*,#605,.T.);
#804=ORIENTED_EDGE('',*,*,#606,.F.);
#805=ORIENTED_EDGE('',*,*,#599,.F.);
#806=ORIENTED_EDGE('',*,*,#585,.T.);
#807=ORIENTED_EDGE('',*,*,#575,.T.);
#808=ORIENTED_EDGE('',*,*,#606,.T.);
#809=ORIENTED_EDGE('',*,*,#604,.T.);
#810=ORIENTED_EDGE('',*,*,#602,.T.);
#811=ORIENTED_EDGE('',*,*,#600,.T.);
#812=ORIENTED_EDGE('',*,*,#521,.F.);
#813=ORIENTED_EDGE('',*,*,#607,.T.);
#814=ORIENTED_EDGE('',*,*,#608,.F.);
#815=ORIENTED_EDGE('',*,*,#609,.F.);
#816=ORIENTED_EDGE('',*,*,#553,.T.);
#817=ORIENTED_EDGE('',*,*,#556,.T.);
#818=ORIENTED_EDGE('',*,*,#545,.T.);
#819=ORIENTED_EDGE('',*,*,#549,.T.);
#820=ORIENTED_EDGE('',*,*,#522,.F.);
#821=ORIENTED_EDGE('',*,*,#609,.T.);
#822=ORIENTED_EDGE('',*,*,#610,.F.);
#823=ORIENTED_EDGE('',*,*,#611,.F.);
#824=ORIENTED_EDGE('',*,*,#590,.T.);
#825=ORIENTED_EDGE('',*,*,#592,.T.);
#826=ORIENTED_EDGE('',*,*,#523,.F.);
#827=ORIENTED_EDGE('',*,*,#611,.T.);
#828=ORIENTED_EDGE('',*,*,#612,.F.);
#829=ORIENTED_EDGE('',*,*,#613,.F.);
#830=ORIENTED_EDGE('',*,*,#554,.T.);
#831=ORIENTED_EDGE('',*,*,#550,.T.);
#832=ORIENTED_EDGE('',*,*,#547,.T.);
#833=ORIENTED_EDGE('',*,*,#557,.T.);
#834=ORIENTED_EDGE('',*,*,#524,.F.);
#835=ORIENTED_EDGE('',*,*,#613,.T.);
#836=ORIENTED_EDGE('',*,*,#614,.F.);
#837=ORIENTED_EDGE('',*,*,#607,.F.);
#838=ORIENTED_EDGE('',*,*,#588,.T.);
#839=ORIENTED_EDGE('',*,*,#559,.T.);
#840=ORIENTED_EDGE('',*,*,#614,.T.);
#841=ORIENTED_EDGE('',*,*,#612,.T.);
#842=ORIENTED_EDGE('',*,*,#610,.T.);
#843=ORIENTED_EDGE('',*,*,#608,.T.);
#844=ORIENTED_EDGE('',*,*,#615,.T.);
#845=ORIENTED_EDGE('',*,*,#512,.T.);
#846=ORIENTED_EDGE('',*,*,#520,.F.);
#847=ORIENTED_EDGE('',*,*,#616,.F.);
#848=ORIENTED_EDGE('',*,*,#617,.T.);
#849=ORIENTED_EDGE('',*,*,#616,.T.);
#850=ORIENTED_EDGE('',*,*,#519,.F.);
#851=ORIENTED_EDGE('',*,*,#544,.F.);
#852=ORIENTED_EDGE('',*,*,#513,.F.);
#853=ORIENTED_EDGE('',*,*,#615,.F.);
#854=ORIENTED_EDGE('',*,*,#617,.F.);
#855=ORIENTED_EDGE('',*,*,#543,.F.);
#856=ORIENTED_EDGE('',*,*,#540,.T.);
#857=ORIENTED_EDGE('',*,*,#542,.F.);
#858=ORIENTED_EDGE('',*,*,#578,.T.);
#859=ORIENTED_EDGE('',*,*,#580,.T.);
#860=ORIENTED_EDGE('',*,*,#582,.T.);
#861=ORIENTED_EDGE('',*,*,#584,.T.);
#862=ORIENTED_EDGE('',*,*,#596,.T.);
#863=ORIENTED_EDGE('',*,*,#598,.T.);
#864=CYLINDRICAL_SURFACE('',#949,1.);
#865=CYLINDRICAL_SURFACE('',#957,1.);
#866=CYLINDRICAL_SURFACE('',#961,2.);
#867=CYLINDRICAL_SURFACE('',#970,1.6);
#868=CYLINDRICAL_SURFACE('',#972,1.6);
#869=CYLINDRICAL_SURFACE('',#983,1.25);
#870=CYLINDRICAL_SURFACE('',#991,1.25);
#871=CYLINDRICAL_SURFACE('',#993,1.6);
#872=CYLINDRICAL_SURFACE('',#995,1.59999999999999);
#873=CYLINDRICAL_SURFACE('',#997,1.59999999999999);
#874=CYLINDRICAL_SURFACE('',#999,1.59999999999999);
#875=CYLINDRICAL_SURFACE('',#1001,1.25);
#876=CYLINDRICAL_SURFACE('',#1004,1.25);
#877=CYLINDRICAL_SURFACE('',#1007,1.25);
#878=CYLINDRICAL_SURFACE('',#1009,1.25);
#879=CYLINDRICAL_SURFACE('',#1011,1.6);
#880=CYLINDRICAL_SURFACE('',#1013,1.6);
#881=ADVANCED_FACE('',(#77),#864,.T.);
#882=ADVANCED_FACE('',(#78),#49,.T.);
#883=ADVANCED_FACE('',(#79,#15,#16),#50,.F.);
#884=ADVANCED_FACE('',(#80),#865,.T.);
#885=ADVANCED_FACE('',(#81),#51,.T.);
#886=ADVANCED_FACE('',(#82),#866,.F.);
#887=ADVANCED_FACE('',(#83,#17,#18,#19,#20,#21,#22,#23,#24),#52,.T.);
#888=ADVANCED_FACE('',(#84),#867,.F.);
#889=ADVANCED_FACE('',(#85),#868,.F.);
#890=ADVANCED_FACE('',(#86),#53,.T.);
#891=ADVANCED_FACE('',(#87,#25,#26),#54,.T.);
#892=ADVANCED_FACE('',(#88),#55,.T.);
#893=ADVANCED_FACE('',(#89),#56,.T.);
#894=ADVANCED_FACE('',(#90,#27),#57,.T.);
#895=ADVANCED_FACE('',(#91),#58,.T.);
#896=ADVANCED_FACE('',(#92,#28),#59,.T.);
#897=ADVANCED_FACE('',(#93),#869,.F.);
#898=ADVANCED_FACE('',(#94),#60,.F.);
#899=ADVANCED_FACE('',(#95,#29),#61,.F.);
#900=ADVANCED_FACE('',(#96),#62,.F.);
#901=ADVANCED_FACE('',(#97,#30),#63,.F.);
#902=ADVANCED_FACE('',(#98),#870,.F.);
#903=ADVANCED_FACE('',(#99),#871,.F.);
#904=ADVANCED_FACE('',(#100),#872,.F.);
#905=ADVANCED_FACE('',(#101),#873,.F.);
#906=ADVANCED_FACE('',(#102),#874,.F.);
#907=ADVANCED_FACE('',(#103),#875,.F.);
#908=ADVANCED_FACE('',(#104),#876,.F.);
#909=ADVANCED_FACE('',(#105),#877,.F.);
#910=ADVANCED_FACE('',(#106),#878,.F.);
#911=ADVANCED_FACE('',(#107),#879,.F.);
#912=ADVANCED_FACE('',(#108),#880,.F.);
#913=ADVANCED_FACE('',(#109,#31),#64,.T.);
#914=ADVANCED_FACE('',(#110,#32,#33),#65,.T.);
#915=ADVANCED_FACE('',(#111,#34),#66,.T.);
#916=ADVANCED_FACE('',(#112,#35,#36),#67,.T.);
#917=ADVANCED_FACE('',(#113),#68,.T.);
#918=ADVANCED_FACE('',(#114,#37),#69,.T.);
#919=ADVANCED_FACE('',(#115,#38,#39),#70,.T.);
#920=ADVANCED_FACE('',(#116,#40),#71,.T.);
#921=ADVANCED_FACE('',(#117,#41,#42),#72,.T.);
#922=ADVANCED_FACE('',(#118),#73,.T.);
#923=ADVANCED_FACE('',(#119),#74,.T.);
#924=ADVANCED_FACE('',(#120),#75,.T.);
#925=ADVANCED_FACE('',(#121,#43,#44,#45,#46,#47,#48),#76,.F.);
#926=CLOSED_SHELL('',(#881,#882,#883,#884,#885,#886,#887,#888,#889,#890,
#891,#892,#893,#894,#895,#896,#897,#898,#899,#900,#901,#902,#903,#904,#905,
#906,#907,#908,#909,#910,#911,#912,#913,#914,#915,#916,#917,#918,#919,#920,
#921,#922,#923,#924,#925));
#927=DERIVED_UNIT_ELEMENT(#930,1.);
#928=DERIVED_UNIT_ELEMENT(#1533,-3.);
#929=DIMENSIONAL_EXPONENTS(0.,1.,0.,0.,0.,0.,0.);
#930=(
CONVERSION_BASED_UNIT('gram',#932)
MASS_UNIT()
NAMED_UNIT(#929)
);
#931=(
MASS_UNIT()
NAMED_UNIT(*)
SI_UNIT(.KILO.,.GRAM.)
);
#932=MASS_MEASURE_WITH_UNIT(MASS_MEASURE(0.001),#931);
#933=DERIVED_UNIT((#927,#928));
#934=MEASURE_REPRESENTATION_ITEM('density measure',
POSITIVE_RATIO_MEASURE(1.),#933);
#935=PROPERTY_DEFINITION_REPRESENTATION(#940,#937);
#936=PROPERTY_DEFINITION_REPRESENTATION(#941,#938);
#937=REPRESENTATION('material name',(#939),#1530);
#938=REPRESENTATION('density',(#934),#1530);
#939=DESCRIPTIVE_REPRESENTATION_ITEM('\X2\04220438043F043E0432044B0435\X0\',
'\X2\04220438043F043E0432044B0435\X0\');
#940=PROPERTY_DEFINITION('material property','material name',#1540);
#941=PROPERTY_DEFINITION('material property','density of part',#1540);
#942=DATE_TIME_ROLE('creation_date');
#943=APPLIED_DATE_AND_TIME_ASSIGNMENT(#944,#942,(#1540));
#944=DATE_AND_TIME(#945,#946);
#945=CALENDAR_DATE(2026,3,2);
#946=LOCAL_TIME(0,0,0.,#947);
#947=COORDINATED_UNIVERSAL_TIME_OFFSET(0,0,.BEHIND.);
#948=AXIS2_PLACEMENT_3D('placement',#1277,#1028,#1029);
#949=AXIS2_PLACEMENT_3D('',#1278,#1030,#1031);
#950=AXIS2_PLACEMENT_3D('',#1281,#1032,#1033);
#951=AXIS2_PLACEMENT_3D('',#1285,#1035,#1036);
#952=AXIS2_PLACEMENT_3D('',#1287,#1038,#1039);
#953=AXIS2_PLACEMENT_3D('',#1293,#1043,#1044);
#954=AXIS2_PLACEMENT_3D('',#1300,#1048,#1049);
#955=AXIS2_PLACEMENT_3D('',#1302,#1050,#1051);
#956=AXIS2_PLACEMENT_3D('',#1304,#1052,#1053);
#957=AXIS2_PLACEMENT_3D('',#1305,#1054,#1055);
#958=AXIS2_PLACEMENT_3D('',#1307,#1056,#1057);
#959=AXIS2_PLACEMENT_3D('',#1309,#1059,#1060);
#960=AXIS2_PLACEMENT_3D('',#1311,#1061,#1062);
#961=AXIS2_PLACEMENT_3D('',#1319,#1067,#1068);
#962=AXIS2_PLACEMENT_3D('',#1321,#1069,#1070);
#963=AXIS2_PLACEMENT_3D('',#1323,#1072,#1073);
#964=AXIS2_PLACEMENT_3D('',#1348,#1086,#1087);
#965=AXIS2_PLACEMENT_3D('',#1350,#1088,#1089);
#966=AXIS2_PLACEMENT_3D('',#1352,#1090,#1091);
#967=AXIS2_PLACEMENT_3D('',#1354,#1092,#1093);
#968=AXIS2_PLACEMENT_3D('',#1356,#1094,#1095);
#969=AXIS2_PLACEMENT_3D('',#1358,#1096,#1097);
#970=AXIS2_PLACEMENT_3D('',#1359,#1098,#1099);
#971=AXIS2_PLACEMENT_3D('',#1361,#1100,#1101);
#972=AXIS2_PLACEMENT_3D('',#1363,#1103,#1104);
#973=AXIS2_PLACEMENT_3D('',#1365,#1105,#1106);
#974=AXIS2_PLACEMENT_3D('',#1367,#1108,#1109);
#975=AXIS2_PLACEMENT_3D('',#1373,#1113,#1114);
#976=AXIS2_PLACEMENT_3D('',#1375,#1116,#1117);
#977=AXIS2_PLACEMENT_3D('',#1379,#1120,#1121);
#978=AXIS2_PLACEMENT_3D('',#1388,#1126,#1127);
#979=AXIS2_PLACEMENT_3D('',#1395,#1131,#1132);
#980=AXIS2_PLACEMENT_3D('',#1396,#1133,#1134);
#981=AXIS2_PLACEMENT_3D('',#1402,#1138,#1139);
#982=AXIS2_PLACEMENT_3D('',#1406,#1142,#1143);
#983=AXIS2_PLACEMENT_3D('',#1407,#1144,#1145);
#984=AXIS2_PLACEMENT_3D('',#1409,#1146,#1147);
#985=AXIS2_PLACEMENT_3D('',#1411,#1149,#1150);
#986=AXIS2_PLACEMENT_3D('',#1420,#1155,#1156);
#987=AXIS2_PLACEMENT_3D('',#1427,#1160,#1161);
#988=AXIS2_PLACEMENT_3D('',#1428,#1162,#1163);
#989=AXIS2_PLACEMENT_3D('',#1434,#1167,#1168);
#990=AXIS2_PLACEMENT_3D('',#1438,#1171,#1172);
#991=AXIS2_PLACEMENT_3D('',#1439,#1173,#1174);
#992=AXIS2_PLACEMENT_3D('',#1441,#1175,#1176);
#993=AXIS2_PLACEMENT_3D('',#1443,#1178,#1179);
#994=AXIS2_PLACEMENT_3D('',#1446,#1181,#1182);
#995=AXIS2_PLACEMENT_3D('',#1447,#1183,#1184);
#996=AXIS2_PLACEMENT_3D('',#1450,#1186,#1187);
#997=AXIS2_PLACEMENT_3D('',#1451,#1188,#1189);
#998=AXIS2_PLACEMENT_3D('',#1454,#1191,#1192);
#999=AXIS2_PLACEMENT_3D('',#1455,#1193,#1194);
#1000=AXIS2_PLACEMENT_3D('',#1458,#1196,#1197);
#1001=AXIS2_PLACEMENT_3D('',#1459,#1198,#1199);
#1002=AXIS2_PLACEMENT_3D('',#1461,#1200,#1201);
#1003=AXIS2_PLACEMENT_3D('',#1464,#1203,#1204);
#1004=AXIS2_PLACEMENT_3D('',#1465,#1205,#1206);
#1005=AXIS2_PLACEMENT_3D('',#1467,#1207,#1208);
#1006=AXIS2_PLACEMENT_3D('',#1470,#1210,#1211);
#1007=AXIS2_PLACEMENT_3D('',#1471,#1212,#1213);
#1008=AXIS2_PLACEMENT_3D('',#1474,#1215,#1216);
#1009=AXIS2_PLACEMENT_3D('',#1475,#1217,#1218);
#1010=AXIS2_PLACEMENT_3D('',#1478,#1220,#1221);
#1011=AXIS2_PLACEMENT_3D('',#1479,#1222,#1223);
#1012=AXIS2_PLACEMENT_3D('',#1482,#1225,#1226);
#1013=AXIS2_PLACEMENT_3D('',#1483,#1227,#1228);
#1014=AXIS2_PLACEMENT_3D('',#1486,#1230,#1231);
#1015=AXIS2_PLACEMENT_3D('',#1487,#1232,#1233);
#1016=AXIS2_PLACEMENT_3D('',#1493,#1237,#1238);
#1017=AXIS2_PLACEMENT_3D('',#1497,#1241,#1242);
#1018=AXIS2_PLACEMENT_3D('',#1501,#1245,#1246);
#1019=AXIS2_PLACEMENT_3D('',#1503,#1248,#1249);
#1020=AXIS2_PLACEMENT_3D('',#1504,#1250,#1251);
#1021=AXIS2_PLACEMENT_3D('',#1510,#1255,#1256);
#1022=AXIS2_PLACEMENT_3D('',#1514,#1259,#1260);
#1023=AXIS2_PLACEMENT_3D('',#1518,#1263,#1264);
#1024=AXIS2_PLACEMENT_3D('',#1520,#1266,#1267);
#1025=AXIS2_PLACEMENT_3D('',#1521,#1268,#1269);
#1026=AXIS2_PLACEMENT_3D('',#1525,#1272,#1273);
#1027=AXIS2_PLACEMENT_3D('',#1527,#1275,#1276);
#1028=DIRECTION('axis',(0.,0.,1.));
#1029=DIRECTION('refdir',(1.,0.,0.));
#1030=DIRECTION('center_axis',(-1.,0.,0.));
#1031=DIRECTION('ref_axis',(0.,0.707106781186548,0.707106781186548));
#1032=DIRECTION('center_axis',(1.,0.,0.));
#1033=DIRECTION('ref_axis',(0.,0.707106781186548,0.707106781186548));
#1034=DIRECTION('',(1.,0.,0.));
#1035=DIRECTION('center_axis',(-1.,0.,8.07434927000114E-17));
#1036=DIRECTION('ref_axis',(0.,0.707106781186548,0.707106781186548));
#1037=DIRECTION('',(-1.,0.,0.));
#1038=DIRECTION('center_axis',(0.,1.,0.));
#1039=DIRECTION('ref_axis',(-8.07434927000114E-17,0.,-1.));
#1040=DIRECTION('',(-8.07434927000114E-17,0.,-1.));
#1041=DIRECTION('',(1.,0.,0.));
#1042=DIRECTION('',(-8.07434927000114E-17,0.,-1.));
#1043=DIRECTION('center_axis',(-1.,0.,8.07434927000114E-17));
#1044=DIRECTION('ref_axis',(8.07434927000114E-17,0.,1.));
#1045=DIRECTION('',(-1.28061835263151E-32,1.,-1.58603289232165E-16));
#1046=DIRECTION('',(8.07434927000114E-17,0.,1.));
#1047=DIRECTION('',(1.28061835263151E-32,-1.,1.58603289232165E-16));
#1048=DIRECTION('center_axis',(-1.,0.,8.07434927000114E-17));
#1049=DIRECTION('ref_axis',(0.,0.707106781186546,-0.707106781186549));
#1050=DIRECTION('center_axis',(-1.,0.,8.07434927000114E-17));
#1051=DIRECTION('ref_axis',(0.,0.,1.));
#1052=DIRECTION('center_axis',(-1.,0.,8.07434927000114E-17));
#1053=DIRECTION('ref_axis',(0.,0.,1.));
#1054=DIRECTION('center_axis',(-1.,0.,0.));
#1055=DIRECTION('ref_axis',(0.,0.707106781186546,-0.707106781186549));
#1056=DIRECTION('center_axis',(1.,0.,0.));
#1057=DIRECTION('ref_axis',(0.,0.707106781186546,-0.707106781186549));
#1058=DIRECTION('',(-1.,0.,0.));
#1059=DIRECTION('center_axis',(0.,0.,-1.));
#1060=DIRECTION('ref_axis',(-1.,0.,0.));
#1061=DIRECTION('center_axis',(0.,0.,-1.));
#1062=DIRECTION('ref_axis',(-0.707106781186548,-0.707106781186547,0.));
#1063=DIRECTION('',(-1.,0.,0.));
#1064=DIRECTION('',(0.,1.,0.));
#1065=DIRECTION('',(-1.,0.,0.));
#1066=DIRECTION('',(1.28061835263151E-32,-1.,1.58603289232165E-16));
#1067=DIRECTION('center_axis',(8.07434927000114E-17,0.,1.));
#1068=DIRECTION('ref_axis',(-0.707106781186548,-0.707106781186547,0.));
#1069=DIRECTION('center_axis',(0.,1.58603289232165E-16,1.));
#1070=DIRECTION('ref_axis',(-0.707106781186548,-0.707106781186547,0.));
#1071=DIRECTION('',(-8.07434927000114E-17,0.,-1.));
#1072=DIRECTION('center_axis',(0.,1.,0.));
#1073=DIRECTION('ref_axis',(0.,0.,1.));
#1074=DIRECTION('',(-1.,0.,0.));
#1075=DIRECTION('',(8.07434927000114E-17,0.,1.));
#1076=DIRECTION('',(1.,0.,0.));
#1077=DIRECTION('',(-1.61486985400023E-16,0.,-1.));
#1078=DIRECTION('',(-1.,0.,0.));
#1079=DIRECTION('',(-3.17206578464331E-16,0.,-1.));
#1080=DIRECTION('',(1.,0.,-1.85037170770859E-16));
#1081=DIRECTION('',(0.,0.,1.));
#1082=DIRECTION('',(-1.,0.,0.));
#1083=DIRECTION('',(-3.1720657846433E-16,0.,-1.));
#1084=DIRECTION('',(1.,0.,0.));
#1085=DIRECTION('',(0.,0.,1.));
#1086=DIRECTION('center_axis',(0.,-1.,0.));
#1087=DIRECTION('ref_axis',(1.,0.,0.));
#1088=DIRECTION('center_axis',(0.,-1.,0.));
#1089=DIRECTION('ref_axis',(1.,0.,0.));
#1090=DIRECTION('center_axis',(0.,-1.,0.));
#1091=DIRECTION('ref_axis',(1.,0.,0.));
#1092=DIRECTION('center_axis',(0.,-1.,0.));
#1093=DIRECTION('ref_axis',(1.,0.,0.));
#1094=DIRECTION('center_axis',(0.,-1.,0.));
#1095=DIRECTION('ref_axis',(1.,0.,0.));
#1096=DIRECTION('center_axis',(0.,-1.,0.));
#1097=DIRECTION('ref_axis',(1.,0.,0.));
#1098=DIRECTION('center_axis',(1.,0.,0.));
#1099=DIRECTION('ref_axis',(0.,0.,1.));
#1100=DIRECTION('center_axis',(1.,0.,0.));
#1101=DIRECTION('ref_axis',(0.,0.,1.));
#1102=DIRECTION('',(1.,0.,0.));
#1103=DIRECTION('center_axis',(1.,0.,0.));
#1104=DIRECTION('ref_axis',(0.,0.,1.));
#1105=DIRECTION('center_axis',(1.,0.,0.));
#1106=DIRECTION('ref_axis',(0.,0.,1.));
#1107=DIRECTION('',(1.,0.,0.));
#1108=DIRECTION('center_axis',(0.,1.58603289232165E-16,1.));
#1109=DIRECTION('ref_axis',(-1.28061835263151E-32,1.,-1.58603289232165E-16));
#1110=DIRECTION('',(-1.28061835263151E-32,1.,-1.58603289232165E-16));
#1111=DIRECTION('',(-1.,0.,0.));
#1112=DIRECTION('',(1.28061835263151E-32,-1.,1.58603289232165E-16));
#1113=DIRECTION('center_axis',(-1.,0.,0.));
#1114=DIRECTION('ref_axis',(0.,0.,1.));
#1115=DIRECTION('',(8.07434927000114E-17,0.,1.));
#1116=DIRECTION('center_axis',(-1.,0.,8.07434927000114E-17));
#1117=DIRECTION('ref_axis',(8.07434927000114E-17,0.,1.));
#1118=DIRECTION('',(8.07434927000114E-17,0.,1.));
#1119=DIRECTION('',(0.,1.,0.));
#1120=DIRECTION('center_axis',(0.,1.,0.));
#1121=DIRECTION('ref_axis',(-1.,0.,0.));
#1122=DIRECTION('',(-1.,0.,0.));
#1123=DIRECTION('',(0.,0.,1.));
#1124=DIRECTION('',(1.,0.,-1.85037170770859E-16));
#1125=DIRECTION('',(0.,0.,1.));
#1126=DIRECTION('center_axis',(1.,0.,0.));
#1127=DIRECTION('ref_axis',(0.,1.,0.));
#1128=DIRECTION('',(0.,1.,0.));
#1129=DIRECTION('',(0.,-1.,0.));
#1130=DIRECTION('',(0.,0.,1.));
#1131=DIRECTION('center_axis',(1.,0.,0.));
#1132=DIRECTION('ref_axis',(0.,0.,-1.));
#1133=DIRECTION('center_axis',(0.,-1.,0.));
#1134=DIRECTION('ref_axis',(1.,0.,0.));
#1135=DIRECTION('',(1.,0.,0.));
#1136=DIRECTION('',(-1.,0.,1.85037170770859E-16));
#1137=DIRECTION('',(0.,0.,1.));
#1138=DIRECTION('center_axis',(-1.,0.,0.));
#1139=DIRECTION('ref_axis',(0.,-1.,0.));
#1140=DIRECTION('',(0.,-1.,0.));
#1141=DIRECTION('',(0.,1.,0.));
#1142=DIRECTION('center_axis',(-1.,0.,0.));
#1143=DIRECTION('ref_axis',(0.,0.,-1.));
#1144=DIRECTION('center_axis',(-1.,0.,0.));
#1145=DIRECTION('ref_axis',(0.,0.,-1.));
#1146=DIRECTION('center_axis',(-1.,0.,0.));
#1147=DIRECTION('ref_axis',(0.,0.,-1.));
#1148=DIRECTION('',(-1.,0.,0.));
#1149=DIRECTION('center_axis',(0.,-1.,0.));
#1150=DIRECTION('ref_axis',(-1.,0.,0.));
#1151=DIRECTION('',(1.,0.,0.));
#1152=DIRECTION('',(0.,0.,-1.));
#1153=DIRECTION('',(-1.,0.,0.));
#1154=DIRECTION('',(0.,0.,-1.));
#1155=DIRECTION('center_axis',(1.,0.,0.));
#1156=DIRECTION('ref_axis',(0.,-1.,0.));
#1157=DIRECTION('',(0.,1.,0.));
#1158=DIRECTION('',(0.,-1.,0.));
#1159=DIRECTION('',(0.,0.,-1.));
#1160=DIRECTION('center_axis',(-1.,0.,0.));
#1161=DIRECTION('ref_axis',(0.,0.,-1.));
#1162=DIRECTION('center_axis',(0.,1.,0.));
#1163=DIRECTION('ref_axis',(1.,0.,0.));
#1164=DIRECTION('',(-1.,0.,0.));
#1165=DIRECTION('',(1.,0.,0.));
#1166=DIRECTION('',(0.,0.,-1.));
#1167=DIRECTION('center_axis',(-1.,0.,0.));
#1168=DIRECTION('ref_axis',(0.,1.,0.));
#1169=DIRECTION('',(0.,-1.,0.));
#1170=DIRECTION('',(0.,1.,0.));
#1171=DIRECTION('center_axis',(1.,0.,0.));
#1172=DIRECTION('ref_axis',(0.,0.,-1.));
#1173=DIRECTION('center_axis',(-1.,0.,0.));
#1174=DIRECTION('ref_axis',(0.,0.,-1.));
#1175=DIRECTION('center_axis',(-1.,0.,0.));
#1176=DIRECTION('ref_axis',(0.,0.,-1.));
#1177=DIRECTION('',(-1.,0.,0.));
#1178=DIRECTION('center_axis',(0.,-1.,0.));
#1179=DIRECTION('ref_axis',(1.,0.,0.));
#1180=DIRECTION('',(0.,-1.,0.));
#1181=DIRECTION('center_axis',(0.,1.,0.));
#1182=DIRECTION('ref_axis',(1.,0.,0.));
#1183=DIRECTION('center_axis',(0.,-1.,0.));
#1184=DIRECTION('ref_axis',(1.,0.,0.));
#1185=DIRECTION('',(0.,-1.,0.));
#1186=DIRECTION('center_axis',(0.,1.,0.));
#1187=DIRECTION('ref_axis',(1.,0.,0.));
#1188=DIRECTION('center_axis',(0.,-1.,0.));
#1189=DIRECTION('ref_axis',(1.,0.,0.));
#1190=DIRECTION('',(0.,-1.,0.));
#1191=DIRECTION('center_axis',(0.,1.,0.));
#1192=DIRECTION('ref_axis',(1.,0.,0.));
#1193=DIRECTION('center_axis',(0.,-1.,0.));
#1194=DIRECTION('ref_axis',(1.,0.,0.));
#1195=DIRECTION('',(0.,-1.,0.));
#1196=DIRECTION('center_axis',(0.,1.,0.));
#1197=DIRECTION('ref_axis',(1.,0.,0.));
#1198=DIRECTION('center_axis',(-1.,0.,0.));
#1199=DIRECTION('ref_axis',(0.,0.,-1.));
#1200=DIRECTION('center_axis',(-1.,0.,0.));
#1201=DIRECTION('ref_axis',(0.,0.,-1.));
#1202=DIRECTION('',(-1.,0.,0.));
#1203=DIRECTION('center_axis',(1.,0.,-3.1720657846433E-16));
#1204=DIRECTION('ref_axis',(0.,0.,-1.));
#1205=DIRECTION('center_axis',(-1.,0.,0.));
#1206=DIRECTION('ref_axis',(0.,0.,-1.));
#1207=DIRECTION('center_axis',(-1.,0.,0.));
#1208=DIRECTION('ref_axis',(0.,0.,-1.));
#1209=DIRECTION('',(-1.,0.,0.));
#1210=DIRECTION('center_axis',(1.,0.,-3.17206578464331E-16));
#1211=DIRECTION('ref_axis',(0.,0.,-1.));
#1212=DIRECTION('center_axis',(-1.,0.,0.));
#1213=DIRECTION('ref_axis',(0.,0.,-1.));
#1214=DIRECTION('',(-1.,0.,0.));
#1215=DIRECTION('center_axis',(1.,0.,-3.17206578464331E-16));
#1216=DIRECTION('ref_axis',(0.,0.,-1.));
#1217=DIRECTION('center_axis',(-1.,0.,0.));
#1218=DIRECTION('ref_axis',(0.,0.,-1.));
#1219=DIRECTION('',(-1.,0.,0.));
#1220=DIRECTION('center_axis',(1.,0.,-3.1720657846433E-16));
#1221=DIRECTION('ref_axis',(0.,0.,-1.));
#1222=DIRECTION('center_axis',(0.,-1.,0.));
#1223=DIRECTION('ref_axis',(1.,0.,0.));
#1224=DIRECTION('',(0.,-1.,0.));
#1225=DIRECTION('center_axis',(0.,1.,0.));
#1226=DIRECTION('ref_axis',(1.,0.,0.));
#1227=DIRECTION('center_axis',(0.,-1.,0.));
#1228=DIRECTION('ref_axis',(1.,0.,0.));
#1229=DIRECTION('',(0.,-1.,0.));
#1230=DIRECTION('center_axis',(0.,1.,0.));
#1231=DIRECTION('ref_axis',(1.,0.,0.));
#1232=DIRECTION('center_axis',(0.,0.,1.));
#1233=DIRECTION('ref_axis',(1.,0.,0.));
#1234=DIRECTION('',(0.,1.,0.));
#1235=DIRECTION('',(1.,0.,0.));
#1236=DIRECTION('',(0.,1.,0.));
#1237=DIRECTION('center_axis',(-1.,0.,3.1720657846433E-16));
#1238=DIRECTION('ref_axis',(3.1720657846433E-16,0.,1.));
#1239=DIRECTION('',(3.1720657846433E-16,0.,1.));
#1240=DIRECTION('',(0.,1.,0.));
#1241=DIRECTION('center_axis',(0.,0.,-1.));
#1242=DIRECTION('ref_axis',(-1.,0.,0.));
#1243=DIRECTION('',(-1.,0.,0.));
#1244=DIRECTION('',(0.,1.,0.));
#1245=DIRECTION('center_axis',(1.,0.,0.));
#1246=DIRECTION('ref_axis',(0.,0.,-1.));
#1247=DIRECTION('',(0.,0.,-1.));
#1248=DIRECTION('center_axis',(0.,1.,0.));
#1249=DIRECTION('ref_axis',(0.,0.,1.));
#1250=DIRECTION('center_axis',(0.,0.,1.));
#1251=DIRECTION('ref_axis',(1.,0.,0.));
#1252=DIRECTION('',(0.,1.,0.));
#1253=DIRECTION('',(1.,0.,0.));
#1254=DIRECTION('',(0.,1.,0.));
#1255=DIRECTION('center_axis',(-1.,0.,3.17206578464331E-16));
#1256=DIRECTION('ref_axis',(3.17206578464331E-16,0.,1.));
#1257=DIRECTION('',(3.17206578464331E-16,0.,1.));
#1258=DIRECTION('',(0.,1.,0.));
#1259=DIRECTION('center_axis',(-1.85037170770859E-16,0.,-1.));
#1260=DIRECTION('ref_axis',(-1.,0.,1.85037170770859E-16));
#1261=DIRECTION('',(-1.,0.,1.85037170770859E-16));
#1262=DIRECTION('',(0.,1.,0.));
#1263=DIRECTION('center_axis',(1.,0.,0.));
#1264=DIRECTION('ref_axis',(0.,0.,-1.));
#1265=DIRECTION('',(0.,0.,-1.));
#1266=DIRECTION('center_axis',(0.,1.,0.));
#1267=DIRECTION('ref_axis',(0.,0.,1.));
#1268=DIRECTION('center_axis',(1.,0.,-1.61486985400023E-16));
#1269=DIRECTION('ref_axis',(-1.61486985400023E-16,0.,-1.));
#1270=DIRECTION('',(-1.61486985400023E-16,0.,-1.));
#1271=DIRECTION('',(0.,1.,0.));
#1272=DIRECTION('center_axis',(0.,0.,1.));
#1273=DIRECTION('ref_axis',(1.,0.,0.));
#1274=DIRECTION('',(1.,0.,0.));
#1275=DIRECTION('center_axis',(0.,1.,0.));
#1276=DIRECTION('ref_axis',(0.,0.,1.));
#1277=CARTESIAN_POINT('',(0.,0.,0.));
#1278=CARTESIAN_POINT('Origin',(-18.,13.,-12.5));
#1279=CARTESIAN_POINT('',(-20.,14.,-12.5));
#1280=CARTESIAN_POINT('',(-20.,13.,-11.5));
#1281=CARTESIAN_POINT('Origin',(-20.,13.,-12.5));
#1282=CARTESIAN_POINT('',(-18.,13.,-11.5));
#1283=CARTESIAN_POINT('',(-18.,13.,-11.5));
#1284=CARTESIAN_POINT('',(-18.,14.,-12.5));
#1285=CARTESIAN_POINT('Origin',(-18.,13.,-12.5));
#1286=CARTESIAN_POINT('',(-18.,14.,-12.5));
#1287=CARTESIAN_POINT('Origin',(-18.,14.,-11.5));
#1288=CARTESIAN_POINT('',(-18.,14.,-26.5));
#1289=CARTESIAN_POINT('',(-18.,14.,-11.5));
#1290=CARTESIAN_POINT('',(-20.,14.,-26.5));
#1291=CARTESIAN_POINT('',(-2.22044604925031E-15,14.,-26.5));
#1292=CARTESIAN_POINT('',(-20.,14.,-11.5));
#1293=CARTESIAN_POINT('Origin',(-18.,7.,-19.5));
#1294=CARTESIAN_POINT('',(-18.,4.,-11.5));
#1295=CARTESIAN_POINT('',(-18.,0.,-11.5));
#1296=CARTESIAN_POINT('',(-18.,4.,-27.5));
#1297=CARTESIAN_POINT('',(-18.,4.,-9.75));
#1298=CARTESIAN_POINT('',(-18.,13.,-27.5));
#1299=CARTESIAN_POINT('',(-18.,14.,-27.5));
#1300=CARTESIAN_POINT('Origin',(-18.,13.,-26.5));
#1301=CARTESIAN_POINT('',(-18.,10.,-25.5113805978408));
#1302=CARTESIAN_POINT('Origin',(-18.,10.,-23.9113805978408));
#1303=CARTESIAN_POINT('',(-18.,10.,-17.5113805978408));
#1304=CARTESIAN_POINT('Origin',(-18.,10.,-15.9113805978408));
#1305=CARTESIAN_POINT('Origin',(-2.22044604925031E-15,13.,-26.5));
#1306=CARTESIAN_POINT('',(-20.,13.,-27.5));
#1307=CARTESIAN_POINT('Origin',(-20.,13.,-26.5));
#1308=CARTESIAN_POINT('',(-2.22044604925031E-15,13.,-27.5));
#1309=CARTESIAN_POINT('Origin',(18.,0.,-27.5));
#1310=CARTESIAN_POINT('',(-16.,2.,-27.5));
#1311=CARTESIAN_POINT('Origin',(-16.,4.,-27.5));
#1312=CARTESIAN_POINT('',(18.,2.,-27.5));
#1313=CARTESIAN_POINT('',(18.,2.,-27.5));
#1314=CARTESIAN_POINT('',(18.,0.,-27.5));
#1315=CARTESIAN_POINT('',(18.,0.,-27.5));
#1316=CARTESIAN_POINT('',(-20.,0.,-27.5));
#1317=CARTESIAN_POINT('',(18.,0.,-27.5));
#1318=CARTESIAN_POINT('',(-20.,14.,-27.5));
#1319=CARTESIAN_POINT('Origin',(-16.,4.,-9.75));
#1320=CARTESIAN_POINT('',(-16.,2.,-11.5));
#1321=CARTESIAN_POINT('Origin',(-16.,4.,-11.5));
#1322=CARTESIAN_POINT('',(-16.,2.,-9.75));
#1323=CARTESIAN_POINT('Origin',(0.,2.,0.));
#1324=CARTESIAN_POINT('',(-18.,2.,-11.5));
#1325=CARTESIAN_POINT('',(-9.,2.,-11.5));
#1326=CARTESIAN_POINT('',(-18.,2.,27.5));
#1327=CARTESIAN_POINT('',(-18.,2.,-27.5));
#1328=CARTESIAN_POINT('',(18.,2.,27.5));
#1329=CARTESIAN_POINT('',(-18.,2.,27.5));
#1330=CARTESIAN_POINT('',(18.,2.,27.5));
#1331=CARTESIAN_POINT('',(15.85,2.,-11.55));
#1332=CARTESIAN_POINT('',(3.85,2.,-11.55));
#1333=CARTESIAN_POINT('',(1.925,2.,-11.55));
#1334=CARTESIAN_POINT('',(3.85,2.,-18.55));
#1335=CARTESIAN_POINT('',(3.85,2.,-9.275));
#1336=CARTESIAN_POINT('',(15.85,2.,-18.55));
#1337=CARTESIAN_POINT('',(7.925,2.,-18.55));
#1338=CARTESIAN_POINT('',(15.85,2.,-5.775));
#1339=CARTESIAN_POINT('',(15.85,2.,18.55));
#1340=CARTESIAN_POINT('',(3.85,2.,18.55));
#1341=CARTESIAN_POINT('',(1.925,2.,18.55));
#1342=CARTESIAN_POINT('',(3.85,2.,11.55));
#1343=CARTESIAN_POINT('',(3.85,2.,5.775));
#1344=CARTESIAN_POINT('',(15.85,2.,11.55));
#1345=CARTESIAN_POINT('',(7.925,2.,11.55));
#1346=CARTESIAN_POINT('',(15.85,2.,9.275));
#1347=CARTESIAN_POINT('',(6.25,2.,7.55));
#1348=CARTESIAN_POINT('Origin',(7.85,2.,7.55));
#1349=CARTESIAN_POINT('',(12.4,2.,-7.54999999999999));
#1350=CARTESIAN_POINT('Origin',(14.,2.,-7.54999999999999));
#1351=CARTESIAN_POINT('',(11.9,2.,24.4999999999999));
#1352=CARTESIAN_POINT('Origin',(13.5,2.,24.4999999999999));
#1353=CARTESIAN_POINT('',(-13.5999999999999,2.,24.4999999999999));
#1354=CARTESIAN_POINT('Origin',(-11.9999999999999,2.,24.4999999999999));
#1355=CARTESIAN_POINT('',(11.9,2.,-23.5));
#1356=CARTESIAN_POINT('Origin',(13.5,2.,-23.5));
#1357=CARTESIAN_POINT('',(-13.5999999999999,2.,-23.5));
#1358=CARTESIAN_POINT('Origin',(-11.9999999999999,2.,-23.5));
#1359=CARTESIAN_POINT('Origin',(-20.,10.,-23.9113805978408));
#1360=CARTESIAN_POINT('',(-20.,10.,-25.5113805978408));
#1361=CARTESIAN_POINT('Origin',(-20.,10.,-23.9113805978408));
#1362=CARTESIAN_POINT('',(-20.,10.,-25.5113805978408));
#1363=CARTESIAN_POINT('Origin',(-20.,10.,-15.9113805978408));
#1364=CARTESIAN_POINT('',(-20.,10.,-17.5113805978408));
#1365=CARTESIAN_POINT('Origin',(-20.,10.,-15.9113805978408));
#1366=CARTESIAN_POINT('',(-20.,10.,-17.5113805978408));
#1367=CARTESIAN_POINT('Origin',(-18.,0.,-11.5));
#1368=CARTESIAN_POINT('',(-20.,0.,-11.5));
#1369=CARTESIAN_POINT('',(-20.,0.,-11.5));
#1370=CARTESIAN_POINT('',(-18.,0.,-11.5));
#1371=CARTESIAN_POINT('',(-18.,0.,-11.5));
#1372=CARTESIAN_POINT('',(-18.,1.26882631385732E-15,-11.5));
#1373=CARTESIAN_POINT('Origin',(-20.,7.,-19.5));
#1374=CARTESIAN_POINT('',(-20.,0.,-27.5));
#1375=CARTESIAN_POINT('Origin',(-18.,0.,-27.5));
#1376=CARTESIAN_POINT('',(-18.,0.,27.5));
#1377=CARTESIAN_POINT('',(-18.,0.,-27.5));
#1378=CARTESIAN_POINT('',(-18.,0.,27.5));
#1379=CARTESIAN_POINT('Origin',(10.65,9.45,-18.55));
#1380=CARTESIAN_POINT('',(10.65,9.45,-11.55));
#1381=CARTESIAN_POINT('',(9.05,9.45,-11.55));
#1382=CARTESIAN_POINT('',(7.25,9.45,-11.55));
#1383=CARTESIAN_POINT('',(10.65,9.45,-18.55));
#1384=CARTESIAN_POINT('',(10.65,9.45,-18.55));
#1385=CARTESIAN_POINT('',(9.05,9.45,-18.55));
#1386=CARTESIAN_POINT('',(13.25,9.45,-18.55));
#1387=CARTESIAN_POINT('',(9.05,9.45,-18.55));
#1388=CARTESIAN_POINT('Origin',(9.05,9.45,-18.55));
#1389=CARTESIAN_POINT('',(9.05,13.55,-11.55));
#1390=CARTESIAN_POINT('',(9.05,5.725,-11.55));
#1391=CARTESIAN_POINT('',(9.05,13.55,-18.55));
#1392=CARTESIAN_POINT('',(9.05,5.725,-18.55));
#1393=CARTESIAN_POINT('',(9.05,13.55,-18.55));
#1394=CARTESIAN_POINT('',(9.05,11.5,-12.45));
#1395=CARTESIAN_POINT('Origin',(9.05,11.5,-13.7));
#1396=CARTESIAN_POINT('Origin',(9.05,13.55,-18.55));
#1397=CARTESIAN_POINT('',(10.65,13.55,-11.55));
#1398=CARTESIAN_POINT('',(6.45,13.55,-11.55));
#1399=CARTESIAN_POINT('',(10.65,13.55,-18.55));
#1400=CARTESIAN_POINT('',(12.45,13.55,-18.55));
#1401=CARTESIAN_POINT('',(10.65,13.55,-18.55));
#1402=CARTESIAN_POINT('Origin',(10.65,13.55,-18.55));
#1403=CARTESIAN_POINT('',(10.65,7.775,-11.55));
#1404=CARTESIAN_POINT('',(10.65,7.775,-18.55));
#1405=CARTESIAN_POINT('',(10.65,11.5,-12.45));
#1406=CARTESIAN_POINT('Origin',(10.65,11.5,-13.7));
#1407=CARTESIAN_POINT('Origin',(15.85,11.5,-13.7));
#1408=CARTESIAN_POINT('',(15.85,11.5,-12.45));
#1409=CARTESIAN_POINT('Origin',(15.85,11.5,-13.7));
#1410=CARTESIAN_POINT('',(15.85,11.5,-12.45));
#1411=CARTESIAN_POINT('Origin',(10.65,9.45,18.55));
#1412=CARTESIAN_POINT('',(9.05,9.45,11.55));
#1413=CARTESIAN_POINT('',(10.65,9.45,11.55));
#1414=CARTESIAN_POINT('',(13.25,9.45,11.55));
#1415=CARTESIAN_POINT('',(9.05,9.45,18.55));
#1416=CARTESIAN_POINT('',(9.05,9.45,18.55));
#1417=CARTESIAN_POINT('',(10.65,9.45,18.55));
#1418=CARTESIAN_POINT('',(7.25,9.45,18.55));
#1419=CARTESIAN_POINT('',(10.65,9.45,18.55));
#1420=CARTESIAN_POINT('Origin',(10.65,13.55,18.55));
#1421=CARTESIAN_POINT('',(10.65,13.55,11.55));
#1422=CARTESIAN_POINT('',(10.65,7.775,11.55));
#1423=CARTESIAN_POINT('',(10.65,13.55,18.55));
#1424=CARTESIAN_POINT('',(10.65,7.775,18.55));
#1425=CARTESIAN_POINT('',(10.65,13.55,18.55));
#1426=CARTESIAN_POINT('',(10.65,11.5,15.05));
#1427=CARTESIAN_POINT('Origin',(10.65,11.5,13.8));
#1428=CARTESIAN_POINT('Origin',(9.05,13.55,18.55));
#1429=CARTESIAN_POINT('',(9.05,13.55,11.55));
#1430=CARTESIAN_POINT('',(12.45,13.55,11.55));
#1431=CARTESIAN_POINT('',(9.05,13.55,18.55));
#1432=CARTESIAN_POINT('',(6.45,13.55,18.55));
#1433=CARTESIAN_POINT('',(9.05,13.55,18.55));
#1434=CARTESIAN_POINT('Origin',(9.05,9.45,18.55));
#1435=CARTESIAN_POINT('',(9.05,5.725,11.55));
#1436=CARTESIAN_POINT('',(9.05,5.725,18.55));
#1437=CARTESIAN_POINT('',(9.05,11.5,15.05));
#1438=CARTESIAN_POINT('Origin',(9.05,11.5,13.8));
#1439=CARTESIAN_POINT('Origin',(15.85,11.5,13.8));
#1440=CARTESIAN_POINT('',(15.85,11.5,15.05));
#1441=CARTESIAN_POINT('Origin',(15.85,11.5,13.8));
#1442=CARTESIAN_POINT('',(15.85,11.5,15.05));
#1443=CARTESIAN_POINT('Origin',(-11.9999999999999,2.,-23.5));
#1444=CARTESIAN_POINT('',(-13.5999999999999,0.,-23.5));
#1445=CARTESIAN_POINT('',(-13.5999999999999,2.,-23.5));
#1446=CARTESIAN_POINT('Origin',(-11.9999999999999,0.,-23.5));
#1447=CARTESIAN_POINT('Origin',(13.5,2.,-23.5));
#1448=CARTESIAN_POINT('',(11.9,0.,-23.5));
#1449=CARTESIAN_POINT('',(11.9,2.,-23.5));
#1450=CARTESIAN_POINT('Origin',(13.5,0.,-23.5));
#1451=CARTESIAN_POINT('Origin',(-11.9999999999999,2.,24.4999999999999));
#1452=CARTESIAN_POINT('',(-13.5999999999999,0.,24.4999999999999));
#1453=CARTESIAN_POINT('',(-13.5999999999999,2.,24.4999999999999));
#1454=CARTESIAN_POINT('Origin',(-11.9999999999999,0.,24.4999999999999));
#1455=CARTESIAN_POINT('Origin',(13.5,2.,24.4999999999999));
#1456=CARTESIAN_POINT('',(11.9,0.,24.4999999999999));
#1457=CARTESIAN_POINT('',(11.9,2.,24.4999999999999));
#1458=CARTESIAN_POINT('Origin',(13.5,0.,24.4999999999999));
#1459=CARTESIAN_POINT('Origin',(15.85,4.5,13.8));
#1460=CARTESIAN_POINT('',(15.85,4.5,15.05));
#1461=CARTESIAN_POINT('Origin',(15.85,4.5,13.8));
#1462=CARTESIAN_POINT('',(3.85,4.5,15.05));
#1463=CARTESIAN_POINT('',(15.85,4.5,15.05));
#1464=CARTESIAN_POINT('Origin',(3.85,4.5,13.8));
#1465=CARTESIAN_POINT('Origin',(15.85,4.5,-13.7));
#1466=CARTESIAN_POINT('',(15.85,4.5,-12.45));
#1467=CARTESIAN_POINT('Origin',(15.85,4.5,-13.7));
#1468=CARTESIAN_POINT('',(3.85,4.5,-12.45));
#1469=CARTESIAN_POINT('',(15.85,4.5,-12.45));
#1470=CARTESIAN_POINT('Origin',(3.85,4.5,-13.7));
#1471=CARTESIAN_POINT('Origin',(15.85,11.5,-13.7));
#1472=CARTESIAN_POINT('',(3.85,11.5,-12.45));
#1473=CARTESIAN_POINT('',(15.85,11.5,-12.45));
#1474=CARTESIAN_POINT('Origin',(3.85,11.5,-13.7));
#1475=CARTESIAN_POINT('Origin',(15.85,11.5,13.8));
#1476=CARTESIAN_POINT('',(3.85,11.5,15.05));
#1477=CARTESIAN_POINT('',(15.85,11.5,15.05));
#1478=CARTESIAN_POINT('Origin',(3.85,11.5,13.8));
#1479=CARTESIAN_POINT('Origin',(14.,2.,-7.54999999999999));
#1480=CARTESIAN_POINT('',(12.4,0.,-7.54999999999999));
#1481=CARTESIAN_POINT('',(12.4,2.,-7.54999999999999));
#1482=CARTESIAN_POINT('Origin',(14.,0.,-7.54999999999999));
#1483=CARTESIAN_POINT('Origin',(7.85,2.,7.55));
#1484=CARTESIAN_POINT('',(6.25,0.,7.55));
#1485=CARTESIAN_POINT('',(6.25,2.,7.55));
#1486=CARTESIAN_POINT('Origin',(7.85,0.,7.55));
#1487=CARTESIAN_POINT('Origin',(3.85,2.,18.55));
#1488=CARTESIAN_POINT('',(15.85,16.,18.55));
#1489=CARTESIAN_POINT('',(15.85,2.,18.55));
#1490=CARTESIAN_POINT('',(3.85,16.,18.55));
#1491=CARTESIAN_POINT('',(3.85,16.,18.55));
#1492=CARTESIAN_POINT('',(3.85,2.,18.55));
#1493=CARTESIAN_POINT('Origin',(3.85,2.,11.55));
#1494=CARTESIAN_POINT('',(3.85,16.,11.55));
#1495=CARTESIAN_POINT('',(3.85,16.,11.55));
#1496=CARTESIAN_POINT('',(3.85,2.,11.55));
#1497=CARTESIAN_POINT('Origin',(15.85,2.,11.55));
#1498=CARTESIAN_POINT('',(15.85,16.,11.55));
#1499=CARTESIAN_POINT('',(15.85,16.,11.55));
#1500=CARTESIAN_POINT('',(15.85,2.,11.55));
#1501=CARTESIAN_POINT('Origin',(15.85,2.,18.55));
#1502=CARTESIAN_POINT('',(15.85,16.,18.55));
#1503=CARTESIAN_POINT('Origin',(9.85,16.,15.05));
#1504=CARTESIAN_POINT('Origin',(3.85,2.,-11.55));
#1505=CARTESIAN_POINT('',(15.85,16.,-11.55));
#1506=CARTESIAN_POINT('',(15.85,2.,-11.55));
#1507=CARTESIAN_POINT('',(3.85,16.,-11.55));
#1508=CARTESIAN_POINT('',(3.85,16.,-11.55));
#1509=CARTESIAN_POINT('',(3.85,2.,-11.55));
#1510=CARTESIAN_POINT('Origin',(3.85,2.,-18.55));
#1511=CARTESIAN_POINT('',(3.85,16.,-18.55));
#1512=CARTESIAN_POINT('',(3.85,16.,-18.55));
#1513=CARTESIAN_POINT('',(3.85,2.,-18.55));
#1514=CARTESIAN_POINT('Origin',(15.85,2.,-18.55));
#1515=CARTESIAN_POINT('',(15.85,16.,-18.55));
#1516=CARTESIAN_POINT('',(15.85,16.,-18.55));
#1517=CARTESIAN_POINT('',(15.85,2.,-18.55));
#1518=CARTESIAN_POINT('Origin',(15.85,2.,-11.55));
#1519=CARTESIAN_POINT('',(15.85,16.,-11.55));
#1520=CARTESIAN_POINT('Origin',(9.85,16.,-15.05));
#1521=CARTESIAN_POINT('Origin',(18.,0.,27.5));
#1522=CARTESIAN_POINT('',(18.,0.,27.5));
#1523=CARTESIAN_POINT('',(18.,0.,27.5));
#1524=CARTESIAN_POINT('',(18.,0.,27.5));
#1525=CARTESIAN_POINT('Origin',(-18.,0.,27.5));
#1526=CARTESIAN_POINT('',(-18.,0.,27.5));
#1527=CARTESIAN_POINT('Origin',(1.11022302462516E-15,0.,0.));
#1528=UNCERTAINTY_MEASURE_WITH_UNIT(LENGTH_MEASURE(0.01),#1532,
'DISTANCE_ACCURACY_VALUE',
'Maximum model space distance between geometric entities at asserted c
onnectivities');
#1529=UNCERTAINTY_MEASURE_WITH_UNIT(LENGTH_MEASURE(0.01),#1532,
'DISTANCE_ACCURACY_VALUE',
'Maximum model space distance between geometric entities at asserted c
onnectivities');
#1530=(
GEOMETRIC_REPRESENTATION_CONTEXT(3)
GLOBAL_UNCERTAINTY_ASSIGNED_CONTEXT((#1528))
GLOBAL_UNIT_ASSIGNED_CONTEXT((#1532,#1534,#1535))
REPRESENTATION_CONTEXT('','3D')
);
#1531=(
GEOMETRIC_REPRESENTATION_CONTEXT(3)
GLOBAL_UNCERTAINTY_ASSIGNED_CONTEXT((#1529))
GLOBAL_UNIT_ASSIGNED_CONTEXT((#1532,#1534,#1535))
REPRESENTATION_CONTEXT('','3D')
);
#1532=(
LENGTH_UNIT()
NAMED_UNIT(*)
SI_UNIT(.MILLI.,.METRE.)
);
#1533=(
LENGTH_UNIT()
NAMED_UNIT(*)
SI_UNIT(.CENTI.,.METRE.)
);
#1534=(
NAMED_UNIT(*)
PLANE_ANGLE_UNIT()
SI_UNIT($,.RADIAN.)
);
#1535=(
NAMED_UNIT(*)
SI_UNIT($,.STERADIAN.)
SOLID_ANGLE_UNIT()
);
#1536=SHAPE_DEFINITION_REPRESENTATION(#1537,#1538);
#1537=PRODUCT_DEFINITION_SHAPE('',$,#1540);
#1538=SHAPE_REPRESENTATION('',(#948),#1530);
#1539=PRODUCT_DEFINITION_CONTEXT('part definition',#1544,'design');
#1540=PRODUCT_DEFINITION('\X2\043A04400435043F\X0\_\X2\0441043504400432044B\X0\',
'\X2\043A04400435043F\X0\_\X2\0441043504400432044B\X0\',#1541,#1539);
#1541=PRODUCT_DEFINITION_FORMATION('',$,#1546);
#1542=PRODUCT_RELATED_PRODUCT_CATEGORY('\X2\043A04400435043F\X0\_\X2\0441043504400432044B\X0\',
'\X2\043A04400435043F\X0\_\X2\0441043504400432044B\X0\',(#1546));
#1543=APPLICATION_PROTOCOL_DEFINITION('international standard',
'automotive_design',2009,#1544);
#1544=APPLICATION_CONTEXT(
'Core Data for Automotive Mechanical Design Process');
#1545=PRODUCT_CONTEXT('part definition',#1544,'mechanical');
#1546=PRODUCT('\X2\043A04400435043F\X0\_\X2\0441043504400432044B\X0\',
'\X2\043A04400435043F\X0\_\X2\0441043504400432044B\X0\',$,(#1545));
#1547=PRESENTATION_STYLE_ASSIGNMENT((#1548));
#1548=SURFACE_STYLE_USAGE(.BOTH.,#1551);
#1549=SURFACE_STYLE_RENDERING_WITH_PROPERTIES($,#1555,(#1550));
#1550=SURFACE_STYLE_TRANSPARENT(0.);
#1551=SURFACE_SIDE_STYLE('',(#1552,#1549));
#1552=SURFACE_STYLE_FILL_AREA(#1553);
#1553=FILL_AREA_STYLE('',(#1554));
#1554=FILL_AREA_STYLE_COLOUR('',#1555);
#1555=COLOUR_RGB('',0.513725490196078,0.345098039215686,0.772549019607843);
ENDSEC;
END-ISO-10303-21;
