ISO-10303-21;
HEADER;
/* Generated by software containing ST-Developer
 * from STEP Tools, Inc. (www.steptools.com) 
 */

FILE_DESCRIPTION(
/* description */ (''),
/* implementation_level */ '2;1');

FILE_NAME(
/* name */ '',
/* time_stamp */ '2026-01-16T14:40:51+03:00',
/* author */ ('DELL'),
/* organization */ (''),
/* preprocessor_version */ 'ST-DEVELOPER v19.2',
/* originating_system */ 'Autodesk Inventor 2023',
/* authorisation */ '');

FILE_SCHEMA (('AUTOMOTIVE_DESIGN { 1 0 10303 214 3 1 1 }'));
ENDSEC;

DATA;
#10=MECHANICAL_DESIGN_GEOMETRIC_PRESENTATION_REPRESENTATION('',(#13),#1301);
#11=SHAPE_REPRESENTATION_RELATIONSHIP('SRR','None',#1308,#12);
#12=ADVANCED_BREP_SHAPE_REPRESENTATION('',(#14),#1300);
#13=STYLED_ITEM('',(#1317),#14);
#14=MANIFOLD_SOLID_BREP('\X2\04220432043504400434043E0435\X0\ \X2\04420435043B043E\X0\1',
#714);
#15=FACE_BOUND('',#90,.T.);
#16=FACE_BOUND('',#108,.T.);
#17=FACE_BOUND('',#112,.T.);
#18=FACE_BOUND('',#113,.T.);
#19=PLANE('',#753);
#20=PLANE('',#784);
#21=PLANE('',#785);
#22=PLANE('',#787);
#23=PLANE('',#791);
#24=PLANE('',#793);
#25=PLANE('',#797);
#26=PLANE('',#801);
#27=PLANE('',#805);
#28=PLANE('',#809);
#29=PLANE('',#812);
#30=PLANE('',#815);
#31=PLANE('',#816);
#32=PLANE('',#817);
#33=PLANE('',#818);
#34=PLANE('',#819);
#35=PLANE('',#820);
#36=FACE_OUTER_BOUND('',#73,.T.);
#37=FACE_OUTER_BOUND('',#74,.T.);
#38=FACE_OUTER_BOUND('',#75,.T.);
#39=FACE_OUTER_BOUND('',#76,.T.);
#40=FACE_OUTER_BOUND('',#77,.T.);
#41=FACE_OUTER_BOUND('',#78,.T.);
#42=FACE_OUTER_BOUND('',#79,.T.);
#43=FACE_OUTER_BOUND('',#80,.T.);
#44=FACE_OUTER_BOUND('',#81,.T.);
#45=FACE_OUTER_BOUND('',#82,.T.);
#46=FACE_OUTER_BOUND('',#83,.T.);
#47=FACE_OUTER_BOUND('',#84,.T.);
#48=FACE_OUTER_BOUND('',#85,.T.);
#49=FACE_OUTER_BOUND('',#86,.T.);
#50=FACE_OUTER_BOUND('',#87,.T.);
#51=FACE_OUTER_BOUND('',#88,.T.);
#52=FACE_OUTER_BOUND('',#89,.T.);
#53=FACE_OUTER_BOUND('',#91,.T.);
#54=FACE_OUTER_BOUND('',#92,.T.);
#55=FACE_OUTER_BOUND('',#93,.T.);
#56=FACE_OUTER_BOUND('',#94,.T.);
#57=FACE_OUTER_BOUND('',#95,.T.);
#58=FACE_OUTER_BOUND('',#96,.T.);
#59=FACE_OUTER_BOUND('',#97,.T.);
#60=FACE_OUTER_BOUND('',#98,.T.);
#61=FACE_OUTER_BOUND('',#99,.T.);
#62=FACE_OUTER_BOUND('',#100,.T.);
#63=FACE_OUTER_BOUND('',#101,.T.);
#64=FACE_OUTER_BOUND('',#102,.T.);
#65=FACE_OUTER_BOUND('',#103,.T.);
#66=FACE_OUTER_BOUND('',#104,.T.);
#67=FACE_OUTER_BOUND('',#105,.T.);
#68=FACE_OUTER_BOUND('',#106,.T.);
#69=FACE_OUTER_BOUND('',#107,.T.);
#70=FACE_OUTER_BOUND('',#109,.T.);
#71=FACE_OUTER_BOUND('',#110,.T.);
#72=FACE_OUTER_BOUND('',#111,.T.);
#73=EDGE_LOOP('',(#447,#448,#449,#450,#451,#452,#453));
#74=EDGE_LOOP('',(#454,#455,#456,#457));
#75=EDGE_LOOP('',(#458,#459,#460,#461));
#76=EDGE_LOOP('',(#462,#463,#464,#465,#466,#467));
#77=EDGE_LOOP('',(#468,#469,#470,#471));
#78=EDGE_LOOP('',(#472,#473,#474,#475,#476,#477,#478,#479,#480,#481,#482,
#483,#484,#485,#486,#487,#488,#489));
#79=EDGE_LOOP('',(#490,#491,#492,#493,#494,#495,#496,#497));
#80=EDGE_LOOP('',(#498,#499,#500,#501,#502,#503,#504,#505));
#81=EDGE_LOOP('',(#506,#507,#508,#509,#510,#511,#512,#513,#514,#515));
#82=EDGE_LOOP('',(#516,#517,#518,#519,#520,#521));
#83=EDGE_LOOP('',(#522,#523,#524,#525));
#84=EDGE_LOOP('',(#526,#527,#528,#529));
#85=EDGE_LOOP('',(#530,#531,#532,#533));
#86=EDGE_LOOP('',(#534,#535,#536,#537,#538,#539,#540,#541,#542,#543));
#87=EDGE_LOOP('',(#544,#545,#546,#547));
#88=EDGE_LOOP('',(#548,#549,#550,#551,#552));
#89=EDGE_LOOP('',(#553,#554,#555,#556,#557,#558,#559,#560,#561,#562,#563,
#564,#565,#566,#567));
#90=EDGE_LOOP('',(#568));
#91=EDGE_LOOP('',(#569,#570,#571));
#92=EDGE_LOOP('',(#572,#573,#574,#575));
#93=EDGE_LOOP('',(#576,#577,#578,#579));
#94=EDGE_LOOP('',(#580,#581,#582,#583));
#95=EDGE_LOOP('',(#584,#585,#586,#587));
#96=EDGE_LOOP('',(#588,#589,#590,#591,#592,#593,#594));
#97=EDGE_LOOP('',(#595,#596,#597,#598));
#98=EDGE_LOOP('',(#599,#600,#601,#602));
#99=EDGE_LOOP('',(#603));
#100=EDGE_LOOP('',(#604,#605,#606,#607));
#101=EDGE_LOOP('',(#608));
#102=EDGE_LOOP('',(#609,#610,#611,#612));
#103=EDGE_LOOP('',(#613));
#104=EDGE_LOOP('',(#614,#615,#616,#617));
#105=EDGE_LOOP('',(#618,#619));
#106=EDGE_LOOP('',(#620,#621,#622,#623));
#107=EDGE_LOOP('',(#624,#625,#626,#627,#628,#629));
#108=EDGE_LOOP('',(#630,#631,#632,#633));
#109=EDGE_LOOP('',(#634,#635,#636,#637,#638,#639));
#110=EDGE_LOOP('',(#640,#641,#642,#643,#644,#645,#646,#647,#648,#649,#650));
#111=EDGE_LOOP('',(#651,#652,#653,#654));
#112=EDGE_LOOP('',(#655));
#113=EDGE_LOOP('',(#656));
#114=LINE('',#1055,#167);
#115=LINE('',#1059,#168);
#116=LINE('',#1073,#169);
#117=LINE('',#1079,#170);
#118=LINE('',#1085,#171);
#119=LINE('',#1088,#172);
#120=LINE('',#1095,#173);
#121=LINE('',#1098,#174);
#122=LINE('',#1104,#175);
#123=LINE('',#1108,#176);
#124=LINE('',#1111,#177);
#125=LINE('',#1113,#178);
#126=LINE('',#1117,#179);
#127=LINE('',#1119,#180);
#128=LINE('',#1134,#181);
#129=LINE('',#1138,#182);
#130=LINE('',#1141,#183);
#131=LINE('',#1147,#184);
#132=LINE('',#1151,#185);
#133=LINE('',#1154,#186);
#134=LINE('',#1155,#187);
#135=LINE('',#1163,#188);
#136=LINE('',#1188,#189);
#137=LINE('',#1199,#190);
#138=LINE('',#1201,#191);
#139=LINE('',#1205,#192);
#140=LINE('',#1209,#193);
#141=LINE('',#1212,#194);
#142=LINE('',#1216,#195);
#143=LINE('',#1220,#196);
#144=LINE('',#1222,#197);
#145=LINE('',#1225,#198);
#146=LINE('',#1226,#199);
#147=LINE('',#1229,#200);
#148=LINE('',#1230,#201);
#149=LINE('',#1236,#202);
#150=LINE('',#1238,#203);
#151=LINE('',#1239,#204);
#152=LINE('',#1249,#205);
#153=LINE('',#1254,#206);
#154=LINE('',#1257,#207);
#155=LINE('',#1258,#208);
#156=LINE('',#1263,#209);
#157=LINE('',#1270,#210);
#158=LINE('',#1275,#211);
#159=LINE('',#1284,#212);
#160=LINE('',#1285,#213);
#161=LINE('',#1286,#214);
#162=LINE('',#1289,#215);
#163=LINE('',#1290,#216);
#164=LINE('',#1293,#217);
#165=LINE('',#1294,#218);
#166=LINE('',#1296,#219);
#167=VECTOR('',#827,10.);
#168=VECTOR('',#830,10.);
#169=VECTOR('',#831,10.);
#170=VECTOR('',#838,10.);
#171=VECTOR('',#843,10.);
#172=VECTOR('',#846,10.);
#173=VECTOR('',#853,10.);
#174=VECTOR('',#856,10.);
#175=VECTOR('',#863,10.);
#176=VECTOR('',#866,10.);
#177=VECTOR('',#869,10.);
#178=VECTOR('',#870,10.);
#179=VECTOR('',#873,10.);
#180=VECTOR('',#874,10.);
#181=VECTOR('',#891,10.);
#182=VECTOR('',#894,10.);
#183=VECTOR('',#897,10.);
#184=VECTOR('',#902,10.);
#185=VECTOR('',#905,10.);
#186=VECTOR('',#908,10.);
#187=VECTOR('',#909,10.);
#188=VECTOR('',#912,10.);
#189=VECTOR('',#913,10.);
#190=VECTOR('',#920,10.);
#191=VECTOR('',#923,10.);
#192=VECTOR('',#928,10.);
#193=VECTOR('',#933,10.);
#194=VECTOR('',#936,10.);
#195=VECTOR('',#941,10.);
#196=VECTOR('',#944,10.);
#197=VECTOR('',#947,10.);
#198=VECTOR('',#950,10.);
#199=VECTOR('',#951,10.);
#200=VECTOR('',#954,10.);
#201=VECTOR('',#955,10.);
#202=VECTOR('',#964,10.);
#203=VECTOR('',#965,10.);
#204=VECTOR('',#966,10.);
#205=VECTOR('',#983,10.);
#206=VECTOR('',#988,10.);
#207=VECTOR('',#993,10.);
#208=VECTOR('',#994,10.);
#209=VECTOR('',#999,2.1);
#210=VECTOR('',#1008,2.1);
#211=VECTOR('',#1015,2.1);
#212=VECTOR('',#1028,10.);
#213=VECTOR('',#1029,10.);
#214=VECTOR('',#1030,10.);
#215=VECTOR('',#1033,10.);
#216=VECTOR('',#1034,10.);
#217=VECTOR('',#1037,10.);
#218=VECTOR('',#1038,10.);
#219=VECTOR('',#1041,10.);
#220=CIRCLE('',#738,0.500000000000001);
#221=CIRCLE('',#739,0.500000000000001);
#222=CIRCLE('',#741,8.17307692307692);
#223=CIRCLE('',#742,8.17307692307692);
#224=CIRCLE('',#744,8.17307692307693);
#225=CIRCLE('',#745,8.17307692307693);
#226=CIRCLE('',#747,0.500000000000001);
#227=CIRCLE('',#748,0.500000000000001);
#228=CIRCLE('',#749,0.500000000000001);
#229=CIRCLE('',#751,8.17307692307692);
#230=CIRCLE('',#752,8.17307692307692);
#231=CIRCLE('',#754,0.5);
#232=CIRCLE('',#755,6.97307692307692);
#233=CIRCLE('',#756,0.500000000000001);
#234=CIRCLE('',#757,8.17307692307692);
#235=CIRCLE('',#758,0.5);
#236=CIRCLE('',#759,8.17307692307692);
#237=CIRCLE('',#760,0.500000000000001);
#238=CIRCLE('',#761,0.5);
#239=CIRCLE('',#763,0.500000000000001);
#240=CIRCLE('',#764,0.500000000000001);
#241=CIRCLE('',#765,0.500000000000001);
#242=CIRCLE('',#767,6.97307692307692);
#243=CIRCLE('',#768,6.97307692307692);
#244=CIRCLE('',#769,6.97307692307692);
#245=CIRCLE('',#771,0.5);
#246=CIRCLE('',#773,8.17307692307692);
#247=CIRCLE('',#774,8.17307692307692);
#248=CIRCLE('',#776,0.5);
#249=CIRCLE('',#778,8.17307692307692);
#250=CIRCLE('',#780,0.500000000000001);
#251=CIRCLE('',#782,1.5);
#252=CIRCLE('',#783,1.5);
#253=CIRCLE('',#786,2.1);
#254=CIRCLE('',#788,2.1);
#255=CIRCLE('',#789,2.1);
#256=CIRCLE('',#790,2.1);
#257=CIRCLE('',#792,2.1);
#258=CIRCLE('',#794,2.1);
#259=CIRCLE('',#799,1.5);
#260=CIRCLE('',#800,1.5);
#261=CIRCLE('',#803,2.1);
#262=CIRCLE('',#804,2.1);
#263=CIRCLE('',#807,2.1);
#264=CIRCLE('',#808,2.1);
#265=CIRCLE('',#811,2.1);
#266=CIRCLE('',#814,2.1);
#267=B_SPLINE_CURVE_WITH_KNOTS('',3,(#1048,#1049,#1050,#1051),
 .UNSPECIFIED.,.F.,.F.,(4,4),(0.259129721408539,0.299567492865328),
 .UNSPECIFIED.);
#268=B_SPLINE_CURVE_WITH_KNOTS('',3,(#1061,#1062,#1063,#1064,#1065,#1066,
#1067,#1068,#1069,#1070,#1071,#1072),.UNSPECIFIED.,.F.,.F.,(4,2,2,2,2,4),
(0.299567492865328,0.357845935780544,0.386985157238152,0.41612437869576,
0.432737808996876,0.449351239297992),.UNSPECIFIED.);
#269=B_SPLINE_CURVE_WITH_KNOTS('',3,(#1158,#1159,#1160,#1161),
 .UNSPECIFIED.,.F.,.F.,(4,4),(0.,0.0401647328154771),.UNSPECIFIED.);
#270=B_SPLINE_CURVE_WITH_KNOTS('',3,(#1165,#1166,#1167,#1168,#1169,#1170,
#1171,#1172,#1173,#1174,#1175,#1176,#1177,#1178,#1179,#1180,#1181,#1182,
#1183,#1184,#1185,#1186),.UNSPECIFIED.,.F.,.F.,(4,2,2,2,2,2,2,2,2,2,4),
(-0.213127458984263,-0.171466853848877,-0.150636551281183,-0.12980624871349,
-0.118184989102811,-0.106563729492132,-0.0949424698814523,-0.083321210270773,
-0.0624909077030797,-0.0416606051353865,0.),.UNSPECIFIED.);
#271=B_SPLINE_CURVE_WITH_KNOTS('',3,(#1189,#1190,#1191,#1192),
 .UNSPECIFIED.,.F.,.F.,(4,4),(0.172962726168786,0.213127458984263),
 .UNSPECIFIED.);
#272=VERTEX_POINT('',#1046);
#273=VERTEX_POINT('',#1047);
#274=VERTEX_POINT('',#1052);
#275=VERTEX_POINT('',#1054);
#276=VERTEX_POINT('',#1056);
#277=VERTEX_POINT('',#1058);
#278=VERTEX_POINT('',#1060);
#279=VERTEX_POINT('',#1075);
#280=VERTEX_POINT('',#1077);
#281=VERTEX_POINT('',#1081);
#282=VERTEX_POINT('',#1082);
#283=VERTEX_POINT('',#1084);
#284=VERTEX_POINT('',#1086);
#285=VERTEX_POINT('',#1090);
#286=VERTEX_POINT('',#1092);
#287=VERTEX_POINT('',#1094);
#288=VERTEX_POINT('',#1096);
#289=VERTEX_POINT('',#1100);
#290=VERTEX_POINT('',#1102);
#291=VERTEX_POINT('',#1106);
#292=VERTEX_POINT('',#1107);
#293=VERTEX_POINT('',#1110);
#294=VERTEX_POINT('',#1112);
#295=VERTEX_POINT('',#1114);
#296=VERTEX_POINT('',#1116);
#297=VERTEX_POINT('',#1118);
#298=VERTEX_POINT('',#1120);
#299=VERTEX_POINT('',#1122);
#300=VERTEX_POINT('',#1124);
#301=VERTEX_POINT('',#1126);
#302=VERTEX_POINT('',#1131);
#303=VERTEX_POINT('',#1133);
#304=VERTEX_POINT('',#1135);
#305=VERTEX_POINT('',#1137);
#306=VERTEX_POINT('',#1139);
#307=VERTEX_POINT('',#1143);
#308=VERTEX_POINT('',#1144);
#309=VERTEX_POINT('',#1146);
#310=VERTEX_POINT('',#1148);
#311=VERTEX_POINT('',#1150);
#312=VERTEX_POINT('',#1152);
#313=VERTEX_POINT('',#1157);
#314=VERTEX_POINT('',#1162);
#315=VERTEX_POINT('',#1164);
#316=VERTEX_POINT('',#1187);
#317=VERTEX_POINT('',#1195);
#318=VERTEX_POINT('',#1196);
#319=VERTEX_POINT('',#1198);
#320=VERTEX_POINT('',#1203);
#321=VERTEX_POINT('',#1207);
#322=VERTEX_POINT('',#1211);
#323=VERTEX_POINT('',#1215);
#324=VERTEX_POINT('',#1217);
#325=VERTEX_POINT('',#1219);
#326=VERTEX_POINT('',#1224);
#327=VERTEX_POINT('',#1228);
#328=VERTEX_POINT('',#1235);
#329=VERTEX_POINT('',#1237);
#330=VERTEX_POINT('',#1240);
#331=VERTEX_POINT('',#1251);
#332=VERTEX_POINT('',#1253);
#333=VERTEX_POINT('',#1260);
#334=VERTEX_POINT('',#1262);
#335=VERTEX_POINT('',#1267);
#336=VERTEX_POINT('',#1269);
#337=VERTEX_POINT('',#1274);
#338=VERTEX_POINT('',#1282);
#339=VERTEX_POINT('',#1283);
#340=VERTEX_POINT('',#1288);
#341=VERTEX_POINT('',#1292);
#342=EDGE_CURVE('',#272,#273,#267,.T.);
#343=EDGE_CURVE('',#272,#274,#220,.T.);
#344=EDGE_CURVE('',#274,#275,#114,.T.);
#345=EDGE_CURVE('',#276,#275,#221,.T.);
#346=EDGE_CURVE('',#277,#276,#115,.T.);
#347=EDGE_CURVE('',#278,#277,#268,.T.);
#348=EDGE_CURVE('',#273,#278,#116,.T.);
#349=EDGE_CURVE('',#275,#279,#222,.T.);
#350=EDGE_CURVE('',#274,#280,#223,.T.);
#351=EDGE_CURVE('',#280,#279,#117,.T.);
#352=EDGE_CURVE('',#281,#282,#224,.T.);
#353=EDGE_CURVE('',#283,#281,#118,.T.);
#354=EDGE_CURVE('',#283,#284,#225,.T.);
#355=EDGE_CURVE('',#284,#282,#119,.T.);
#356=EDGE_CURVE('',#282,#285,#226,.T.);
#357=EDGE_CURVE('',#284,#286,#227,.T.);
#358=EDGE_CURVE('',#286,#287,#120,.T.);
#359=EDGE_CURVE('',#288,#287,#228,.T.);
#360=EDGE_CURVE('',#285,#288,#121,.T.);
#361=EDGE_CURVE('',#287,#289,#229,.T.);
#362=EDGE_CURVE('',#286,#290,#230,.T.);
#363=EDGE_CURVE('',#290,#289,#122,.T.);
#364=EDGE_CURVE('',#291,#292,#123,.T.);
#365=EDGE_CURVE('',#280,#291,#231,.T.);
#366=EDGE_CURVE('',#293,#272,#124,.T.);
#367=EDGE_CURVE('',#294,#293,#125,.T.);
#368=EDGE_CURVE('',#295,#294,#232,.T.);
#369=EDGE_CURVE('',#296,#295,#126,.T.);
#370=EDGE_CURVE('',#297,#296,#127,.T.);
#371=EDGE_CURVE('',#298,#297,#233,.T.);
#372=EDGE_CURVE('',#299,#298,#234,.T.);
#373=EDGE_CURVE('',#300,#299,#235,.T.);
#374=EDGE_CURVE('',#301,#300,#236,.T.);
#375=EDGE_CURVE('',#290,#301,#237,.T.);
#376=EDGE_CURVE('',#292,#283,#238,.T.);
#377=EDGE_CURVE('',#289,#302,#239,.T.);
#378=EDGE_CURVE('',#301,#303,#128,.T.);
#379=EDGE_CURVE('',#304,#303,#240,.T.);
#380=EDGE_CURVE('',#305,#304,#129,.T.);
#381=EDGE_CURVE('',#306,#305,#241,.T.);
#382=EDGE_CURVE('',#302,#306,#130,.T.);
#383=EDGE_CURVE('',#307,#308,#242,.T.);
#384=EDGE_CURVE('',#309,#307,#131,.T.);
#385=EDGE_CURVE('',#310,#309,#243,.T.);
#386=EDGE_CURVE('',#311,#310,#132,.T.);
#387=EDGE_CURVE('',#312,#311,#244,.T.);
#388=EDGE_CURVE('',#295,#312,#133,.T.);
#389=EDGE_CURVE('',#308,#294,#134,.T.);
#390=EDGE_CURVE('',#313,#291,#269,.T.);
#391=EDGE_CURVE('',#314,#313,#135,.T.);
#392=EDGE_CURVE('',#315,#314,#270,.T.);
#393=EDGE_CURVE('',#316,#315,#136,.T.);
#394=EDGE_CURVE('',#292,#316,#271,.T.);
#395=EDGE_CURVE('',#279,#281,#245,.T.);
#396=EDGE_CURVE('',#317,#318,#246,.T.);
#397=EDGE_CURVE('',#319,#317,#137,.T.);
#398=EDGE_CURVE('',#303,#319,#247,.T.);
#399=EDGE_CURVE('',#300,#318,#138,.T.);
#400=EDGE_CURVE('',#318,#320,#248,.T.);
#401=EDGE_CURVE('',#299,#320,#139,.T.);
#402=EDGE_CURVE('',#320,#321,#249,.T.);
#403=EDGE_CURVE('',#298,#321,#140,.T.);
#404=EDGE_CURVE('',#322,#297,#141,.T.);
#405=EDGE_CURVE('',#321,#322,#250,.T.);
#406=EDGE_CURVE('',#316,#323,#142,.T.);
#407=EDGE_CURVE('',#324,#323,#251,.T.);
#408=EDGE_CURVE('',#325,#324,#143,.T.);
#409=EDGE_CURVE('',#293,#325,#252,.T.);
#410=EDGE_CURVE('',#273,#313,#144,.T.);
#411=EDGE_CURVE('',#315,#326,#145,.T.);
#412=EDGE_CURVE('',#323,#326,#146,.T.);
#413=EDGE_CURVE('',#308,#327,#147,.T.);
#414=EDGE_CURVE('',#327,#312,#148,.T.);
#415=EDGE_CURVE('',#311,#307,#253,.T.);
#416=EDGE_CURVE('',#285,#306,#254,.T.);
#417=EDGE_CURVE('',#305,#317,#255,.T.);
#418=EDGE_CURVE('',#322,#328,#149,.T.);
#419=EDGE_CURVE('',#328,#329,#150,.T.);
#420=EDGE_CURVE('',#329,#276,#151,.T.);
#421=EDGE_CURVE('',#330,#330,#256,.T.);
#422=EDGE_CURVE('',#304,#319,#257,.T.);
#423=EDGE_CURVE('',#288,#302,#258,.T.);
#424=EDGE_CURVE('',#278,#314,#152,.T.);
#425=EDGE_CURVE('',#331,#277,#259,.T.);
#426=EDGE_CURVE('',#331,#332,#153,.T.);
#427=EDGE_CURVE('',#326,#332,#260,.T.);
#428=EDGE_CURVE('',#332,#324,#154,.T.);
#429=EDGE_CURVE('',#325,#331,#155,.T.);
#430=EDGE_CURVE('',#333,#333,#261,.T.);
#431=EDGE_CURVE('',#333,#334,#156,.T.);
#432=EDGE_CURVE('',#334,#334,#262,.T.);
#433=EDGE_CURVE('',#335,#335,#263,.T.);
#434=EDGE_CURVE('',#335,#336,#157,.T.);
#435=EDGE_CURVE('',#336,#336,#264,.T.);
#436=EDGE_CURVE('',#330,#337,#158,.T.);
#437=EDGE_CURVE('',#337,#337,#265,.T.);
#438=EDGE_CURVE('',#310,#309,#266,.T.);
#439=EDGE_CURVE('',#338,#339,#159,.T.);
#440=EDGE_CURVE('',#339,#329,#160,.T.);
#441=EDGE_CURVE('',#338,#328,#161,.T.);
#442=EDGE_CURVE('',#340,#296,#162,.T.);
#443=EDGE_CURVE('',#340,#338,#163,.T.);
#444=EDGE_CURVE('',#341,#327,#164,.T.);
#445=EDGE_CURVE('',#341,#340,#165,.T.);
#446=EDGE_CURVE('',#339,#341,#166,.T.);
#447=ORIENTED_EDGE('',*,*,#342,.F.);
#448=ORIENTED_EDGE('',*,*,#343,.T.);
#449=ORIENTED_EDGE('',*,*,#344,.T.);
#450=ORIENTED_EDGE('',*,*,#345,.F.);
#451=ORIENTED_EDGE('',*,*,#346,.F.);
#452=ORIENTED_EDGE('',*,*,#347,.F.);
#453=ORIENTED_EDGE('',*,*,#348,.F.);
#454=ORIENTED_EDGE('',*,*,#349,.F.);
#455=ORIENTED_EDGE('',*,*,#344,.F.);
#456=ORIENTED_EDGE('',*,*,#350,.T.);
#457=ORIENTED_EDGE('',*,*,#351,.T.);
#458=ORIENTED_EDGE('',*,*,#352,.F.);
#459=ORIENTED_EDGE('',*,*,#353,.F.);
#460=ORIENTED_EDGE('',*,*,#354,.T.);
#461=ORIENTED_EDGE('',*,*,#355,.T.);
#462=ORIENTED_EDGE('',*,*,#356,.F.);
#463=ORIENTED_EDGE('',*,*,#355,.F.);
#464=ORIENTED_EDGE('',*,*,#357,.T.);
#465=ORIENTED_EDGE('',*,*,#358,.T.);
#466=ORIENTED_EDGE('',*,*,#359,.F.);
#467=ORIENTED_EDGE('',*,*,#360,.F.);
#468=ORIENTED_EDGE('',*,*,#361,.F.);
#469=ORIENTED_EDGE('',*,*,#358,.F.);
#470=ORIENTED_EDGE('',*,*,#362,.T.);
#471=ORIENTED_EDGE('',*,*,#363,.T.);
#472=ORIENTED_EDGE('',*,*,#364,.F.);
#473=ORIENTED_EDGE('',*,*,#365,.F.);
#474=ORIENTED_EDGE('',*,*,#350,.F.);
#475=ORIENTED_EDGE('',*,*,#343,.F.);
#476=ORIENTED_EDGE('',*,*,#366,.F.);
#477=ORIENTED_EDGE('',*,*,#367,.F.);
#478=ORIENTED_EDGE('',*,*,#368,.F.);
#479=ORIENTED_EDGE('',*,*,#369,.F.);
#480=ORIENTED_EDGE('',*,*,#370,.F.);
#481=ORIENTED_EDGE('',*,*,#371,.F.);
#482=ORIENTED_EDGE('',*,*,#372,.F.);
#483=ORIENTED_EDGE('',*,*,#373,.F.);
#484=ORIENTED_EDGE('',*,*,#374,.F.);
#485=ORIENTED_EDGE('',*,*,#375,.F.);
#486=ORIENTED_EDGE('',*,*,#362,.F.);
#487=ORIENTED_EDGE('',*,*,#357,.F.);
#488=ORIENTED_EDGE('',*,*,#354,.F.);
#489=ORIENTED_EDGE('',*,*,#376,.F.);
#490=ORIENTED_EDGE('',*,*,#377,.F.);
#491=ORIENTED_EDGE('',*,*,#363,.F.);
#492=ORIENTED_EDGE('',*,*,#375,.T.);
#493=ORIENTED_EDGE('',*,*,#378,.T.);
#494=ORIENTED_EDGE('',*,*,#379,.F.);
#495=ORIENTED_EDGE('',*,*,#380,.F.);
#496=ORIENTED_EDGE('',*,*,#381,.F.);
#497=ORIENTED_EDGE('',*,*,#382,.F.);
#498=ORIENTED_EDGE('',*,*,#383,.F.);
#499=ORIENTED_EDGE('',*,*,#384,.F.);
#500=ORIENTED_EDGE('',*,*,#385,.F.);
#501=ORIENTED_EDGE('',*,*,#386,.F.);
#502=ORIENTED_EDGE('',*,*,#387,.F.);
#503=ORIENTED_EDGE('',*,*,#388,.F.);
#504=ORIENTED_EDGE('',*,*,#368,.T.);
#505=ORIENTED_EDGE('',*,*,#389,.F.);
#506=ORIENTED_EDGE('',*,*,#390,.F.);
#507=ORIENTED_EDGE('',*,*,#391,.F.);
#508=ORIENTED_EDGE('',*,*,#392,.F.);
#509=ORIENTED_EDGE('',*,*,#393,.F.);
#510=ORIENTED_EDGE('',*,*,#394,.F.);
#511=ORIENTED_EDGE('',*,*,#376,.T.);
#512=ORIENTED_EDGE('',*,*,#353,.T.);
#513=ORIENTED_EDGE('',*,*,#395,.F.);
#514=ORIENTED_EDGE('',*,*,#351,.F.);
#515=ORIENTED_EDGE('',*,*,#365,.T.);
#516=ORIENTED_EDGE('',*,*,#396,.F.);
#517=ORIENTED_EDGE('',*,*,#397,.F.);
#518=ORIENTED_EDGE('',*,*,#398,.F.);
#519=ORIENTED_EDGE('',*,*,#378,.F.);
#520=ORIENTED_EDGE('',*,*,#374,.T.);
#521=ORIENTED_EDGE('',*,*,#399,.T.);
#522=ORIENTED_EDGE('',*,*,#400,.F.);
#523=ORIENTED_EDGE('',*,*,#399,.F.);
#524=ORIENTED_EDGE('',*,*,#373,.T.);
#525=ORIENTED_EDGE('',*,*,#401,.T.);
#526=ORIENTED_EDGE('',*,*,#402,.F.);
#527=ORIENTED_EDGE('',*,*,#401,.F.);
#528=ORIENTED_EDGE('',*,*,#372,.T.);
#529=ORIENTED_EDGE('',*,*,#403,.T.);
#530=ORIENTED_EDGE('',*,*,#404,.F.);
#531=ORIENTED_EDGE('',*,*,#405,.F.);
#532=ORIENTED_EDGE('',*,*,#403,.F.);
#533=ORIENTED_EDGE('',*,*,#371,.T.);
#534=ORIENTED_EDGE('',*,*,#390,.T.);
#535=ORIENTED_EDGE('',*,*,#364,.T.);
#536=ORIENTED_EDGE('',*,*,#394,.T.);
#537=ORIENTED_EDGE('',*,*,#406,.T.);
#538=ORIENTED_EDGE('',*,*,#407,.F.);
#539=ORIENTED_EDGE('',*,*,#408,.F.);
#540=ORIENTED_EDGE('',*,*,#409,.F.);
#541=ORIENTED_EDGE('',*,*,#366,.T.);
#542=ORIENTED_EDGE('',*,*,#342,.T.);
#543=ORIENTED_EDGE('',*,*,#410,.T.);
#544=ORIENTED_EDGE('',*,*,#393,.T.);
#545=ORIENTED_EDGE('',*,*,#411,.T.);
#546=ORIENTED_EDGE('',*,*,#412,.F.);
#547=ORIENTED_EDGE('',*,*,#406,.F.);
#548=ORIENTED_EDGE('',*,*,#383,.T.);
#549=ORIENTED_EDGE('',*,*,#413,.T.);
#550=ORIENTED_EDGE('',*,*,#414,.T.);
#551=ORIENTED_EDGE('',*,*,#387,.T.);
#552=ORIENTED_EDGE('',*,*,#415,.T.);
#553=ORIENTED_EDGE('',*,*,#345,.T.);
#554=ORIENTED_EDGE('',*,*,#349,.T.);
#555=ORIENTED_EDGE('',*,*,#395,.T.);
#556=ORIENTED_EDGE('',*,*,#352,.T.);
#557=ORIENTED_EDGE('',*,*,#356,.T.);
#558=ORIENTED_EDGE('',*,*,#416,.T.);
#559=ORIENTED_EDGE('',*,*,#381,.T.);
#560=ORIENTED_EDGE('',*,*,#417,.T.);
#561=ORIENTED_EDGE('',*,*,#396,.T.);
#562=ORIENTED_EDGE('',*,*,#400,.T.);
#563=ORIENTED_EDGE('',*,*,#402,.T.);
#564=ORIENTED_EDGE('',*,*,#405,.T.);
#565=ORIENTED_EDGE('',*,*,#418,.T.);
#566=ORIENTED_EDGE('',*,*,#419,.T.);
#567=ORIENTED_EDGE('',*,*,#420,.T.);
#568=ORIENTED_EDGE('',*,*,#421,.T.);
#569=ORIENTED_EDGE('',*,*,#379,.T.);
#570=ORIENTED_EDGE('',*,*,#398,.T.);
#571=ORIENTED_EDGE('',*,*,#422,.F.);
#572=ORIENTED_EDGE('',*,*,#359,.T.);
#573=ORIENTED_EDGE('',*,*,#361,.T.);
#574=ORIENTED_EDGE('',*,*,#377,.T.);
#575=ORIENTED_EDGE('',*,*,#423,.F.);
#576=ORIENTED_EDGE('',*,*,#380,.T.);
#577=ORIENTED_EDGE('',*,*,#422,.T.);
#578=ORIENTED_EDGE('',*,*,#397,.T.);
#579=ORIENTED_EDGE('',*,*,#417,.F.);
#580=ORIENTED_EDGE('',*,*,#360,.T.);
#581=ORIENTED_EDGE('',*,*,#423,.T.);
#582=ORIENTED_EDGE('',*,*,#382,.T.);
#583=ORIENTED_EDGE('',*,*,#416,.F.);
#584=ORIENTED_EDGE('',*,*,#391,.T.);
#585=ORIENTED_EDGE('',*,*,#410,.F.);
#586=ORIENTED_EDGE('',*,*,#348,.T.);
#587=ORIENTED_EDGE('',*,*,#424,.T.);
#588=ORIENTED_EDGE('',*,*,#392,.T.);
#589=ORIENTED_EDGE('',*,*,#424,.F.);
#590=ORIENTED_EDGE('',*,*,#347,.T.);
#591=ORIENTED_EDGE('',*,*,#425,.F.);
#592=ORIENTED_EDGE('',*,*,#426,.T.);
#593=ORIENTED_EDGE('',*,*,#427,.F.);
#594=ORIENTED_EDGE('',*,*,#411,.F.);
#595=ORIENTED_EDGE('',*,*,#428,.F.);
#596=ORIENTED_EDGE('',*,*,#426,.F.);
#597=ORIENTED_EDGE('',*,*,#429,.F.);
#598=ORIENTED_EDGE('',*,*,#408,.T.);
#599=ORIENTED_EDGE('',*,*,#430,.F.);
#600=ORIENTED_EDGE('',*,*,#431,.T.);
#601=ORIENTED_EDGE('',*,*,#432,.F.);
#602=ORIENTED_EDGE('',*,*,#431,.F.);
#603=ORIENTED_EDGE('',*,*,#432,.T.);
#604=ORIENTED_EDGE('',*,*,#433,.F.);
#605=ORIENTED_EDGE('',*,*,#434,.T.);
#606=ORIENTED_EDGE('',*,*,#435,.F.);
#607=ORIENTED_EDGE('',*,*,#434,.F.);
#608=ORIENTED_EDGE('',*,*,#435,.T.);
#609=ORIENTED_EDGE('',*,*,#421,.F.);
#610=ORIENTED_EDGE('',*,*,#436,.T.);
#611=ORIENTED_EDGE('',*,*,#437,.T.);
#612=ORIENTED_EDGE('',*,*,#436,.F.);
#613=ORIENTED_EDGE('',*,*,#437,.F.);
#614=ORIENTED_EDGE('',*,*,#384,.T.);
#615=ORIENTED_EDGE('',*,*,#415,.F.);
#616=ORIENTED_EDGE('',*,*,#386,.T.);
#617=ORIENTED_EDGE('',*,*,#438,.T.);
#618=ORIENTED_EDGE('',*,*,#385,.T.);
#619=ORIENTED_EDGE('',*,*,#438,.F.);
#620=ORIENTED_EDGE('',*,*,#439,.T.);
#621=ORIENTED_EDGE('',*,*,#440,.T.);
#622=ORIENTED_EDGE('',*,*,#419,.F.);
#623=ORIENTED_EDGE('',*,*,#441,.F.);
#624=ORIENTED_EDGE('',*,*,#370,.T.);
#625=ORIENTED_EDGE('',*,*,#442,.F.);
#626=ORIENTED_EDGE('',*,*,#443,.T.);
#627=ORIENTED_EDGE('',*,*,#441,.T.);
#628=ORIENTED_EDGE('',*,*,#418,.F.);
#629=ORIENTED_EDGE('',*,*,#404,.T.);
#630=ORIENTED_EDGE('',*,*,#428,.T.);
#631=ORIENTED_EDGE('',*,*,#407,.T.);
#632=ORIENTED_EDGE('',*,*,#412,.T.);
#633=ORIENTED_EDGE('',*,*,#427,.T.);
#634=ORIENTED_EDGE('',*,*,#388,.T.);
#635=ORIENTED_EDGE('',*,*,#414,.F.);
#636=ORIENTED_EDGE('',*,*,#444,.F.);
#637=ORIENTED_EDGE('',*,*,#445,.T.);
#638=ORIENTED_EDGE('',*,*,#442,.T.);
#639=ORIENTED_EDGE('',*,*,#369,.T.);
#640=ORIENTED_EDGE('',*,*,#367,.T.);
#641=ORIENTED_EDGE('',*,*,#409,.T.);
#642=ORIENTED_EDGE('',*,*,#429,.T.);
#643=ORIENTED_EDGE('',*,*,#425,.T.);
#644=ORIENTED_EDGE('',*,*,#346,.T.);
#645=ORIENTED_EDGE('',*,*,#420,.F.);
#646=ORIENTED_EDGE('',*,*,#440,.F.);
#647=ORIENTED_EDGE('',*,*,#446,.T.);
#648=ORIENTED_EDGE('',*,*,#444,.T.);
#649=ORIENTED_EDGE('',*,*,#413,.F.);
#650=ORIENTED_EDGE('',*,*,#389,.T.);
#651=ORIENTED_EDGE('',*,*,#446,.F.);
#652=ORIENTED_EDGE('',*,*,#439,.F.);
#653=ORIENTED_EDGE('',*,*,#443,.F.);
#654=ORIENTED_EDGE('',*,*,#445,.F.);
#655=ORIENTED_EDGE('',*,*,#430,.T.);
#656=ORIENTED_EDGE('',*,*,#433,.T.);
#657=CYLINDRICAL_SURFACE('',#737,0.500000000000001);
#658=CYLINDRICAL_SURFACE('',#740,8.17307692307692);
#659=CYLINDRICAL_SURFACE('',#743,8.17307692307693);
#660=CYLINDRICAL_SURFACE('',#746,0.500000000000001);
#661=CYLINDRICAL_SURFACE('',#750,8.17307692307692);
#662=CYLINDRICAL_SURFACE('',#762,0.500000000000001);
#663=CYLINDRICAL_SURFACE('',#766,6.97307692307692);
#664=CYLINDRICAL_SURFACE('',#770,0.5);
#665=CYLINDRICAL_SURFACE('',#772,8.17307692307692);
#666=CYLINDRICAL_SURFACE('',#775,0.5);
#667=CYLINDRICAL_SURFACE('',#777,8.17307692307692);
#668=CYLINDRICAL_SURFACE('',#779,0.500000000000001);
#669=CYLINDRICAL_SURFACE('',#781,1.5);
#670=CYLINDRICAL_SURFACE('',#795,2.1);
#671=CYLINDRICAL_SURFACE('',#796,2.1);
#672=CYLINDRICAL_SURFACE('',#798,1.5);
#673=CYLINDRICAL_SURFACE('',#802,2.1);
#674=CYLINDRICAL_SURFACE('',#806,2.1);
#675=CYLINDRICAL_SURFACE('',#810,2.1);
#676=CYLINDRICAL_SURFACE('',#813,2.1);
#677=ADVANCED_FACE('',(#36),#657,.F.);
#678=ADVANCED_FACE('',(#37),#658,.F.);
#679=ADVANCED_FACE('',(#38),#659,.F.);
#680=ADVANCED_FACE('',(#39),#660,.F.);
#681=ADVANCED_FACE('',(#40),#661,.F.);
#682=ADVANCED_FACE('',(#41),#19,.T.);
#683=ADVANCED_FACE('',(#42),#662,.F.);
#684=ADVANCED_FACE('',(#43),#663,.T.);
#685=ADVANCED_FACE('',(#44),#664,.F.);
#686=ADVANCED_FACE('',(#45),#665,.F.);
#687=ADVANCED_FACE('',(#46),#666,.F.);
#688=ADVANCED_FACE('',(#47),#667,.F.);
#689=ADVANCED_FACE('',(#48),#668,.F.);
#690=ADVANCED_FACE('',(#49),#669,.F.);
#691=ADVANCED_FACE('',(#50),#20,.F.);
#692=ADVANCED_FACE('',(#51),#21,.T.);
#693=ADVANCED_FACE('',(#52,#15),#22,.T.);
#694=ADVANCED_FACE('',(#53),#23,.T.);
#695=ADVANCED_FACE('',(#54),#24,.T.);
#696=ADVANCED_FACE('',(#55),#670,.F.);
#697=ADVANCED_FACE('',(#56),#671,.F.);
#698=ADVANCED_FACE('',(#57),#25,.F.);
#699=ADVANCED_FACE('',(#58),#672,.F.);
#700=ADVANCED_FACE('',(#59),#26,.F.);
#701=ADVANCED_FACE('',(#60),#673,.F.);
#702=ADVANCED_FACE('',(#61),#27,.F.);
#703=ADVANCED_FACE('',(#62),#674,.F.);
#704=ADVANCED_FACE('',(#63),#28,.F.);
#705=ADVANCED_FACE('',(#64),#675,.F.);
#706=ADVANCED_FACE('',(#65),#29,.T.);
#707=ADVANCED_FACE('',(#66),#676,.F.);
#708=ADVANCED_FACE('',(#67),#30,.T.);
#709=ADVANCED_FACE('',(#68),#31,.T.);
#710=ADVANCED_FACE('',(#69,#16),#32,.T.);
#711=ADVANCED_FACE('',(#70),#33,.T.);
#712=ADVANCED_FACE('',(#71),#34,.T.);
#713=ADVANCED_FACE('',(#72,#17,#18),#35,.F.);
#714=CLOSED_SHELL('',(#677,#678,#679,#680,#681,#682,#683,#684,#685,#686,
#687,#688,#689,#690,#691,#692,#693,#694,#695,#696,#697,#698,#699,#700,#701,
#702,#703,#704,#705,#706,#707,#708,#709,#710,#711,#712,#713));
#715=DERIVED_UNIT_ELEMENT(#718,1.);
#716=DERIVED_UNIT_ELEMENT(#1303,-3.);
#717=DIMENSIONAL_EXPONENTS(0.,1.,0.,0.,0.,0.,0.);
#718=(
CONVERSION_BASED_UNIT('gram',#720)
MASS_UNIT()
NAMED_UNIT(#717)
);
#719=(
MASS_UNIT()
NAMED_UNIT(*)
SI_UNIT(.KILO.,.GRAM.)
);
#720=MASS_MEASURE_WITH_UNIT(MASS_MEASURE(0.001),#719);
#721=DERIVED_UNIT((#715,#716));
#722=MEASURE_REPRESENTATION_ITEM('density measure',
POSITIVE_RATIO_MEASURE(0.899),#721);
#723=PROPERTY_DEFINITION_REPRESENTATION(#728,#725);
#724=PROPERTY_DEFINITION_REPRESENTATION(#729,#726);
#725=REPRESENTATION('material name',(#727),#1300);
#726=REPRESENTATION('density',(#722),#1300);
#727=DESCRIPTIVE_REPRESENTATION_ITEM('\X2\041F043E043B0438043F0440043E043F0438043B0435043D\X0\',
'\X2\041F043E043B0438043F0440043E043F0438043B0435043D\X0\');
#728=PROPERTY_DEFINITION('material property','material name',#1310);
#729=PROPERTY_DEFINITION('material property','density of part',#1310);
#730=DATE_TIME_ROLE('creation_date');
#731=APPLIED_DATE_AND_TIME_ASSIGNMENT(#732,#730,(#1310));
#732=DATE_AND_TIME(#733,#734);
#733=CALENDAR_DATE(2026,4,1);
#734=LOCAL_TIME(0,0,0.,#735);
#735=COORDINATED_UNIVERSAL_TIME_OFFSET(0,0,.BEHIND.);
#736=AXIS2_PLACEMENT_3D('placement',#1044,#821,#822);
#737=AXIS2_PLACEMENT_3D('',#1045,#823,#824);
#738=AXIS2_PLACEMENT_3D('',#1053,#825,#826);
#739=AXIS2_PLACEMENT_3D('',#1057,#828,#829);
#740=AXIS2_PLACEMENT_3D('',#1074,#832,#833);
#741=AXIS2_PLACEMENT_3D('',#1076,#834,#835);
#742=AXIS2_PLACEMENT_3D('',#1078,#836,#837);
#743=AXIS2_PLACEMENT_3D('',#1080,#839,#840);
#744=AXIS2_PLACEMENT_3D('',#1083,#841,#842);
#745=AXIS2_PLACEMENT_3D('',#1087,#844,#845);
#746=AXIS2_PLACEMENT_3D('',#1089,#847,#848);
#747=AXIS2_PLACEMENT_3D('',#1091,#849,#850);
#748=AXIS2_PLACEMENT_3D('',#1093,#851,#852);
#749=AXIS2_PLACEMENT_3D('',#1097,#854,#855);
#750=AXIS2_PLACEMENT_3D('',#1099,#857,#858);
#751=AXIS2_PLACEMENT_3D('',#1101,#859,#860);
#752=AXIS2_PLACEMENT_3D('',#1103,#861,#862);
#753=AXIS2_PLACEMENT_3D('',#1105,#864,#865);
#754=AXIS2_PLACEMENT_3D('',#1109,#867,#868);
#755=AXIS2_PLACEMENT_3D('',#1115,#871,#872);
#756=AXIS2_PLACEMENT_3D('',#1121,#875,#876);
#757=AXIS2_PLACEMENT_3D('',#1123,#877,#878);
#758=AXIS2_PLACEMENT_3D('',#1125,#879,#880);
#759=AXIS2_PLACEMENT_3D('',#1127,#881,#882);
#760=AXIS2_PLACEMENT_3D('',#1128,#883,#884);
#761=AXIS2_PLACEMENT_3D('',#1129,#885,#886);
#762=AXIS2_PLACEMENT_3D('',#1130,#887,#888);
#763=AXIS2_PLACEMENT_3D('',#1132,#889,#890);
#764=AXIS2_PLACEMENT_3D('',#1136,#892,#893);
#765=AXIS2_PLACEMENT_3D('',#1140,#895,#896);
#766=AXIS2_PLACEMENT_3D('',#1142,#898,#899);
#767=AXIS2_PLACEMENT_3D('',#1145,#900,#901);
#768=AXIS2_PLACEMENT_3D('',#1149,#903,#904);
#769=AXIS2_PLACEMENT_3D('',#1153,#906,#907);
#770=AXIS2_PLACEMENT_3D('',#1156,#910,#911);
#771=AXIS2_PLACEMENT_3D('',#1193,#914,#915);
#772=AXIS2_PLACEMENT_3D('',#1194,#916,#917);
#773=AXIS2_PLACEMENT_3D('',#1197,#918,#919);
#774=AXIS2_PLACEMENT_3D('',#1200,#921,#922);
#775=AXIS2_PLACEMENT_3D('',#1202,#924,#925);
#776=AXIS2_PLACEMENT_3D('',#1204,#926,#927);
#777=AXIS2_PLACEMENT_3D('',#1206,#929,#930);
#778=AXIS2_PLACEMENT_3D('',#1208,#931,#932);
#779=AXIS2_PLACEMENT_3D('',#1210,#934,#935);
#780=AXIS2_PLACEMENT_3D('',#1213,#937,#938);
#781=AXIS2_PLACEMENT_3D('',#1214,#939,#940);
#782=AXIS2_PLACEMENT_3D('',#1218,#942,#943);
#783=AXIS2_PLACEMENT_3D('',#1221,#945,#946);
#784=AXIS2_PLACEMENT_3D('',#1223,#948,#949);
#785=AXIS2_PLACEMENT_3D('',#1227,#952,#953);
#786=AXIS2_PLACEMENT_3D('',#1231,#956,#957);
#787=AXIS2_PLACEMENT_3D('',#1232,#958,#959);
#788=AXIS2_PLACEMENT_3D('',#1233,#960,#961);
#789=AXIS2_PLACEMENT_3D('',#1234,#962,#963);
#790=AXIS2_PLACEMENT_3D('',#1241,#967,#968);
#791=AXIS2_PLACEMENT_3D('',#1242,#969,#970);
#792=AXIS2_PLACEMENT_3D('',#1243,#971,#972);
#793=AXIS2_PLACEMENT_3D('',#1244,#973,#974);
#794=AXIS2_PLACEMENT_3D('',#1245,#975,#976);
#795=AXIS2_PLACEMENT_3D('',#1246,#977,#978);
#796=AXIS2_PLACEMENT_3D('',#1247,#979,#980);
#797=AXIS2_PLACEMENT_3D('',#1248,#981,#982);
#798=AXIS2_PLACEMENT_3D('',#1250,#984,#985);
#799=AXIS2_PLACEMENT_3D('',#1252,#986,#987);
#800=AXIS2_PLACEMENT_3D('',#1255,#989,#990);
#801=AXIS2_PLACEMENT_3D('',#1256,#991,#992);
#802=AXIS2_PLACEMENT_3D('',#1259,#995,#996);
#803=AXIS2_PLACEMENT_3D('',#1261,#997,#998);
#804=AXIS2_PLACEMENT_3D('',#1264,#1000,#1001);
#805=AXIS2_PLACEMENT_3D('',#1265,#1002,#1003);
#806=AXIS2_PLACEMENT_3D('',#1266,#1004,#1005);
#807=AXIS2_PLACEMENT_3D('',#1268,#1006,#1007);
#808=AXIS2_PLACEMENT_3D('',#1271,#1009,#1010);
#809=AXIS2_PLACEMENT_3D('',#1272,#1011,#1012);
#810=AXIS2_PLACEMENT_3D('',#1273,#1013,#1014);
#811=AXIS2_PLACEMENT_3D('',#1276,#1016,#1017);
#812=AXIS2_PLACEMENT_3D('',#1277,#1018,#1019);
#813=AXIS2_PLACEMENT_3D('',#1278,#1020,#1021);
#814=AXIS2_PLACEMENT_3D('',#1279,#1022,#1023);
#815=AXIS2_PLACEMENT_3D('',#1280,#1024,#1025);
#816=AXIS2_PLACEMENT_3D('',#1281,#1026,#1027);
#817=AXIS2_PLACEMENT_3D('',#1287,#1031,#1032);
#818=AXIS2_PLACEMENT_3D('',#1291,#1035,#1036);
#819=AXIS2_PLACEMENT_3D('',#1295,#1039,#1040);
#820=AXIS2_PLACEMENT_3D('',#1297,#1042,#1043);
#821=DIRECTION('axis',(0.,0.,1.));
#822=DIRECTION('refdir',(1.,0.,0.));
#823=DIRECTION('center_axis',(0.,0.,1.));
#824=DIRECTION('ref_axis',(-0.0305882352941194,-0.999532070451765,0.));
#825=DIRECTION('center_axis',(0.,0.,-1.));
#826=DIRECTION('ref_axis',(-0.0305882352941194,-0.999532070451765,0.));
#827=DIRECTION('',(0.,0.,1.));
#828=DIRECTION('center_axis',(0.,0.,-1.));
#829=DIRECTION('ref_axis',(-0.0305882352941194,-0.999532070451765,0.));
#830=DIRECTION('',(0.,0.,1.));
#831=DIRECTION('',(0.,0.,1.));
#832=DIRECTION('center_axis',(0.,0.,1.));
#833=DIRECTION('ref_axis',(0.98309507554524,-0.183095801259065,0.));
#834=DIRECTION('center_axis',(0.,0.,-1.));
#835=DIRECTION('ref_axis',(0.98309507554524,-0.183095801259065,0.));
#836=DIRECTION('center_axis',(0.,0.,-1.));
#837=DIRECTION('ref_axis',(0.98309507554524,-0.183095801259065,0.));
#838=DIRECTION('',(0.,0.,1.));
#839=DIRECTION('center_axis',(0.,0.,1.));
#840=DIRECTION('ref_axis',(0.90919274576399,-0.416375492854872,0.));
#841=DIRECTION('center_axis',(0.,0.,-1.));
#842=DIRECTION('ref_axis',(0.90919274576399,-0.416375492854872,0.));
#843=DIRECTION('',(0.,0.,1.));
#844=DIRECTION('center_axis',(0.,0.,-1.));
#845=DIRECTION('ref_axis',(0.90919274576399,-0.416375492854872,0.));
#846=DIRECTION('',(0.,0.,1.));
#847=DIRECTION('center_axis',(0.,0.,1.));
#848=DIRECTION('ref_axis',(0.882030927499432,-0.471191514073092,0.));
#849=DIRECTION('center_axis',(0.,0.,-1.));
#850=DIRECTION('ref_axis',(-0.497950799187822,-0.867205282264937,0.));
#851=DIRECTION('center_axis',(0.,0.,-1.));
#852=DIRECTION('ref_axis',(-0.497950799187822,-0.867205282264937,0.));
#853=DIRECTION('',(0.,0.,1.));
#854=DIRECTION('center_axis',(0.,0.,-1.));
#855=DIRECTION('ref_axis',(-0.497950799187822,-0.867205282264937,0.));
#856=DIRECTION('',(0.,0.,-1.));
#857=DIRECTION('center_axis',(0.,0.,1.));
#858=DIRECTION('ref_axis',(0.780847073487607,-0.624722216529747,0.));
#859=DIRECTION('center_axis',(0.,0.,-1.));
#860=DIRECTION('ref_axis',(0.780847073487607,-0.624722216529747,0.));
#861=DIRECTION('center_axis',(0.,0.,-1.));
#862=DIRECTION('ref_axis',(0.780847073487607,-0.624722216529747,0.));
#863=DIRECTION('',(0.,0.,1.));
#864=DIRECTION('center_axis',(0.,0.,1.));
#865=DIRECTION('ref_axis',(1.,0.,0.));
#866=DIRECTION('',(0.,-1.,0.));
#867=DIRECTION('center_axis',(0.,0.,-1.));
#868=DIRECTION('ref_axis',(-0.272426086233927,-0.962176713259713,0.));
#869=DIRECTION('',(0.,-1.,0.));
#870=DIRECTION('',(1.,0.,0.));
#871=DIRECTION('center_axis',(0.,0.,1.));
#872=DIRECTION('ref_axis',(-0.239933811362383,0.970789249098444,0.));
#873=DIRECTION('',(0.,1.,0.));
#874=DIRECTION('',(-1.,0.,0.));
#875=DIRECTION('center_axis',(0.,0.,-1.));
#876=DIRECTION('ref_axis',(-0.951229065991001,-0.308485435659267,0.));
#877=DIRECTION('center_axis',(0.,0.,-1.));
#878=DIRECTION('ref_axis',(0.394367461381741,-0.918952830891402,0.));
#879=DIRECTION('center_axis',(0.,0.,-1.));
#880=DIRECTION('ref_axis',(-0.847827775219312,-0.53027168844534,0.));
#881=DIRECTION('center_axis',(0.,0.,-1.));
#882=DIRECTION('ref_axis',(0.605743521920749,-0.795659968611622,0.));
#883=DIRECTION('center_axis',(0.,0.,-1.));
#884=DIRECTION('ref_axis',(-0.693657735842667,-0.720304758769248,0.));
#885=DIRECTION('center_axis',(0.,0.,-1.));
#886=DIRECTION('ref_axis',(-0.272426086233927,-0.962176713259713,0.));
#887=DIRECTION('center_axis',(0.,0.,1.));
#888=DIRECTION('ref_axis',(0.741185472926427,-0.671300301446997,0.));
#889=DIRECTION('center_axis',(0.,0.,-1.));
#890=DIRECTION('ref_axis',(-0.693657735842667,-0.720304758769248,0.));
#891=DIRECTION('',(0.,0.,1.));
#892=DIRECTION('center_axis',(0.,0.,-1.));
#893=DIRECTION('ref_axis',(-0.693657735842667,-0.720304758769248,0.));
#894=DIRECTION('',(0.,0.,-1.));
#895=DIRECTION('center_axis',(0.,0.,-1.));
#896=DIRECTION('ref_axis',(-0.693657735842667,-0.720304758769248,0.));
#897=DIRECTION('',(0.,0.,1.));
#898=DIRECTION('center_axis',(0.,0.,1.));
#899=DIRECTION('ref_axis',(-0.239933811362383,0.970789249098444,0.));
#900=DIRECTION('center_axis',(0.,0.,1.));
#901=DIRECTION('ref_axis',(-0.239933811362383,0.970789249098444,0.));
#902=DIRECTION('',(0.,0.,1.));
#903=DIRECTION('center_axis',(0.,0.,1.));
#904=DIRECTION('ref_axis',(-0.239933811362383,0.970789249098444,0.));
#905=DIRECTION('',(0.,0.,-1.));
#906=DIRECTION('center_axis',(0.,0.,1.));
#907=DIRECTION('ref_axis',(-0.239933811362383,0.970789249098444,0.));
#908=DIRECTION('',(0.,0.,1.));
#909=DIRECTION('',(0.,0.,-1.));
#910=DIRECTION('center_axis',(0.,0.,1.));
#911=DIRECTION('ref_axis',(0.970059515570934,-0.24286732231876,0.));
#912=DIRECTION('',(0.,0.,-1.));
#913=DIRECTION('',(0.,0.,1.));
#914=DIRECTION('center_axis',(0.,0.,-1.));
#915=DIRECTION('ref_axis',(-0.272426086233927,-0.962176713259713,0.));
#916=DIRECTION('center_axis',(0.,0.,1.));
#917=DIRECTION('ref_axis',(0.605743521920749,-0.795659968611622,0.));
#918=DIRECTION('center_axis',(0.,0.,-1.));
#919=DIRECTION('ref_axis',(0.605743521920749,-0.795659968611622,0.));
#920=DIRECTION('',(0.,0.,1.));
#921=DIRECTION('center_axis',(0.,0.,-1.));
#922=DIRECTION('ref_axis',(0.605743521920749,-0.795659968611622,0.));
#923=DIRECTION('',(0.,0.,1.));
#924=DIRECTION('center_axis',(0.,0.,1.));
#925=DIRECTION('ref_axis',(0.555957114131014,-0.831210976375502,0.));
#926=DIRECTION('center_axis',(0.,0.,-1.));
#927=DIRECTION('ref_axis',(-0.847827775219312,-0.53027168844534,0.));
#928=DIRECTION('',(0.,0.,1.));
#929=DIRECTION('center_axis',(0.,0.,1.));
#930=DIRECTION('ref_axis',(0.394367461381741,-0.918952830891402,0.));
#931=DIRECTION('center_axis',(0.,0.,-1.));
#932=DIRECTION('ref_axis',(0.394367461381741,-0.918952830891402,0.));
#933=DIRECTION('',(0.,0.,1.));
#934=DIRECTION('center_axis',(0.,0.,1.));
#935=DIRECTION('ref_axis',(0.989896926178575,-0.141788841388202,0.));
#936=DIRECTION('',(0.,0.,-1.));
#937=DIRECTION('center_axis',(0.,0.,-1.));
#938=DIRECTION('ref_axis',(-0.951229065991001,-0.308485435659267,0.));
#939=DIRECTION('center_axis',(0.,-1.,0.));
#940=DIRECTION('ref_axis',(1.,0.,0.));
#941=DIRECTION('',(0.,-1.,0.));
#942=DIRECTION('center_axis',(0.,1.,0.));
#943=DIRECTION('ref_axis',(1.,0.,0.));
#944=DIRECTION('',(0.,-1.,0.));
#945=DIRECTION('center_axis',(0.,-1.,0.));
#946=DIRECTION('ref_axis',(1.,0.,0.));
#947=DIRECTION('',(0.,-1.,0.));
#948=DIRECTION('center_axis',(-1.,0.,0.));
#949=DIRECTION('ref_axis',(0.,0.,-1.));
#950=DIRECTION('',(0.,-1.,0.));
#951=DIRECTION('',(0.,0.,1.));
#952=DIRECTION('center_axis',(0.,0.,1.));
#953=DIRECTION('ref_axis',(1.,0.,0.));
#954=DIRECTION('',(-1.,0.,0.));
#955=DIRECTION('',(0.,-1.,0.));
#956=DIRECTION('center_axis',(0.,0.,-1.));
#957=DIRECTION('ref_axis',(1.,0.,0.));
#958=DIRECTION('center_axis',(0.,0.,1.));
#959=DIRECTION('ref_axis',(1.,0.,0.));
#960=DIRECTION('center_axis',(0.,0.,-1.));
#961=DIRECTION('ref_axis',(1.,0.,0.));
#962=DIRECTION('center_axis',(0.,0.,-1.));
#963=DIRECTION('ref_axis',(1.,0.,0.));
#964=DIRECTION('',(1.,0.,0.));
#965=DIRECTION('',(-2.77555756156289E-16,1.,0.));
#966=DIRECTION('',(-1.,0.,0.));
#967=DIRECTION('center_axis',(0.,0.,-1.));
#968=DIRECTION('ref_axis',(1.,0.,0.));
#969=DIRECTION('center_axis',(0.,0.,1.));
#970=DIRECTION('ref_axis',(1.,0.,0.));
#971=DIRECTION('center_axis',(0.,0.,-1.));
#972=DIRECTION('ref_axis',(1.,0.,0.));
#973=DIRECTION('center_axis',(0.,0.,1.));
#974=DIRECTION('ref_axis',(1.,0.,0.));
#975=DIRECTION('center_axis',(0.,0.,-1.));
#976=DIRECTION('ref_axis',(1.,0.,0.));
#977=DIRECTION('center_axis',(0.,0.,-1.));
#978=DIRECTION('ref_axis',(1.,0.,0.));
#979=DIRECTION('center_axis',(0.,0.,-1.));
#980=DIRECTION('ref_axis',(1.,0.,0.));
#981=DIRECTION('center_axis',(-1.,0.,0.));
#982=DIRECTION('ref_axis',(0.,0.,-1.));
#983=DIRECTION('',(0.,-1.,0.));
#984=DIRECTION('center_axis',(0.,-1.,0.));
#985=DIRECTION('ref_axis',(-1.,0.,0.));
#986=DIRECTION('center_axis',(0.,-1.,0.));
#987=DIRECTION('ref_axis',(-1.,0.,0.));
#988=DIRECTION('',(0.,-1.,0.));
#989=DIRECTION('center_axis',(0.,1.,0.));
#990=DIRECTION('ref_axis',(-1.,0.,0.));
#991=DIRECTION('center_axis',(1.,0.,0.));
#992=DIRECTION('ref_axis',(0.,0.,1.));
#993=DIRECTION('',(0.,0.,-1.));
#994=DIRECTION('',(0.,0.,1.));
#995=DIRECTION('center_axis',(0.,0.,-1.));
#996=DIRECTION('ref_axis',(1.,0.,0.));
#997=DIRECTION('center_axis',(0.,0.,1.));
#998=DIRECTION('ref_axis',(1.,0.,0.));
#999=DIRECTION('',(0.,0.,1.));
#1000=DIRECTION('center_axis',(0.,0.,-1.));
#1001=DIRECTION('ref_axis',(1.,0.,0.));
#1002=DIRECTION('center_axis',(0.,0.,1.));
#1003=DIRECTION('ref_axis',(1.,0.,0.));
#1004=DIRECTION('center_axis',(0.,0.,-1.));
#1005=DIRECTION('ref_axis',(1.,0.,0.));
#1006=DIRECTION('center_axis',(0.,0.,1.));
#1007=DIRECTION('ref_axis',(1.,0.,0.));
#1008=DIRECTION('',(0.,0.,1.));
#1009=DIRECTION('center_axis',(0.,0.,-1.));
#1010=DIRECTION('ref_axis',(1.,0.,0.));
#1011=DIRECTION('center_axis',(0.,0.,1.));
#1012=DIRECTION('ref_axis',(1.,0.,0.));
#1013=DIRECTION('center_axis',(0.,0.,-1.));
#1014=DIRECTION('ref_axis',(1.,0.,0.));
#1015=DIRECTION('',(0.,0.,-1.));
#1016=DIRECTION('center_axis',(0.,0.,-1.));
#1017=DIRECTION('ref_axis',(1.,0.,0.));
#1018=DIRECTION('center_axis',(0.,0.,1.));
#1019=DIRECTION('ref_axis',(1.,0.,0.));
#1020=DIRECTION('center_axis',(0.,0.,-1.));
#1021=DIRECTION('ref_axis',(-0.791090933372938,0.611698565582047,0.));
#1022=DIRECTION('center_axis',(0.,0.,-1.));
#1023=DIRECTION('ref_axis',(1.,0.,0.));
#1024=DIRECTION('center_axis',(0.,0.,1.));
#1025=DIRECTION('ref_axis',(1.,0.,0.));
#1026=DIRECTION('center_axis',(1.,2.77555756156289E-16,0.));
#1027=DIRECTION('ref_axis',(-2.77555756156289E-16,1.,0.));
#1028=DIRECTION('',(-2.77555756156289E-16,1.,0.));
#1029=DIRECTION('',(0.,0.,1.));
#1030=DIRECTION('',(0.,0.,1.));
#1031=DIRECTION('center_axis',(0.,-1.,0.));
#1032=DIRECTION('ref_axis',(1.,0.,0.));
#1033=DIRECTION('',(0.,0.,1.));
#1034=DIRECTION('',(1.,0.,0.));
#1035=DIRECTION('center_axis',(-1.,0.,0.));
#1036=DIRECTION('ref_axis',(0.,-1.,0.));
#1037=DIRECTION('',(0.,0.,1.));
#1038=DIRECTION('',(0.,-1.,0.));
#1039=DIRECTION('center_axis',(0.,1.,0.));
#1040=DIRECTION('ref_axis',(-1.,0.,0.));
#1041=DIRECTION('',(-1.,0.,0.));
#1042=DIRECTION('center_axis',(0.,0.,1.));
#1043=DIRECTION('ref_axis',(1.,0.,0.));
#1044=CARTESIAN_POINT('',(0.,0.,0.));
#1045=CARTESIAN_POINT('Origin',(-7.,19.05,10.));
#1046=CARTESIAN_POINT('',(-6.9437421247434,18.5531750293397,7.));
#1047=CARTESIAN_POINT('',(-7.,18.55,7.40695046042656));
#1048=CARTESIAN_POINT('Ctrl Pts',(-6.9437421247434,18.5531750293397,7.));
#1049=CARTESIAN_POINT('Ctrl Pts',(-6.98109859565186,18.5489449768977,7.13252991684973));
#1050=CARTESIAN_POINT('Ctrl Pts',(-7.,18.55,7.27215788890393));
#1051=CARTESIAN_POINT('Ctrl Pts',(-7.,18.55,7.40695046042656));
#1052=CARTESIAN_POINT('',(-7.01529411764706,18.5502339647741,7.));
#1053=CARTESIAN_POINT('Origin',(-7.,19.05,7.));
#1054=CARTESIAN_POINT('',(-7.01529411764706,18.5502339647741,20.));
#1055=CARTESIAN_POINT('',(-7.01529411764706,18.5502339647741,10.));
#1056=CARTESIAN_POINT('',(-6.5,19.05,20.));
#1057=CARTESIAN_POINT('Origin',(-7.,19.05,20.));
#1058=CARTESIAN_POINT('',(-6.5,19.05,13.7110835283233));
#1059=CARTESIAN_POINT('',(-6.5,19.05,10.));
#1060=CARTESIAN_POINT('',(-7.,18.55,12.5930495395734));
#1061=CARTESIAN_POINT('Ctrl Pts',(-7.,18.55,12.5930495395734));
#1062=CARTESIAN_POINT('Ctrl Pts',(-7.,18.55,12.7873110159575));
#1063=CARTESIAN_POINT('Ctrl Pts',(-6.95915835496693,18.5457857917369,12.9912428556129));
#1064=CARTESIAN_POINT('Ctrl Pts',(-6.84704844882058,18.5724208563421,13.2600462377833));
#1065=CARTESIAN_POINT('Ctrl Pts',(-6.80184811332449,18.5875076628218,13.3434505787673));
#1066=CARTESIAN_POINT('Ctrl Pts',(-6.70405121571936,18.643087640296,13.4920327954113));
#1067=CARTESIAN_POINT('Ctrl Pts',(-6.65121180477501,18.6826513971614,13.5573968817038));
#1068=CARTESIAN_POINT('Ctrl Pts',(-6.57399928641692,18.7841650899932,13.6410159178694));
#1069=CARTESIAN_POINT('Ctrl Pts',(-6.54698631858081,18.8311604648033,13.6675116488194));
#1070=CARTESIAN_POINT('Ctrl Pts',(-6.50989320361479,18.9363883893911,13.7024479183575));
#1071=CARTESIAN_POINT('Ctrl Pts',(-6.5,18.9946218989963,13.7110835283233));
#1072=CARTESIAN_POINT('Ctrl Pts',(-6.5,19.05,13.7110835283233));
#1073=CARTESIAN_POINT('',(-7.,18.55,10.));
#1074=CARTESIAN_POINT('Origin',(-15.1730769230769,19.05,10.));
#1075=CARTESIAN_POINT('',(-7.13816524794756,17.5535439320172,20.));
#1076=CARTESIAN_POINT('Origin',(-15.1730769230769,19.05,20.));
#1077=CARTESIAN_POINT('',(-7.13816524794756,17.5535439320172,7.));
#1078=CARTESIAN_POINT('Origin',(-15.1730769230769,19.05,7.));
#1079=CARTESIAN_POINT('',(-7.13816524794756,17.5535439320172,10.));
#1080=CARTESIAN_POINT('Origin',(-15.1730769230769,19.05,10.));
#1081=CARTESIAN_POINT('',(-7.3809189254699,16.5839383359572,20.));
#1082=CARTESIAN_POINT('',(-7.74217467404431,15.646931068013,20.));
#1083=CARTESIAN_POINT('Origin',(-15.1730769230769,19.05,20.));
#1084=CARTESIAN_POINT('',(-7.3809189254699,16.5839383359572,7.));
#1085=CARTESIAN_POINT('',(-7.3809189254699,16.5839383359572,10.));
#1086=CARTESIAN_POINT('',(-7.74217467404431,15.646931068013,7.));
#1087=CARTESIAN_POINT('Origin',(-15.1730769230769,19.05,7.));
#1088=CARTESIAN_POINT('',(-7.74217467404431,15.646931068013,10.));
#1089=CARTESIAN_POINT('Origin',(-7.96417030409118,15.1989155099795,10.));
#1090=CARTESIAN_POINT('',(-7.92935020360193,14.7001294229623,20.));
#1091=CARTESIAN_POINT('Origin',(-7.96417030409118,15.1989155099795,20.));
#1092=CARTESIAN_POINT('',(-8.21314570368509,14.765312868847,7.));
#1093=CARTESIAN_POINT('Origin',(-7.96417030409118,15.1989155099795,7.));
#1094=CARTESIAN_POINT('',(-8.21314570368509,14.765312868847,15.));
#1095=CARTESIAN_POINT('',(-8.21314570368509,14.765312868847,10.));
#1096=CARTESIAN_POINT('',(-7.92935020360193,14.7001294229623,15.));
#1097=CARTESIAN_POINT('Origin',(-7.96417030409118,15.1989155099795,15.));
#1098=CARTESIAN_POINT('',(-7.92935020360193,14.7001294229623,10.));
#1099=CARTESIAN_POINT('Origin',(-15.1730769230769,19.05,10.));
#1100=CARTESIAN_POINT('',(-8.79115372630321,13.9440972687472,15.));
#1101=CARTESIAN_POINT('Origin',(-15.1730769230769,19.05,15.));
#1102=CARTESIAN_POINT('',(-8.79115372630321,13.9440972687472,7.));
#1103=CARTESIAN_POINT('Origin',(-15.1730769230769,19.05,7.));
#1104=CARTESIAN_POINT('',(-8.79115372630321,13.9440972687472,10.));
#1105=CARTESIAN_POINT('Origin',(-10.,14.9531454672781,7.));
#1106=CARTESIAN_POINT('',(-6.9437421247434,17.464302056973,7.));
#1107=CARTESIAN_POINT('',(-6.94374212474341,16.6657513282011,7.));
#1108=CARTESIAN_POINT('',(-6.9437421247434,19.05,7.));
#1109=CARTESIAN_POINT('Origin',(-7.24470588235294,17.065026692587,7.));
#1110=CARTESIAN_POINT('',(-6.9437421247434,19.05,7.));
#1111=CARTESIAN_POINT('',(-6.9437421247434,19.05,7.));
#1112=CARTESIAN_POINT('',(-8.2,19.05,7.));
#1113=CARTESIAN_POINT('',(-3.75,19.05,7.));
#1114=CARTESIAN_POINT('',(-13.5,12.2806118899404,7.));
#1115=CARTESIAN_POINT('Origin',(-15.1730769230769,19.05,7.));
#1116=CARTESIAN_POINT('',(-13.5,11.05,7.));
#1117=CARTESIAN_POINT('',(-13.5,17.001572733639,7.));
#1118=CARTESIAN_POINT('',(-12.0199706683399,11.05,7.));
#1119=CARTESIAN_POINT('',(-11.75,11.05,7.));
#1120=CARTESIAN_POINT('',(-11.9498813252454,11.5393278244452,7.));
#1121=CARTESIAN_POINT('Origin',(-12.4151742404501,11.3562909345561,7.));
#1122=CARTESIAN_POINT('',(-11.0531105509619,11.9913129065545,7.));
#1123=CARTESIAN_POINT('Origin',(-15.1730769230769,19.05,7.));
#1124=CARTESIAN_POINT('',(-10.2222885227631,12.5470098719242,7.));
#1125=CARTESIAN_POINT('Origin',(-10.6291966633523,12.2564487507771,7.));
#1126=CARTESIAN_POINT('',(-9.46213990650342,13.2032586184043,7.));
#1127=CARTESIAN_POINT('Origin',(-15.1730769230769,19.05,7.));
#1128=CARTESIAN_POINT('Origin',(-9.11531103858209,13.5634109977889,7.));
#1129=CARTESIAN_POINT('Origin',(-7.24470588235294,17.065026692587,7.));
#1130=CARTESIAN_POINT('Origin',(-9.11531103858209,13.5634109977889,10.));
#1131=CARTESIAN_POINT('',(-8.62566864619918,13.4621670963354,15.));
#1132=CARTESIAN_POINT('Origin',(-9.11531103858209,13.5634109977889,15.));
#1133=CARTESIAN_POINT('',(-9.46213990650342,13.2032586184043,15.));
#1134=CARTESIAN_POINT('',(-9.46213990650342,13.2032586184043,10.));
#1135=CARTESIAN_POINT('',(-9.25984898952723,13.0847579076113,15.));
#1136=CARTESIAN_POINT('Origin',(-9.11531103858209,13.5634109977889,15.));
#1137=CARTESIAN_POINT('',(-9.25984898952723,13.0847579076113,20.));
#1138=CARTESIAN_POINT('',(-9.25984898952723,13.0847579076113,10.));
#1139=CARTESIAN_POINT('',(-8.62566864619918,13.4621670963354,20.));
#1140=CARTESIAN_POINT('Origin',(-9.11531103858209,13.5634109977889,20.));
#1141=CARTESIAN_POINT('',(-8.62566864619918,13.4621670963354,10.));
#1142=CARTESIAN_POINT('Origin',(-15.1730769230769,19.05,10.));
#1143=CARTESIAN_POINT('',(-8.62933749121253,16.6410010329991,20.));
#1144=CARTESIAN_POINT('',(-8.2,19.05,20.));
#1145=CARTESIAN_POINT('Origin',(-15.1730769230769,19.05,20.));
#1146=CARTESIAN_POINT('',(-8.62933749121253,16.6410010329991,15.));
#1147=CARTESIAN_POINT('',(-8.62933749121253,16.6410010329992,10.));
#1148=CARTESIAN_POINT('',(-11.1948731898685,13.3230726534873,15.));
#1149=CARTESIAN_POINT('Origin',(-15.1730769230769,19.05,15.));
#1150=CARTESIAN_POINT('',(-11.1948731898685,13.3230726534873,20.));
#1151=CARTESIAN_POINT('',(-11.1948731898685,13.3230726534873,10.));
#1152=CARTESIAN_POINT('',(-13.5,12.2806118899404,20.));
#1153=CARTESIAN_POINT('Origin',(-15.1730769230769,19.05,20.));
#1154=CARTESIAN_POINT('',(-13.5,12.2806118899404,10.));
#1155=CARTESIAN_POINT('',(-8.2,19.05,10.));
#1156=CARTESIAN_POINT('Origin',(-7.24470588235294,17.065026692587,10.));
#1157=CARTESIAN_POINT('',(-7.,17.501053103647,7.40695046042656));
#1158=CARTESIAN_POINT('Ctrl Pts',(-7.,17.501053103647,7.40695046042656));
#1159=CARTESIAN_POINT('Ctrl Pts',(-7.,17.501053103647,7.27306801770831));
#1160=CARTESIAN_POINT('Ctrl Pts',(-6.98041240455394,17.4919431943653,7.13009550998689));
#1161=CARTESIAN_POINT('Ctrl Pts',(-6.9437421247434,17.464302056973,7.));
#1162=CARTESIAN_POINT('',(-7.,17.501053103647,12.5930495395734));
#1163=CARTESIAN_POINT('',(-7.,17.501053103647,10.));
#1164=CARTESIAN_POINT('',(-7.,16.629000281527,12.5930495395734));
#1165=CARTESIAN_POINT('Ctrl Pts',(-7.,16.629000281527,12.5930495395734));
#1166=CARTESIAN_POINT('Ctrl Pts',(-7.,16.629000281527,12.7319182233581));
#1167=CARTESIAN_POINT('Ctrl Pts',(-6.97879072038142,16.6387186109505,12.8805461588021));
#1168=CARTESIAN_POINT('Ctrl Pts',(-6.91997677084049,16.6840234381415,13.0814499464224));
#1169=CARTESIAN_POINT('Ctrl Pts',(-6.89627858357176,16.7044043756824,13.1446774380829));
#1170=CARTESIAN_POINT('Ctrl Pts',(-6.84568460642881,16.7613293363138,13.258647119224));
#1171=CARTESIAN_POINT('Ctrl Pts',(-6.81867822017828,16.7974300694391,13.3095611016804));
#1172=CARTESIAN_POINT('Ctrl Pts',(-6.78091843742813,16.8756370541086,13.3740515712449));
#1173=CARTESIAN_POINT('Ctrl Pts',(-6.7677614078693,16.9100289284846,13.3949599725595));
#1174=CARTESIAN_POINT('Ctrl Pts',(-6.74958007904727,16.9853345015584,13.4230066987201));
#1175=CARTESIAN_POINT('Ctrl Pts',(-6.74470588235294,17.0262891605514,13.4301321319357));
#1176=CARTESIAN_POINT('Ctrl Pts',(-6.74470588235294,17.1037642246226,13.4301321319357));
#1177=CARTESIAN_POINT('Ctrl Pts',(-6.74958007904727,17.1447188836156,13.4230066987201));
#1178=CARTESIAN_POINT('Ctrl Pts',(-6.7677614078693,17.2200244566894,13.3949599725595));
#1179=CARTESIAN_POINT('Ctrl Pts',(-6.78091843742813,17.2544163310655,13.3740515712449));
#1180=CARTESIAN_POINT('Ctrl Pts',(-6.81867822017828,17.332623315735,13.3095611016804));
#1181=CARTESIAN_POINT('Ctrl Pts',(-6.84568460642881,17.3687240488603,13.258647119224));
#1182=CARTESIAN_POINT('Ctrl Pts',(-6.89627858357176,17.4256490094916,13.1446774380829));
#1183=CARTESIAN_POINT('Ctrl Pts',(-6.91997677084049,17.4460299470325,13.0814499464224));
#1184=CARTESIAN_POINT('Ctrl Pts',(-6.97879072038142,17.4913347742236,12.8805461588021));
#1185=CARTESIAN_POINT('Ctrl Pts',(-7.,17.501053103647,12.7319182233581));
#1186=CARTESIAN_POINT('Ctrl Pts',(-7.,17.501053103647,12.5930495395734));
#1187=CARTESIAN_POINT('',(-7.,16.629000281527,7.40695046042656));
#1188=CARTESIAN_POINT('',(-7.,16.629000281527,10.));
#1189=CARTESIAN_POINT('Ctrl Pts',(-6.94374212474341,16.6657513282011,7.));
#1190=CARTESIAN_POINT('Ctrl Pts',(-6.98041240455394,16.6381101908087,7.13009550998689));
#1191=CARTESIAN_POINT('Ctrl Pts',(-7.,16.629000281527,7.27306801770831));
#1192=CARTESIAN_POINT('Ctrl Pts',(-7.,16.629000281527,7.40695046042656));
#1193=CARTESIAN_POINT('Origin',(-7.24470588235294,17.065026692587,20.));
#1194=CARTESIAN_POINT('Origin',(-15.1730769230769,19.05,10.));
#1195=CARTESIAN_POINT('',(-9.7111872059412,12.969955007701,20.));
#1196=CARTESIAN_POINT('',(-10.2222885227631,12.5470098719242,20.));
#1197=CARTESIAN_POINT('Origin',(-15.1730769230769,19.05,20.));
#1198=CARTESIAN_POINT('',(-9.7111872059412,12.969955007701,15.));
#1199=CARTESIAN_POINT('',(-9.7111872059412,12.969955007701,10.));
#1200=CARTESIAN_POINT('Origin',(-15.1730769230769,19.05,15.));
#1201=CARTESIAN_POINT('',(-10.2222885227631,12.5470098719242,10.));
#1202=CARTESIAN_POINT('Origin',(-10.6291966633523,12.2564487507771,10.));
#1203=CARTESIAN_POINT('',(-11.0531105509619,11.9913129065545,20.));
#1204=CARTESIAN_POINT('Origin',(-10.6291966633523,12.2564487507771,20.));
#1205=CARTESIAN_POINT('',(-11.0531105509619,11.9913129065545,10.));
#1206=CARTESIAN_POINT('Origin',(-15.1730769230769,19.05,10.));
#1207=CARTESIAN_POINT('',(-11.9498813252454,11.5393278244452,20.));
#1208=CARTESIAN_POINT('Origin',(-15.1730769230769,19.05,20.));
#1209=CARTESIAN_POINT('',(-11.9498813252454,11.5393278244452,10.));
#1210=CARTESIAN_POINT('Origin',(-12.4151742404501,11.3562909345561,10.));
#1211=CARTESIAN_POINT('',(-12.0199706683399,11.05,20.));
#1212=CARTESIAN_POINT('',(-12.0199706683399,11.05,10.));
#1213=CARTESIAN_POINT('Origin',(-12.4151742404501,11.3562909345561,20.));
#1214=CARTESIAN_POINT('Origin',(-5.5,19.05,7.40695046042656));
#1215=CARTESIAN_POINT('',(-7.,11.05,7.40695046042656));
#1216=CARTESIAN_POINT('',(-7.,19.05,7.40695046042656));
#1217=CARTESIAN_POINT('',(-4.,11.05,7.40695046042656));
#1218=CARTESIAN_POINT('Origin',(-5.5,11.05,7.40695046042656));
#1219=CARTESIAN_POINT('',(-4.,19.05,7.40695046042656));
#1220=CARTESIAN_POINT('',(-4.,19.05,7.40695046042656));
#1221=CARTESIAN_POINT('Origin',(-5.5,19.05,7.40695046042656));
#1222=CARTESIAN_POINT('',(-7.,19.05,7.40695046042656));
#1223=CARTESIAN_POINT('Origin',(-7.,19.05,12.5930495395734));
#1224=CARTESIAN_POINT('',(-7.,11.05,12.5930495395734));
#1225=CARTESIAN_POINT('',(-7.,19.05,12.5930495395734));
#1226=CARTESIAN_POINT('',(-7.,11.05,6.29652476978672));
#1227=CARTESIAN_POINT('Origin',(-5.5,15.05,20.));
#1228=CARTESIAN_POINT('',(-13.5,19.05,20.));
#1229=CARTESIAN_POINT('',(2.5,19.05,20.));
#1230=CARTESIAN_POINT('',(-13.5,19.05,20.));
#1231=CARTESIAN_POINT('Origin',(-10.,15.05,20.));
#1232=CARTESIAN_POINT('Origin',(-5.5,15.05,20.));
#1233=CARTESIAN_POINT('Origin',(-10.,15.05,20.));
#1234=CARTESIAN_POINT('Origin',(-10.,15.05,20.));
#1235=CARTESIAN_POINT('',(2.5,11.05,20.));
#1236=CARTESIAN_POINT('',(-13.5,11.05,20.));
#1237=CARTESIAN_POINT('',(2.5,19.05,20.));
#1238=CARTESIAN_POINT('',(2.5,11.05,20.));
#1239=CARTESIAN_POINT('',(2.5,19.05,20.));
#1240=CARTESIAN_POINT('',(-3.1,15.05,20.));
#1241=CARTESIAN_POINT('Origin',(-0.999999999999996,15.05,20.));
#1242=CARTESIAN_POINT('Origin',(-10.,15.05,15.));
#1243=CARTESIAN_POINT('Origin',(-10.,15.05,15.));
#1244=CARTESIAN_POINT('Origin',(-10.,15.05,15.));
#1245=CARTESIAN_POINT('Origin',(-10.,15.05,15.));
#1246=CARTESIAN_POINT('Origin',(-10.,15.05,20.));
#1247=CARTESIAN_POINT('Origin',(-10.,15.05,20.));
#1248=CARTESIAN_POINT('Origin',(-7.,19.05,12.5930495395734));
#1249=CARTESIAN_POINT('',(-7.,19.05,12.5930495395734));
#1250=CARTESIAN_POINT('Origin',(-5.5,19.05,12.5930495395734));
#1251=CARTESIAN_POINT('',(-4.,19.05,12.5930495395734));
#1252=CARTESIAN_POINT('Origin',(-5.5,19.05,12.5930495395734));
#1253=CARTESIAN_POINT('',(-4.,11.05,12.5930495395734));
#1254=CARTESIAN_POINT('',(-4.,19.05,12.5930495395734));
#1255=CARTESIAN_POINT('Origin',(-5.5,11.05,12.5930495395734));
#1256=CARTESIAN_POINT('Origin',(-4.,19.05,7.40695046042656));
#1257=CARTESIAN_POINT('',(-4.,11.05,3.70347523021328));
#1258=CARTESIAN_POINT('',(-4.,19.05,3.70347523021328));
#1259=CARTESIAN_POINT('Origin',(-0.999999999999996,15.05,0.));
#1260=CARTESIAN_POINT('',(-3.1,15.05,0.));
#1261=CARTESIAN_POINT('Origin',(-0.999999999999996,15.05,0.));
#1262=CARTESIAN_POINT('',(-3.1,15.05,5.));
#1263=CARTESIAN_POINT('',(-3.1,15.05,0.));
#1264=CARTESIAN_POINT('Origin',(-0.999999999999996,15.05,5.));
#1265=CARTESIAN_POINT('Origin',(-0.999999999999996,15.05,5.));
#1266=CARTESIAN_POINT('Origin',(-10.,15.05,0.));
#1267=CARTESIAN_POINT('',(-12.1,15.05,0.));
#1268=CARTESIAN_POINT('Origin',(-10.,15.05,0.));
#1269=CARTESIAN_POINT('',(-12.1,15.05,5.));
#1270=CARTESIAN_POINT('',(-12.1,15.05,0.));
#1271=CARTESIAN_POINT('Origin',(-10.,15.05,5.));
#1272=CARTESIAN_POINT('Origin',(-10.,15.05,5.));
#1273=CARTESIAN_POINT('Origin',(-0.999999999999996,15.05,20.));
#1274=CARTESIAN_POINT('',(-3.1,15.05,15.));
#1275=CARTESIAN_POINT('',(-3.1,15.05,20.));
#1276=CARTESIAN_POINT('Origin',(-0.999999999999996,15.05,15.));
#1277=CARTESIAN_POINT('Origin',(-0.999999999999996,15.05,15.));
#1278=CARTESIAN_POINT('Origin',(-10.,15.05,20.));
#1279=CARTESIAN_POINT('Origin',(-10.,15.05,15.));
#1280=CARTESIAN_POINT('Origin',(-10.,15.05,15.));
#1281=CARTESIAN_POINT('Origin',(2.5,11.05,0.));
#1282=CARTESIAN_POINT('',(2.5,11.05,0.));
#1283=CARTESIAN_POINT('',(2.5,19.05,0.));
#1284=CARTESIAN_POINT('',(2.5,11.05,0.));
#1285=CARTESIAN_POINT('',(2.5,19.05,0.));
#1286=CARTESIAN_POINT('',(2.5,11.05,0.));
#1287=CARTESIAN_POINT('Origin',(-13.5,11.05,0.));
#1288=CARTESIAN_POINT('',(-13.5,11.05,0.));
#1289=CARTESIAN_POINT('',(-13.5,11.05,0.));
#1290=CARTESIAN_POINT('',(-13.5,11.05,0.));
#1291=CARTESIAN_POINT('Origin',(-13.5,19.05,0.));
#1292=CARTESIAN_POINT('',(-13.5,19.05,0.));
#1293=CARTESIAN_POINT('',(-13.5,19.05,0.));
#1294=CARTESIAN_POINT('',(-13.5,19.05,0.));
#1295=CARTESIAN_POINT('Origin',(2.5,19.05,0.));
#1296=CARTESIAN_POINT('',(2.5,19.05,0.));
#1297=CARTESIAN_POINT('Origin',(-5.5,15.05,0.));
#1298=UNCERTAINTY_MEASURE_WITH_UNIT(LENGTH_MEASURE(0.01),#1302,
'DISTANCE_ACCURACY_VALUE',
'Maximum model space distance between geometric entities at asserted c
onnectivities');
#1299=UNCERTAINTY_MEASURE_WITH_UNIT(LENGTH_MEASURE(0.01),#1302,
'DISTANCE_ACCURACY_VALUE',
'Maximum model space distance between geometric entities at asserted c
onnectivities');
#1300=(
GEOMETRIC_REPRESENTATION_CONTEXT(3)
GLOBAL_UNCERTAINTY_ASSIGNED_CONTEXT((#1298))
GLOBAL_UNIT_ASSIGNED_CONTEXT((#1302,#1304,#1305))
REPRESENTATION_CONTEXT('','3D')
);
#1301=(
GEOMETRIC_REPRESENTATION_CONTEXT(3)
GLOBAL_UNCERTAINTY_ASSIGNED_CONTEXT((#1299))
GLOBAL_UNIT_ASSIGNED_CONTEXT((#1302,#1304,#1305))
REPRESENTATION_CONTEXT('','3D')
);
#1302=(
LENGTH_UNIT()
NAMED_UNIT(*)
SI_UNIT(.MILLI.,.METRE.)
);
#1303=(
LENGTH_UNIT()
NAMED_UNIT(*)
SI_UNIT(.CENTI.,.METRE.)
);
#1304=(
NAMED_UNIT(*)
PLANE_ANGLE_UNIT()
SI_UNIT($,.RADIAN.)
);
#1305=(
NAMED_UNIT(*)
SI_UNIT($,.STERADIAN.)
SOLID_ANGLE_UNIT()
);
#1306=SHAPE_DEFINITION_REPRESENTATION(#1307,#1308);
#1307=PRODUCT_DEFINITION_SHAPE('',$,#1310);
#1308=SHAPE_REPRESENTATION('',(#736),#1300);
#1309=PRODUCT_DEFINITION_CONTEXT('part definition',#1314,'design');
#1310=PRODUCT_DEFINITION('\X2\044104420435043D0430\X0\_\X2\043A0430044004350442043A0438\X0\',
'\X2\044104420435043D0430\X0\_\X2\043A0430044004350442043A0438\X0\',#1311,
#1309);
#1311=PRODUCT_DEFINITION_FORMATION('',$,#1316);
#1312=PRODUCT_RELATED_PRODUCT_CATEGORY('\X2\044104420435043D0430\X0\_\X2\043A0430044004350442043A0438\X0\',
'\X2\044104420435043D0430\X0\_\X2\043A0430044004350442043A0438\X0\',(#1316));
#1313=APPLICATION_PROTOCOL_DEFINITION('international standard',
'automotive_design',2009,#1314);
#1314=APPLICATION_CONTEXT(
'Core Data for Automotive Mechanical Design Process');
#1315=PRODUCT_CONTEXT('part definition',#1314,'mechanical');
#1316=PRODUCT('\X2\044104420435043D0430\X0\_\X2\043A0430044004350442043A0438\X0\',
'\X2\044104420435043D0430\X0\_\X2\043A0430044004350442043A0438\X0\',$,(#1315));
#1317=PRESENTATION_STYLE_ASSIGNMENT((#1318));
#1318=SURFACE_STYLE_USAGE(.BOTH.,#1321);
#1319=SURFACE_STYLE_RENDERING_WITH_PROPERTIES($,#1325,(#1320));
#1320=SURFACE_STYLE_TRANSPARENT(0.);
#1321=SURFACE_SIDE_STYLE('',(#1322,#1319));
#1322=SURFACE_STYLE_FILL_AREA(#1323);
#1323=FILL_AREA_STYLE('',(#1324));
#1324=FILL_AREA_STYLE_COLOUR('',#1325);
#1325=COLOUR_RGB('',0.180392156862745,0.541176470588235,0.341176470588235);
ENDSEC;
END-ISO-10303-21;
