ISO-10303-21;
HEADER;
/* Generated by software containing ST-Developer
 * from STEP Tools, Inc. (www.steptools.com) 
 */

FILE_DESCRIPTION(
/* description */ (''),
/* implementation_level */ '2;1');

FILE_NAME(
/* name */ '',
/* time_stamp */ '2026-03-03T09:42:49+03:00',
/* author */ ('ejenie'),
/* organization */ (''),
/* preprocessor_version */ 'ST-DEVELOPER v19.2',
/* originating_system */ 'Autodesk Inventor 2024',
/* authorisation */ '');

FILE_SCHEMA (('AUTOMOTIVE_DESIGN { 1 0 10303 214 3 1 1 }'));
ENDSEC;

DATA;
#10=MECHANICAL_DESIGN_GEOMETRIC_PRESENTATION_REPRESENTATION('',(#13),#499);
#11=SHAPE_REPRESENTATION_RELATIONSHIP('SRR','None',#506,#12);
#12=ADVANCED_BREP_SHAPE_REPRESENTATION('',(#14),#498);
#13=STYLED_ITEM('',(#515),#14);
#14=MANIFOLD_SOLID_BREP('\X2\04220432043504400434043E0435\X0\ \X2\04420435043B043E\X0\1',
#288);
#15=CYLINDRICAL_SURFACE('',#316,1.6);
#16=CYLINDRICAL_SURFACE('',#320,1.6);
#17=CYLINDRICAL_SURFACE('',#322,1.);
#18=CYLINDRICAL_SURFACE('',#329,1.6);
#19=CYLINDRICAL_SURFACE('',#331,1.6);
#20=FACE_BOUND('',#53,.T.);
#21=FACE_BOUND('',#54,.T.);
#22=FACE_BOUND('',#61,.T.);
#23=FACE_BOUND('',#62,.T.);
#24=FACE_BOUND('',#67,.T.);
#25=FACE_BOUND('',#68,.T.);
#26=FACE_BOUND('',#72,.T.);
#27=FACE_BOUND('',#73,.T.);
#28=PLANE('',#314);
#29=PLANE('',#325);
#30=PLANE('',#326);
#31=PLANE('',#333);
#32=PLANE('',#334);
#33=PLANE('',#335);
#34=PLANE('',#336);
#35=PLANE('',#337);
#36=FACE_OUTER_BOUND('',#51,.T.);
#37=FACE_OUTER_BOUND('',#52,.T.);
#38=FACE_OUTER_BOUND('',#55,.T.);
#39=FACE_OUTER_BOUND('',#56,.T.);
#40=FACE_OUTER_BOUND('',#57,.T.);
#41=FACE_OUTER_BOUND('',#58,.T.);
#42=FACE_OUTER_BOUND('',#59,.T.);
#43=FACE_OUTER_BOUND('',#60,.T.);
#44=FACE_OUTER_BOUND('',#63,.T.);
#45=FACE_OUTER_BOUND('',#64,.T.);
#46=FACE_OUTER_BOUND('',#65,.T.);
#47=FACE_OUTER_BOUND('',#66,.T.);
#48=FACE_OUTER_BOUND('',#69,.T.);
#49=FACE_OUTER_BOUND('',#70,.T.);
#50=FACE_OUTER_BOUND('',#71,.T.);
#51=EDGE_LOOP('',(#197,#198,#199,#200));
#52=EDGE_LOOP('',(#201,#202,#203,#204));
#53=EDGE_LOOP('',(#205));
#54=EDGE_LOOP('',(#206));
#55=EDGE_LOOP('',(#207,#208,#209,#210));
#56=EDGE_LOOP('',(#211,#212,#213,#214));
#57=EDGE_LOOP('',(#215,#216,#217,#218));
#58=EDGE_LOOP('',(#219,#220,#221,#222));
#59=EDGE_LOOP('',(#223,#224,#225,#226,#227,#228,#229));
#60=EDGE_LOOP('',(#230,#231,#232,#233));
#61=EDGE_LOOP('',(#234));
#62=EDGE_LOOP('',(#235));
#63=EDGE_LOOP('',(#236,#237,#238,#239));
#64=EDGE_LOOP('',(#240,#241,#242,#243));
#65=EDGE_LOOP('',(#244,#245,#246,#247));
#66=EDGE_LOOP('',(#248,#249,#250,#251));
#67=EDGE_LOOP('',(#252));
#68=EDGE_LOOP('',(#253));
#69=EDGE_LOOP('',(#254,#255,#256,#257));
#70=EDGE_LOOP('',(#258,#259,#260,#261,#262,#263,#264));
#71=EDGE_LOOP('',(#265,#266,#267,#268));
#72=EDGE_LOOP('',(#269));
#73=EDGE_LOOP('',(#270));
#74=LINE('',#424,#99);
#75=LINE('',#429,#100);
#76=LINE('',#431,#101);
#77=LINE('',#433,#102);
#78=LINE('',#434,#103);
#79=LINE('',#439,#104);
#80=LINE('',#443,#105);
#81=LINE('',#447,#106);
#82=LINE('',#454,#107);
#83=LINE('',#457,#108);
#84=LINE('',#460,#109);
#85=LINE('',#462,#110);
#86=LINE('',#463,#111);
#87=LINE('',#465,#112);
#88=LINE('',#466,#113);
#89=LINE('',#469,#114);
#90=LINE('',#470,#115);
#91=LINE('',#477,#116);
#92=LINE('',#481,#117);
#93=LINE('',#485,#118);
#94=LINE('',#486,#119);
#95=LINE('',#488,#120);
#96=LINE('',#491,#121);
#97=LINE('',#492,#122);
#98=LINE('',#494,#123);
#99=VECTOR('',#344,2.425);
#100=VECTOR('',#349,10.);
#101=VECTOR('',#350,10.);
#102=VECTOR('',#351,10.);
#103=VECTOR('',#352,10.);
#104=VECTOR('',#357,1.6);
#105=VECTOR('',#362,2.425);
#106=VECTOR('',#367,1.6);
#107=VECTOR('',#374,10.);
#108=VECTOR('',#377,10.);
#109=VECTOR('',#380,10.);
#110=VECTOR('',#381,10.);
#111=VECTOR('',#382,10.);
#112=VECTOR('',#383,10.);
#113=VECTOR('',#384,10.);
#114=VECTOR('',#387,10.);
#115=VECTOR('',#388,10.);
#116=VECTOR('',#395,1.6);
#117=VECTOR('',#400,1.6);
#118=VECTOR('',#405,10.);
#119=VECTOR('',#406,10.);
#120=VECTOR('',#409,10.);
#121=VECTOR('',#412,10.);
#122=VECTOR('',#413,10.);
#123=VECTOR('',#416,10.);
#124=CIRCLE('',#312,3.25);
#125=CIRCLE('',#313,1.6);
#126=CIRCLE('',#315,3.25);
#127=CIRCLE('',#317,1.6);
#128=CIRCLE('',#319,1.6);
#129=CIRCLE('',#321,1.6);
#130=CIRCLE('',#323,1.);
#131=CIRCLE('',#324,1.);
#132=CIRCLE('',#327,1.6);
#133=CIRCLE('',#328,1.6);
#134=CIRCLE('',#330,1.6);
#135=CIRCLE('',#332,1.6);
#136=VERTEX_POINT('',#421);
#137=VERTEX_POINT('',#423);
#138=VERTEX_POINT('',#427);
#139=VERTEX_POINT('',#428);
#140=VERTEX_POINT('',#430);
#141=VERTEX_POINT('',#432);
#142=VERTEX_POINT('',#435);
#143=VERTEX_POINT('',#438);
#144=VERTEX_POINT('',#442);
#145=VERTEX_POINT('',#446);
#146=VERTEX_POINT('',#450);
#147=VERTEX_POINT('',#451);
#148=VERTEX_POINT('',#453);
#149=VERTEX_POINT('',#455);
#150=VERTEX_POINT('',#459);
#151=VERTEX_POINT('',#461);
#152=VERTEX_POINT('',#464);
#153=VERTEX_POINT('',#468);
#154=VERTEX_POINT('',#471);
#155=VERTEX_POINT('',#473);
#156=VERTEX_POINT('',#476);
#157=VERTEX_POINT('',#480);
#158=VERTEX_POINT('',#484);
#159=VERTEX_POINT('',#490);
#160=EDGE_CURVE('',#136,#136,#124,.T.);
#161=EDGE_CURVE('',#136,#137,#74,.T.);
#162=EDGE_CURVE('',#137,#137,#125,.T.);
#163=EDGE_CURVE('',#138,#139,#75,.T.);
#164=EDGE_CURVE('',#139,#140,#76,.T.);
#165=EDGE_CURVE('',#140,#141,#77,.T.);
#166=EDGE_CURVE('',#141,#138,#78,.T.);
#167=EDGE_CURVE('',#142,#142,#126,.T.);
#168=EDGE_CURVE('',#137,#143,#79,.T.);
#169=EDGE_CURVE('',#143,#143,#127,.T.);
#170=EDGE_CURVE('',#142,#144,#80,.T.);
#171=EDGE_CURVE('',#144,#144,#128,.T.);
#172=EDGE_CURVE('',#144,#145,#81,.T.);
#173=EDGE_CURVE('',#145,#145,#129,.T.);
#174=EDGE_CURVE('',#146,#147,#130,.T.);
#175=EDGE_CURVE('',#147,#148,#82,.T.);
#176=EDGE_CURVE('',#148,#149,#131,.T.);
#177=EDGE_CURVE('',#149,#146,#83,.T.);
#178=EDGE_CURVE('',#150,#148,#84,.T.);
#179=EDGE_CURVE('',#151,#150,#85,.T.);
#180=EDGE_CURVE('',#151,#141,#86,.T.);
#181=EDGE_CURVE('',#152,#140,#87,.T.);
#182=EDGE_CURVE('',#152,#149,#88,.T.);
#183=EDGE_CURVE('',#147,#153,#89,.T.);
#184=EDGE_CURVE('',#153,#150,#90,.T.);
#185=EDGE_CURVE('',#154,#154,#132,.T.);
#186=EDGE_CURVE('',#155,#155,#133,.T.);
#187=EDGE_CURVE('',#154,#156,#91,.T.);
#188=EDGE_CURVE('',#156,#156,#134,.T.);
#189=EDGE_CURVE('',#155,#157,#92,.T.);
#190=EDGE_CURVE('',#157,#157,#135,.T.);
#191=EDGE_CURVE('',#158,#151,#93,.T.);
#192=EDGE_CURVE('',#158,#153,#94,.T.);
#193=EDGE_CURVE('',#138,#158,#95,.T.);
#194=EDGE_CURVE('',#159,#152,#96,.T.);
#195=EDGE_CURVE('',#159,#139,#97,.T.);
#196=EDGE_CURVE('',#146,#159,#98,.T.);
#197=ORIENTED_EDGE('',*,*,#160,.T.);
#198=ORIENTED_EDGE('',*,*,#161,.T.);
#199=ORIENTED_EDGE('',*,*,#162,.T.);
#200=ORIENTED_EDGE('',*,*,#161,.F.);
#201=ORIENTED_EDGE('',*,*,#163,.T.);
#202=ORIENTED_EDGE('',*,*,#164,.T.);
#203=ORIENTED_EDGE('',*,*,#165,.T.);
#204=ORIENTED_EDGE('',*,*,#166,.T.);
#205=ORIENTED_EDGE('',*,*,#167,.F.);
#206=ORIENTED_EDGE('',*,*,#160,.F.);
#207=ORIENTED_EDGE('',*,*,#162,.F.);
#208=ORIENTED_EDGE('',*,*,#168,.T.);
#209=ORIENTED_EDGE('',*,*,#169,.T.);
#210=ORIENTED_EDGE('',*,*,#168,.F.);
#211=ORIENTED_EDGE('',*,*,#167,.T.);
#212=ORIENTED_EDGE('',*,*,#170,.T.);
#213=ORIENTED_EDGE('',*,*,#171,.T.);
#214=ORIENTED_EDGE('',*,*,#170,.F.);
#215=ORIENTED_EDGE('',*,*,#171,.F.);
#216=ORIENTED_EDGE('',*,*,#172,.T.);
#217=ORIENTED_EDGE('',*,*,#173,.T.);
#218=ORIENTED_EDGE('',*,*,#172,.F.);
#219=ORIENTED_EDGE('',*,*,#174,.T.);
#220=ORIENTED_EDGE('',*,*,#175,.T.);
#221=ORIENTED_EDGE('',*,*,#176,.T.);
#222=ORIENTED_EDGE('',*,*,#177,.T.);
#223=ORIENTED_EDGE('',*,*,#176,.F.);
#224=ORIENTED_EDGE('',*,*,#178,.F.);
#225=ORIENTED_EDGE('',*,*,#179,.F.);
#226=ORIENTED_EDGE('',*,*,#180,.T.);
#227=ORIENTED_EDGE('',*,*,#165,.F.);
#228=ORIENTED_EDGE('',*,*,#181,.F.);
#229=ORIENTED_EDGE('',*,*,#182,.T.);
#230=ORIENTED_EDGE('',*,*,#175,.F.);
#231=ORIENTED_EDGE('',*,*,#183,.T.);
#232=ORIENTED_EDGE('',*,*,#184,.T.);
#233=ORIENTED_EDGE('',*,*,#178,.T.);
#234=ORIENTED_EDGE('',*,*,#185,.T.);
#235=ORIENTED_EDGE('',*,*,#186,.T.);
#236=ORIENTED_EDGE('',*,*,#185,.F.);
#237=ORIENTED_EDGE('',*,*,#187,.T.);
#238=ORIENTED_EDGE('',*,*,#188,.T.);
#239=ORIENTED_EDGE('',*,*,#187,.F.);
#240=ORIENTED_EDGE('',*,*,#186,.F.);
#241=ORIENTED_EDGE('',*,*,#189,.T.);
#242=ORIENTED_EDGE('',*,*,#190,.T.);
#243=ORIENTED_EDGE('',*,*,#189,.F.);
#244=ORIENTED_EDGE('',*,*,#191,.T.);
#245=ORIENTED_EDGE('',*,*,#179,.T.);
#246=ORIENTED_EDGE('',*,*,#184,.F.);
#247=ORIENTED_EDGE('',*,*,#192,.F.);
#248=ORIENTED_EDGE('',*,*,#166,.F.);
#249=ORIENTED_EDGE('',*,*,#180,.F.);
#250=ORIENTED_EDGE('',*,*,#191,.F.);
#251=ORIENTED_EDGE('',*,*,#193,.F.);
#252=ORIENTED_EDGE('',*,*,#190,.F.);
#253=ORIENTED_EDGE('',*,*,#188,.F.);
#254=ORIENTED_EDGE('',*,*,#194,.T.);
#255=ORIENTED_EDGE('',*,*,#181,.T.);
#256=ORIENTED_EDGE('',*,*,#164,.F.);
#257=ORIENTED_EDGE('',*,*,#195,.F.);
#258=ORIENTED_EDGE('',*,*,#174,.F.);
#259=ORIENTED_EDGE('',*,*,#196,.T.);
#260=ORIENTED_EDGE('',*,*,#195,.T.);
#261=ORIENTED_EDGE('',*,*,#163,.F.);
#262=ORIENTED_EDGE('',*,*,#193,.T.);
#263=ORIENTED_EDGE('',*,*,#192,.T.);
#264=ORIENTED_EDGE('',*,*,#183,.F.);
#265=ORIENTED_EDGE('',*,*,#177,.F.);
#266=ORIENTED_EDGE('',*,*,#182,.F.);
#267=ORIENTED_EDGE('',*,*,#194,.F.);
#268=ORIENTED_EDGE('',*,*,#196,.F.);
#269=ORIENTED_EDGE('',*,*,#169,.F.);
#270=ORIENTED_EDGE('',*,*,#173,.F.);
#271=CONICAL_SURFACE('',#311,2.425,0.785398163397448);
#272=CONICAL_SURFACE('',#318,2.425,0.785398163397448);
#273=ADVANCED_FACE('',(#36),#271,.F.);
#274=ADVANCED_FACE('',(#37,#20,#21),#28,.T.);
#275=ADVANCED_FACE('',(#38),#15,.F.);
#276=ADVANCED_FACE('',(#39),#272,.F.);
#277=ADVANCED_FACE('',(#40),#16,.F.);
#278=ADVANCED_FACE('',(#41),#17,.T.);
#279=ADVANCED_FACE('',(#42),#29,.T.);
#280=ADVANCED_FACE('',(#43,#22,#23),#30,.T.);
#281=ADVANCED_FACE('',(#44),#18,.F.);
#282=ADVANCED_FACE('',(#45),#19,.F.);
#283=ADVANCED_FACE('',(#46),#31,.T.);
#284=ADVANCED_FACE('',(#47,#24,#25),#32,.F.);
#285=ADVANCED_FACE('',(#48),#33,.T.);
#286=ADVANCED_FACE('',(#49),#34,.T.);
#287=ADVANCED_FACE('',(#50,#26,#27),#35,.F.);
#288=CLOSED_SHELL('',(#273,#274,#275,#276,#277,#278,#279,#280,#281,#282,
#283,#284,#285,#286,#287));
#289=DERIVED_UNIT_ELEMENT(#292,1.);
#290=DERIVED_UNIT_ELEMENT(#501,-3.);
#291=DIMENSIONAL_EXPONENTS(0.,1.,0.,0.,0.,0.,0.);
#292=(
CONVERSION_BASED_UNIT('gram',#294)
MASS_UNIT()
NAMED_UNIT(#291)
);
#293=(
MASS_UNIT()
NAMED_UNIT(*)
SI_UNIT(.KILO.,.GRAM.)
);
#294=MASS_MEASURE_WITH_UNIT(MASS_MEASURE(0.001),#293);
#295=DERIVED_UNIT((#289,#290));
#296=MEASURE_REPRESENTATION_ITEM('density measure',
POSITIVE_RATIO_MEASURE(1.),#295);
#297=PROPERTY_DEFINITION_REPRESENTATION(#302,#299);
#298=PROPERTY_DEFINITION_REPRESENTATION(#303,#300);
#299=REPRESENTATION('material name',(#301),#498);
#300=REPRESENTATION('density',(#296),#498);
#301=DESCRIPTIVE_REPRESENTATION_ITEM('\X2\04220438043F043E0432044B0435\X0\',
'\X2\04220438043F043E0432044B0435\X0\');
#302=PROPERTY_DEFINITION('material property','material name',#508);
#303=PROPERTY_DEFINITION('material property','density of part',#508);
#304=DATE_TIME_ROLE('creation_date');
#305=APPLIED_DATE_AND_TIME_ASSIGNMENT(#306,#304,(#508));
#306=DATE_AND_TIME(#307,#308);
#307=CALENDAR_DATE(2026,3,3);
#308=LOCAL_TIME(0,0,0.,#309);
#309=COORDINATED_UNIVERSAL_TIME_OFFSET(0,0,.BEHIND.);
#310=AXIS2_PLACEMENT_3D('',#419,#338,#339);
#311=AXIS2_PLACEMENT_3D('',#420,#340,#341);
#312=AXIS2_PLACEMENT_3D('',#422,#342,#343);
#313=AXIS2_PLACEMENT_3D('',#425,#345,#346);
#314=AXIS2_PLACEMENT_3D('',#426,#347,#348);
#315=AXIS2_PLACEMENT_3D('',#436,#353,#354);
#316=AXIS2_PLACEMENT_3D('',#437,#355,#356);
#317=AXIS2_PLACEMENT_3D('',#440,#358,#359);
#318=AXIS2_PLACEMENT_3D('',#441,#360,#361);
#319=AXIS2_PLACEMENT_3D('',#444,#363,#364);
#320=AXIS2_PLACEMENT_3D('',#445,#365,#366);
#321=AXIS2_PLACEMENT_3D('',#448,#368,#369);
#322=AXIS2_PLACEMENT_3D('',#449,#370,#371);
#323=AXIS2_PLACEMENT_3D('',#452,#372,#373);
#324=AXIS2_PLACEMENT_3D('',#456,#375,#376);
#325=AXIS2_PLACEMENT_3D('',#458,#378,#379);
#326=AXIS2_PLACEMENT_3D('',#467,#385,#386);
#327=AXIS2_PLACEMENT_3D('',#472,#389,#390);
#328=AXIS2_PLACEMENT_3D('',#474,#391,#392);
#329=AXIS2_PLACEMENT_3D('',#475,#393,#394);
#330=AXIS2_PLACEMENT_3D('',#478,#396,#397);
#331=AXIS2_PLACEMENT_3D('',#479,#398,#399);
#332=AXIS2_PLACEMENT_3D('',#482,#401,#402);
#333=AXIS2_PLACEMENT_3D('',#483,#403,#404);
#334=AXIS2_PLACEMENT_3D('',#487,#407,#408);
#335=AXIS2_PLACEMENT_3D('',#489,#410,#411);
#336=AXIS2_PLACEMENT_3D('',#493,#414,#415);
#337=AXIS2_PLACEMENT_3D('',#495,#417,#418);
#338=DIRECTION('axis',(0.,0.,1.));
#339=DIRECTION('refdir',(1.,0.,0.));
#340=DIRECTION('center_axis',(0.,1.,0.));
#341=DIRECTION('ref_axis',(1.,0.,0.));
#342=DIRECTION('center_axis',(0.,1.,0.));
#343=DIRECTION('ref_axis',(1.,0.,0.));
#344=DIRECTION('',(0.707106781186547,-0.707106781186547,-8.65956056235493E-17));
#345=DIRECTION('center_axis',(0.,-1.,0.));
#346=DIRECTION('ref_axis',(1.,0.,0.));
#347=DIRECTION('center_axis',(0.,1.,0.));
#348=DIRECTION('ref_axis',(0.,0.,1.));
#349=DIRECTION('',(-1.,0.,2.77555756156289E-16));
#350=DIRECTION('',(3.12250225675825E-16,0.,1.));
#351=DIRECTION('',(1.,0.,-2.77555756156289E-16));
#352=DIRECTION('',(-3.12250225675825E-16,0.,-1.));
#353=DIRECTION('center_axis',(0.,1.,0.));
#354=DIRECTION('ref_axis',(1.,0.,0.));
#355=DIRECTION('center_axis',(0.,1.,0.));
#356=DIRECTION('ref_axis',(1.,0.,0.));
#357=DIRECTION('',(0.,-1.,0.));
#358=DIRECTION('center_axis',(0.,-1.,0.));
#359=DIRECTION('ref_axis',(1.,0.,0.));
#360=DIRECTION('center_axis',(0.,1.,0.));
#361=DIRECTION('ref_axis',(1.,0.,0.));
#362=DIRECTION('',(0.707106781186548,-0.707106781186548,-8.65956056235493E-17));
#363=DIRECTION('center_axis',(0.,-1.,0.));
#364=DIRECTION('ref_axis',(1.,0.,0.));
#365=DIRECTION('center_axis',(0.,1.,0.));
#366=DIRECTION('ref_axis',(1.,0.,0.));
#367=DIRECTION('',(0.,-1.,0.));
#368=DIRECTION('center_axis',(0.,-1.,0.));
#369=DIRECTION('ref_axis',(1.,0.,0.));
#370=DIRECTION('center_axis',(-3.12250225675825E-16,0.,-1.));
#371=DIRECTION('ref_axis',(0.707106781186548,-0.707106781186547,-2.20794252002406E-16));
#372=DIRECTION('center_axis',(2.77555756156289E-16,0.,1.));
#373=DIRECTION('ref_axis',(0.707106781186548,-0.707106781186547,-2.20794252002406E-16));
#374=DIRECTION('',(3.12250225675825E-16,0.,1.));
#375=DIRECTION('center_axis',(-2.77555756156289E-16,0.,-1.));
#376=DIRECTION('ref_axis',(0.707106781186548,-0.707106781186547,-2.20794252002406E-16));
#377=DIRECTION('',(-3.12250225675825E-16,0.,-1.));
#378=DIRECTION('center_axis',(2.77555756156289E-16,0.,1.));
#379=DIRECTION('ref_axis',(1.,0.,-2.77555756156289E-16));
#380=DIRECTION('',(-9.55990598517345E-32,-1.,-3.06161699786838E-16));
#381=DIRECTION('',(1.,0.,-3.70074341541719E-16));
#382=DIRECTION('',(-9.55990598517345E-32,-1.,-3.06161699786838E-16));
#383=DIRECTION('',(0.,1.,0.));
#384=DIRECTION('',(1.,0.,-2.77555756156289E-16));
#385=DIRECTION('center_axis',(1.,0.,-3.12250225675825E-16));
#386=DIRECTION('ref_axis',(-3.12250225675825E-16,0.,-1.));
#387=DIRECTION('',(0.,1.,0.));
#388=DIRECTION('',(3.12250225675825E-16,-1.38777878078145E-16,1.));
#389=DIRECTION('center_axis',(-1.,0.,3.12250225675825E-16));
#390=DIRECTION('ref_axis',(3.12250225675825E-16,0.,1.));
#391=DIRECTION('center_axis',(-1.,0.,3.12250225675825E-16));
#392=DIRECTION('ref_axis',(3.12250225675825E-16,0.,1.));
#393=DIRECTION('center_axis',(1.,0.,-3.70074341541719E-16));
#394=DIRECTION('ref_axis',(3.70074341541719E-16,0.,1.));
#395=DIRECTION('',(-1.,0.,3.70074341541719E-16));
#396=DIRECTION('center_axis',(-1.,0.,3.12250225675825E-16));
#397=DIRECTION('ref_axis',(3.12250225675825E-16,0.,1.));
#398=DIRECTION('center_axis',(1.,0.,-3.70074341541719E-16));
#399=DIRECTION('ref_axis',(3.70074341541719E-16,0.,1.));
#400=DIRECTION('',(-1.,0.,3.70074341541719E-16));
#401=DIRECTION('center_axis',(-1.,0.,3.12250225675825E-16));
#402=DIRECTION('ref_axis',(3.12250225675825E-16,0.,1.));
#403=DIRECTION('center_axis',(5.13581318503263E-32,1.,1.38777878078145E-16));
#404=DIRECTION('ref_axis',(3.12250225675825E-16,-1.38777878078145E-16,1.));
#405=DIRECTION('',(3.12250225675825E-16,-1.38777878078145E-16,1.));
#406=DIRECTION('',(1.,0.,-3.70074341541719E-16));
#407=DIRECTION('center_axis',(1.,0.,-3.12250225675825E-16));
#408=DIRECTION('ref_axis',(-3.12250225675825E-16,0.,-1.));
#409=DIRECTION('',(0.,1.,0.));
#410=DIRECTION('center_axis',(-1.,0.,3.12250225675825E-16));
#411=DIRECTION('ref_axis',(3.12250225675825E-16,0.,1.));
#412=DIRECTION('',(3.12250225675825E-16,0.,1.));
#413=DIRECTION('',(0.,1.,0.));
#414=DIRECTION('center_axis',(-2.77555756156289E-16,0.,-1.));
#415=DIRECTION('ref_axis',(-1.,0.,2.77555756156289E-16));
#416=DIRECTION('',(-1.,0.,2.77555756156289E-16));
#417=DIRECTION('center_axis',(0.,1.,0.));
#418=DIRECTION('ref_axis',(0.,0.,1.));
#419=CARTESIAN_POINT('',(0.,0.,0.));
#420=CARTESIAN_POINT('Origin',(1.95943487863577E-15,2.175,4.));
#421=CARTESIAN_POINT('',(-3.25,3.,4.));
#422=CARTESIAN_POINT('Origin',(1.95943487863577E-15,3.,4.));
#423=CARTESIAN_POINT('',(-1.6,1.35,4.));
#424=CARTESIAN_POINT('',(-2.425,2.175,4.));
#425=CARTESIAN_POINT('Origin',(1.95943487863577E-15,1.35,4.));
#426=CARTESIAN_POINT('Origin',(0.,3.,0.));
#427=CARTESIAN_POINT('',(4.,3.,-8.));
#428=CARTESIAN_POINT('',(-4.,3.,-8.));
#429=CARTESIAN_POINT('',(4.,3.,-8.));
#430=CARTESIAN_POINT('',(-4.,3.,8.));
#431=CARTESIAN_POINT('',(-4.,3.,-8.));
#432=CARTESIAN_POINT('',(4.,3.,8.));
#433=CARTESIAN_POINT('',(-4.,3.,8.));
#434=CARTESIAN_POINT('',(4.,3.,8.));
#435=CARTESIAN_POINT('',(-3.25,3.,-4.));
#436=CARTESIAN_POINT('Origin',(-4.89858719658941E-16,3.,-4.));
#437=CARTESIAN_POINT('Origin',(1.95943487863577E-15,0.,4.));
#438=CARTESIAN_POINT('',(-1.6,0.,4.));
#439=CARTESIAN_POINT('',(-1.6,0.,4.));
#440=CARTESIAN_POINT('Origin',(1.95943487863577E-15,0.,4.));
#441=CARTESIAN_POINT('Origin',(-4.89858719658941E-16,2.175,-4.));
#442=CARTESIAN_POINT('',(-1.6,1.35,-4.));
#443=CARTESIAN_POINT('',(-2.425,2.175,-4.));
#444=CARTESIAN_POINT('Origin',(-4.89858719658941E-16,1.35,-4.));
#445=CARTESIAN_POINT('Origin',(-4.89858719658941E-16,0.,-4.));
#446=CARTESIAN_POINT('',(-1.6,0.,-4.));
#447=CARTESIAN_POINT('',(-1.6,0.,-4.));
#448=CARTESIAN_POINT('Origin',(-4.89858719658941E-16,0.,-4.));
#449=CARTESIAN_POINT('Origin',(6.,1.,-7.80625564189563E-16));
#450=CARTESIAN_POINT('',(6.,0.,-8.));
#451=CARTESIAN_POINT('',(7.,1.,-8.));
#452=CARTESIAN_POINT('Origin',(6.,1.,-8.));
#453=CARTESIAN_POINT('',(7.,1.,8.));
#454=CARTESIAN_POINT('',(7.,1.,-1.09287578986539E-15));
#455=CARTESIAN_POINT('',(6.,0.,8.));
#456=CARTESIAN_POINT('Origin',(6.,1.,8.));
#457=CARTESIAN_POINT('',(6.,0.,-7.80625564189563E-16));
#458=CARTESIAN_POINT('Origin',(-4.,0.,8.));
#459=CARTESIAN_POINT('',(7.,13.,8.));
#460=CARTESIAN_POINT('',(7.,13.,8.));
#461=CARTESIAN_POINT('',(4.,13.,8.));
#462=CARTESIAN_POINT('',(4.,13.,8.));
#463=CARTESIAN_POINT('',(4.,13.,8.));
#464=CARTESIAN_POINT('',(-4.,0.,8.));
#465=CARTESIAN_POINT('',(-4.,0.,8.));
#466=CARTESIAN_POINT('',(-4.,0.,8.));
#467=CARTESIAN_POINT('Origin',(7.,8.,0.));
#468=CARTESIAN_POINT('',(7.,13.,-8.));
#469=CARTESIAN_POINT('',(7.,0.,-8.));
#470=CARTESIAN_POINT('',(7.,13.,-8.));
#471=CARTESIAN_POINT('',(7.,9.,-5.7312360393279));
#472=CARTESIAN_POINT('Origin',(7.,9.,-4.1312360393279));
#473=CARTESIAN_POINT('',(7.,9.,2.2687639606721));
#474=CARTESIAN_POINT('Origin',(7.,9.,3.8687639606721));
#475=CARTESIAN_POINT('Origin',(4.,9.,-4.1312360393279));
#476=CARTESIAN_POINT('',(4.,9.,-5.7312360393279));
#477=CARTESIAN_POINT('',(4.,9.,-5.7312360393279));
#478=CARTESIAN_POINT('Origin',(4.,9.,-4.1312360393279));
#479=CARTESIAN_POINT('Origin',(4.,9.,3.8687639606721));
#480=CARTESIAN_POINT('',(4.,9.,2.2687639606721));
#481=CARTESIAN_POINT('',(4.,9.,2.2687639606721));
#482=CARTESIAN_POINT('Origin',(4.,9.,3.8687639606721));
#483=CARTESIAN_POINT('Origin',(4.,13.,-8.));
#484=CARTESIAN_POINT('',(4.,13.,-8.));
#485=CARTESIAN_POINT('',(4.,13.,-8.));
#486=CARTESIAN_POINT('',(4.,13.,-8.));
#487=CARTESIAN_POINT('Origin',(4.,8.,1.11022302462516E-15));
#488=CARTESIAN_POINT('',(4.,0.,-8.));
#489=CARTESIAN_POINT('Origin',(-4.,0.,-8.));
#490=CARTESIAN_POINT('',(-4.,0.,-8.));
#491=CARTESIAN_POINT('',(-4.,0.,-8.));
#492=CARTESIAN_POINT('',(-4.,0.,-8.));
#493=CARTESIAN_POINT('Origin',(4.,0.,-8.));
#494=CARTESIAN_POINT('',(4.,0.,-8.));
#495=CARTESIAN_POINT('Origin',(0.,0.,0.));
#496=UNCERTAINTY_MEASURE_WITH_UNIT(LENGTH_MEASURE(0.01),#500,
'DISTANCE_ACCURACY_VALUE',
'Maximum model space distance between geometric entities at asserted c
onnectivities');
#497=UNCERTAINTY_MEASURE_WITH_UNIT(LENGTH_MEASURE(0.01),#500,
'DISTANCE_ACCURACY_VALUE',
'Maximum model space distance between geometric entities at asserted c
onnectivities');
#498=(
GEOMETRIC_REPRESENTATION_CONTEXT(3)
GLOBAL_UNCERTAINTY_ASSIGNED_CONTEXT((#496))
GLOBAL_UNIT_ASSIGNED_CONTEXT((#500,#502,#503))
REPRESENTATION_CONTEXT('','3D')
);
#499=(
GEOMETRIC_REPRESENTATION_CONTEXT(3)
GLOBAL_UNCERTAINTY_ASSIGNED_CONTEXT((#497))
GLOBAL_UNIT_ASSIGNED_CONTEXT((#500,#502,#503))
REPRESENTATION_CONTEXT('','3D')
);
#500=(
LENGTH_UNIT()
NAMED_UNIT(*)
SI_UNIT(.MILLI.,.METRE.)
);
#501=(
LENGTH_UNIT()
NAMED_UNIT(*)
SI_UNIT(.CENTI.,.METRE.)
);
#502=(
NAMED_UNIT(*)
PLANE_ANGLE_UNIT()
SI_UNIT($,.RADIAN.)
);
#503=(
NAMED_UNIT(*)
SI_UNIT($,.STERADIAN.)
SOLID_ANGLE_UNIT()
);
#504=SHAPE_DEFINITION_REPRESENTATION(#505,#506);
#505=PRODUCT_DEFINITION_SHAPE('',$,#508);
#506=SHAPE_REPRESENTATION('',(#310),#498);
#507=PRODUCT_DEFINITION_CONTEXT('part definition',#512,'design');
#508=PRODUCT_DEFINITION('\X2\0414043504420430043B044C\X0\1',
'\X2\0414043504420430043B044C\X0\1',#509,#507);
#509=PRODUCT_DEFINITION_FORMATION('',$,#514);
#510=PRODUCT_RELATED_PRODUCT_CATEGORY('\X2\0414043504420430043B044C\X0\1',
'\X2\0414043504420430043B044C\X0\1',(#514));
#511=APPLICATION_PROTOCOL_DEFINITION('international standard',
'automotive_design',2009,#512);
#512=APPLICATION_CONTEXT(
'Core Data for Automotive Mechanical Design Process');
#513=PRODUCT_CONTEXT('part definition',#512,'mechanical');
#514=PRODUCT('\X2\0414043504420430043B044C\X0\1','\X2\0414043504420430043B044C\X0\1',
$,(#513));
#515=PRESENTATION_STYLE_ASSIGNMENT((#516));
#516=SURFACE_STYLE_USAGE(.BOTH.,#519);
#517=SURFACE_STYLE_RENDERING_WITH_PROPERTIES($,#523,(#518));
#518=SURFACE_STYLE_TRANSPARENT(0.);
#519=SURFACE_SIDE_STYLE('',(#520,#517));
#520=SURFACE_STYLE_FILL_AREA(#521);
#521=FILL_AREA_STYLE('',(#522));
#522=FILL_AREA_STYLE_COLOUR('',#523);
#523=COLOUR_RGB('',0.749019607843137,0.749019607843137,0.749019607843137);
ENDSEC;
END-ISO-10303-21;
