ISO-10303-21;
HEADER;
/* Generated by software containing ST-Developer
 * from STEP Tools, Inc. (www.steptools.com) 
 */

FILE_DESCRIPTION(
/* description */ (''),
/* implementation_level */ '2;1');

FILE_NAME(
/* name */ '',
/* time_stamp */ '2026-02-19T22:28:40+03:00',
/* author */ ('DELL'),
/* organization */ (''),
/* preprocessor_version */ 'ST-DEVELOPER v19.2',
/* originating_system */ 'Autodesk Inventor 2023',
/* authorisation */ '');

FILE_SCHEMA (('AUTOMOTIVE_DESIGN { 1 0 10303 214 3 1 1 }'));
ENDSEC;

DATA;
#10=MECHANICAL_DESIGN_GEOMETRIC_PRESENTATION_REPRESENTATION('',(#13),#1547);
#11=SHAPE_REPRESENTATION_RELATIONSHIP('SRR','None',#1554,#12);
#12=ADVANCED_BREP_SHAPE_REPRESENTATION('',(#14),#1546);
#13=STYLED_ITEM('',(#1563),#14);
#14=MANIFOLD_SOLID_BREP('\X2\04220432043504400434043E0435\X0\ \X2\04420435043B043E\X0\1',
#746);
#15=ELLIPSE('',#803,2.82842712474619,2.);
#16=ELLIPSE('',#804,2.82842712474619,2.);
#17=ELLIPSE('',#806,2.82842712474619,2.);
#18=ELLIPSE('',#808,2.82842712474619,2.);
#19=B_SPLINE_SURFACE_WITH_KNOTS('',3,3,((#1162,#1163,#1164,#1165,#1166,
#1167,#1168,#1169,#1170,#1171),(#1172,#1173,#1174,#1175,#1176,#1177,#1178,
#1179,#1180,#1181),(#1182,#1183,#1184,#1185,#1186,#1187,#1188,#1189,#1190,
#1191),(#1192,#1193,#1194,#1195,#1196,#1197,#1198,#1199,#1200,#1201),(#1202,
#1203,#1204,#1205,#1206,#1207,#1208,#1209,#1210,#1211)),.UNSPECIFIED.,.F.,
 .F.,.F.,(4,1,4),(4,2,1,1,1,1,4),(0.,0.571428571428571,1.),(-0.00132108965141275,
0.,0.148810737265832,0.297621474531664,0.446432211797496,0.595242949063328,
0.74405368632916),.UNSPECIFIED.);
#20=B_SPLINE_SURFACE_WITH_KNOTS('',3,3,((#1224,#1225,#1226,#1227,#1228,
#1229,#1230,#1231,#1232,#1233,#1234,#1235),(#1236,#1237,#1238,#1239,#1240,
#1241,#1242,#1243,#1244,#1245,#1246,#1247),(#1248,#1249,#1250,#1251,#1252,
#1253,#1254,#1255,#1256,#1257,#1258,#1259),(#1260,#1261,#1262,#1263,#1264,
#1265,#1266,#1267,#1268,#1269,#1270,#1271),(#1272,#1273,#1274,#1275,#1276,
#1277,#1278,#1279,#1280,#1281,#1282,#1283)),.UNSPECIFIED.,.F.,.F.,.F.,(4,
1,4),(4,1,1,1,1,1,1,2,4),(0.,0.571428571428571,1.),(1.72783754832796,1.87664828559379,
1.95105365422671,2.02545902285963,2.09986439149254,2.17426976012546,2.32308049739129,
2.47189123465712,2.47321232430854),.UNSPECIFIED.);
#21=B_SPLINE_SURFACE_WITH_KNOTS('',3,3,((#1306,#1307,#1308,#1309,#1310,
#1311,#1312,#1313),(#1314,#1315,#1316,#1317,#1318,#1319,#1320,#1321),(#1322,
#1323,#1324,#1325,#1326,#1327,#1328,#1329),(#1330,#1331,#1332,#1333,#1334,
#1335,#1336,#1337),(#1338,#1339,#1340,#1341,#1342,#1343,#1344,#1345)),
 .UNSPECIFIED.,.F.,.F.,.F.,(4,1,4),(4,2,1,1,4),(0.,0.571428571428571,1.),
(-0.00132108965141301,0.,0.446432211797496,0.595242949063328,0.744053686329159),
 .UNSPECIFIED.);
#22=B_SPLINE_SURFACE_WITH_KNOTS('',3,3,((#1354,#1355,#1356,#1357,#1358,
#1359,#1360,#1361,#1362,#1363,#1364,#1365),(#1366,#1367,#1368,#1369,#1370,
#1371,#1372,#1373,#1374,#1375,#1376,#1377),(#1378,#1379,#1380,#1381,#1382,
#1383,#1384,#1385,#1386,#1387,#1388,#1389),(#1390,#1391,#1392,#1393,#1394,
#1395,#1396,#1397,#1398,#1399,#1400,#1401),(#1402,#1403,#1404,#1405,#1406,
#1407,#1408,#1409,#1410,#1411,#1412,#1413)),.UNSPECIFIED.,.F.,.F.,.F.,(4,
1,4),(4,1,1,1,1,1,1,2,4),(0.,0.571428571428571,1.),(1.72783754832796,2.02545902285963,
2.09986439149254,2.17426976012546,2.24867512875838,2.32308049739129,2.39748586602421,
2.47189123465712,2.47321232430854),.UNSPECIFIED.);
#23=TOROIDAL_SURFACE('',#786,7.,3.);
#24=TOROIDAL_SURFACE('',#791,7.,3.);
#25=FACE_BOUND('',#108,.T.);
#26=FACE_BOUND('',#113,.T.);
#27=FACE_BOUND('',#123,.T.);
#28=FACE_BOUND('',#130,.T.);
#29=FACE_BOUND('',#131,.T.);
#30=FACE_BOUND('',#132,.T.);
#31=FACE_BOUND('',#133,.T.);
#32=FACE_BOUND('',#134,.T.);
#33=FACE_BOUND('',#135,.T.);
#34=FACE_BOUND('',#136,.T.);
#35=FACE_BOUND('',#137,.T.);
#36=FACE_BOUND('',#138,.T.);
#37=FACE_BOUND('',#140,.T.);
#38=FACE_BOUND('',#145,.T.);
#39=FACE_BOUND('',#159,.T.);
#40=FACE_BOUND('',#160,.T.);
#41=FACE_BOUND('',#161,.T.);
#42=FACE_BOUND('',#162,.T.);
#43=FACE_BOUND('',#163,.T.);
#44=FACE_BOUND('',#164,.T.);
#45=FACE_BOUND('',#165,.T.);
#46=FACE_BOUND('',#166,.T.);
#47=PLANE('',#774);
#48=PLANE('',#775);
#49=PLANE('',#781);
#50=PLANE('',#785);
#51=PLANE('',#797);
#52=PLANE('',#800);
#53=PLANE('',#801);
#54=PLANE('',#810);
#55=PLANE('',#821);
#56=PLANE('',#824);
#57=PLANE('',#825);
#58=PLANE('',#842);
#59=PLANE('',#843);
#60=PLANE('',#844);
#61=PLANE('',#845);
#62=PLANE('',#846);
#63=FACE_OUTER_BOUND('',#104,.T.);
#64=FACE_OUTER_BOUND('',#105,.T.);
#65=FACE_OUTER_BOUND('',#106,.T.);
#66=FACE_OUTER_BOUND('',#107,.T.);
#67=FACE_OUTER_BOUND('',#109,.T.);
#68=FACE_OUTER_BOUND('',#110,.T.);
#69=FACE_OUTER_BOUND('',#111,.T.);
#70=FACE_OUTER_BOUND('',#112,.T.);
#71=FACE_OUTER_BOUND('',#114,.T.);
#72=FACE_OUTER_BOUND('',#115,.T.);
#73=FACE_OUTER_BOUND('',#116,.T.);
#74=FACE_OUTER_BOUND('',#117,.T.);
#75=FACE_OUTER_BOUND('',#118,.T.);
#76=FACE_OUTER_BOUND('',#119,.T.);
#77=FACE_OUTER_BOUND('',#120,.T.);
#78=FACE_OUTER_BOUND('',#121,.T.);
#79=FACE_OUTER_BOUND('',#122,.T.);
#80=FACE_OUTER_BOUND('',#124,.T.);
#81=FACE_OUTER_BOUND('',#125,.T.);
#82=FACE_OUTER_BOUND('',#126,.T.);
#83=FACE_OUTER_BOUND('',#127,.T.);
#84=FACE_OUTER_BOUND('',#128,.T.);
#85=FACE_OUTER_BOUND('',#129,.T.);
#86=FACE_OUTER_BOUND('',#139,.T.);
#87=FACE_OUTER_BOUND('',#141,.T.);
#88=FACE_OUTER_BOUND('',#142,.T.);
#89=FACE_OUTER_BOUND('',#143,.T.);
#90=FACE_OUTER_BOUND('',#144,.T.);
#91=FACE_OUTER_BOUND('',#146,.T.);
#92=FACE_OUTER_BOUND('',#147,.T.);
#93=FACE_OUTER_BOUND('',#148,.T.);
#94=FACE_OUTER_BOUND('',#149,.T.);
#95=FACE_OUTER_BOUND('',#150,.T.);
#96=FACE_OUTER_BOUND('',#151,.T.);
#97=FACE_OUTER_BOUND('',#152,.T.);
#98=FACE_OUTER_BOUND('',#153,.T.);
#99=FACE_OUTER_BOUND('',#154,.T.);
#100=FACE_OUTER_BOUND('',#155,.T.);
#101=FACE_OUTER_BOUND('',#156,.T.);
#102=FACE_OUTER_BOUND('',#157,.T.);
#103=FACE_OUTER_BOUND('',#158,.T.);
#104=EDGE_LOOP('',(#484,#485,#486,#487));
#105=EDGE_LOOP('',(#488,#489,#490,#491));
#106=EDGE_LOOP('',(#492,#493,#494,#495));
#107=EDGE_LOOP('',(#496,#497,#498,#499,#500,#501,#502,#503,#504));
#108=EDGE_LOOP('',(#505,#506,#507,#508));
#109=EDGE_LOOP('',(#509,#510,#511,#512));
#110=EDGE_LOOP('',(#513,#514,#515,#516));
#111=EDGE_LOOP('',(#517,#518,#519,#520));
#112=EDGE_LOOP('',(#521));
#113=EDGE_LOOP('',(#522));
#114=EDGE_LOOP('',(#523,#524,#525,#526));
#115=EDGE_LOOP('',(#527,#528,#529));
#116=EDGE_LOOP('',(#530,#531,#532));
#117=EDGE_LOOP('',(#533,#534,#535,#536,#537));
#118=EDGE_LOOP('',(#538,#539,#540));
#119=EDGE_LOOP('',(#541,#542,#543));
#120=EDGE_LOOP('',(#544,#545,#546,#547));
#121=EDGE_LOOP('',(#548,#549,#550,#551,#552,#553,#554,#555,#556,#557));
#122=EDGE_LOOP('',(#558));
#123=EDGE_LOOP('',(#559));
#124=EDGE_LOOP('',(#560,#561,#562,#563));
#125=EDGE_LOOP('',(#564,#565,#566,#567));
#126=EDGE_LOOP('',(#568,#569,#570,#571));
#127=EDGE_LOOP('',(#572,#573,#574,#575));
#128=EDGE_LOOP('',(#576,#577,#578,#579));
#129=EDGE_LOOP('',(#580,#581,#582,#583));
#130=EDGE_LOOP('',(#584));
#131=EDGE_LOOP('',(#585));
#132=EDGE_LOOP('',(#586));
#133=EDGE_LOOP('',(#587));
#134=EDGE_LOOP('',(#588));
#135=EDGE_LOOP('',(#589));
#136=EDGE_LOOP('',(#590));
#137=EDGE_LOOP('',(#591));
#138=EDGE_LOOP('',(#592,#593,#594,#595));
#139=EDGE_LOOP('',(#596,#597,#598,#599));
#140=EDGE_LOOP('',(#600));
#141=EDGE_LOOP('',(#601,#602,#603,#604));
#142=EDGE_LOOP('',(#605,#606,#607,#608));
#143=EDGE_LOOP('',(#609,#610,#611,#612));
#144=EDGE_LOOP('',(#613,#614,#615,#616,#617,#618,#619,#620,#621));
#145=EDGE_LOOP('',(#622,#623,#624,#625));
#146=EDGE_LOOP('',(#626,#627,#628,#629));
#147=EDGE_LOOP('',(#630,#631,#632,#633));
#148=EDGE_LOOP('',(#634,#635,#636,#637));
#149=EDGE_LOOP('',(#638,#639,#640,#641));
#150=EDGE_LOOP('',(#642,#643,#644,#645));
#151=EDGE_LOOP('',(#646,#647,#648,#649));
#152=EDGE_LOOP('',(#650,#651,#652,#653));
#153=EDGE_LOOP('',(#654,#655,#656,#657));
#154=EDGE_LOOP('',(#658,#659,#660,#661));
#155=EDGE_LOOP('',(#662,#663,#664,#665));
#156=EDGE_LOOP('',(#666,#667,#668,#669));
#157=EDGE_LOOP('',(#670,#671,#672,#673));
#158=EDGE_LOOP('',(#674,#675,#676,#677));
#159=EDGE_LOOP('',(#678));
#160=EDGE_LOOP('',(#679));
#161=EDGE_LOOP('',(#680));
#162=EDGE_LOOP('',(#681));
#163=EDGE_LOOP('',(#682));
#164=EDGE_LOOP('',(#683));
#165=EDGE_LOOP('',(#684));
#166=EDGE_LOOP('',(#685));
#167=B_SPLINE_CURVE_WITH_KNOTS('',3,(#1066,#1067,#1068,#1069,#1070,#1071,
#1072,#1073,#1074,#1075,#1076,#1077,#1078,#1079,#1080,#1081,#1082,#1083,
#1084,#1085,#1086,#1087,#1088,#1089,#1090,#1091,#1092,#1093,#1094,#1095,
#1096,#1097,#1098,#1099),.UNSPECIFIED.,.T.,.F.,(4,2,2,2,2,2,2,2,2,2,2,2,
2,2,2,2,4),(0.,0.0660840115111234,0.132168023022247,0.198249385022111,0.264330747021975,
0.330412109021839,0.396493471021703,0.462577482532827,0.52866149404395,
0.594745505555074,0.660829517066197,0.726910879066061,0.792992241065926,
0.85907360306579,0.925154965065654,0.991238976576777,1.0573229880879),
 .UNSPECIFIED.);
#168=B_SPLINE_CURVE_WITH_KNOTS('',3,(#1214,#1215,#1216,#1217,#1218,#1219,
#1220,#1221,#1222,#1223),.UNSPECIFIED.,.F.,.F.,(4,2,1,1,1,1,4),(-0.00132108965141275,
0.,0.148810737265832,0.297621474531664,0.446432211797496,0.595242949063328,
0.74405368632916),.UNSPECIFIED.);
#169=B_SPLINE_CURVE_WITH_KNOTS('',3,(#1284,#1285,#1286,#1287,#1288,#1289,
#1290,#1291,#1292,#1293,#1294,#1295),.UNSPECIFIED.,.F.,.F.,(4,1,1,1,1,1,
1,2,4),(1.72783754832796,1.87664828559379,1.95105365422671,2.02545902285963,
2.09986439149254,2.17426976012546,2.32308049739129,2.47189123465712,2.47321232430854),
 .UNSPECIFIED.);
#170=B_SPLINE_CURVE_WITH_KNOTS('',3,(#1346,#1347,#1348,#1349,#1350,#1351,
#1352,#1353),.UNSPECIFIED.,.F.,.F.,(4,2,1,1,4),(-0.00132108965141301,0.,
0.446432211797496,0.595242949063328,0.744053686329159),.UNSPECIFIED.);
#171=B_SPLINE_CURVE_WITH_KNOTS('',3,(#1414,#1415,#1416,#1417,#1418,#1419,
#1420,#1421,#1422,#1423,#1424,#1425),.UNSPECIFIED.,.F.,.F.,(4,1,1,1,1,1,
1,2,4),(1.72783754832796,2.02545902285963,2.09986439149254,2.17426976012546,
2.24867512875838,2.32308049739129,2.39748586602421,2.47189123465712,2.47321232430854),
 .UNSPECIFIED.);
#172=LINE('',#1065,#227);
#173=LINE('',#1105,#228);
#174=LINE('',#1108,#229);
#175=LINE('',#1111,#230);
#176=LINE('',#1113,#231);
#177=LINE('',#1114,#232);
#178=LINE('',#1117,#233);
#179=LINE('',#1119,#234);
#180=LINE('',#1121,#235);
#181=LINE('',#1123,#236);
#182=LINE('',#1127,#237);
#183=LINE('',#1128,#238);
#184=LINE('',#1131,#239);
#185=LINE('',#1135,#240);
#186=LINE('',#1141,#241);
#187=LINE('',#1142,#242);
#188=LINE('',#1145,#243);
#189=LINE('',#1146,#244);
#190=LINE('',#1151,#245);
#191=LINE('',#1213,#246);
#192=LINE('',#1426,#247);
#193=LINE('',#1428,#248);
#194=LINE('',#1432,#249);
#195=LINE('',#1435,#250);
#196=LINE('',#1439,#251);
#197=LINE('',#1444,#252);
#198=LINE('',#1448,#253);
#199=LINE('',#1451,#254);
#200=LINE('',#1452,#255);
#201=LINE('',#1456,#256);
#202=LINE('',#1458,#257);
#203=LINE('',#1460,#258);
#204=LINE('',#1461,#259);
#205=LINE('',#1480,#260);
#206=LINE('',#1483,#261);
#207=LINE('',#1486,#262);
#208=LINE('',#1487,#263);
#209=LINE('',#1491,#264);
#210=LINE('',#1493,#265);
#211=LINE('',#1497,#266);
#212=LINE('',#1501,#267);
#213=LINE('',#1505,#268);
#214=LINE('',#1509,#269);
#215=LINE('',#1513,#270);
#216=LINE('',#1517,#271);
#217=LINE('',#1521,#272);
#218=LINE('',#1525,#273);
#219=LINE('',#1530,#274);
#220=LINE('',#1531,#275);
#221=LINE('',#1532,#276);
#222=LINE('',#1535,#277);
#223=LINE('',#1536,#278);
#224=LINE('',#1539,#279);
#225=LINE('',#1540,#280);
#226=LINE('',#1542,#281);
#227=VECTOR('',#853,1.75);
#228=VECTOR('',#858,10.);
#229=VECTOR('',#861,10.);
#230=VECTOR('',#864,10.);
#231=VECTOR('',#865,10.);
#232=VECTOR('',#866,10.);
#233=VECTOR('',#869,10.);
#234=VECTOR('',#870,10.);
#235=VECTOR('',#871,10.);
#236=VECTOR('',#872,10.);
#237=VECTOR('',#875,10.);
#238=VECTOR('',#876,10.);
#239=VECTOR('',#877,10.);
#240=VECTOR('',#880,10.);
#241=VECTOR('',#887,10.);
#242=VECTOR('',#888,10.);
#243=VECTOR('',#891,10.);
#244=VECTOR('',#892,10.);
#245=VECTOR('',#897,2.1);
#246=VECTOR('',#912,10.);
#247=VECTOR('',#925,10.);
#248=VECTOR('',#928,10.);
#249=VECTOR('',#933,4.);
#250=VECTOR('',#938,10.);
#251=VECTOR('',#941,10.);
#252=VECTOR('',#948,10.);
#253=VECTOR('',#953,10.);
#254=VECTOR('',#958,10.);
#255=VECTOR('',#959,10.);
#256=VECTOR('',#962,10.);
#257=VECTOR('',#963,10.);
#258=VECTOR('',#964,10.);
#259=VECTOR('',#965,10.);
#260=VECTOR('',#984,10.);
#261=VECTOR('',#987,10.);
#262=VECTOR('',#990,10.);
#263=VECTOR('',#991,10.);
#264=VECTOR('',#996,10.);
#265=VECTOR('',#999,10.);
#266=VECTOR('',#1004,1.6);
#267=VECTOR('',#1009,1.6);
#268=VECTOR('',#1014,1.6);
#269=VECTOR('',#1019,1.6);
#270=VECTOR('',#1024,1.6);
#271=VECTOR('',#1029,1.6);
#272=VECTOR('',#1034,1.6);
#273=VECTOR('',#1039,1.6);
#274=VECTOR('',#1044,10.);
#275=VECTOR('',#1045,10.);
#276=VECTOR('',#1046,10.);
#277=VECTOR('',#1049,10.);
#278=VECTOR('',#1050,10.);
#279=VECTOR('',#1053,10.);
#280=VECTOR('',#1054,10.);
#281=VECTOR('',#1057,10.);
#282=CIRCLE('',#770,1.75);
#283=CIRCLE('',#772,3.);
#284=CIRCLE('',#773,3.);
#285=CIRCLE('',#776,3.);
#286=CIRCLE('',#777,9.5);
#287=CIRCLE('',#778,9.5);
#288=CIRCLE('',#780,3.);
#289=CIRCLE('',#783,2.1);
#290=CIRCLE('',#784,2.1);
#291=CIRCLE('',#787,3.);
#292=CIRCLE('',#788,4.);
#293=CIRCLE('',#789,3.);
#294=CIRCLE('',#790,7.);
#295=CIRCLE('',#792,3.);
#296=CIRCLE('',#793,4.);
#297=CIRCLE('',#794,4.);
#298=CIRCLE('',#795,3.);
#299=CIRCLE('',#796,7.);
#300=CIRCLE('',#799,4.);
#301=CIRCLE('',#811,1.6);
#302=CIRCLE('',#812,1.6);
#303=CIRCLE('',#813,1.6);
#304=CIRCLE('',#814,1.6);
#305=CIRCLE('',#815,1.6);
#306=CIRCLE('',#816,1.6);
#307=CIRCLE('',#817,1.6);
#308=CIRCLE('',#818,1.6);
#309=CIRCLE('',#820,9.5);
#310=CIRCLE('',#823,9.5);
#311=CIRCLE('',#827,1.6);
#312=CIRCLE('',#829,1.6);
#313=CIRCLE('',#831,1.6);
#314=CIRCLE('',#833,1.6);
#315=CIRCLE('',#835,1.6);
#316=CIRCLE('',#837,1.6);
#317=CIRCLE('',#839,1.6);
#318=CIRCLE('',#841,1.6);
#319=VERTEX_POINT('',#1062);
#320=VERTEX_POINT('',#1064);
#321=VERTEX_POINT('',#1101);
#322=VERTEX_POINT('',#1102);
#323=VERTEX_POINT('',#1104);
#324=VERTEX_POINT('',#1106);
#325=VERTEX_POINT('',#1110);
#326=VERTEX_POINT('',#1112);
#327=VERTEX_POINT('',#1116);
#328=VERTEX_POINT('',#1118);
#329=VERTEX_POINT('',#1120);
#330=VERTEX_POINT('',#1122);
#331=VERTEX_POINT('',#1124);
#332=VERTEX_POINT('',#1126);
#333=VERTEX_POINT('',#1129);
#334=VERTEX_POINT('',#1130);
#335=VERTEX_POINT('',#1132);
#336=VERTEX_POINT('',#1134);
#337=VERTEX_POINT('',#1138);
#338=VERTEX_POINT('',#1139);
#339=VERTEX_POINT('',#1144);
#340=VERTEX_POINT('',#1148);
#341=VERTEX_POINT('',#1150);
#342=VERTEX_POINT('',#1155);
#343=VERTEX_POINT('',#1156);
#344=VERTEX_POINT('',#1158);
#345=VERTEX_POINT('',#1212);
#346=VERTEX_POINT('',#1297);
#347=VERTEX_POINT('',#1299);
#348=VERTEX_POINT('',#1301);
#349=VERTEX_POINT('',#1303);
#350=VERTEX_POINT('',#1430);
#351=VERTEX_POINT('',#1437);
#352=VERTEX_POINT('',#1438);
#353=VERTEX_POINT('',#1443);
#354=VERTEX_POINT('',#1447);
#355=VERTEX_POINT('',#1454);
#356=VERTEX_POINT('',#1455);
#357=VERTEX_POINT('',#1457);
#358=VERTEX_POINT('',#1459);
#359=VERTEX_POINT('',#1462);
#360=VERTEX_POINT('',#1464);
#361=VERTEX_POINT('',#1466);
#362=VERTEX_POINT('',#1468);
#363=VERTEX_POINT('',#1470);
#364=VERTEX_POINT('',#1472);
#365=VERTEX_POINT('',#1474);
#366=VERTEX_POINT('',#1476);
#367=VERTEX_POINT('',#1479);
#368=VERTEX_POINT('',#1481);
#369=VERTEX_POINT('',#1485);
#370=VERTEX_POINT('',#1489);
#371=VERTEX_POINT('',#1496);
#372=VERTEX_POINT('',#1500);
#373=VERTEX_POINT('',#1504);
#374=VERTEX_POINT('',#1508);
#375=VERTEX_POINT('',#1512);
#376=VERTEX_POINT('',#1516);
#377=VERTEX_POINT('',#1520);
#378=VERTEX_POINT('',#1524);
#379=VERTEX_POINT('',#1528);
#380=VERTEX_POINT('',#1529);
#381=VERTEX_POINT('',#1534);
#382=VERTEX_POINT('',#1538);
#383=EDGE_CURVE('',#319,#319,#282,.T.);
#384=EDGE_CURVE('',#319,#320,#172,.T.);
#385=EDGE_CURVE('',#320,#320,#167,.T.);
#386=EDGE_CURVE('',#321,#322,#283,.T.);
#387=EDGE_CURVE('',#322,#323,#173,.T.);
#388=EDGE_CURVE('',#323,#324,#284,.T.);
#389=EDGE_CURVE('',#324,#321,#174,.T.);
#390=EDGE_CURVE('',#325,#322,#175,.T.);
#391=EDGE_CURVE('',#326,#325,#176,.T.);
#392=EDGE_CURVE('',#323,#326,#177,.T.);
#393=EDGE_CURVE('',#321,#327,#178,.T.);
#394=EDGE_CURVE('',#327,#328,#179,.T.);
#395=EDGE_CURVE('',#328,#329,#180,.T.);
#396=EDGE_CURVE('',#329,#330,#181,.T.);
#397=EDGE_CURVE('',#331,#330,#285,.T.);
#398=EDGE_CURVE('',#331,#332,#182,.T.);
#399=EDGE_CURVE('',#325,#332,#183,.T.);
#400=EDGE_CURVE('',#333,#334,#184,.T.);
#401=EDGE_CURVE('',#334,#335,#286,.T.);
#402=EDGE_CURVE('',#335,#336,#185,.T.);
#403=EDGE_CURVE('',#336,#333,#287,.T.);
#404=EDGE_CURVE('',#337,#338,#288,.T.);
#405=EDGE_CURVE('',#338,#331,#186,.T.);
#406=EDGE_CURVE('',#330,#337,#187,.T.);
#407=EDGE_CURVE('',#339,#338,#188,.T.);
#408=EDGE_CURVE('',#332,#339,#189,.T.);
#409=EDGE_CURVE('',#340,#340,#289,.T.);
#410=EDGE_CURVE('',#340,#341,#190,.T.);
#411=EDGE_CURVE('',#341,#341,#290,.T.);
#412=EDGE_CURVE('',#342,#343,#291,.T.);
#413=EDGE_CURVE('',#343,#344,#292,.T.);
#414=EDGE_CURVE('',#344,#327,#293,.T.);
#415=EDGE_CURVE('',#327,#342,#294,.T.);
#416=EDGE_CURVE('',#345,#342,#191,.T.);
#417=EDGE_CURVE('',#345,#343,#168,.T.);
#418=EDGE_CURVE('',#344,#328,#169,.T.);
#419=EDGE_CURVE('',#329,#346,#295,.T.);
#420=EDGE_CURVE('',#346,#347,#296,.T.);
#421=EDGE_CURVE('',#347,#348,#297,.T.);
#422=EDGE_CURVE('',#348,#349,#298,.T.);
#423=EDGE_CURVE('',#349,#329,#299,.T.);
#424=EDGE_CURVE('',#328,#346,#170,.T.);
#425=EDGE_CURVE('',#348,#345,#171,.T.);
#426=EDGE_CURVE('',#349,#345,#192,.T.);
#427=EDGE_CURVE('',#337,#349,#193,.T.);
#428=EDGE_CURVE('',#350,#350,#300,.T.);
#429=EDGE_CURVE('',#350,#347,#194,.T.);
#430=EDGE_CURVE('',#342,#324,#195,.T.);
#431=EDGE_CURVE('',#351,#352,#196,.T.);
#432=EDGE_CURVE('',#352,#325,#15,.T.);
#433=EDGE_CURVE('',#332,#351,#16,.T.);
#434=EDGE_CURVE('',#352,#353,#197,.T.);
#435=EDGE_CURVE('',#353,#326,#17,.T.);
#436=EDGE_CURVE('',#354,#351,#198,.T.);
#437=EDGE_CURVE('',#339,#354,#18,.T.);
#438=EDGE_CURVE('',#353,#354,#199,.T.);
#439=EDGE_CURVE('',#339,#326,#200,.T.);
#440=EDGE_CURVE('',#355,#356,#201,.T.);
#441=EDGE_CURVE('',#356,#357,#202,.T.);
#442=EDGE_CURVE('',#357,#358,#203,.T.);
#443=EDGE_CURVE('',#358,#355,#204,.T.);
#444=EDGE_CURVE('',#359,#359,#301,.T.);
#445=EDGE_CURVE('',#360,#360,#302,.T.);
#446=EDGE_CURVE('',#361,#361,#303,.T.);
#447=EDGE_CURVE('',#362,#362,#304,.T.);
#448=EDGE_CURVE('',#363,#363,#305,.T.);
#449=EDGE_CURVE('',#364,#364,#306,.T.);
#450=EDGE_CURVE('',#365,#365,#307,.T.);
#451=EDGE_CURVE('',#366,#366,#308,.T.);
#452=EDGE_CURVE('',#367,#334,#205,.T.);
#453=EDGE_CURVE('',#368,#367,#309,.T.);
#454=EDGE_CURVE('',#335,#368,#206,.T.);
#455=EDGE_CURVE('',#369,#368,#207,.T.);
#456=EDGE_CURVE('',#336,#369,#208,.T.);
#457=EDGE_CURVE('',#370,#369,#310,.T.);
#458=EDGE_CURVE('',#333,#370,#209,.T.);
#459=EDGE_CURVE('',#367,#370,#210,.T.);
#460=EDGE_CURVE('',#359,#371,#211,.T.);
#461=EDGE_CURVE('',#371,#371,#311,.T.);
#462=EDGE_CURVE('',#360,#372,#212,.T.);
#463=EDGE_CURVE('',#372,#372,#312,.T.);
#464=EDGE_CURVE('',#361,#373,#213,.T.);
#465=EDGE_CURVE('',#373,#373,#313,.T.);
#466=EDGE_CURVE('',#362,#374,#214,.T.);
#467=EDGE_CURVE('',#374,#374,#314,.T.);
#468=EDGE_CURVE('',#363,#375,#215,.T.);
#469=EDGE_CURVE('',#375,#375,#315,.T.);
#470=EDGE_CURVE('',#364,#376,#216,.T.);
#471=EDGE_CURVE('',#376,#376,#316,.T.);
#472=EDGE_CURVE('',#365,#377,#217,.T.);
#473=EDGE_CURVE('',#377,#377,#317,.T.);
#474=EDGE_CURVE('',#366,#378,#218,.T.);
#475=EDGE_CURVE('',#378,#378,#318,.T.);
#476=EDGE_CURVE('',#379,#380,#219,.T.);
#477=EDGE_CURVE('',#380,#355,#220,.T.);
#478=EDGE_CURVE('',#379,#358,#221,.T.);
#479=EDGE_CURVE('',#381,#379,#222,.T.);
#480=EDGE_CURVE('',#381,#357,#223,.T.);
#481=EDGE_CURVE('',#382,#381,#224,.T.);
#482=EDGE_CURVE('',#382,#356,#225,.T.);
#483=EDGE_CURVE('',#380,#382,#226,.T.);
#484=ORIENTED_EDGE('',*,*,#383,.F.);
#485=ORIENTED_EDGE('',*,*,#384,.T.);
#486=ORIENTED_EDGE('',*,*,#385,.F.);
#487=ORIENTED_EDGE('',*,*,#384,.F.);
#488=ORIENTED_EDGE('',*,*,#386,.T.);
#489=ORIENTED_EDGE('',*,*,#387,.T.);
#490=ORIENTED_EDGE('',*,*,#388,.T.);
#491=ORIENTED_EDGE('',*,*,#389,.T.);
#492=ORIENTED_EDGE('',*,*,#387,.F.);
#493=ORIENTED_EDGE('',*,*,#390,.F.);
#494=ORIENTED_EDGE('',*,*,#391,.F.);
#495=ORIENTED_EDGE('',*,*,#392,.F.);
#496=ORIENTED_EDGE('',*,*,#386,.F.);
#497=ORIENTED_EDGE('',*,*,#393,.T.);
#498=ORIENTED_EDGE('',*,*,#394,.T.);
#499=ORIENTED_EDGE('',*,*,#395,.T.);
#500=ORIENTED_EDGE('',*,*,#396,.T.);
#501=ORIENTED_EDGE('',*,*,#397,.F.);
#502=ORIENTED_EDGE('',*,*,#398,.T.);
#503=ORIENTED_EDGE('',*,*,#399,.F.);
#504=ORIENTED_EDGE('',*,*,#390,.T.);
#505=ORIENTED_EDGE('',*,*,#400,.T.);
#506=ORIENTED_EDGE('',*,*,#401,.T.);
#507=ORIENTED_EDGE('',*,*,#402,.T.);
#508=ORIENTED_EDGE('',*,*,#403,.T.);
#509=ORIENTED_EDGE('',*,*,#404,.T.);
#510=ORIENTED_EDGE('',*,*,#405,.T.);
#511=ORIENTED_EDGE('',*,*,#397,.T.);
#512=ORIENTED_EDGE('',*,*,#406,.T.);
#513=ORIENTED_EDGE('',*,*,#405,.F.);
#514=ORIENTED_EDGE('',*,*,#407,.F.);
#515=ORIENTED_EDGE('',*,*,#408,.F.);
#516=ORIENTED_EDGE('',*,*,#398,.F.);
#517=ORIENTED_EDGE('',*,*,#409,.F.);
#518=ORIENTED_EDGE('',*,*,#410,.T.);
#519=ORIENTED_EDGE('',*,*,#411,.T.);
#520=ORIENTED_EDGE('',*,*,#410,.F.);
#521=ORIENTED_EDGE('',*,*,#411,.F.);
#522=ORIENTED_EDGE('',*,*,#383,.T.);
#523=ORIENTED_EDGE('',*,*,#412,.T.);
#524=ORIENTED_EDGE('',*,*,#413,.T.);
#525=ORIENTED_EDGE('',*,*,#414,.T.);
#526=ORIENTED_EDGE('',*,*,#415,.T.);
#527=ORIENTED_EDGE('',*,*,#412,.F.);
#528=ORIENTED_EDGE('',*,*,#416,.F.);
#529=ORIENTED_EDGE('',*,*,#417,.T.);
#530=ORIENTED_EDGE('',*,*,#414,.F.);
#531=ORIENTED_EDGE('',*,*,#418,.T.);
#532=ORIENTED_EDGE('',*,*,#394,.F.);
#533=ORIENTED_EDGE('',*,*,#419,.T.);
#534=ORIENTED_EDGE('',*,*,#420,.T.);
#535=ORIENTED_EDGE('',*,*,#421,.T.);
#536=ORIENTED_EDGE('',*,*,#422,.T.);
#537=ORIENTED_EDGE('',*,*,#423,.T.);
#538=ORIENTED_EDGE('',*,*,#419,.F.);
#539=ORIENTED_EDGE('',*,*,#395,.F.);
#540=ORIENTED_EDGE('',*,*,#424,.T.);
#541=ORIENTED_EDGE('',*,*,#422,.F.);
#542=ORIENTED_EDGE('',*,*,#425,.T.);
#543=ORIENTED_EDGE('',*,*,#426,.F.);
#544=ORIENTED_EDGE('',*,*,#406,.F.);
#545=ORIENTED_EDGE('',*,*,#396,.F.);
#546=ORIENTED_EDGE('',*,*,#423,.F.);
#547=ORIENTED_EDGE('',*,*,#427,.F.);
#548=ORIENTED_EDGE('',*,*,#428,.F.);
#549=ORIENTED_EDGE('',*,*,#429,.T.);
#550=ORIENTED_EDGE('',*,*,#420,.F.);
#551=ORIENTED_EDGE('',*,*,#424,.F.);
#552=ORIENTED_EDGE('',*,*,#418,.F.);
#553=ORIENTED_EDGE('',*,*,#413,.F.);
#554=ORIENTED_EDGE('',*,*,#417,.F.);
#555=ORIENTED_EDGE('',*,*,#425,.F.);
#556=ORIENTED_EDGE('',*,*,#421,.F.);
#557=ORIENTED_EDGE('',*,*,#429,.F.);
#558=ORIENTED_EDGE('',*,*,#428,.T.);
#559=ORIENTED_EDGE('',*,*,#409,.T.);
#560=ORIENTED_EDGE('',*,*,#389,.F.);
#561=ORIENTED_EDGE('',*,*,#430,.F.);
#562=ORIENTED_EDGE('',*,*,#415,.F.);
#563=ORIENTED_EDGE('',*,*,#393,.F.);
#564=ORIENTED_EDGE('',*,*,#431,.T.);
#565=ORIENTED_EDGE('',*,*,#432,.T.);
#566=ORIENTED_EDGE('',*,*,#399,.T.);
#567=ORIENTED_EDGE('',*,*,#433,.T.);
#568=ORIENTED_EDGE('',*,*,#391,.T.);
#569=ORIENTED_EDGE('',*,*,#432,.F.);
#570=ORIENTED_EDGE('',*,*,#434,.T.);
#571=ORIENTED_EDGE('',*,*,#435,.T.);
#572=ORIENTED_EDGE('',*,*,#436,.T.);
#573=ORIENTED_EDGE('',*,*,#433,.F.);
#574=ORIENTED_EDGE('',*,*,#408,.T.);
#575=ORIENTED_EDGE('',*,*,#437,.T.);
#576=ORIENTED_EDGE('',*,*,#438,.T.);
#577=ORIENTED_EDGE('',*,*,#437,.F.);
#578=ORIENTED_EDGE('',*,*,#439,.T.);
#579=ORIENTED_EDGE('',*,*,#435,.F.);
#580=ORIENTED_EDGE('',*,*,#440,.T.);
#581=ORIENTED_EDGE('',*,*,#441,.T.);
#582=ORIENTED_EDGE('',*,*,#442,.T.);
#583=ORIENTED_EDGE('',*,*,#443,.T.);
#584=ORIENTED_EDGE('',*,*,#444,.T.);
#585=ORIENTED_EDGE('',*,*,#445,.T.);
#586=ORIENTED_EDGE('',*,*,#446,.T.);
#587=ORIENTED_EDGE('',*,*,#447,.T.);
#588=ORIENTED_EDGE('',*,*,#448,.T.);
#589=ORIENTED_EDGE('',*,*,#449,.T.);
#590=ORIENTED_EDGE('',*,*,#450,.T.);
#591=ORIENTED_EDGE('',*,*,#451,.T.);
#592=ORIENTED_EDGE('',*,*,#431,.F.);
#593=ORIENTED_EDGE('',*,*,#436,.F.);
#594=ORIENTED_EDGE('',*,*,#438,.F.);
#595=ORIENTED_EDGE('',*,*,#434,.F.);
#596=ORIENTED_EDGE('',*,*,#452,.F.);
#597=ORIENTED_EDGE('',*,*,#453,.F.);
#598=ORIENTED_EDGE('',*,*,#454,.F.);
#599=ORIENTED_EDGE('',*,*,#401,.F.);
#600=ORIENTED_EDGE('',*,*,#385,.T.);
#601=ORIENTED_EDGE('',*,*,#454,.T.);
#602=ORIENTED_EDGE('',*,*,#455,.F.);
#603=ORIENTED_EDGE('',*,*,#456,.F.);
#604=ORIENTED_EDGE('',*,*,#402,.F.);
#605=ORIENTED_EDGE('',*,*,#456,.T.);
#606=ORIENTED_EDGE('',*,*,#457,.F.);
#607=ORIENTED_EDGE('',*,*,#458,.F.);
#608=ORIENTED_EDGE('',*,*,#403,.F.);
#609=ORIENTED_EDGE('',*,*,#458,.T.);
#610=ORIENTED_EDGE('',*,*,#459,.F.);
#611=ORIENTED_EDGE('',*,*,#452,.T.);
#612=ORIENTED_EDGE('',*,*,#400,.F.);
#613=ORIENTED_EDGE('',*,*,#388,.F.);
#614=ORIENTED_EDGE('',*,*,#392,.T.);
#615=ORIENTED_EDGE('',*,*,#439,.F.);
#616=ORIENTED_EDGE('',*,*,#407,.T.);
#617=ORIENTED_EDGE('',*,*,#404,.F.);
#618=ORIENTED_EDGE('',*,*,#427,.T.);
#619=ORIENTED_EDGE('',*,*,#426,.T.);
#620=ORIENTED_EDGE('',*,*,#416,.T.);
#621=ORIENTED_EDGE('',*,*,#430,.T.);
#622=ORIENTED_EDGE('',*,*,#459,.T.);
#623=ORIENTED_EDGE('',*,*,#457,.T.);
#624=ORIENTED_EDGE('',*,*,#455,.T.);
#625=ORIENTED_EDGE('',*,*,#453,.T.);
#626=ORIENTED_EDGE('',*,*,#444,.F.);
#627=ORIENTED_EDGE('',*,*,#460,.T.);
#628=ORIENTED_EDGE('',*,*,#461,.T.);
#629=ORIENTED_EDGE('',*,*,#460,.F.);
#630=ORIENTED_EDGE('',*,*,#445,.F.);
#631=ORIENTED_EDGE('',*,*,#462,.T.);
#632=ORIENTED_EDGE('',*,*,#463,.T.);
#633=ORIENTED_EDGE('',*,*,#462,.F.);
#634=ORIENTED_EDGE('',*,*,#446,.F.);
#635=ORIENTED_EDGE('',*,*,#464,.T.);
#636=ORIENTED_EDGE('',*,*,#465,.T.);
#637=ORIENTED_EDGE('',*,*,#464,.F.);
#638=ORIENTED_EDGE('',*,*,#447,.F.);
#639=ORIENTED_EDGE('',*,*,#466,.T.);
#640=ORIENTED_EDGE('',*,*,#467,.T.);
#641=ORIENTED_EDGE('',*,*,#466,.F.);
#642=ORIENTED_EDGE('',*,*,#448,.F.);
#643=ORIENTED_EDGE('',*,*,#468,.T.);
#644=ORIENTED_EDGE('',*,*,#469,.T.);
#645=ORIENTED_EDGE('',*,*,#468,.F.);
#646=ORIENTED_EDGE('',*,*,#449,.F.);
#647=ORIENTED_EDGE('',*,*,#470,.T.);
#648=ORIENTED_EDGE('',*,*,#471,.T.);
#649=ORIENTED_EDGE('',*,*,#470,.F.);
#650=ORIENTED_EDGE('',*,*,#450,.F.);
#651=ORIENTED_EDGE('',*,*,#472,.T.);
#652=ORIENTED_EDGE('',*,*,#473,.T.);
#653=ORIENTED_EDGE('',*,*,#472,.F.);
#654=ORIENTED_EDGE('',*,*,#451,.F.);
#655=ORIENTED_EDGE('',*,*,#474,.T.);
#656=ORIENTED_EDGE('',*,*,#475,.T.);
#657=ORIENTED_EDGE('',*,*,#474,.F.);
#658=ORIENTED_EDGE('',*,*,#476,.T.);
#659=ORIENTED_EDGE('',*,*,#477,.T.);
#660=ORIENTED_EDGE('',*,*,#443,.F.);
#661=ORIENTED_EDGE('',*,*,#478,.F.);
#662=ORIENTED_EDGE('',*,*,#479,.T.);
#663=ORIENTED_EDGE('',*,*,#478,.T.);
#664=ORIENTED_EDGE('',*,*,#442,.F.);
#665=ORIENTED_EDGE('',*,*,#480,.F.);
#666=ORIENTED_EDGE('',*,*,#481,.T.);
#667=ORIENTED_EDGE('',*,*,#480,.T.);
#668=ORIENTED_EDGE('',*,*,#441,.F.);
#669=ORIENTED_EDGE('',*,*,#482,.F.);
#670=ORIENTED_EDGE('',*,*,#483,.T.);
#671=ORIENTED_EDGE('',*,*,#482,.T.);
#672=ORIENTED_EDGE('',*,*,#440,.F.);
#673=ORIENTED_EDGE('',*,*,#477,.F.);
#674=ORIENTED_EDGE('',*,*,#483,.F.);
#675=ORIENTED_EDGE('',*,*,#476,.F.);
#676=ORIENTED_EDGE('',*,*,#479,.F.);
#677=ORIENTED_EDGE('',*,*,#481,.F.);
#678=ORIENTED_EDGE('',*,*,#475,.F.);
#679=ORIENTED_EDGE('',*,*,#473,.F.);
#680=ORIENTED_EDGE('',*,*,#471,.F.);
#681=ORIENTED_EDGE('',*,*,#469,.F.);
#682=ORIENTED_EDGE('',*,*,#467,.F.);
#683=ORIENTED_EDGE('',*,*,#465,.F.);
#684=ORIENTED_EDGE('',*,*,#463,.F.);
#685=ORIENTED_EDGE('',*,*,#461,.F.);
#686=CYLINDRICAL_SURFACE('',#769,1.75);
#687=CYLINDRICAL_SURFACE('',#771,3.);
#688=CYLINDRICAL_SURFACE('',#779,3.);
#689=CYLINDRICAL_SURFACE('',#782,2.1);
#690=CYLINDRICAL_SURFACE('',#798,4.);
#691=CYLINDRICAL_SURFACE('',#802,2.);
#692=CYLINDRICAL_SURFACE('',#805,2.);
#693=CYLINDRICAL_SURFACE('',#807,2.);
#694=CYLINDRICAL_SURFACE('',#809,2.);
#695=CYLINDRICAL_SURFACE('',#819,9.5);
#696=CYLINDRICAL_SURFACE('',#822,9.5);
#697=CYLINDRICAL_SURFACE('',#826,1.6);
#698=CYLINDRICAL_SURFACE('',#828,1.6);
#699=CYLINDRICAL_SURFACE('',#830,1.6);
#700=CYLINDRICAL_SURFACE('',#832,1.6);
#701=CYLINDRICAL_SURFACE('',#834,1.6);
#702=CYLINDRICAL_SURFACE('',#836,1.6);
#703=CYLINDRICAL_SURFACE('',#838,1.6);
#704=CYLINDRICAL_SURFACE('',#840,1.6);
#705=ADVANCED_FACE('',(#63),#686,.F.);
#706=ADVANCED_FACE('',(#64),#687,.T.);
#707=ADVANCED_FACE('',(#65),#47,.T.);
#708=ADVANCED_FACE('',(#66,#25),#48,.F.);
#709=ADVANCED_FACE('',(#67),#688,.T.);
#710=ADVANCED_FACE('',(#68),#49,.T.);
#711=ADVANCED_FACE('',(#69),#689,.F.);
#712=ADVANCED_FACE('',(#70,#26),#50,.T.);
#713=ADVANCED_FACE('',(#71),#23,.F.);
#714=ADVANCED_FACE('',(#72),#19,.T.);
#715=ADVANCED_FACE('',(#73),#20,.T.);
#716=ADVANCED_FACE('',(#74),#24,.F.);
#717=ADVANCED_FACE('',(#75),#21,.T.);
#718=ADVANCED_FACE('',(#76),#22,.T.);
#719=ADVANCED_FACE('',(#77),#51,.T.);
#720=ADVANCED_FACE('',(#78),#690,.T.);
#721=ADVANCED_FACE('',(#79,#27),#52,.T.);
#722=ADVANCED_FACE('',(#80),#53,.T.);
#723=ADVANCED_FACE('',(#81),#691,.F.);
#724=ADVANCED_FACE('',(#82),#692,.F.);
#725=ADVANCED_FACE('',(#83),#693,.F.);
#726=ADVANCED_FACE('',(#84),#694,.F.);
#727=ADVANCED_FACE('',(#85,#28,#29,#30,#31,#32,#33,#34,#35,#36),#54,.T.);
#728=ADVANCED_FACE('',(#86,#37),#695,.F.);
#729=ADVANCED_FACE('',(#87),#55,.T.);
#730=ADVANCED_FACE('',(#88),#696,.F.);
#731=ADVANCED_FACE('',(#89),#56,.T.);
#732=ADVANCED_FACE('',(#90,#38),#57,.T.);
#733=ADVANCED_FACE('',(#91),#697,.F.);
#734=ADVANCED_FACE('',(#92),#698,.F.);
#735=ADVANCED_FACE('',(#93),#699,.F.);
#736=ADVANCED_FACE('',(#94),#700,.F.);
#737=ADVANCED_FACE('',(#95),#701,.F.);
#738=ADVANCED_FACE('',(#96),#702,.F.);
#739=ADVANCED_FACE('',(#97),#703,.F.);
#740=ADVANCED_FACE('',(#98),#704,.F.);
#741=ADVANCED_FACE('',(#99),#58,.T.);
#742=ADVANCED_FACE('',(#100),#59,.T.);
#743=ADVANCED_FACE('',(#101),#60,.T.);
#744=ADVANCED_FACE('',(#102),#61,.T.);
#745=ADVANCED_FACE('',(#103,#39,#40,#41,#42,#43,#44,#45,#46),#62,.F.);
#746=CLOSED_SHELL('',(#705,#706,#707,#708,#709,#710,#711,#712,#713,#714,
#715,#716,#717,#718,#719,#720,#721,#722,#723,#724,#725,#726,#727,#728,#729,
#730,#731,#732,#733,#734,#735,#736,#737,#738,#739,#740,#741,#742,#743,#744,
#745));
#747=DERIVED_UNIT_ELEMENT(#750,1.);
#748=DERIVED_UNIT_ELEMENT(#1549,-3.);
#749=DIMENSIONAL_EXPONENTS(0.,1.,0.,0.,0.,0.,0.);
#750=(
CONVERSION_BASED_UNIT('gram',#752)
MASS_UNIT()
NAMED_UNIT(#749)
);
#751=(
MASS_UNIT()
NAMED_UNIT(*)
SI_UNIT(.KILO.,.GRAM.)
);
#752=MASS_MEASURE_WITH_UNIT(MASS_MEASURE(0.001),#751);
#753=DERIVED_UNIT((#747,#748));
#754=MEASURE_REPRESENTATION_ITEM('density measure',
POSITIVE_RATIO_MEASURE(1.),#753);
#755=PROPERTY_DEFINITION_REPRESENTATION(#760,#757);
#756=PROPERTY_DEFINITION_REPRESENTATION(#761,#758);
#757=REPRESENTATION('material name',(#759),#1546);
#758=REPRESENTATION('density',(#754),#1546);
#759=DESCRIPTIVE_REPRESENTATION_ITEM('\X2\04220438043F043E0432044B0435\X0\',
'\X2\04220438043F043E0432044B0435\X0\');
#760=PROPERTY_DEFINITION('material property','material name',#1556);
#761=PROPERTY_DEFINITION('material property','density of part',#1556);
#762=DATE_TIME_ROLE('creation_date');
#763=APPLIED_DATE_AND_TIME_ASSIGNMENT(#764,#762,(#1556));
#764=DATE_AND_TIME(#765,#766);
#765=CALENDAR_DATE(2026,10,2);
#766=LOCAL_TIME(0,0,0.,#767);
#767=COORDINATED_UNIVERSAL_TIME_OFFSET(0,0,.BEHIND.);
#768=AXIS2_PLACEMENT_3D('placement',#1060,#847,#848);
#769=AXIS2_PLACEMENT_3D('',#1061,#849,#850);
#770=AXIS2_PLACEMENT_3D('',#1063,#851,#852);
#771=AXIS2_PLACEMENT_3D('',#1100,#854,#855);
#772=AXIS2_PLACEMENT_3D('',#1103,#856,#857);
#773=AXIS2_PLACEMENT_3D('',#1107,#859,#860);
#774=AXIS2_PLACEMENT_3D('',#1109,#862,#863);
#775=AXIS2_PLACEMENT_3D('',#1115,#867,#868);
#776=AXIS2_PLACEMENT_3D('',#1125,#873,#874);
#777=AXIS2_PLACEMENT_3D('',#1133,#878,#879);
#778=AXIS2_PLACEMENT_3D('',#1136,#881,#882);
#779=AXIS2_PLACEMENT_3D('',#1137,#883,#884);
#780=AXIS2_PLACEMENT_3D('',#1140,#885,#886);
#781=AXIS2_PLACEMENT_3D('',#1143,#889,#890);
#782=AXIS2_PLACEMENT_3D('',#1147,#893,#894);
#783=AXIS2_PLACEMENT_3D('',#1149,#895,#896);
#784=AXIS2_PLACEMENT_3D('',#1152,#898,#899);
#785=AXIS2_PLACEMENT_3D('',#1153,#900,#901);
#786=AXIS2_PLACEMENT_3D('',#1154,#902,#903);
#787=AXIS2_PLACEMENT_3D('',#1157,#904,#905);
#788=AXIS2_PLACEMENT_3D('',#1159,#906,#907);
#789=AXIS2_PLACEMENT_3D('',#1160,#908,#909);
#790=AXIS2_PLACEMENT_3D('',#1161,#910,#911);
#791=AXIS2_PLACEMENT_3D('',#1296,#913,#914);
#792=AXIS2_PLACEMENT_3D('',#1298,#915,#916);
#793=AXIS2_PLACEMENT_3D('',#1300,#917,#918);
#794=AXIS2_PLACEMENT_3D('',#1302,#919,#920);
#795=AXIS2_PLACEMENT_3D('',#1304,#921,#922);
#796=AXIS2_PLACEMENT_3D('',#1305,#923,#924);
#797=AXIS2_PLACEMENT_3D('',#1427,#926,#927);
#798=AXIS2_PLACEMENT_3D('',#1429,#929,#930);
#799=AXIS2_PLACEMENT_3D('',#1431,#931,#932);
#800=AXIS2_PLACEMENT_3D('',#1433,#934,#935);
#801=AXIS2_PLACEMENT_3D('',#1434,#936,#937);
#802=AXIS2_PLACEMENT_3D('',#1436,#939,#940);
#803=AXIS2_PLACEMENT_3D('',#1440,#942,#943);
#804=AXIS2_PLACEMENT_3D('',#1441,#944,#945);
#805=AXIS2_PLACEMENT_3D('',#1442,#946,#947);
#806=AXIS2_PLACEMENT_3D('',#1445,#949,#950);
#807=AXIS2_PLACEMENT_3D('',#1446,#951,#952);
#808=AXIS2_PLACEMENT_3D('',#1449,#954,#955);
#809=AXIS2_PLACEMENT_3D('',#1450,#956,#957);
#810=AXIS2_PLACEMENT_3D('',#1453,#960,#961);
#811=AXIS2_PLACEMENT_3D('',#1463,#966,#967);
#812=AXIS2_PLACEMENT_3D('',#1465,#968,#969);
#813=AXIS2_PLACEMENT_3D('',#1467,#970,#971);
#814=AXIS2_PLACEMENT_3D('',#1469,#972,#973);
#815=AXIS2_PLACEMENT_3D('',#1471,#974,#975);
#816=AXIS2_PLACEMENT_3D('',#1473,#976,#977);
#817=AXIS2_PLACEMENT_3D('',#1475,#978,#979);
#818=AXIS2_PLACEMENT_3D('',#1477,#980,#981);
#819=AXIS2_PLACEMENT_3D('',#1478,#982,#983);
#820=AXIS2_PLACEMENT_3D('',#1482,#985,#986);
#821=AXIS2_PLACEMENT_3D('',#1484,#988,#989);
#822=AXIS2_PLACEMENT_3D('',#1488,#992,#993);
#823=AXIS2_PLACEMENT_3D('',#1490,#994,#995);
#824=AXIS2_PLACEMENT_3D('',#1492,#997,#998);
#825=AXIS2_PLACEMENT_3D('',#1494,#1000,#1001);
#826=AXIS2_PLACEMENT_3D('',#1495,#1002,#1003);
#827=AXIS2_PLACEMENT_3D('',#1498,#1005,#1006);
#828=AXIS2_PLACEMENT_3D('',#1499,#1007,#1008);
#829=AXIS2_PLACEMENT_3D('',#1502,#1010,#1011);
#830=AXIS2_PLACEMENT_3D('',#1503,#1012,#1013);
#831=AXIS2_PLACEMENT_3D('',#1506,#1015,#1016);
#832=AXIS2_PLACEMENT_3D('',#1507,#1017,#1018);
#833=AXIS2_PLACEMENT_3D('',#1510,#1020,#1021);
#834=AXIS2_PLACEMENT_3D('',#1511,#1022,#1023);
#835=AXIS2_PLACEMENT_3D('',#1514,#1025,#1026);
#836=AXIS2_PLACEMENT_3D('',#1515,#1027,#1028);
#837=AXIS2_PLACEMENT_3D('',#1518,#1030,#1031);
#838=AXIS2_PLACEMENT_3D('',#1519,#1032,#1033);
#839=AXIS2_PLACEMENT_3D('',#1522,#1035,#1036);
#840=AXIS2_PLACEMENT_3D('',#1523,#1037,#1038);
#841=AXIS2_PLACEMENT_3D('',#1526,#1040,#1041);
#842=AXIS2_PLACEMENT_3D('',#1527,#1042,#1043);
#843=AXIS2_PLACEMENT_3D('',#1533,#1047,#1048);
#844=AXIS2_PLACEMENT_3D('',#1537,#1051,#1052);
#845=AXIS2_PLACEMENT_3D('',#1541,#1055,#1056);
#846=AXIS2_PLACEMENT_3D('',#1543,#1058,#1059);
#847=DIRECTION('axis',(0.,0.,1.));
#848=DIRECTION('refdir',(1.,0.,0.));
#849=DIRECTION('center_axis',(-3.46944695195362E-16,0.,-1.));
#850=DIRECTION('ref_axis',(1.,0.,-3.46944695195361E-16));
#851=DIRECTION('center_axis',(-3.41607084500048E-16,0.,-1.));
#852=DIRECTION('ref_axis',(1.,0.,-3.46944695195361E-16));
#853=DIRECTION('',(-3.46944695195361E-16,0.,-1.));
#854=DIRECTION('center_axis',(0.,-1.,0.));
#855=DIRECTION('ref_axis',(0.707106781186546,0.,0.707106781186549));
#856=DIRECTION('center_axis',(0.,1.,0.));
#857=DIRECTION('ref_axis',(0.707106781186546,0.,0.707106781186549));
#858=DIRECTION('',(0.,1.,0.));
#859=DIRECTION('center_axis',(0.,-1.,0.));
#860=DIRECTION('ref_axis',(0.707106781186546,0.,0.707106781186549));
#861=DIRECTION('',(0.,-1.,0.));
#862=DIRECTION('center_axis',(1.,0.,-8.5401771125012E-17));
#863=DIRECTION('ref_axis',(-8.5401771125012E-17,0.,-1.));
#864=DIRECTION('',(8.5401771125012E-17,0.,1.));
#865=DIRECTION('',(0.,-1.,0.));
#866=DIRECTION('',(-8.5401771125012E-17,0.,-1.));
#867=DIRECTION('center_axis',(0.,1.,0.));
#868=DIRECTION('ref_axis',(0.,0.,1.));
#869=DIRECTION('',(-1.,0.,3.41607084500048E-16));
#870=DIRECTION('',(-1.,0.,3.41607084500048E-16));
#871=DIRECTION('',(-1.,0.,3.41607084500048E-16));
#872=DIRECTION('',(-1.,0.,3.41607084500048E-16));
#873=DIRECTION('center_axis',(0.,1.,0.));
#874=DIRECTION('ref_axis',(-0.707106781186546,0.,0.707106781186549));
#875=DIRECTION('',(-3.41607084500048E-16,0.,-1.));
#876=DIRECTION('',(-1.,0.,0.));
#877=DIRECTION('',(-2.22044604925031E-16,0.,1.));
#878=DIRECTION('center_axis',(0.,1.,0.));
#879=DIRECTION('ref_axis',(0.96475277788544,0.,-0.263157894736842));
#880=DIRECTION('',(0.,0.,-1.));
#881=DIRECTION('center_axis',(0.,1.,0.));
#882=DIRECTION('ref_axis',(-0.96475277788544,0.,0.263157894736842));
#883=DIRECTION('center_axis',(0.,1.,0.));
#884=DIRECTION('ref_axis',(-0.707106781186546,0.,0.707106781186549));
#885=DIRECTION('center_axis',(0.,-1.,0.));
#886=DIRECTION('ref_axis',(-0.707106781186546,0.,0.707106781186549));
#887=DIRECTION('',(0.,-1.,0.));
#888=DIRECTION('',(0.,1.,0.));
#889=DIRECTION('center_axis',(-1.,0.,3.41607084500048E-16));
#890=DIRECTION('ref_axis',(3.41607084500048E-16,0.,1.));
#891=DIRECTION('',(3.41607084500048E-16,0.,1.));
#892=DIRECTION('',(0.,1.,0.));
#893=DIRECTION('center_axis',(-3.33066907387547E-16,0.,-1.));
#894=DIRECTION('ref_axis',(1.,0.,-3.33066907387547E-16));
#895=DIRECTION('center_axis',(-3.41607084500048E-16,0.,-1.));
#896=DIRECTION('ref_axis',(1.,0.,-3.33066907387547E-16));
#897=DIRECTION('',(-3.33066907387547E-16,0.,-1.));
#898=DIRECTION('center_axis',(-3.41607084500048E-16,0.,-1.));
#899=DIRECTION('ref_axis',(1.,0.,-3.41607084500048E-16));
#900=DIRECTION('center_axis',(3.41607084500048E-16,0.,1.));
#901=DIRECTION('ref_axis',(1.,0.,-3.41607084500048E-16));
#902=DIRECTION('center_axis',(-3.41607084500048E-16,0.,-1.));
#903=DIRECTION('ref_axis',(1.,1.22464679914735E-16,-3.5527136788005E-16));
#904=DIRECTION('center_axis',(-0.571428571428572,0.82065180664829,2.11471052309553E-16));
#905=DIRECTION('ref_axis',(-3.70074341541719E-16,0.,-1.));
#906=DIRECTION('center_axis',(-3.41607084500048E-16,0.,-1.));
#907=DIRECTION('ref_axis',(1.,0.,-2.77555756156289E-16));
#908=DIRECTION('center_axis',(-0.571428571428572,-0.82065180664829,2.11471052309553E-16));
#909=DIRECTION('ref_axis',(-0.82065180664829,0.571428571428572,0.));
#910=DIRECTION('center_axis',(3.41607084500048E-16,0.,1.));
#911=DIRECTION('ref_axis',(1.,0.,-3.41607084500048E-16));
#912=DIRECTION('',(1.,0.,-3.41607084500048E-16));
#913=DIRECTION('center_axis',(-3.41607084500048E-16,0.,-1.));
#914=DIRECTION('ref_axis',(-1.,0.,3.5527136788005E-16));
#915=DIRECTION('center_axis',(0.571428571428571,-0.82065180664829,3.03702176980388E-16));
#916=DIRECTION('ref_axis',(0.,-3.70074341541719E-16,-1.));
#917=DIRECTION('center_axis',(-3.41607084500048E-16,0.,-1.));
#918=DIRECTION('ref_axis',(-1.,-1.22464679914735E-16,2.77555756156289E-16));
#919=DIRECTION('center_axis',(-3.41607084500048E-16,0.,-1.));
#920=DIRECTION('ref_axis',(-1.,-1.22464679914735E-16,2.77555756156289E-16));
#921=DIRECTION('center_axis',(0.571428571428572,0.82065180664829,-4.22942104619107E-16));
#922=DIRECTION('ref_axis',(0.82065180664829,-0.571428571428572,0.));
#923=DIRECTION('center_axis',(3.41607084500048E-16,0.,1.));
#924=DIRECTION('ref_axis',(-1.,-1.22464679914735E-16,3.41607084500048E-16));
#925=DIRECTION('',(1.,0.,-3.41607084500048E-16));
#926=DIRECTION('center_axis',(3.41607084500048E-16,0.,1.));
#927=DIRECTION('ref_axis',(1.,0.,-3.41607084500048E-16));
#928=DIRECTION('',(1.,0.,-3.41607084500048E-16));
#929=DIRECTION('center_axis',(3.33066907387547E-16,0.,1.));
#930=DIRECTION('ref_axis',(1.,0.,-3.33066907387547E-16));
#931=DIRECTION('center_axis',(3.41607084500048E-16,0.,1.));
#932=DIRECTION('ref_axis',(1.,0.,-3.41607084500048E-16));
#933=DIRECTION('',(-3.33066907387547E-16,0.,-1.));
#934=DIRECTION('center_axis',(3.41607084500048E-16,0.,1.));
#935=DIRECTION('ref_axis',(1.,0.,-3.41607084500048E-16));
#936=DIRECTION('center_axis',(3.41607084500048E-16,0.,1.));
#937=DIRECTION('ref_axis',(1.,0.,-3.41607084500048E-16));
#938=DIRECTION('',(1.,0.,-3.41607084500048E-16));
#939=DIRECTION('center_axis',(-1.,0.,0.));
#940=DIRECTION('ref_axis',(0.,0.707106781186548,-0.707106781186547));
#941=DIRECTION('',(1.,0.,0.));
#942=DIRECTION('center_axis',(0.707106781186548,0.707106781186547,0.));
#943=DIRECTION('ref_axis',(0.707106781186547,-0.707106781186548,0.));
#944=DIRECTION('center_axis',(-0.707106781186548,0.707106781186547,0.));
#945=DIRECTION('ref_axis',(0.707106781186547,0.707106781186548,0.));
#946=DIRECTION('center_axis',(0.,-1.,0.));
#947=DIRECTION('ref_axis',(-0.707106781186548,0.,-0.707106781186547));
#948=DIRECTION('',(0.,1.,0.));
#949=DIRECTION('center_axis',(-0.707106781186548,0.707106781186547,0.));
#950=DIRECTION('ref_axis',(0.707106781186547,0.707106781186548,0.));
#951=DIRECTION('center_axis',(0.,1.,0.));
#952=DIRECTION('ref_axis',(0.707106781186547,0.,-0.707106781186548));
#953=DIRECTION('',(0.,-1.,0.));
#954=DIRECTION('center_axis',(0.707106781186548,0.707106781186547,0.));
#955=DIRECTION('ref_axis',(0.707106781186547,-0.707106781186548,0.));
#956=DIRECTION('center_axis',(1.,0.,0.));
#957=DIRECTION('ref_axis',(0.,-0.707106781186548,-0.707106781186547));
#958=DIRECTION('',(-1.,0.,0.));
#959=DIRECTION('',(1.,0.,0.));
#960=DIRECTION('center_axis',(0.,0.,1.));
#961=DIRECTION('ref_axis',(1.,0.,0.));
#962=DIRECTION('',(-1.,-3.01691039300314E-17,0.));
#963=DIRECTION('',(3.70074341541719E-16,-1.,0.));
#964=DIRECTION('',(1.,1.20676415720126E-16,0.));
#965=DIRECTION('',(-1.85037170770859E-16,1.,0.));
#966=DIRECTION('center_axis',(0.,0.,-1.));
#967=DIRECTION('ref_axis',(-1.,0.,0.));
#968=DIRECTION('center_axis',(0.,0.,-1.));
#969=DIRECTION('ref_axis',(-1.,0.,0.));
#970=DIRECTION('center_axis',(0.,0.,-1.));
#971=DIRECTION('ref_axis',(-1.,0.,0.));
#972=DIRECTION('center_axis',(0.,0.,-1.));
#973=DIRECTION('ref_axis',(-1.,0.,0.));
#974=DIRECTION('center_axis',(0.,0.,-1.));
#975=DIRECTION('ref_axis',(-1.,0.,0.));
#976=DIRECTION('center_axis',(0.,0.,-1.));
#977=DIRECTION('ref_axis',(-1.,0.,0.));
#978=DIRECTION('center_axis',(0.,0.,-1.));
#979=DIRECTION('ref_axis',(-1.,0.,0.));
#980=DIRECTION('center_axis',(0.,0.,-1.));
#981=DIRECTION('ref_axis',(-1.,0.,0.));
#982=DIRECTION('center_axis',(0.,1.,0.));
#983=DIRECTION('ref_axis',(0.96475277788544,0.,-0.263157894736842));
#984=DIRECTION('',(0.,-1.,0.));
#985=DIRECTION('center_axis',(0.,-1.,0.));
#986=DIRECTION('ref_axis',(0.96475277788544,0.,-0.263157894736842));
#987=DIRECTION('',(0.,1.,0.));
#988=DIRECTION('center_axis',(-1.,0.,0.));
#989=DIRECTION('ref_axis',(0.,0.,1.));
#990=DIRECTION('',(0.,0.,1.));
#991=DIRECTION('',(0.,1.,0.));
#992=DIRECTION('center_axis',(0.,1.,0.));
#993=DIRECTION('ref_axis',(-0.96475277788544,0.,0.263157894736842));
#994=DIRECTION('center_axis',(0.,-1.,0.));
#995=DIRECTION('ref_axis',(-0.96475277788544,0.,0.263157894736842));
#996=DIRECTION('',(0.,1.,0.));
#997=DIRECTION('center_axis',(1.,0.,2.22044604925031E-16));
#998=DIRECTION('ref_axis',(2.22044604925031E-16,0.,-1.));
#999=DIRECTION('',(2.22044604925031E-16,0.,-1.));
#1000=DIRECTION('center_axis',(0.,1.,0.));
#1001=DIRECTION('ref_axis',(0.,0.,1.));
#1002=DIRECTION('center_axis',(0.,0.,1.));
#1003=DIRECTION('ref_axis',(-1.,0.,0.));
#1004=DIRECTION('',(0.,0.,-1.));
#1005=DIRECTION('center_axis',(0.,0.,-1.));
#1006=DIRECTION('ref_axis',(-1.,0.,0.));
#1007=DIRECTION('center_axis',(0.,0.,1.));
#1008=DIRECTION('ref_axis',(-1.,0.,0.));
#1009=DIRECTION('',(0.,0.,-1.));
#1010=DIRECTION('center_axis',(0.,0.,-1.));
#1011=DIRECTION('ref_axis',(-1.,0.,0.));
#1012=DIRECTION('center_axis',(0.,0.,1.));
#1013=DIRECTION('ref_axis',(-1.,0.,0.));
#1014=DIRECTION('',(0.,0.,-1.));
#1015=DIRECTION('center_axis',(0.,0.,-1.));
#1016=DIRECTION('ref_axis',(-1.,0.,0.));
#1017=DIRECTION('center_axis',(0.,0.,1.));
#1018=DIRECTION('ref_axis',(-1.,0.,0.));
#1019=DIRECTION('',(0.,0.,-1.));
#1020=DIRECTION('center_axis',(0.,0.,-1.));
#1021=DIRECTION('ref_axis',(-1.,0.,0.));
#1022=DIRECTION('center_axis',(0.,0.,1.));
#1023=DIRECTION('ref_axis',(-1.,0.,0.));
#1024=DIRECTION('',(0.,0.,-1.));
#1025=DIRECTION('center_axis',(0.,0.,-1.));
#1026=DIRECTION('ref_axis',(-1.,0.,0.));
#1027=DIRECTION('center_axis',(0.,0.,1.));
#1028=DIRECTION('ref_axis',(-1.,0.,0.));
#1029=DIRECTION('',(0.,0.,-1.));
#1030=DIRECTION('center_axis',(0.,0.,-1.));
#1031=DIRECTION('ref_axis',(-1.,0.,0.));
#1032=DIRECTION('center_axis',(0.,0.,1.));
#1033=DIRECTION('ref_axis',(-1.,0.,0.));
#1034=DIRECTION('',(0.,0.,-1.));
#1035=DIRECTION('center_axis',(0.,0.,-1.));
#1036=DIRECTION('ref_axis',(-1.,0.,0.));
#1037=DIRECTION('center_axis',(0.,0.,1.));
#1038=DIRECTION('ref_axis',(-1.,0.,0.));
#1039=DIRECTION('',(0.,0.,-1.));
#1040=DIRECTION('center_axis',(0.,0.,-1.));
#1041=DIRECTION('ref_axis',(-1.,0.,0.));
#1042=DIRECTION('center_axis',(1.,1.85037170770859E-16,0.));
#1043=DIRECTION('ref_axis',(-1.85037170770859E-16,1.,0.));
#1044=DIRECTION('',(-1.85037170770859E-16,1.,0.));
#1045=DIRECTION('',(0.,0.,1.));
#1046=DIRECTION('',(0.,0.,1.));
#1047=DIRECTION('center_axis',(1.20676415720126E-16,-1.,0.));
#1048=DIRECTION('ref_axis',(1.,1.20676415720126E-16,0.));
#1049=DIRECTION('',(1.,1.20676415720126E-16,0.));
#1050=DIRECTION('',(0.,0.,1.));
#1051=DIRECTION('center_axis',(-1.,-3.70074341541719E-16,0.));
#1052=DIRECTION('ref_axis',(3.70074341541719E-16,-1.,0.));
#1053=DIRECTION('',(3.70074341541719E-16,-1.,0.));
#1054=DIRECTION('',(0.,0.,1.));
#1055=DIRECTION('center_axis',(-3.01691039300314E-17,1.,0.));
#1056=DIRECTION('ref_axis',(-1.,-3.01691039300314E-17,0.));
#1057=DIRECTION('',(-1.,-3.01691039300314E-17,0.));
#1058=DIRECTION('center_axis',(0.,0.,1.));
#1059=DIRECTION('ref_axis',(1.,0.,0.));
#1060=CARTESIAN_POINT('',(0.,0.,0.));
#1061=CARTESIAN_POINT('Origin',(9.56499836600135E-15,0.,28.));
#1062=CARTESIAN_POINT('',(-1.74999999999999,2.14313189850787E-16,28.));
#1063=CARTESIAN_POINT('Origin',(9.56499836600135E-15,0.,28.));
#1064=CARTESIAN_POINT('',(-1.74999999999999,6.93889390390723E-17,23.3374246984916));
#1065=CARTESIAN_POINT('',(-1.74999999999999,2.14313189850787E-16,28.));
#1066=CARTESIAN_POINT('Ctrl Pts',(-1.74999999999999,6.93889390390723E-17,
23.3374246984916));
#1067=CARTESIAN_POINT('Ctrl Pts',(-1.74999999999999,-0.220280038370411,
23.3374246984916));
#1068=CARTESIAN_POINT('Ctrl Pts',(-1.7058737502625,-0.454889711606487,23.3460270004845));
#1069=CARTESIAN_POINT('Ctrl Pts',(-1.52712571547225,-0.88589903184224,23.3768924955386));
#1070=CARTESIAN_POINT('Ctrl Pts',(-1.39253059968042,-1.08234313447249,23.3986875550986));
#1071=CARTESIAN_POINT('Ctrl Pts',(-1.0823493526572,-1.3925243814957,23.439437861767));
#1072=CARTESIAN_POINT('Ctrl Pts',(-0.885902595234479,-1.5271243718672,23.4610704082271));
#1073=CARTESIAN_POINT('Ctrl Pts',(-0.454884100118137,-1.7058759432527,23.4915624177832));
#1074=CARTESIAN_POINT('Ctrl Pts',(-0.220271206666206,-1.75,23.5));
#1075=CARTESIAN_POINT('Ctrl Pts',(0.220271206666221,-1.75,23.5));
#1076=CARTESIAN_POINT('Ctrl Pts',(0.454884100118151,-1.7058759432527,23.4915624177832));
#1077=CARTESIAN_POINT('Ctrl Pts',(0.885902595234493,-1.5271243718672,23.4610704082271));
#1078=CARTESIAN_POINT('Ctrl Pts',(1.08234935265722,-1.39252438149571,23.439437861767));
#1079=CARTESIAN_POINT('Ctrl Pts',(1.39253059968043,-1.08234313447249,23.3986875550986));
#1080=CARTESIAN_POINT('Ctrl Pts',(1.52712571547227,-0.885899031842241,23.3768924955386));
#1081=CARTESIAN_POINT('Ctrl Pts',(1.70587375026251,-0.454889711606488,23.3460270004845));
#1082=CARTESIAN_POINT('Ctrl Pts',(1.75000000000001,-0.220280038370412,23.3374246984916));
#1083=CARTESIAN_POINT('Ctrl Pts',(1.75000000000001,0.220280038370411,23.3374246984916));
#1084=CARTESIAN_POINT('Ctrl Pts',(1.70587375026251,0.454889711606487,23.3460270004845));
#1085=CARTESIAN_POINT('Ctrl Pts',(1.52712571547227,0.885899031842239,23.3768924955386));
#1086=CARTESIAN_POINT('Ctrl Pts',(1.39253059968043,1.08234313447249,23.3986875550986));
#1087=CARTESIAN_POINT('Ctrl Pts',(1.08234935265722,1.3925243814957,23.439437861767));
#1088=CARTESIAN_POINT('Ctrl Pts',(0.885902595234495,1.5271243718672,23.4610704082271));
#1089=CARTESIAN_POINT('Ctrl Pts',(0.454884100118153,1.7058759432527,23.4915624177832));
#1090=CARTESIAN_POINT('Ctrl Pts',(0.220271206666222,1.75,23.5));
#1091=CARTESIAN_POINT('Ctrl Pts',(-0.220271206666205,1.75,23.5));
#1092=CARTESIAN_POINT('Ctrl Pts',(-0.454884100118135,1.7058759432527,23.4915624177832));
#1093=CARTESIAN_POINT('Ctrl Pts',(-0.885902595234478,1.5271243718672,23.4610704082271));
#1094=CARTESIAN_POINT('Ctrl Pts',(-1.0823493526572,1.39252438149571,23.439437861767));
#1095=CARTESIAN_POINT('Ctrl Pts',(-1.39253059968042,1.08234313447249,23.3986875550986));
#1096=CARTESIAN_POINT('Ctrl Pts',(-1.52712571547225,0.885899031842241,23.3768924955386));
#1097=CARTESIAN_POINT('Ctrl Pts',(-1.7058737502625,0.454889711606488,23.3460270004845));
#1098=CARTESIAN_POINT('Ctrl Pts',(-1.74999999999999,0.220280038370412,23.3374246984916));
#1099=CARTESIAN_POINT('Ctrl Pts',(-1.74999999999999,5.55111512312578E-16,
23.3374246984916));
#1100=CARTESIAN_POINT('Origin',(10.,0.,25.));
#1101=CARTESIAN_POINT('',(10.,-4.,28.));
#1102=CARTESIAN_POINT('',(13.,-4.,25.));
#1103=CARTESIAN_POINT('Origin',(10.,-4.,25.));
#1104=CARTESIAN_POINT('',(13.,4.,25.));
#1105=CARTESIAN_POINT('',(13.,0.,25.));
#1106=CARTESIAN_POINT('',(10.,4.,28.));
#1107=CARTESIAN_POINT('Origin',(10.,4.,25.));
#1108=CARTESIAN_POINT('',(10.,0.,28.));
#1109=CARTESIAN_POINT('Origin',(13.,0.,28.));
#1110=CARTESIAN_POINT('',(13.,-4.,4.));
#1111=CARTESIAN_POINT('',(13.,-4.,28.));
#1112=CARTESIAN_POINT('',(13.,4.,4.));
#1113=CARTESIAN_POINT('',(13.,2.22044604925031E-15,4.));
#1114=CARTESIAN_POINT('',(13.,4.,28.));
#1115=CARTESIAN_POINT('Origin',(-2.22044604925031E-15,-4.,15.));
#1116=CARTESIAN_POINT('',(5.74456264653804,-4.,28.));
#1117=CARTESIAN_POINT('',(-13.,-4.,28.));
#1118=CARTESIAN_POINT('',(8.88178419700125E-15,-4.,28.));
#1119=CARTESIAN_POINT('',(-13.,-4.,28.));
#1120=CARTESIAN_POINT('',(-5.74456264653802,-4.,28.));
#1121=CARTESIAN_POINT('',(-13.,-4.,28.));
#1122=CARTESIAN_POINT('',(-9.99999999999999,-4.,28.));
#1123=CARTESIAN_POINT('',(-13.,-4.,28.));
#1124=CARTESIAN_POINT('',(-13.,-4.,25.));
#1125=CARTESIAN_POINT('Origin',(-10.,-4.,25.));
#1126=CARTESIAN_POINT('',(-13.,-4.,4.));
#1127=CARTESIAN_POINT('',(-13.,-4.,2.));
#1128=CARTESIAN_POINT('',(-2.22044604925031E-15,-4.,4.));
#1129=CARTESIAN_POINT('',(-9.16515138991168,-4.,11.5));
#1130=CARTESIAN_POINT('',(-9.16515138991168,-4.,16.5));
#1131=CARTESIAN_POINT('',(-9.16515138991168,-4.,16.5));
#1132=CARTESIAN_POINT('',(9.16515138991168,-4.,16.5));
#1133=CARTESIAN_POINT('Origin',(2.4980018054066E-15,-4.,14.));
#1134=CARTESIAN_POINT('',(9.16515138991168,-4.,11.5));
#1135=CARTESIAN_POINT('',(9.16515138991168,-4.,11.5));
#1136=CARTESIAN_POINT('Origin',(2.4980018054066E-15,-4.,14.));
#1137=CARTESIAN_POINT('Origin',(-10.,0.,25.));
#1138=CARTESIAN_POINT('',(-9.99999999999999,4.,28.));
#1139=CARTESIAN_POINT('',(-13.,4.,25.));
#1140=CARTESIAN_POINT('Origin',(-10.,4.,25.));
#1141=CARTESIAN_POINT('',(-13.,0.,25.));
#1142=CARTESIAN_POINT('',(-9.99999999999999,0.,28.));
#1143=CARTESIAN_POINT('Origin',(-13.,0.,2.));
#1144=CARTESIAN_POINT('',(-13.,4.,4.));
#1145=CARTESIAN_POINT('',(-13.,4.,2.));
#1146=CARTESIAN_POINT('',(-13.,2.22044604925031E-15,4.));
#1147=CARTESIAN_POINT('Origin',(1.0564199088164E-14,0.,33.));
#1148=CARTESIAN_POINT('',(-2.09999999999999,2.57175827820944E-16,33.));
#1149=CARTESIAN_POINT('Origin',(1.0564199088164E-14,0.,33.));
#1150=CARTESIAN_POINT('',(-2.09999999999999,2.57175827820944E-16,28.));
#1151=CARTESIAN_POINT('',(-2.09999999999999,2.57175827820944E-16,33.));
#1152=CARTESIAN_POINT('Origin',(8.89886455122626E-15,0.,28.));
#1153=CARTESIAN_POINT('Origin',(8.88178419700125E-15,0.,28.));
#1154=CARTESIAN_POINT('Origin',(9.88098491916389E-15,0.,31.));
#1155=CARTESIAN_POINT('',(5.74456264653804,4.,28.));
#1156=CARTESIAN_POINT('',(3.28260722659317,2.28571428571429,31.));
#1157=CARTESIAN_POINT('Origin',(5.74456264653804,4.,31.));
#1158=CARTESIAN_POINT('',(3.28260722659317,-2.28571428571429,31.));
#1159=CARTESIAN_POINT('Origin',(9.88098491916389E-15,0.,31.));
#1160=CARTESIAN_POINT('Origin',(5.74456264653804,-4.,31.));
#1161=CARTESIAN_POINT('Origin',(8.85616366566375E-15,0.,28.));
#1162=CARTESIAN_POINT('Ctrl Pts',(8.88178419700125E-15,4.,28.));
#1163=CARTESIAN_POINT('Ctrl Pts',(0.00368434140175691,4.,28.));
#1164=CARTESIAN_POINT('Ctrl Pts',(0.00736804408485628,4.,28.));
#1165=CARTESIAN_POINT('Ctrl Pts',(0.426171027387702,4.00000000000008,28.0000000000004));
#1166=CARTESIAN_POINT('Ctrl Pts',(1.25845300332451,4.00000000000001,28.));
#1167=CARTESIAN_POINT('Ctrl Pts',(2.48857267587023,4.00000000000004,28.0000000000002));
#1168=CARTESIAN_POINT('Ctrl Pts',(3.68357119217321,4.00000000000001,28.));
#1169=CARTESIAN_POINT('Ctrl Pts',(4.80964215425254,4.00000000000001,28.0000000000001));
#1170=CARTESIAN_POINT('Ctrl Pts',(5.46111362317449,4.,28.));
#1171=CARTESIAN_POINT('Ctrl Pts',(5.74456264653804,4.,28.));
#1172=CARTESIAN_POINT('Ctrl Pts',(8.88178419700125E-15,4.,28.));
#1173=CARTESIAN_POINT('Ctrl Pts',(0.0033822425139623,3.99999853651138,28.000459452019));
#1174=CARTESIAN_POINT('Ctrl Pts',(0.00676799522010913,4.00000028013625,
28.0009187712079));
#1175=CARTESIAN_POINT('Ctrl Pts',(0.391298353116132,3.99973143567726,28.0531454746278));
#1176=CARTESIAN_POINT('Ctrl Pts',(1.15582677804164,3.97078485689335,28.1568660900454));
#1177=CARTESIAN_POINT('Ctrl Pts',(2.27414132884444,3.84801626027296,28.2715880263439));
#1178=CARTESIAN_POINT('Ctrl Pts',(3.33615443265535,3.6707258288884,28.3047920153732));
#1179=CARTESIAN_POINT('Ctrl Pts',(4.29086027186705,3.49432213505461,28.2139005624895));
#1180=CARTESIAN_POINT('Ctrl Pts',(4.79810780393341,3.45918781710739,28.0708192881023));
#1181=CARTESIAN_POINT('Ctrl Pts',(5.00794730741763,3.48708691369963,28.));
#1182=CARTESIAN_POINT('Ctrl Pts',(8.88178419700125E-15,4.,28.));
#1183=CARTESIAN_POINT('Ctrl Pts',(0.00285708911679342,3.99999872634848,
28.0012614673747));
#1184=CARTESIAN_POINT('Ctrl Pts',(0.00571420449920949,3.99999907361317,
28.0025287333623));
#1185=CARTESIAN_POINT('Ctrl Pts',(0.33048430726085,3.99944442585964,28.1460128644643));
#1186=CARTESIAN_POINT('Ctrl Pts',(0.975888514295381,3.94087170127504,28.4315708666299));
#1187=CARTESIAN_POINT('Ctrl Pts',(1.89916222654847,3.68558750942961,28.7967164466989));
#1188=CARTESIAN_POINT('Ctrl Pts',(2.72826381382929,3.29130724308726,29.0310795032838));
#1189=CARTESIAN_POINT('Ctrl Pts',(3.38690382674629,2.83185832378386,29.0444422892521));
#1190=CARTESIAN_POINT('Ctrl Pts',(3.64639499537967,2.62480110349342,28.8663366173744));
#1191=CARTESIAN_POINT('Ctrl Pts',(3.73268199476989,2.59910612831032,28.7534171378651));
#1192=CARTESIAN_POINT('Ctrl Pts',(8.88178419700125E-15,4.,28.));
#1193=CARTESIAN_POINT('Ctrl Pts',(0.0023310711068341,3.99999939233648,28.0020657547905));
#1194=CARTESIAN_POINT('Ctrl Pts',(0.00466126331247183,3.9999986526654,28.004136213384));
#1195=CARTESIAN_POINT('Ctrl Pts',(0.269627790182021,3.99952123734397,28.2390342013058));
#1196=CARTESIAN_POINT('Ctrl Pts',(0.796135986378225,3.9471473319434,28.7061898582786));
#1197=CARTESIAN_POINT('Ctrl Pts',(1.55777938669104,3.71523476118646,29.3605202262167));
#1198=CARTESIAN_POINT('Ctrl Pts',(2.26260535234949,3.33563759323276,29.9177755524959));
#1199=CARTESIAN_POINT('Ctrl Pts',(2.86738669144151,2.82838321878682,30.2988670226588));
#1200=CARTESIAN_POINT('Ctrl Pts',(3.16422787943365,2.45604619964088,30.3608857217933));
#1201=CARTESIAN_POINT('Ctrl Pts',(3.28260722659317,2.28571428571429,30.3268015742308));
#1202=CARTESIAN_POINT('Ctrl Pts',(8.88178419700125E-15,4.,28.));
#1203=CARTESIAN_POINT('Ctrl Pts',(0.0021053379433819,4.,28.002411967623));
#1204=CARTESIAN_POINT('Ctrl Pts',(0.00421031090562876,3.99999845263225,
28.0048235364587));
#1205=CARTESIAN_POINT('Ctrl Pts',(0.243526301361583,3.99960153366678,28.278990790029));
#1206=CARTESIAN_POINT('Ctrl Pts',(0.719116001899386,3.95662313760852,28.8237565165678));
#1207=CARTESIAN_POINT('Ctrl Pts',(1.4220415290674,3.76283613850601,29.6022533939194));
#1208=CARTESIAN_POINT('Ctrl Pts',(2.10489782409877,3.4307536688593,30.2975355930504));
#1209=CARTESIAN_POINT('Ctrl Pts',(2.74836694528678,2.94544259718913,30.8361352011086));
#1210=CARTESIAN_POINT('Ctrl Pts',(3.12063635609974,2.51832723883024,31.));
#1211=CARTESIAN_POINT('Ctrl Pts',(3.28260722659317,2.28571428571429,31.));
#1212=CARTESIAN_POINT('',(8.88178419700125E-15,4.,28.));
#1213=CARTESIAN_POINT('',(-13.,4.,28.));
#1214=CARTESIAN_POINT('Ctrl Pts',(8.88178419700125E-15,4.,28.));
#1215=CARTESIAN_POINT('Ctrl Pts',(0.0021053379433819,4.,28.002411967623));
#1216=CARTESIAN_POINT('Ctrl Pts',(0.00421031090562876,3.99999845263225,
28.0048235364587));
#1217=CARTESIAN_POINT('Ctrl Pts',(0.243526301361583,3.99960153366678,28.278990790029));
#1218=CARTESIAN_POINT('Ctrl Pts',(0.719116001899386,3.95662313760852,28.8237565165678));
#1219=CARTESIAN_POINT('Ctrl Pts',(1.4220415290674,3.76283613850601,29.6022533939194));
#1220=CARTESIAN_POINT('Ctrl Pts',(2.10489782409877,3.4307536688593,30.2975355930504));
#1221=CARTESIAN_POINT('Ctrl Pts',(2.74836694528678,2.94544259718913,30.8361352011086));
#1222=CARTESIAN_POINT('Ctrl Pts',(3.12063635609974,2.51832723883024,31.));
#1223=CARTESIAN_POINT('Ctrl Pts',(3.28260722659317,2.28571428571429,31.));
#1224=CARTESIAN_POINT('Ctrl Pts',(5.74456264653804,-4.,28.));
#1225=CARTESIAN_POINT('Ctrl Pts',(5.46111362317452,-4.,28.));
#1226=CARTESIAN_POINT('Ctrl Pts',(4.97107181625572,-4.,28.0000000000001));
#1227=CARTESIAN_POINT('Ctrl Pts',(4.24740300066468,-4.,28.0000000000001));
#1228=CARTESIAN_POINT('Ctrl Pts',(3.67338880871495,-4.,28.0000000000001));
#1229=CARTESIAN_POINT('Ctrl Pts',(3.08615005263531,-4.,28.0000000000001));
#1230=CARTESIAN_POINT('Ctrl Pts',(2.28336134552417,-3.99999999999999,28.0000000000002));
#1231=CARTESIAN_POINT('Ctrl Pts',(1.25847613911277,-4.,28.));
#1232=CARTESIAN_POINT('Ctrl Pts',(0.426157179041271,-3.99999999999997,28.0000000000004));
#1233=CARTESIAN_POINT('Ctrl Pts',(0.00736812804518953,-4.,28.));
#1234=CARTESIAN_POINT('Ctrl Pts',(0.00368434140175655,-4.,28.));
#1235=CARTESIAN_POINT('Ctrl Pts',(8.88178419700125E-15,-4.,28.));
#1236=CARTESIAN_POINT('Ctrl Pts',(5.00794730741762,-3.48708691369963,28.));
#1237=CARTESIAN_POINT('Ctrl Pts',(4.79807989010077,-3.45931221254485,28.0715462427087));
#1238=CARTESIAN_POINT('Ctrl Pts',(4.417123349533,-3.48395694146583,28.1792236019598));
#1239=CARTESIAN_POINT('Ctrl Pts',(3.81516771639843,-3.58250194502425,28.2622873112781));
#1240=CARTESIAN_POINT('Ctrl Pts',(3.32228813055711,-3.67089479178001,28.2919744596626));
#1241=CARTESIAN_POINT('Ctrl Pts',(2.80605679184543,-3.76005809239855,28.2908703904563));
#1242=CARTESIAN_POINT('Ctrl Pts',(2.08839056898608,-3.8691614054237,28.2547086412853));
#1243=CARTESIAN_POINT('Ctrl Pts',(1.15620404456272,-3.97125925380863,28.1583439996423));
#1244=CARTESIAN_POINT('Ctrl Pts',(0.391425924066176,-3.99979473087904,28.0533114445629));
#1245=CARTESIAN_POINT('Ctrl Pts',(0.00676630552104225,-3.99999860817364,
28.0009177472532));
#1246=CARTESIAN_POINT('Ctrl Pts',(0.00338357883825784,-4.,28.0004594224044));
#1247=CARTESIAN_POINT('Ctrl Pts',(8.88178419700125E-15,-4.,28.));
#1248=CARTESIAN_POINT('Ctrl Pts',(3.7321497332165,-2.59873550893604,28.7524886214095));
#1249=CARTESIAN_POINT('Ctrl Pts',(3.64434462086181,-2.62574823310515,28.8634436767927));
#1250=CARTESIAN_POINT('Ctrl Pts',(3.45066920778297,-2.77947814466444,28.9991774481029));
#1251=CARTESIAN_POINT('Ctrl Pts',(3.0572965008459,-3.06192370699111,29.0368460374162));
#1252=CARTESIAN_POINT('Ctrl Pts',(2.70547217404664,-3.28277973081766,29.0023848505226));
#1253=CARTESIAN_POINT('Ctrl Pts',(2.3130733034142,-3.48827555520771,28.912889491272));
#1254=CARTESIAN_POINT('Ctrl Pts',(1.74487207653601,-3.72798050276601,28.7354796184152));
#1255=CARTESIAN_POINT('Ctrl Pts',(0.975572899994859,-3.94057155721534,28.4309343437563));
#1256=CARTESIAN_POINT('Ctrl Pts',(0.330459857153178,-3.99944356900305,28.1460878734946));
#1257=CARTESIAN_POINT('Ctrl Pts',(0.00571423116217093,-3.99999799509529,
28.0025269108712));
#1258=CARTESIAN_POINT('Ctrl Pts',(0.00285724435213506,-4.,28.001263411612));
#1259=CARTESIAN_POINT('Ctrl Pts',(8.88178419700125E-15,-4.,28.));
#1260=CARTESIAN_POINT('Ctrl Pts',(3.28260722659317,-2.28571428571429,30.3268015742308));
#1261=CARTESIAN_POINT('Ctrl Pts',(3.16389006547966,-2.45722249792008,30.3595493045325));
#1262=CARTESIAN_POINT('Ctrl Pts',(2.94106914492373,-2.73588702768978,30.3136324328376));
#1263=CARTESIAN_POINT('Ctrl Pts',(2.56594839565162,-3.08248278305815,30.1077600782395));
#1264=CARTESIAN_POINT('Ctrl Pts',(2.2497017953148,-3.32070617281966,29.8944697729698));
#1265=CARTESIAN_POINT('Ctrl Pts',(1.91066129395877,-3.52599020446803,29.6383275466288));
#1266=CARTESIAN_POINT('Ctrl Pts',(1.43116228453618,-3.75433132629866,29.2509753105899));
#1267=CARTESIAN_POINT('Ctrl Pts',(0.796410228905735,-3.94738527712621,28.705646306174));
#1268=CARTESIAN_POINT('Ctrl Pts',(0.269642088368706,-3.99954859905798,28.2390859971926));
#1269=CARTESIAN_POINT('Ctrl Pts',(0.00466127316026873,-3.99999792714827,
28.0041347520067));
#1270=CARTESIAN_POINT('Ctrl Pts',(0.00233090986601234,-4.,28.0020674008197));
#1271=CARTESIAN_POINT('Ctrl Pts',(8.88178419700125E-15,-4.,28.));
#1272=CARTESIAN_POINT('Ctrl Pts',(3.28260722659317,-2.28571428571429,31.));
#1273=CARTESIAN_POINT('Ctrl Pts',(3.12063635609971,-2.51832723883028,31.));
#1274=CARTESIAN_POINT('Ctrl Pts',(2.84061246643186,-2.83932125074092,30.8765094113245));
#1275=CARTESIAN_POINT('Ctrl Pts',(2.42708742895126,-3.18775213632717,30.5671205642627));
#1276=CARTESIAN_POINT('Ctrl Pts',(2.0990793192657,-3.41229840203802,30.2773781542004));
#1277=CARTESIAN_POINT('Ctrl Pts',(1.76351431579163,-3.59677491578285,29.9499243019085));
#1278=CARTESIAN_POINT('Ctrl Pts',(1.30477791172817,-3.79526137773348,29.4724821510249));
#1279=CARTESIAN_POINT('Ctrl Pts',(0.719129222350075,-3.95664937963281,28.8237969633594));
#1280=CARTESIAN_POINT('Ctrl Pts',(0.243518388023843,-3.99961081338577,28.2789891865734));
#1281=CARTESIAN_POINT('Ctrl Pts',(0.0042103588827521,-3.99999839669465,
28.0048235464747));
#1282=CARTESIAN_POINT('Ctrl Pts',(0.00210533794338829,-4.,28.002411967623));
#1283=CARTESIAN_POINT('Ctrl Pts',(8.88178419700125E-15,-4.,28.));
#1284=CARTESIAN_POINT('Ctrl Pts',(3.28260722659317,-2.28571428571429,31.));
#1285=CARTESIAN_POINT('Ctrl Pts',(3.12063635609971,-2.51832723883028,31.));
#1286=CARTESIAN_POINT('Ctrl Pts',(2.84061246643186,-2.83932125074092,30.8765094113245));
#1287=CARTESIAN_POINT('Ctrl Pts',(2.42708742895126,-3.18775213632717,30.5671205642627));
#1288=CARTESIAN_POINT('Ctrl Pts',(2.0990793192657,-3.41229840203802,30.2773781542004));
#1289=CARTESIAN_POINT('Ctrl Pts',(1.76351431579163,-3.59677491578285,29.9499243019085));
#1290=CARTESIAN_POINT('Ctrl Pts',(1.30477791172817,-3.79526137773348,29.4724821510249));
#1291=CARTESIAN_POINT('Ctrl Pts',(0.719129222350075,-3.95664937963281,28.8237969633594));
#1292=CARTESIAN_POINT('Ctrl Pts',(0.243518388023843,-3.99961081338577,28.2789891865734));
#1293=CARTESIAN_POINT('Ctrl Pts',(0.0042103588827521,-3.99999839669465,
28.0048235464747));
#1294=CARTESIAN_POINT('Ctrl Pts',(0.00210533794338829,-4.,28.002411967623));
#1295=CARTESIAN_POINT('Ctrl Pts',(8.88178419700125E-15,-4.,28.));
#1296=CARTESIAN_POINT('Origin',(9.88098491916389E-15,0.,31.));
#1297=CARTESIAN_POINT('',(-3.28260722659315,-2.28571428571429,31.));
#1298=CARTESIAN_POINT('Origin',(-5.74456264653802,-4.,31.));
#1299=CARTESIAN_POINT('',(-3.99999999999999,-4.89858719658941E-16,31.));
#1300=CARTESIAN_POINT('Origin',(9.88098491916389E-15,0.,31.));
#1301=CARTESIAN_POINT('',(-3.28260722659315,2.28571428571429,31.));
#1302=CARTESIAN_POINT('Origin',(9.88098491916389E-15,0.,31.));
#1303=CARTESIAN_POINT('',(-5.74456264653802,4.,28.));
#1304=CARTESIAN_POINT('Origin',(-5.74456264653802,4.,31.));
#1305=CARTESIAN_POINT('Origin',(8.85616366566375E-15,0.,28.));
#1306=CARTESIAN_POINT('Ctrl Pts',(8.88178419700125E-15,-4.,28.));
#1307=CARTESIAN_POINT('Ctrl Pts',(-0.00368434140174351,-4.,28.));
#1308=CARTESIAN_POINT('Ctrl Pts',(-0.00736967880308213,-4.,28.));
#1309=CARTESIAN_POINT('Ctrl Pts',(-1.25561252860585,-4.00000000000011,28.0000000000004));
#1310=CARTESIAN_POINT('Ctrl Pts',(-2.93048554098348,-3.99999999999998,28.));
#1311=CARTESIAN_POINT('Ctrl Pts',(-4.81069651629403,-4.00000000000003,28.0000000000001));
#1312=CARTESIAN_POINT('Ctrl Pts',(-5.46111362317467,-4.,28.));
#1313=CARTESIAN_POINT('Ctrl Pts',(-5.74456264653802,-4.,28.));
#1314=CARTESIAN_POINT('Ctrl Pts',(8.89578016042475E-15,-4.,28.));
#1315=CARTESIAN_POINT('Ctrl Pts',(-0.00331087936684798,-4.00050135903579,
28.0004451979017));
#1316=CARTESIAN_POINT('Ctrl Pts',(-0.00683609158427118,-3.99953058887519,
28.0009319883941));
#1317=CARTESIAN_POINT('Ctrl Pts',(-1.15175997110699,-4.00806616323296,28.1565365701106));
#1318=CARTESIAN_POINT('Ctrl Pts',(-2.69577345410631,-3.79694971014505,28.3649938712584));
#1319=CARTESIAN_POINT('Ctrl Pts',(-4.29259301533092,-3.49059465735791,28.2140706270095));
#1320=CARTESIAN_POINT('Ctrl Pts',(-4.79770809148221,-3.46139928462769,28.0707198577883));
#1321=CARTESIAN_POINT('Ctrl Pts',(-5.00794730741761,-3.48708691369963,28.));
#1322=CARTESIAN_POINT('Ctrl Pts',(8.92027309641588E-15,-4.,28.));
#1323=CARTESIAN_POINT('Ctrl Pts',(-0.00271072779909118,-4.00049251555403,
28.0012249094584));
#1324=CARTESIAN_POINT('Ctrl Pts',(-0.00585308523961274,-3.99953392980146,
28.0025665563472));
#1325=CARTESIAN_POINT('Ctrl Pts',(-0.970809717731316,-4.00881416535741,
28.4281770383703));
#1326=CARTESIAN_POINT('Ctrl Pts',(-2.2836541214366,-3.60937925118553,29.0174486782749));
#1327=CARTESIAN_POINT('Ctrl Pts',(-3.38932790572471,-2.82657264261881,29.0465287265244));
#1328=CARTESIAN_POINT('Ctrl Pts',(-3.64567055578516,-2.62705176282313,28.8660807686388));
#1329=CARTESIAN_POINT('Ctrl Pts',(-3.73268199476987,-2.59910612831032,28.7534171378651));
#1330=CARTESIAN_POINT('Ctrl Pts',(8.94476603240701E-15,-4.,28.));
#1331=CARTESIAN_POINT('Ctrl Pts',(-0.00226707729242299,-4.00031960304333,
28.0020914022734));
#1332=CARTESIAN_POINT('Ctrl Pts',(-0.00472188179631719,-3.99970201217642,
28.0041180090202));
#1333=CARTESIAN_POINT('Ctrl Pts',(-0.793418265451339,-4.00297189414247,
28.7024370417091));
#1334=CARTESIAN_POINT('Ctrl Pts',(-1.85682778480686,-3.67771882340814,29.6584594749062));
#1335=CARTESIAN_POINT('Ctrl Pts',(-2.86852477619247,-2.82673200140895,30.3012773143615));
#1336=CARTESIAN_POINT('Ctrl Pts',(-3.16391138175798,-2.45749571141988,30.3609461664145));
#1337=CARTESIAN_POINT('Ctrl Pts',(-3.28260722659315,-2.28571428571429,30.3268015742308));
#1338=CARTESIAN_POINT('Ctrl Pts',(8.95526300497463E-15,-4.,28.));
#1339=CARTESIAN_POINT('Ctrl Pts',(-0.00210533794336918,-4.,28.002411967623));
#1340=CARTESIAN_POINT('Ctrl Pts',(-0.00421124503048606,-4.00000083440279,
28.0048294050603));
#1341=CARTESIAN_POINT('Ctrl Pts',(-0.717492873484178,-3.99766379019631,
28.8196609422726));
#1342=CARTESIAN_POINT('Ctrl Pts',(-1.67456316627723,-3.75256922870619,29.9329642055311));
#1343=CARTESIAN_POINT('Ctrl Pts',(-2.74896943788123,-2.94623699541243,30.8386446061017));
#1344=CARTESIAN_POINT('Ctrl Pts',(-3.12063635609978,-2.51832723883016,31.));
#1345=CARTESIAN_POINT('Ctrl Pts',(-3.28260722659315,-2.28571428571429,31.));
#1346=CARTESIAN_POINT('Ctrl Pts',(8.95526300497463E-15,-4.,28.));
#1347=CARTESIAN_POINT('Ctrl Pts',(-0.00210533794336918,-4.,28.002411967623));
#1348=CARTESIAN_POINT('Ctrl Pts',(-0.00421124503048606,-4.00000083440279,
28.0048294050603));
#1349=CARTESIAN_POINT('Ctrl Pts',(-0.717492873484178,-3.99766379019631,
28.8196609422726));
#1350=CARTESIAN_POINT('Ctrl Pts',(-1.67456316627723,-3.75256922870619,29.9329642055311));
#1351=CARTESIAN_POINT('Ctrl Pts',(-2.74896943788123,-2.94623699541243,30.8386446061017));
#1352=CARTESIAN_POINT('Ctrl Pts',(-3.12063635609978,-2.51832723883016,31.));
#1353=CARTESIAN_POINT('Ctrl Pts',(-3.28260722659315,-2.28571428571429,31.));
#1354=CARTESIAN_POINT('Ctrl Pts',(-5.74456264653802,4.,28.));
#1355=CARTESIAN_POINT('Ctrl Pts',(-5.1776645998109,4.,28.));
#1356=CARTESIAN_POINT('Ctrl Pts',(-4.26366195978911,3.99999999999999,28.));
#1357=CARTESIAN_POINT('Ctrl Pts',(-3.08645935715784,3.99999999999999,28.));
#1358=CARTESIAN_POINT('Ctrl Pts',(-2.4856806929383,3.99999999999999,27.9999999999999));
#1359=CARTESIAN_POINT('Ctrl Pts',(-1.87275621255177,3.99999999999999,27.9999999999999));
#1360=CARTESIAN_POINT('Ctrl Pts',(-1.25682820130543,3.99999999999998,27.9999999999999));
#1361=CARTESIAN_POINT('Ctrl Pts',(-0.634376550319949,3.99999999999999,27.9999999999999));
#1362=CARTESIAN_POINT('Ctrl Pts',(-0.218577702348356,3.99999999999997,27.9999999999997));
#1363=CARTESIAN_POINT('Ctrl Pts',(-0.00736847297160075,4.,28.));
#1364=CARTESIAN_POINT('Ctrl Pts',(-0.00368434140173805,4.,28.));
#1365=CARTESIAN_POINT('Ctrl Pts',(8.88178419700125E-15,4.,28.));
#1366=CARTESIAN_POINT('Ctrl Pts',(-5.00794730741761,3.48708691369963,28.));
#1367=CARTESIAN_POINT('Ctrl Pts',(-4.58821247278383,3.43153751139006,28.1430924854173));
#1368=CARTESIAN_POINT('Ctrl Pts',(-3.84116306075723,3.58211089413949,28.293584785811));
#1369=CARTESIAN_POINT('Ctrl Pts',(-2.80508126051726,3.75951653928622,28.287338309281));
#1370=CARTESIAN_POINT('Ctrl Pts',(-2.26862378566988,3.84143601405963,28.2620563889969));
#1371=CARTESIAN_POINT('Ctrl Pts',(-1.71422049263301,3.90988826090553,28.2141725849055));
#1372=CARTESIAN_POINT('Ctrl Pts',(-1.15284098175306,3.96096243099191,28.151976521336));
#1373=CARTESIAN_POINT('Ctrl Pts',(-0.582566920444355,3.9927016186515,28.0790942004714));
#1374=CARTESIAN_POINT('Ctrl Pts',(-0.200734516267748,3.99988580700286,28.0272624151118));
#1375=CARTESIAN_POINT('Ctrl Pts',(-0.00676696490908712,3.9999987326852,
28.0009187381848));
#1376=CARTESIAN_POINT('Ctrl Pts',(-0.00338357883823801,4.,28.0004594224044));
#1377=CARTESIAN_POINT('Ctrl Pts',(8.89578016042478E-15,4.,28.));
#1378=CARTESIAN_POINT('Ctrl Pts',(-3.73214973321649,2.59873550893604,28.7524886214095));
#1379=CARTESIAN_POINT('Ctrl Pts',(-3.55653950850708,2.65276095727426,28.9743987321758));
#1380=CARTESIAN_POINT('Ctrl Pts',(-3.10169793481829,3.07957179366224,29.0957039280933));
#1381=CARTESIAN_POINT('Ctrl Pts',(-2.31090140114063,3.48692498649971,28.9091971697423));
#1382=CARTESIAN_POINT('Ctrl Pts',(-1.88735825107754,3.66749589727159,28.7791414660638));
#1383=CARTESIAN_POINT('Ctrl Pts',(-1.43559208717681,3.81287198780089,28.6118269947398));
#1384=CARTESIAN_POINT('Ctrl Pts',(-0.970140648485346,3.91941544629427,28.4228295981024));
#1385=CARTESIAN_POINT('Ctrl Pts',(-0.491492119202684,3.98468925026377,28.2168017842159));
#1386=CARTESIAN_POINT('Ctrl Pts',(-0.169466669322418,3.99971958865007,28.0748882410852));
#1387=CARTESIAN_POINT('Ctrl Pts',(-0.00571480862086435,3.99999796735148,
28.0025274882353));
#1388=CARTESIAN_POINT('Ctrl Pts',(-0.0028572443521129,4.,28.001263411612));
#1389=CARTESIAN_POINT('Ctrl Pts',(8.92027309641596E-15,4.,28.));
#1390=CARTESIAN_POINT('Ctrl Pts',(-3.28260722659315,2.28571428571429,30.3268015742308));
#1391=CARTESIAN_POINT('Ctrl Pts',(-3.04517290436615,2.62873071012585,30.3922970348343));
#1392=CARTESIAN_POINT('Ctrl Pts',(-2.59094595201609,3.1153222969124,30.1523707403189));
#1393=CARTESIAN_POINT('Ctrl Pts',(-1.90952769472363,3.52489772848564,29.6381405851852));
#1394=CARTESIAN_POINT('Ctrl Pts',(-1.5514478239362,3.69648912955411,29.3486558291382));
#1395=CARTESIAN_POINT('Ctrl Pts',(-1.1761847614081,3.83120809561326,29.0323410592596));
#1396=CARTESIAN_POINT('Ctrl Pts',(-0.792920902720056,3.9277974983356,28.7003829119064));
#1397=CARTESIAN_POINT('Ctrl Pts',(-0.401233212131442,3.98641777757253,28.3557359399918));
#1398=CARTESIAN_POINT('Ctrl Pts',(-0.138275874198087,3.99975689421143,28.1226285041248));
#1399=CARTESIAN_POINT('Ctrl Pts',(-0.00466177629010674,3.99999809308212,
28.0041349369614));
#1400=CARTESIAN_POINT('Ctrl Pts',(-0.00233090986598783,4.,28.0020674008197));
#1401=CARTESIAN_POINT('Ctrl Pts',(8.94476603240714E-15,4.,28.));
#1402=CARTESIAN_POINT('Ctrl Pts',(-3.28260722659315,2.28571428571429,31.));
#1403=CARTESIAN_POINT('Ctrl Pts',(-2.95866548560626,2.75094019194623,31.));
#1404=CARTESIAN_POINT('Ctrl Pts',(-2.43637826273661,3.22706210098104,30.6052723703703));
#1405=CARTESIAN_POINT('Ctrl Pts',(-1.763691061233,3.59605813274009,29.9509656603955));
#1406=CARTESIAN_POINT('Ctrl Pts',(-1.42038896739325,3.74507447993255,29.5930851705804));
#1407=CARTESIAN_POINT('Ctrl Pts',(-1.07014640717235,3.85954818332014,29.2128568743746));
#1408=CARTESIAN_POINT('Ctrl Pts',(-0.718187543603003,3.94023948485383,28.8195160853211));
#1409=CARTESIAN_POINT('Ctrl Pts',(-0.362500885896968,3.98876912888418,28.4153810447599));
#1410=CARTESIAN_POINT('Ctrl Pts',(-0.124901544198944,3.99979255253012,28.1430992339299));
#1411=CARTESIAN_POINT('Ctrl Pts',(-0.00421055598355998,3.99999851265674,
28.0048237222735));
#1412=CARTESIAN_POINT('Ctrl Pts',(-0.00210533794336279,4.,28.002411967623));
#1413=CARTESIAN_POINT('Ctrl Pts',(8.95526300497478E-15,4.,28.));
#1414=CARTESIAN_POINT('Ctrl Pts',(-3.28260722659315,2.28571428571429,31.));
#1415=CARTESIAN_POINT('Ctrl Pts',(-2.95866548560626,2.75094019194623,31.));
#1416=CARTESIAN_POINT('Ctrl Pts',(-2.43637826273661,3.22706210098104,30.6052723703703));
#1417=CARTESIAN_POINT('Ctrl Pts',(-1.763691061233,3.59605813274009,29.9509656603955));
#1418=CARTESIAN_POINT('Ctrl Pts',(-1.42038896739325,3.74507447993255,29.5930851705804));
#1419=CARTESIAN_POINT('Ctrl Pts',(-1.07014640717235,3.85954818332014,29.2128568743746));
#1420=CARTESIAN_POINT('Ctrl Pts',(-0.718187543603003,3.94023948485383,28.8195160853211));
#1421=CARTESIAN_POINT('Ctrl Pts',(-0.362500885896968,3.98876912888418,28.4153810447599));
#1422=CARTESIAN_POINT('Ctrl Pts',(-0.124901544198944,3.99979255253012,28.1430992339299));
#1423=CARTESIAN_POINT('Ctrl Pts',(-0.00421055598355998,3.99999851265674,
28.0048237222735));
#1424=CARTESIAN_POINT('Ctrl Pts',(-0.00210533794336279,4.,28.002411967623));
#1425=CARTESIAN_POINT('Ctrl Pts',(8.95526300497478E-15,4.,28.));
#1426=CARTESIAN_POINT('',(-13.,4.,28.));
#1427=CARTESIAN_POINT('Origin',(-13.,0.,28.));
#1428=CARTESIAN_POINT('',(-13.,4.,28.));
#1429=CARTESIAN_POINT('Origin',(8.88178419700125E-15,0.,28.));
#1430=CARTESIAN_POINT('',(-3.99999999999999,-4.89858719658941E-16,33.));
#1431=CARTESIAN_POINT('Origin',(1.0547118733939E-14,0.,33.));
#1432=CARTESIAN_POINT('',(-3.99999999999999,-4.89858719658941E-16,28.));
#1433=CARTESIAN_POINT('Origin',(1.0547118733939E-14,0.,33.));
#1434=CARTESIAN_POINT('Origin',(-13.,0.,28.));
#1435=CARTESIAN_POINT('',(-13.,4.,28.));
#1436=CARTESIAN_POINT('Origin',(-2.22044604925031E-15,-6.,4.));
#1437=CARTESIAN_POINT('',(-15.,-6.,2.));
#1438=CARTESIAN_POINT('',(15.,-6.,2.));
#1439=CARTESIAN_POINT('',(-2.22044604925031E-15,-6.,2.));
#1440=CARTESIAN_POINT('Origin',(15.,-6.,4.));
#1441=CARTESIAN_POINT('Origin',(-15.,-6.,4.));
#1442=CARTESIAN_POINT('Origin',(15.,2.22044604925031E-15,4.));
#1443=CARTESIAN_POINT('',(15.,6.,2.));
#1444=CARTESIAN_POINT('',(15.,2.22044604925031E-15,2.));
#1445=CARTESIAN_POINT('Origin',(15.,6.,4.));
#1446=CARTESIAN_POINT('Origin',(-15.,2.22044604925031E-15,4.));
#1447=CARTESIAN_POINT('',(-15.,6.,2.));
#1448=CARTESIAN_POINT('',(-15.,2.22044604925031E-15,2.));
#1449=CARTESIAN_POINT('Origin',(-15.,6.,4.));
#1450=CARTESIAN_POINT('Origin',(-2.22044604925031E-15,6.,4.));
#1451=CARTESIAN_POINT('',(-2.22044604925031E-15,6.,2.));
#1452=CARTESIAN_POINT('',(-2.22044604925031E-15,4.,4.));
#1453=CARTESIAN_POINT('Origin',(-2.22044604925031E-15,4.44089209850063E-15,
2.));
#1454=CARTESIAN_POINT('',(36.8,12.,2.));
#1455=CARTESIAN_POINT('',(-36.8,12.,2.));
#1456=CARTESIAN_POINT('',(36.8,12.,2.));
#1457=CARTESIAN_POINT('',(-36.8,-12.,2.));
#1458=CARTESIAN_POINT('',(-36.8,12.,2.));
#1459=CARTESIAN_POINT('',(36.8,-12.,2.));
#1460=CARTESIAN_POINT('',(-36.8,-12.,2.));
#1461=CARTESIAN_POINT('',(36.8,-12.,2.));
#1462=CARTESIAN_POINT('',(34.4,-7.99999999999999,2.));
#1463=CARTESIAN_POINT('Origin',(32.8,-7.99999999999999,2.));
#1464=CARTESIAN_POINT('',(19.4,-7.99999999999999,2.));
#1465=CARTESIAN_POINT('Origin',(17.8,-7.99999999999999,2.));
#1466=CARTESIAN_POINT('',(19.4,8.00000000000001,2.));
#1467=CARTESIAN_POINT('Origin',(17.8,8.00000000000001,2.));
#1468=CARTESIAN_POINT('',(-31.2,-8.,2.));
#1469=CARTESIAN_POINT('Origin',(-32.8,-8.,2.));
#1470=CARTESIAN_POINT('',(-16.2,-8.,2.));
#1471=CARTESIAN_POINT('Origin',(-17.8,-8.,2.));
#1472=CARTESIAN_POINT('',(-16.2,8.00000000000001,2.));
#1473=CARTESIAN_POINT('Origin',(-17.8,8.00000000000001,2.));
#1474=CARTESIAN_POINT('',(-31.2,8.00000000000001,2.));
#1475=CARTESIAN_POINT('Origin',(-32.8,8.00000000000001,2.));
#1476=CARTESIAN_POINT('',(34.4,8.00000000000001,2.));
#1477=CARTESIAN_POINT('Origin',(32.8,8.00000000000001,2.));
#1478=CARTESIAN_POINT('Origin',(2.4980018054066E-15,0.,14.));
#1479=CARTESIAN_POINT('',(-9.16515138991168,4.,16.5));
#1480=CARTESIAN_POINT('',(-9.16515138991168,0.,16.5));
#1481=CARTESIAN_POINT('',(9.16515138991168,4.,16.5));
#1482=CARTESIAN_POINT('Origin',(2.4980018054066E-15,4.,14.));
#1483=CARTESIAN_POINT('',(9.16515138991168,0.,16.5));
#1484=CARTESIAN_POINT('Origin',(9.16515138991168,0.,11.5));
#1485=CARTESIAN_POINT('',(9.16515138991168,4.,11.5));
#1486=CARTESIAN_POINT('',(9.16515138991168,4.,11.5));
#1487=CARTESIAN_POINT('',(9.16515138991168,0.,11.5));
#1488=CARTESIAN_POINT('Origin',(2.4980018054066E-15,0.,14.));
#1489=CARTESIAN_POINT('',(-9.16515138991168,4.,11.5));
#1490=CARTESIAN_POINT('Origin',(2.4980018054066E-15,4.,14.));
#1491=CARTESIAN_POINT('',(-9.16515138991168,0.,11.5));
#1492=CARTESIAN_POINT('Origin',(-9.16515138991168,0.,16.5));
#1493=CARTESIAN_POINT('',(-9.16515138991168,4.,16.5));
#1494=CARTESIAN_POINT('Origin',(-2.22044604925031E-15,4.,15.));
#1495=CARTESIAN_POINT('Origin',(32.8,-7.99999999999999,0.));
#1496=CARTESIAN_POINT('',(34.4,-7.99999999999999,0.));
#1497=CARTESIAN_POINT('',(34.4,-7.99999999999999,0.));
#1498=CARTESIAN_POINT('Origin',(32.8,-7.99999999999999,0.));
#1499=CARTESIAN_POINT('Origin',(17.8,-7.99999999999999,0.));
#1500=CARTESIAN_POINT('',(19.4,-7.99999999999999,0.));
#1501=CARTESIAN_POINT('',(19.4,-7.99999999999999,0.));
#1502=CARTESIAN_POINT('Origin',(17.8,-7.99999999999999,0.));
#1503=CARTESIAN_POINT('Origin',(17.8,8.00000000000001,0.));
#1504=CARTESIAN_POINT('',(19.4,8.00000000000001,0.));
#1505=CARTESIAN_POINT('',(19.4,8.00000000000001,0.));
#1506=CARTESIAN_POINT('Origin',(17.8,8.00000000000001,0.));
#1507=CARTESIAN_POINT('Origin',(-32.8,-8.,0.));
#1508=CARTESIAN_POINT('',(-31.2,-8.,0.));
#1509=CARTESIAN_POINT('',(-31.2,-8.,0.));
#1510=CARTESIAN_POINT('Origin',(-32.8,-8.,0.));
#1511=CARTESIAN_POINT('Origin',(-17.8,-8.,0.));
#1512=CARTESIAN_POINT('',(-16.2,-8.,0.));
#1513=CARTESIAN_POINT('',(-16.2,-8.,0.));
#1514=CARTESIAN_POINT('Origin',(-17.8,-8.,0.));
#1515=CARTESIAN_POINT('Origin',(-17.8,8.00000000000001,0.));
#1516=CARTESIAN_POINT('',(-16.2,8.00000000000001,0.));
#1517=CARTESIAN_POINT('',(-16.2,8.00000000000001,0.));
#1518=CARTESIAN_POINT('Origin',(-17.8,8.00000000000001,0.));
#1519=CARTESIAN_POINT('Origin',(-32.8,8.00000000000001,0.));
#1520=CARTESIAN_POINT('',(-31.2,8.00000000000001,0.));
#1521=CARTESIAN_POINT('',(-31.2,8.00000000000001,0.));
#1522=CARTESIAN_POINT('Origin',(-32.8,8.00000000000001,0.));
#1523=CARTESIAN_POINT('Origin',(32.8,8.00000000000001,0.));
#1524=CARTESIAN_POINT('',(34.4,8.00000000000001,0.));
#1525=CARTESIAN_POINT('',(34.4,8.00000000000001,0.));
#1526=CARTESIAN_POINT('Origin',(32.8,8.00000000000001,0.));
#1527=CARTESIAN_POINT('Origin',(36.8,-12.,0.));
#1528=CARTESIAN_POINT('',(36.8,-12.,0.));
#1529=CARTESIAN_POINT('',(36.8,12.,0.));
#1530=CARTESIAN_POINT('',(36.8,-12.,0.));
#1531=CARTESIAN_POINT('',(36.8,12.,0.));
#1532=CARTESIAN_POINT('',(36.8,-12.,0.));
#1533=CARTESIAN_POINT('Origin',(-36.8,-12.,0.));
#1534=CARTESIAN_POINT('',(-36.8,-12.,0.));
#1535=CARTESIAN_POINT('',(-36.8,-12.,0.));
#1536=CARTESIAN_POINT('',(-36.8,-12.,0.));
#1537=CARTESIAN_POINT('Origin',(-36.8,12.,0.));
#1538=CARTESIAN_POINT('',(-36.8,12.,0.));
#1539=CARTESIAN_POINT('',(-36.8,12.,0.));
#1540=CARTESIAN_POINT('',(-36.8,12.,0.));
#1541=CARTESIAN_POINT('Origin',(36.8,12.,0.));
#1542=CARTESIAN_POINT('',(36.8,12.,0.));
#1543=CARTESIAN_POINT('Origin',(-2.22044604925031E-15,4.44089209850063E-15,
0.));
#1544=UNCERTAINTY_MEASURE_WITH_UNIT(LENGTH_MEASURE(0.01),#1548,
'DISTANCE_ACCURACY_VALUE',
'Maximum model space distance between geometric entities at asserted c
onnectivities');
#1545=UNCERTAINTY_MEASURE_WITH_UNIT(LENGTH_MEASURE(0.01),#1548,
'DISTANCE_ACCURACY_VALUE',
'Maximum model space distance between geometric entities at asserted c
onnectivities');
#1546=(
GEOMETRIC_REPRESENTATION_CONTEXT(3)
GLOBAL_UNCERTAINTY_ASSIGNED_CONTEXT((#1544))
GLOBAL_UNIT_ASSIGNED_CONTEXT((#1548,#1550,#1551))
REPRESENTATION_CONTEXT('','3D')
);
#1547=(
GEOMETRIC_REPRESENTATION_CONTEXT(3)
GLOBAL_UNCERTAINTY_ASSIGNED_CONTEXT((#1545))
GLOBAL_UNIT_ASSIGNED_CONTEXT((#1548,#1550,#1551))
REPRESENTATION_CONTEXT('','3D')
);
#1548=(
LENGTH_UNIT()
NAMED_UNIT(*)
SI_UNIT(.MILLI.,.METRE.)
);
#1549=(
LENGTH_UNIT()
NAMED_UNIT(*)
SI_UNIT(.CENTI.,.METRE.)
);
#1550=(
NAMED_UNIT(*)
PLANE_ANGLE_UNIT()
SI_UNIT($,.RADIAN.)
);
#1551=(
NAMED_UNIT(*)
SI_UNIT($,.STERADIAN.)
SOLID_ANGLE_UNIT()
);
#1552=SHAPE_DEFINITION_REPRESENTATION(#1553,#1554);
#1553=PRODUCT_DEFINITION_SHAPE('',$,#1556);
#1554=SHAPE_REPRESENTATION('',(#768),#1546);
#1555=PRODUCT_DEFINITION_CONTEXT('part definition',#1560,'design');
#1556=PRODUCT_DEFINITION('\X2\043A04400435043F\X0\_\X2\043C04300440043A043504400430\X0\',
'\X2\043A04400435043F\X0\_\X2\043C04300440043A043504400430\X0\',#1557,#1555);
#1557=PRODUCT_DEFINITION_FORMATION('',$,#1562);
#1558=PRODUCT_RELATED_PRODUCT_CATEGORY('\X2\043A04400435043F\X0\_\X2\043C04300440043A043504400430\X0\',
'\X2\043A04400435043F\X0\_\X2\043C04300440043A043504400430\X0\',(#1562));
#1559=APPLICATION_PROTOCOL_DEFINITION('international standard',
'automotive_design',2009,#1560);
#1560=APPLICATION_CONTEXT(
'Core Data for Automotive Mechanical Design Process');
#1561=PRODUCT_CONTEXT('part definition',#1560,'mechanical');
#1562=PRODUCT('\X2\043A04400435043F\X0\_\X2\043C04300440043A043504400430\X0\',
'\X2\043A04400435043F\X0\_\X2\043C04300440043A043504400430\X0\',$,(#1561));
#1563=PRESENTATION_STYLE_ASSIGNMENT((#1564));
#1564=SURFACE_STYLE_USAGE(.BOTH.,#1567);
#1565=SURFACE_STYLE_RENDERING_WITH_PROPERTIES($,#1571,(#1566));
#1566=SURFACE_STYLE_TRANSPARENT(0.);
#1567=SURFACE_SIDE_STYLE('',(#1568,#1565));
#1568=SURFACE_STYLE_FILL_AREA(#1569);
#1569=FILL_AREA_STYLE('',(#1570));
#1570=FILL_AREA_STYLE_COLOUR('',#1571);
#1571=COLOUR_RGB('',0.898039215686275,0.12156862745098,0.12156862745098);
ENDSEC;
END-ISO-10303-21;
