ISO-10303-21;
HEADER;
FILE_DESCRIPTION (( 'STEP AP214' ),
    '1' );
FILE_NAME ('A177 Мини пластиковый ролик для V-паза.STEP',
    '2019-09-03T12:02:08',
    ( 'Windows User' ),
    ( '' ),
    'SwSTEP 2.0',
    'SolidWorks 2018',
    '' );
FILE_SCHEMA (( 'AUTOMOTIVE_DESIGN' ));
ENDSEC;

DATA;
#1 = FILL_AREA_STYLE ('',( #119 ) ) ;
#2 = DIRECTION ( 'NONE',  ( 0.0000000000000000000, 0.0000000000000000000, 1.000000000000000000 ) ) ;
#3 = CIRCLE ( 'NONE', #317, 4.325000000000001066 ) ;
#4 = AXIS2_PLACEMENT_3D ( 'NONE', #113, #27, #170 ) ;
#5 = ORIENTED_EDGE ( 'NONE', *, *, #319, .T. ) ;
#6 = EDGE_LOOP ( 'NONE', ( #545, #254, #394, #350 ) ) ;
#7 =( NAMED_UNIT ( * ) SI_UNIT ( $, .STERADIAN. ) SOLID_ANGLE_UNIT ( ) );
#8 = APPLICATION_PROTOCOL_DEFINITION ( 'draft international standard', 'automotive_design', 1998, #192 ) ;
#9 = CONICAL_SURFACE ( 'NONE', #311, 5.300000000000000711, 0.7853981633974426169 ) ;
#10 = VERTEX_POINT ( 'NONE', #105 ) ;
#11 = AXIS2_PLACEMENT_3D ( 'NONE', #230, #531, #224 ) ;
#12 = CARTESIAN_POINT ( 'NONE',  ( 4.400000000000000355, 6.490628035480966008E-16, 5.299999999999995381 ) ) ;
#13 = AXIS2_PLACEMENT_3D ( 'NONE', #247, #473, #470 ) ;
#14 = PRODUCT_DEFINITION ( 'UNKNOWN', '', #191, #360 ) ;
#15 = UNCERTAINTY_MEASURE_WITH_UNIT (LENGTH_MEASURE( 1.000000000000000082E-05 ), #537, 'distance_accuracy_value', 'NONE');
#16 = PLANE ( 'NONE',  #560 ) ;
#17 = LINE ( 'NONE', #568, #31 ) ;
#18 = VERTEX_POINT ( 'NONE', #199 ) ;
#19 = ORIENTED_EDGE ( 'NONE', *, *, #86, .T. ) ;
#20 = DIRECTION ( 'NONE',  ( -0.7071067811865515695, 0.0000000000000000000, 0.7071067811865435759 ) ) ;
#21 = DIRECTION ( 'NONE',  ( 0.0000000000000000000, 0.0000000000000000000, -1.000000000000000000 ) ) ;
#22 = DIRECTION ( 'NONE',  ( 0.0000000000000000000, 0.0000000000000000000, -1.000000000000000000 ) ) ;
#23 = EDGE_CURVE ( 'NONE', #567, #89, #552, .T. ) ;
#24 = FACE_OUTER_BOUND ( 'NONE', #228, .T. ) ;
#25 = FACE_OUTER_BOUND ( 'NONE', #6, .T. ) ;
#26 = EDGE_LOOP ( 'NONE', ( #300, #359, #47, #498 ) ) ;
#27 = DIRECTION ( 'NONE',  ( 1.000000000000000000, -0.0000000000000000000, -0.0000000000000000000 ) ) ;
#28 = DIRECTION ( 'NONE',  ( 0.0000000000000000000, 0.0000000000000000000, -1.000000000000000000 ) ) ;
#29 =( GEOMETRIC_REPRESENTATION_CONTEXT ( 3 ) GLOBAL_UNCERTAINTY_ASSIGNED_CONTEXT ( ( #59 ) ) GLOBAL_UNIT_ASSIGNED_CONTEXT ( ( #483, #493, #49 ) ) REPRESENTATION_CONTEXT ( 'NONE', 'WORKASPACE' ) );
#30 = CARTESIAN_POINT ( 'NONE',  ( -4.400000000000000355, 0.0000000000000000000, -6.114999999999990443 ) ) ;
#31 = VECTOR ( 'NONE', #338, 1000.000000000000000 ) ;
#32 = LINE ( 'NONE', #464, #371 ) ;
#33 = VERTEX_POINT ( 'NONE', #546 ) ;
#34 = EDGE_CURVE ( 'NONE', #242, #567, #32, .T. ) ;
#35 = DIRECTION ( 'NONE',  ( 0.0000000000000000000, 0.0000000000000000000, -1.000000000000000000 ) ) ;
#36 = ADVANCED_FACE ( 'NONE', ( #68 ), #527, .F. ) ;
#37 = CARTESIAN_POINT ( 'NONE',  ( 4.400000000000000355, 0.0000000000000000000, 0.0000000000000000000 ) ) ;
#38 = COLOUR_RGB ( '',0.2509803921568627416, 0.2509803921568627416, 0.2509803921568627416 ) ;
#39 = DIRECTION ( 'NONE',  ( 1.000000000000000000, -0.0000000000000000000, -0.0000000000000000000 ) ) ;
#40 = ORIENTED_EDGE ( 'NONE', *, *, #220, .F. ) ;
#41 = ADVANCED_FACE ( 'NONE', ( #379 ), #485, .F. ) ;
#42 = CARTESIAN_POINT ( 'NONE',  ( 4.400000000000000355, 7.488715176786051115E-16, -6.114999999999988667 ) ) ;
#43 = ADVANCED_FACE ( 'NONE', ( #101, #159 ), #16, .F. ) ;
#44 = DIRECTION ( 'NONE',  ( -1.000000000000000000, -0.0000000000000000000, -0.0000000000000000000 ) ) ;
#45 = AXIS2_PLACEMENT_3D ( 'NONE', #209, #206, #506 ) ;
#46 = EDGE_LOOP ( 'NONE', ( #521, #96, #137, #61 ) ) ;
#47 = ORIENTED_EDGE ( 'NONE', *, *, #474, .F. ) ;
#48 = VERTEX_POINT ( 'NONE', #147 ) ;
#49 =( NAMED_UNIT ( * ) SI_UNIT ( $, .STERADIAN. ) SOLID_ANGLE_UNIT ( ) );
#50 =( LENGTH_UNIT ( ) NAMED_UNIT ( * ) SI_UNIT ( .MILLI., .METRE. ) );
#51 = LINE ( 'NONE', #410, #398 ) ;
#52 = FILL_AREA_STYLE ('',( #188 ) ) ;
#53 = CIRCLE ( 'NONE', #210, 6.114999999999990443 ) ;
#54 = AXIS2_PLACEMENT_3D ( 'NONE', #355, #187, #93 ) ;
#55 = ORIENTED_EDGE ( 'NONE', *, *, #135, .T. ) ;
#56 = CARTESIAN_POINT ( 'NONE',  ( -2.899999999999991029, 0.0000000000000000000, -7.614999999999999325 ) ) ;
#57 = LINE ( 'NONE', #112, #95 ) ;
#58 = ORIENTED_EDGE ( 'NONE', *, *, #492, .T. ) ;
#59 = UNCERTAINTY_MEASURE_WITH_UNIT (LENGTH_MEASURE( 1.000000000000000082E-05 ), #483, 'distance_accuracy_value', 'NONE');
#60 = EDGE_LOOP ( 'NONE', ( #518, #55 ) ) ;
#61 = ORIENTED_EDGE ( 'NONE', *, *, #499, .T. ) ;
#62 = CARTESIAN_POINT ( 'NONE',  ( 4.400000000000000355, 0.0000000000000000000, 0.0000000000000000000 ) ) ;
#63 = AXIS2_PLACEMENT_3D ( 'NONE', #442, #44, #272 ) ;
#64 = PRODUCT_RELATED_PRODUCT_CATEGORY ( 'part', '', ( #212 ) ) ;
#65 = CARTESIAN_POINT ( 'NONE',  ( -4.400000000000000355, 0.0000000000000000000, 0.0000000000000000000 ) ) ;
#66 = CYLINDRICAL_SURFACE ( 'NONE', #517, 7.614999999999999325 ) ;
#67 = CIRCLE ( 'NONE', #178, 4.325000000000001066 ) ;
#68 = FACE_OUTER_BOUND ( 'NONE', #172, .T. ) ;
#69 = AXIS2_PLACEMENT_3D ( 'NONE', #396, #314, #130 ) ;
#70 = CARTESIAN_POINT ( 'NONE',  ( 4.400000000000000355, 0.0000000000000000000, 0.0000000000000000000 ) ) ;
#71 = DIRECTION ( 'NONE',  ( 0.0000000000000000000, 0.0000000000000000000, -1.000000000000000000 ) ) ;
#72 = DIRECTION ( 'NONE',  ( 0.0000000000000000000, 0.0000000000000000000, -1.000000000000000000 ) ) ;
#73 = DIRECTION ( 'NONE',  ( 0.0000000000000000000, 0.0000000000000000000, 1.000000000000000000 ) ) ;
#74 = PRESENTATION_STYLE_ASSIGNMENT (( #439 ) ) ;
#75 = ORIENTED_EDGE ( 'NONE', *, *, #315, .T. ) ;
#76 = EDGE_LOOP ( 'NONE', ( #325, #351 ) ) ;
#77 = AXIS2_PLACEMENT_3D ( 'NONE', #205, #250, #380 ) ;
#78 = CARTESIAN_POINT ( 'NONE',  ( 4.100000000000004974, 0.0000000000000000000, -5.000000000000000000 ) ) ;
#79 = CARTESIAN_POINT ( 'NONE',  ( 0.4000000000000001887, 0.0000000000000000000, -4.325000000000001066 ) ) ;
#80 = ADVANCED_BREP_SHAPE_REPRESENTATION ( 'A177 ¦шэш яырёЄшъютvщ Ёюышъ фы  V-ярчр', ( #323, #353 ), #204 ) ;
#81 = DIRECTION ( 'NONE',  ( -1.000000000000000000, -0.0000000000000000000, -0.0000000000000000000 ) ) ;
#82 = CARTESIAN_POINT ( 'NONE',  ( -4.400000000000000355, 0.0000000000000000000, 0.0000000000000000000 ) ) ;
#83 = VECTOR ( 'NONE', #570, 1000.000000000000000 ) ;
#84 = FACE_OUTER_BOUND ( 'NONE', #534, .T. ) ;
#85 = ORIENTED_EDGE ( 'NONE', *, *, #23, .T. ) ;
#86 = EDGE_CURVE ( 'NONE', #245, #423, #143, .T. ) ;
#87 = DIRECTION ( 'NONE',  ( 0.0000000000000000000, 0.0000000000000000000, -1.000000000000000000 ) ) ;
#88 = DIRECTION ( 'NONE',  ( 0.0000000000000000000, 0.0000000000000000000, -1.000000000000000000 ) ) ;
#89 = VERTEX_POINT ( 'NONE', #12 ) ;
#90 = EDGE_LOOP ( 'NONE', ( #201, #263, #295, #208 ) ) ;
#91 = DIRECTION ( 'NONE',  ( -1.000000000000000000, -0.0000000000000000000, -0.0000000000000000000 ) ) ;
#92 = AXIS2_PLACEMENT_3D ( 'NONE', #256, #328, #556 ) ;
#93 = DIRECTION ( 'NONE',  ( 0.0000000000000000000, 0.0000000000000000000, -1.000000000000000000 ) ) ;
#94 = EDGE_CURVE ( 'NONE', #467, #423, #456, .T. ) ;
#95 = VECTOR ( 'NONE', #176, 1000.000000000000000 ) ;
#96 = ORIENTED_EDGE ( 'NONE', *, *, #482, .T. ) ;
#97 = DIRECTION ( 'NONE',  ( 1.000000000000000000, 0.0000000000000000000, 0.0000000000000000000 ) ) ;
#98 = DIRECTION ( 'NONE',  ( -1.000000000000000000, -0.0000000000000000000, -0.0000000000000000000 ) ) ;
#99 = CARTESIAN_POINT ( 'NONE',  ( -0.4000000000000001887, 0.0000000000000000000, 5.000000000000000000 ) ) ;
#100 = AXIS2_PLACEMENT_3D ( 'NONE', #471, #331, #71 ) ;
#101 = FACE_BOUND ( 'NONE', #551, .T. ) ;
#102 = ORIENTED_EDGE ( 'NONE', *, *, #34, .F. ) ;
#103 = DIRECTION ( 'NONE',  ( 0.7071067811865474617, 0.0000000000000000000, -0.7071067811865474617 ) ) ;
#104 = CARTESIAN_POINT ( 'NONE',  ( -4.400000000000000355, 0.0000000000000000000, 0.0000000000000000000 ) ) ;
#105 = CARTESIAN_POINT ( 'NONE',  ( -4.400000000000000355, 8.407200276146573601E-16, 6.114999999999990443 ) ) ;
#106 = CIRCLE ( 'NONE', #495, 7.614999999999999325 ) ;
#107 = CIRCLE ( 'NONE', #45, 5.299999999999995381 ) ;
#108 = ORIENTED_EDGE ( 'NONE', *, *, #509, .T. ) ;
#109 = DIRECTION ( 'NONE',  ( 1.000000000000000000, -0.0000000000000000000, -0.0000000000000000000 ) ) ;
#110 = PRODUCT_DEFINITION_SHAPE ( 'NONE', 'NONE',  #14 ) ;
#111 = DIRECTION ( 'NONE',  ( 0.0000000000000000000, 0.0000000000000000000, 1.000000000000000000 ) ) ;
#112 = CARTESIAN_POINT ( 'NONE',  ( 4.400000000000000355, 0.0000000000000000000, 7.614999999999999325 ) ) ;
#113 = CARTESIAN_POINT ( 'NONE',  ( -0.5999999999999998668, 0.0000000000000000000, 0.0000000000000000000 ) ) ;
#114 = EDGE_CURVE ( 'NONE', #318, #557, #67, .T. ) ;
#115 = CARTESIAN_POINT ( 'NONE',  ( -4.099999999999996092, 0.0000000000000000000, 5.000000000000000000 ) ) ;
#116 = DIRECTION ( 'NONE',  ( 0.0000000000000000000, 0.0000000000000000000, -1.000000000000000000 ) ) ;
#117 = ORIENTED_EDGE ( 'NONE', *, *, #270, .F. ) ;
#118 = DIRECTION ( 'NONE',  ( 1.000000000000000000, 0.0000000000000000000, 0.0000000000000000000 ) ) ;
#119 = FILL_AREA_STYLE_COLOUR ( '', #38 ) ;
#120 = CARTESIAN_POINT ( 'NONE',  ( -0.4000000000000001887, 6.123233995736766282E-16, -5.000000000000000000 ) ) ;
#121 = COLOUR_RGB ( '',0.2509803921568627416, 0.2509803921568627416, 0.2509803921568627416 ) ;
#122 = CIRCLE ( 'NONE', #11, 7.614999999999999325 ) ;
#123 = DIRECTION ( 'NONE',  ( 1.000000000000000000, 0.0000000000000000000, 0.0000000000000000000 ) ) ;
#124 = VECTOR ( 'NONE', #337, 1000.000000000000114 ) ;
#125 = CARTESIAN_POINT ( 'NONE',  ( 4.400000000000000355, 0.0000000000000000000, 6.114999999999988667 ) ) ;
#126 = ORIENTED_EDGE ( 'NONE', *, *, #533, .F. ) ;
#127 = ORIENTED_EDGE ( 'NONE', *, *, #145, .F. ) ;
#128 = EDGE_CURVE ( 'NONE', #557, #318, #539, .T. ) ;
#129 = CARTESIAN_POINT ( 'NONE',  ( 0.4000000000000001887, 0.0000000000000000000, 0.0000000000000000000 ) ) ;
#130 = DIRECTION ( 'NONE',  ( 0.0000000000000000000, 0.0000000000000000000, -1.000000000000000000 ) ) ;
#131 = VECTOR ( 'NONE', #181, 1000.000000000000114 ) ;
#132 = ORIENTED_EDGE ( 'NONE', *, *, #114, .T. ) ;
#133 = ORIENTED_EDGE ( 'NONE', *, *, #499, .F. ) ;
#134 = AXIS2_PLACEMENT_3D ( 'NONE', #510, #424, #73 ) ;
#135 = EDGE_CURVE ( 'NONE', #10, #467, #53, .T. ) ;
#136 = CARTESIAN_POINT ( 'NONE',  ( 4.400000000000000355, 0.0000000000000000000, 0.0000000000000000000 ) ) ;
#137 = ORIENTED_EDGE ( 'NONE', *, *, #411, .T. ) ;
#138 = ORIENTED_EDGE ( 'NONE', *, *, #270, .T. ) ;
#139 = DIRECTION ( 'NONE',  ( 1.000000000000000000, 0.0000000000000000000, 0.0000000000000000000 ) ) ;
#140 = APPLICATION_CONTEXT ( 'automotive_design' ) ;
#141 = EDGE_CURVE ( 'NONE', #467, #10, #530, .T. ) ;
#142 = VECTOR ( 'NONE', #431, 1000.000000000000000 ) ;
#143 = LINE ( 'NONE', #404, #366 ) ;
#144 =( NAMED_UNIT ( * ) PLANE_ANGLE_UNIT ( ) SI_UNIT ( $, .RADIAN. ) );
#145 = EDGE_CURVE ( 'NONE', #275, #296, #460, .T. ) ;
#146 =( GEOMETRIC_REPRESENTATION_CONTEXT ( 3 ) GLOBAL_UNCERTAINTY_ASSIGNED_CONTEXT ( ( #453 ) ) GLOBAL_UNIT_ASSIGNED_CONTEXT ( ( #50, #189, #7 ) ) REPRESENTATION_CONTEXT ( 'NONE', 'WORKASPACE' ) );
#147 = CARTESIAN_POINT ( 'NONE',  ( -0.4000000000000001887, 5.296597406312303835E-16, 4.325000000000001066 ) ) ;
#148 = DIRECTION ( 'NONE',  ( 1.000000000000000000, -0.0000000000000000000, -0.0000000000000000000 ) ) ;
#149 = AXIS2_PLACEMENT_3D ( 'NONE', #519, #523, #35 ) ;
#150 = ORIENTED_EDGE ( 'NONE', *, *, #458, .T. ) ;
#151 = VERTEX_POINT ( 'NONE', #115 ) ;
#152 = VERTEX_POINT ( 'NONE', #425 ) ;
#153 = CARTESIAN_POINT ( 'NONE',  ( -4.400000000000000355, 6.490628035480972910E-16, -5.300000000000000711 ) ) ;
#154 = CARTESIAN_POINT ( 'NONE',  ( -0.4000000000000001887, 0.0000000000000000000, 0.0000000000000000000 ) ) ;
#155 = DIRECTION ( 'NONE',  ( -1.000000000000000000, -0.0000000000000000000, -0.0000000000000000000 ) ) ;
#156 = CYLINDRICAL_SURFACE ( 'NONE', #149, 5.000000000000000000 ) ;
#157 = LINE ( 'NONE', #78, #124 ) ;
#158 = CARTESIAN_POINT ( 'NONE',  ( -4.099999999999996092, 6.123233995736766282E-16, -5.000000000000000000 ) ) ;
#159 = FACE_OUTER_BOUND ( 'NONE', #60, .T. ) ;
#160 = ORIENTED_EDGE ( 'NONE', *, *, #190, .T. ) ;
#161 = PLANE ( 'NONE',  #13 ) ;
#162 = AXIS2_PLACEMENT_3D ( 'NONE', #385, #165, #435 ) ;
#163 = ADVANCED_FACE ( 'NONE', ( #349 ), #232, .T. ) ;
#164 = CARTESIAN_POINT ( 'NONE',  ( -2.899999999999991029, 0.0000000000000000000, 7.614999999999999325 ) ) ;
#165 = DIRECTION ( 'NONE',  ( 1.000000000000000000, 0.0000000000000000000, 0.0000000000000000000 ) ) ;
#166 = LINE ( 'NONE', #120, #142 ) ;
#167 = ORIENTED_EDGE ( 'NONE', *, *, #476, .F. ) ;
#168 = AXIS2_PLACEMENT_3D ( 'NONE', #217, #123, #559 ) ;
#169 = VERTEX_POINT ( 'NONE', #514 ) ;
#170 = DIRECTION ( 'NONE',  ( 0.0000000000000000000, 0.0000000000000000000, -1.000000000000000000 ) ) ;
#171 = ADVANCED_FACE ( 'NONE', ( #393 ), #497, .F. ) ;
#172 = EDGE_LOOP ( 'NONE', ( #321, #186, #505, #58 ) ) ;
#173 = CARTESIAN_POINT ( 'NONE',  ( -4.400000000000000355, 0.0000000000000000000, 5.300000000000000711 ) ) ;
#174 = CARTESIAN_POINT ( 'NONE',  ( -2.899999999999991029, 0.0000000000000000000, 0.0000000000000000000 ) ) ;
#175 = CIRCLE ( 'NONE', #261, 7.614999999999999325 ) ;
#176 = DIRECTION ( 'NONE',  ( -1.000000000000000000, -0.0000000000000000000, -0.0000000000000000000 ) ) ;
#177 = ORIENTED_EDGE ( 'NONE', *, *, #347, .T. ) ;
#178 = AXIS2_PLACEMENT_3D ( 'NONE', #202, #504, #255 ) ;
#179 = DIRECTION ( 'NONE',  ( 0.0000000000000000000, 0.0000000000000000000, -1.000000000000000000 ) ) ;
#180 = ADVANCED_FACE ( 'NONE', ( #378, #84 ), #161, .T. ) ;
#181 = DIRECTION ( 'NONE',  ( 0.7071067811865474617, 8.659560562354932858E-17, 0.7071067811865474617 ) ) ;
#182 = SURFACE_SIDE_STYLE ('',( #427 ) ) ;
#183 = FACE_BOUND ( 'NONE', #76, .T. ) ;
#184 = ORIENTED_EDGE ( 'NONE', *, *, #465, .T. ) ;
#185 = ORIENTED_EDGE ( 'NONE', *, *, #319, .F. ) ;
#186 = ORIENTED_EDGE ( 'NONE', *, *, #432, .T. ) ;
#187 = DIRECTION ( 'NONE',  ( 1.000000000000000000, -0.0000000000000000000, -0.0000000000000000000 ) ) ;
#188 = FILL_AREA_STYLE_COLOUR ( '', #121 ) ;
#189 =( NAMED_UNIT ( * ) PLANE_ANGLE_UNIT ( ) SI_UNIT ( $, .RADIAN. ) );
#190 = EDGE_CURVE ( 'NONE', #89, #373, #107, .T. ) ;
#191 = PRODUCT_DEFINITION_FORMATION_WITH_SPECIFIED_SOURCE ( 'ANY', '', #212, .NOT_KNOWN. ) ;
#192 = APPLICATION_CONTEXT ( 'automotive_design' ) ;
#193 = FACE_OUTER_BOUND ( 'NONE', #90, .T. ) ;
#194 = ORIENTED_EDGE ( 'NONE', *, *, #381, .T. ) ;
#195 = ORIENTED_EDGE ( 'NONE', *, *, #94, .T. ) ;
#196 = APPLICATION_PROTOCOL_DEFINITION ( 'draft international standard', 'automotive_design', 1998, #140 ) ;
#197 = VECTOR ( 'NONE', #103, 1000.000000000000114 ) ;
#198 = EDGE_LOOP ( 'NONE', ( #558, #541, #75, #289 ) ) ;
#199 = CARTESIAN_POINT ( 'NONE',  ( -4.400000000000000355, 6.490628035480972910E-16, -5.300000000000000711 ) ) ;
#200 = EDGE_LOOP ( 'NONE', ( #5, #160 ) ) ;
#201 = ORIENTED_EDGE ( 'NONE', *, *, #391, .F. ) ;
#202 = CARTESIAN_POINT ( 'NONE',  ( 0.4000000000000001887, 0.0000000000000000000, 0.0000000000000000000 ) ) ;
#203 = AXIS2_PLACEMENT_3D ( 'NONE', #265, #429, #28 ) ;
#204 =( GEOMETRIC_REPRESENTATION_CONTEXT ( 3 ) GLOBAL_UNCERTAINTY_ASSIGNED_CONTEXT ( ( #15 ) ) GLOBAL_UNIT_ASSIGNED_CONTEXT ( ( #537, #144, #237 ) ) REPRESENTATION_CONTEXT ( 'NONE', 'WORKASPACE' ) );
#205 = CARTESIAN_POINT ( 'NONE',  ( -2.899999999999991029, 0.0000000000000000000, 0.0000000000000000000 ) ) ;
#206 = DIRECTION ( 'NONE',  ( -1.000000000000000000, -0.0000000000000000000, -0.0000000000000000000 ) ) ;
#207 = FACE_OUTER_BOUND ( 'NONE', #520, .T. ) ;
#208 = ORIENTED_EDGE ( 'NONE', *, *, #458, .F. ) ;
#209 = CARTESIAN_POINT ( 'NONE',  ( 4.400000000000000355, 0.0000000000000000000, 0.0000000000000000000 ) ) ;
#210 = AXIS2_PLACEMENT_3D ( 'NONE', #334, #550, #72 ) ;
#211 = DIRECTION ( 'NONE',  ( -1.000000000000000000, -0.0000000000000000000, -0.0000000000000000000 ) ) ;
#212 = PRODUCT ( 'A177 Мини пластиковый ролик для V-паза', 'A177 Мини пластиковый ролик для V-паза', '', ( #455 ) ) ;
#213 = CIRCLE ( 'NONE', #63, 5.299999999999995381 ) ;
#214 = ORIENTED_EDGE ( 'NONE', *, *, #327, .T. ) ;
#215 = ORIENTED_EDGE ( 'NONE', *, *, #383, .F. ) ;
#216 = CARTESIAN_POINT ( 'NONE',  ( -2.899999999999991029, 9.325685375507095100E-16, -7.614999999999999325 ) ) ;
#217 = CARTESIAN_POINT ( 'NONE',  ( 4.400000000000000355, 0.0000000000000000000, 0.0000000000000000000 ) ) ;
#218 = ADVANCED_FACE ( 'NONE', ( #409 ), #434, .T. ) ;
#219 = DIRECTION ( 'NONE',  ( 0.0000000000000000000, 0.0000000000000000000, -1.000000000000000000 ) ) ;
#220 = EDGE_CURVE ( 'NONE', #233, #18, #413, .T. ) ;
#221 = EDGE_LOOP ( 'NONE', ( #401, #368, #195, #133 ) ) ;
#222 = DIRECTION ( 'NONE',  ( -0.7071067811865471286, 8.659560562354937789E-17, -0.7071067811865479058 ) ) ;
#223 = ADVANCED_FACE ( 'NONE', ( #421 ), #268, .F. ) ;
#224 = DIRECTION ( 'NONE',  ( 0.0000000000000000000, 0.0000000000000000000, -1.000000000000000000 ) ) ;
#225 = DIRECTION ( 'NONE',  ( 1.000000000000000000, 0.0000000000000000000, 0.0000000000000000000 ) ) ;
#226 = EDGE_LOOP ( 'NONE', ( #438, #262 ) ) ;
#227 = ADVANCED_FACE ( 'NONE', ( #571 ), #306, .F. ) ;
#228 = EDGE_LOOP ( 'NONE', ( #387, #85, #185, #573 ) ) ;
#229 = AXIS2_PLACEMENT_3D ( 'NONE', #37, #507, #384 ) ;
#230 = CARTESIAN_POINT ( 'NONE',  ( 2.899999999999991029, 0.0000000000000000000, 0.0000000000000000000 ) ) ;
#231 = CIRCLE ( 'NONE', #463, 6.114999999999988667 ) ;
#232 = CONICAL_SURFACE ( 'NONE', #297, 6.114999999999988667, 0.7853981633974488341 ) ;
#233 = VERTEX_POINT ( 'NONE', #158 ) ;
#234 = DIRECTION ( 'NONE',  ( 0.0000000000000000000, 0.0000000000000000000, -1.000000000000000000 ) ) ;
#235 = MECHANICAL_DESIGN_GEOMETRIC_PRESENTATION_REPRESENTATION (  '', ( #248 ), #29 ) ;
#236 = DIRECTION ( 'NONE',  ( 0.0000000000000000000, 0.0000000000000000000, -1.000000000000000000 ) ) ;
#237 =( NAMED_UNIT ( * ) SI_UNIT ( $, .STERADIAN. ) SOLID_ANGLE_UNIT ( ) );
#238 = AXIS2_PLACEMENT_3D ( 'NONE', #244, #374, #21 ) ;
#239 = VECTOR ( 'NONE', #222, 1000.000000000000000 ) ;
#240 = CARTESIAN_POINT ( 'NONE',  ( 0.0000000000000000000, 0.0000000000000000000, 0.0000000000000000000 ) ) ;
#241 = CIRCLE ( 'NONE', #168, 6.114999999999988667 ) ;
#242 = VERTEX_POINT ( 'NONE', #554 ) ;
#243 = LINE ( 'NONE', #252, #407 ) ;
#244 = CARTESIAN_POINT ( 'NONE',  ( -4.400000000000000355, 0.0000000000000000000, 0.0000000000000000000 ) ) ;
#245 = VERTEX_POINT ( 'NONE', #330 ) ;
#246 = CLOSED_SHELL ( 'NONE', ( #477, #223, #339, #446, #269, #171, #227, #266, #43, #486, #522, #437, #565, #36, #180, #41, #218, #163, #443, #388 ) ) ;
#247 = CARTESIAN_POINT ( 'NONE',  ( -0.4000000000000001887, 0.0000000000000000000, 0.0000000000000000000 ) ) ;
#248 = STYLED_ITEM ( 'NONE', ( #74 ), #323 ) ;
#249 = CARTESIAN_POINT ( 'NONE',  ( 2.899999999999991029, 0.0000000000000000000, 7.614999999999999325 ) ) ;
#250 = DIRECTION ( 'NONE',  ( 1.000000000000000000, -0.0000000000000000000, -0.0000000000000000000 ) ) ;
#251 = FACE_BOUND ( 'NONE', #200, .T. ) ;
#252 = CARTESIAN_POINT ( 'NONE',  ( -4.400000000000000355, 0.0000000000000000000, 5.300000000000000711 ) ) ;
#253 = VECTOR ( 'NONE', #148, 1000.000000000000000 ) ;
#254 = ORIENTED_EDGE ( 'NONE', *, *, #412, .T. ) ;
#255 = DIRECTION ( 'NONE',  ( 0.0000000000000000000, 0.0000000000000000000, -1.000000000000000000 ) ) ;
#256 = CARTESIAN_POINT ( 'NONE',  ( 0.4000000000000001887, 0.0000000000000000000, 0.0000000000000000000 ) ) ;
#257 = DIRECTION ( 'NONE',  ( 1.000000000000000000, -0.0000000000000000000, -0.0000000000000000000 ) ) ;
#258 = AXIS2_PLACEMENT_3D ( 'NONE', #294, #508, #329 ) ;
#259 = CIRCLE ( 'NONE', #440, 5.000000000000000000 ) ;
#260 = EDGE_LOOP ( 'NONE', ( #102, #532, #389, #544 ) ) ;
#261 = AXIS2_PLACEMENT_3D ( 'NONE', #405, #364, #236 ) ;
#262 = ORIENTED_EDGE ( 'NONE', *, *, #381, .F. ) ;
#263 = ORIENTED_EDGE ( 'NONE', *, *, #476, .T. ) ;
#264 = CARTESIAN_POINT ( 'NONE',  ( 0.4000000000000001887, 0.0000000000000000000, -5.000000000000000000 ) ) ;
#265 = CARTESIAN_POINT ( 'NONE',  ( 4.100000000000004974, 0.0000000000000000000, 0.0000000000000000000 ) ) ;
#266 = ADVANCED_FACE ( 'NONE', ( #511 ), #365, .T. ) ;
#267 = CIRCLE ( 'NONE', #408, 5.000000000000000000 ) ;
#268 = CONICAL_SURFACE ( 'NONE', #524, 5.300000000000000711, 0.7853981633974426169 ) ;
#269 = ADVANCED_FACE ( 'NONE', ( #25 ), #543, .F. ) ;
#270 = EDGE_CURVE ( 'NONE', #313, #33, #241, .T. ) ;
#271 = ORIENTED_EDGE ( 'NONE', *, *, #340, .F. ) ;
#272 = DIRECTION ( 'NONE',  ( 0.0000000000000000000, 0.0000000000000000000, -1.000000000000000000 ) ) ;
#273 = DIRECTION ( 'NONE',  ( -1.000000000000000000, -0.0000000000000000000, -0.0000000000000000000 ) ) ;
#274 = DIRECTION ( 'NONE',  ( 0.0000000000000000000, 0.0000000000000000000, -1.000000000000000000 ) ) ;
#275 = VERTEX_POINT ( 'NONE', #264 ) ;
#276 = ORIENTED_EDGE ( 'NONE', *, *, #501, .T. ) ;
#277 = AXIS2_PLACEMENT_3D ( 'NONE', #574, #225, #179 ) ;
#278 = ORIENTED_EDGE ( 'NONE', *, *, #411, .F. ) ;
#279 = DIRECTION ( 'NONE',  ( -1.000000000000000000, -0.0000000000000000000, -0.0000000000000000000 ) ) ;
#280 = SURFACE_STYLE_USAGE ( .BOTH. , #316 ) ;
#281 = CARTESIAN_POINT ( 'NONE',  ( 0.4000000000000001887, 0.0000000000000000000, 0.0000000000000000000 ) ) ;
#282 = EDGE_CURVE ( 'NONE', #296, #567, #445, .T. ) ;
#283 = AXIS2_PLACEMENT_3D ( 'NONE', #308, #346, #88 ) ;
#284 = PLANE ( 'NONE',  #562 ) ;
#285 = FACE_OUTER_BOUND ( 'NONE', #260, .T. ) ;
#286 = ORIENTED_EDGE ( 'NONE', *, *, #482, .F. ) ;
#287 = VECTOR ( 'NONE', #322, 1000.000000000000114 ) ;
#288 = VERTEX_POINT ( 'NONE', #164 ) ;
#289 = ORIENTED_EDGE ( 'NONE', *, *, #190, .F. ) ;
#290 = AXIS2_PLACEMENT_3D ( 'NONE', #154, #155, #376 ) ;
#291 = CARTESIAN_POINT ( 'NONE',  ( 4.400000000000000355, 0.0000000000000000000, -5.299999999999995381 ) ) ;
#292 = AXIS2_PLACEMENT_3D ( 'NONE', #419, #382, #116 ) ;
#293 = LINE ( 'NONE', #397, #131 ) ;
#294 = CARTESIAN_POINT ( 'NONE',  ( 0.4000000000000001887, 0.0000000000000000000, 0.0000000000000000000 ) ) ;
#295 = ORIENTED_EDGE ( 'NONE', *, *, #501, .F. ) ;
#296 = VERTEX_POINT ( 'NONE', #525 ) ;
#297 = AXIS2_PLACEMENT_3D ( 'NONE', #62, #326, #111 ) ;
#298 = DIRECTION ( 'NONE',  ( 0.0000000000000000000, 0.0000000000000000000, 1.000000000000000000 ) ) ;
#299 = DIRECTION ( 'NONE',  ( 1.000000000000000000, -0.0000000000000000000, -0.0000000000000000000 ) ) ;
#300 = ORIENTED_EDGE ( 'NONE', *, *, #347, .F. ) ;
#301 = ORIENTED_EDGE ( 'NONE', *, *, #474, .T. ) ;
#302 = DIRECTION ( 'NONE',  ( 0.0000000000000000000, 0.0000000000000000000, -1.000000000000000000 ) ) ;
#303 = AXIS2_PLACEMENT_3D ( 'NONE', #174, #257, #302 ) ;
#304 = PRESENTATION_LAYER_ASSIGNMENT (  '', '', ( #248 ) ) ;
#305 = CONICAL_SURFACE ( 'NONE', #303, 7.614999999999999325, 0.7853981633974482790 ) ;
#306 = CYLINDRICAL_SURFACE ( 'NONE', #258, 5.000000000000000000 ) ;
#307 = ORIENTED_EDGE ( 'NONE', *, *, #391, .T. ) ;
#308 = CARTESIAN_POINT ( 'NONE',  ( 2.899999999999991029, 0.0000000000000000000, 0.0000000000000000000 ) ) ;
#309 = STYLED_ITEM ( 'NONE', ( #459 ), #80 ) ;
#310 = PLANE ( 'NONE',  #478 ) ;
#311 = AXIS2_PLACEMENT_3D ( 'NONE', #82, #81, #390 ) ;
#312 = VERTEX_POINT ( 'NONE', #561 ) ;
#313 = VERTEX_POINT ( 'NONE', #516 ) ;
#314 = DIRECTION ( 'NONE',  ( 1.000000000000000000, 0.0000000000000000000, 0.0000000000000000000 ) ) ;
#315 = EDGE_CURVE ( 'NONE', #296, #373, #157, .T. ) ;
#316 = SURFACE_SIDE_STYLE ('',( #502 ) ) ;
#317 = AXIS2_PLACEMENT_3D ( 'NONE', #563, #479, #430 ) ;
#318 = VERTEX_POINT ( 'NONE', #79 ) ;
#319 = EDGE_CURVE ( 'NONE', #373, #89, #213, .T. ) ;
#320 = CARTESIAN_POINT ( 'NONE',  ( 4.100000000000004974, 6.123233995736766282E-16, 5.000000000000000000 ) ) ;
#321 = ORIENTED_EDGE ( 'NONE', *, *, #450, .F. ) ;
#322 = DIRECTION ( 'NONE',  ( 0.7071067811865474617, 8.659560562354932858E-17, 0.7071067811865474617 ) ) ;
#323 = MANIFOLD_SOLID_BREP ( 'Фаска2', #246 ) ;
#324 = LINE ( 'NONE', #42, #239 ) ;
#325 = ORIENTED_EDGE ( 'NONE', *, *, #114, .F. ) ;
#326 = DIRECTION ( 'NONE',  ( -1.000000000000000000, 0.0000000000000000000, 0.0000000000000000000 ) ) ;
#327 = EDGE_CURVE ( 'NONE', #567, #296, #370, .T. ) ;
#328 = DIRECTION ( 'NONE',  ( 1.000000000000000000, 0.0000000000000000000, 0.0000000000000000000 ) ) ;
#329 = DIRECTION ( 'NONE',  ( 0.0000000000000000000, 0.0000000000000000000, -1.000000000000000000 ) ) ;
#330 = CARTESIAN_POINT ( 'NONE',  ( 2.899999999999991029, 9.325685375507095100E-16, -7.614999999999999325 ) ) ;
#331 = DIRECTION ( 'NONE',  ( -1.000000000000000000, -0.0000000000000000000, -0.0000000000000000000 ) ) ;
#332 = SHAPE_DEFINITION_REPRESENTATION ( #110, #80 ) ;
#333 = VECTOR ( 'NONE', #468, 999.9999999999998863 ) ;
#334 = CARTESIAN_POINT ( 'NONE',  ( -4.400000000000000355, 0.0000000000000000000, 0.0000000000000000000 ) ) ;
#335 = EDGE_LOOP ( 'NONE', ( #271, #572, #214, #127 ) ) ;
#336 = ORIENTED_EDGE ( 'NONE', *, *, #135, .F. ) ;
#337 = DIRECTION ( 'NONE',  ( 0.7071067811865474617, 0.0000000000000000000, -0.7071067811865474617 ) ) ;
#338 = DIRECTION ( 'NONE',  ( 1.000000000000000000, -0.0000000000000000000, -0.0000000000000000000 ) ) ;
#339 = ADVANCED_FACE ( 'NONE', ( #193 ), #496, .T. ) ;
#340 = EDGE_CURVE ( 'NONE', #242, #275, #484, .T. ) ;
#341 = CONICAL_SURFACE ( 'NONE', #469, 5.000000000000000000, 0.7853981633974482790 ) ;
#342 = EDGE_LOOP ( 'NONE', ( #448, #194, #414, #132 ) ) ;
#343 = ORIENTED_EDGE ( 'NONE', *, *, #340, .T. ) ;
#344 = DIRECTION ( 'NONE',  ( 1.000000000000000000, 0.0000000000000000000, 0.0000000000000000000 ) ) ;
#345 = CARTESIAN_POINT ( 'NONE',  ( -0.4000000000000001887, 0.0000000000000000000, 0.0000000000000000000 ) ) ;
#346 = DIRECTION ( 'NONE',  ( -1.000000000000000000, 0.0000000000000000000, 0.0000000000000000000 ) ) ;
#347 = EDGE_CURVE ( 'NONE', #233, #151, #377, .T. ) ;
#348 = CIRCLE ( 'NONE', #277, 5.300000000000000711 ) ;
#349 = FACE_OUTER_BOUND ( 'NONE', #566, .T. ) ;
#350 = ORIENTED_EDGE ( 'NONE', *, *, #542, .F. ) ;
#351 = ORIENTED_EDGE ( 'NONE', *, *, #128, .F. ) ;
#352 = DIRECTION ( 'NONE',  ( 1.000000000000000000, 0.0000000000000000000, 0.0000000000000000000 ) ) ;
#353 = AXIS2_PLACEMENT_3D ( 'NONE', #240, #362, #406 ) ;
#354 = CARTESIAN_POINT ( 'NONE',  ( 4.100000000000004974, 0.0000000000000000000, 0.0000000000000000000 ) ) ;
#355 = CARTESIAN_POINT ( 'NONE',  ( -0.5999999999999998668, 0.0000000000000000000, 0.0000000000000000000 ) ) ;
#356 = CIRCLE ( 'NONE', #69, 5.300000000000000711 ) ;
#357 = ORIENTED_EDGE ( 'NONE', *, *, #465, .F. ) ;
#358 = ORIENTED_EDGE ( 'NONE', *, *, #450, .T. ) ;
#359 = ORIENTED_EDGE ( 'NONE', *, *, #220, .T. ) ;
#360 = PRODUCT_DEFINITION_CONTEXT ( 'detailed design', #192, 'design' ) ;
#361 = EDGE_CURVE ( 'NONE', #151, #428, #243, .T. ) ;
#362 = DIRECTION ( 'NONE',  ( 0.0000000000000000000, 0.0000000000000000000, 1.000000000000000000 ) ) ;
#363 = CIRCLE ( 'NONE', #487, 5.000000000000000000 ) ;
#364 = DIRECTION ( 'NONE',  ( 1.000000000000000000, -0.0000000000000000000, -0.0000000000000000000 ) ) ;
#365 = CYLINDRICAL_SURFACE ( 'NONE', #548, 7.614999999999999325 ) ;
#366 = VECTOR ( 'NONE', #500, 1000.000000000000000 ) ;
#367 = PRESENTATION_LAYER_ASSIGNMENT (  '', '', ( #309 ) ) ;
#368 = ORIENTED_EDGE ( 'NONE', *, *, #141, .F. ) ;
#369 = DIRECTION ( 'NONE',  ( 1.000000000000000000, -0.0000000000000000000, -0.0000000000000000000 ) ) ;
#370 = CIRCLE ( 'NONE', #162, 5.000000000000000000 ) ;
#371 = VECTOR ( 'NONE', #451, 1000.000000000000000 ) ;
#372 = CARTESIAN_POINT ( 'NONE',  ( 4.100000000000004974, 6.123233995736766282E-16, 5.000000000000000000 ) ) ;
#373 = VERTEX_POINT ( 'NONE', #291 ) ;
#374 = DIRECTION ( 'NONE',  ( -1.000000000000000000, -0.0000000000000000000, -0.0000000000000000000 ) ) ;
#375 = CARTESIAN_POINT ( 'NONE',  ( -0.4000000000000001887, 0.0000000000000000000, 0.0000000000000000000 ) ) ;
#376 = DIRECTION ( 'NONE',  ( 0.0000000000000000000, 0.0000000000000000000, 1.000000000000000000 ) ) ;
#377 = CIRCLE ( 'NONE', #100, 5.000000000000000000 ) ;
#378 = FACE_BOUND ( 'NONE', #226, .T. ) ;
#379 = FACE_OUTER_BOUND ( 'NONE', #342, .T. ) ;
#380 = DIRECTION ( 'NONE',  ( 0.0000000000000000000, 0.0000000000000000000, -1.000000000000000000 ) ) ;
#381 = EDGE_CURVE ( 'NONE', #48, #312, #472, .T. ) ;
#382 = DIRECTION ( 'NONE',  ( 1.000000000000000000, 0.0000000000000000000, 0.0000000000000000000 ) ) ;
#383 = EDGE_CURVE ( 'NONE', #152, #169, #267, .T. ) ;
#384 = DIRECTION ( 'NONE',  ( 0.0000000000000000000, 0.0000000000000000000, 1.000000000000000000 ) ) ;
#385 = CARTESIAN_POINT ( 'NONE',  ( 4.100000000000004974, 0.0000000000000000000, 0.0000000000000000000 ) ) ;
#386 = FACE_OUTER_BOUND ( 'NONE', #416, .T. ) ;
#387 = ORIENTED_EDGE ( 'NONE', *, *, #327, .F. ) ;
#388 = ADVANCED_FACE ( 'NONE', ( #490 ), #538, .F. ) ;
#389 = ORIENTED_EDGE ( 'NONE', *, *, #145, .T. ) ;
#390 = DIRECTION ( 'NONE',  ( 0.0000000000000000000, 0.0000000000000000000, 1.000000000000000000 ) ) ;
#391 = EDGE_CURVE ( 'NONE', #33, #313, #231, .T. ) ;
#392 = LINE ( 'NONE', #99, #515 ) ;
#393 = FACE_OUTER_BOUND ( 'NONE', #462, .T. ) ;
#394 = ORIENTED_EDGE ( 'NONE', *, *, #128, .T. ) ;
#395 = ORIENTED_EDGE ( 'NONE', *, *, #492, .F. ) ;
#396 = CARTESIAN_POINT ( 'NONE',  ( -4.400000000000000355, 0.0000000000000000000, 0.0000000000000000000 ) ) ;
#397 = CARTESIAN_POINT ( 'NONE',  ( -2.899999999999991029, 9.325685375507095100E-16, 7.614999999999999325 ) ) ;
#398 = VECTOR ( 'NONE', #369, 1000.000000000000000 ) ;
#399 = DIRECTION ( 'NONE',  ( 0.0000000000000000000, 0.0000000000000000000, -1.000000000000000000 ) ) ;
#400 = VERTEX_POINT ( 'NONE', #249 ) ;
#401 = ORIENTED_EDGE ( 'NONE', *, *, #509, .F. ) ;
#402 = EDGE_CURVE ( 'NONE', #275, #242, #259, .T. ) ;
#403 = MECHANICAL_DESIGN_GEOMETRIC_PRESENTATION_REPRESENTATION (  '', ( #309 ), #146 ) ;
#404 = CARTESIAN_POINT ( 'NONE',  ( 4.400000000000000355, 9.325685375507095100E-16, -7.614999999999999325 ) ) ;
#405 = CARTESIAN_POINT ( 'NONE',  ( -2.899999999999991029, 0.0000000000000000000, 0.0000000000000000000 ) ) ;
#406 = DIRECTION ( 'NONE',  ( 1.000000000000000000, 0.0000000000000000000, 0.0000000000000000000 ) ) ;
#407 = VECTOR ( 'NONE', #20, 999.9999999999998863 ) ;
#408 = AXIS2_PLACEMENT_3D ( 'NONE', #375, #109, #426 ) ;
#409 = FACE_OUTER_BOUND ( 'NONE', #221, .T. ) ;
#410 = CARTESIAN_POINT ( 'NONE',  ( -0.5999999999999998668, 0.0000000000000000000, -4.325000000000001066 ) ) ;
#411 = EDGE_CURVE ( 'NONE', #400, #288, #57, .T. ) ;
#412 = EDGE_CURVE ( 'NONE', #48, #557, #17, .T. ) ;
#413 = LINE ( 'NONE', #153, #333 ) ;
#414 = ORIENTED_EDGE ( 'NONE', *, *, #542, .T. ) ;
#415 = ORIENTED_EDGE ( 'NONE', *, *, #432, .F. ) ;
#416 = EDGE_LOOP ( 'NONE', ( #40, #395, #503, #357 ) ) ;
#417 = DIRECTION ( 'NONE',  ( 0.0000000000000000000, 0.0000000000000000000, -1.000000000000000000 ) ) ;
#418 = DIRECTION ( 'NONE',  ( 0.0000000000000000000, 0.0000000000000000000, 1.000000000000000000 ) ) ;
#419 = CARTESIAN_POINT ( 'NONE',  ( 4.100000000000004974, 0.0000000000000000000, 0.0000000000000000000 ) ) ;
#420 = FACE_OUTER_BOUND ( 'NONE', #436, .T. ) ;
#421 = FACE_OUTER_BOUND ( 'NONE', #26, .T. ) ;
#422 = EDGE_CURVE ( 'NONE', #312, #48, #3, .T. ) ;
#423 = VERTEX_POINT ( 'NONE', #216 ) ;
#424 = DIRECTION ( 'NONE',  ( -1.000000000000000000, 0.0000000000000000000, 0.0000000000000000000 ) ) ;
#425 = CARTESIAN_POINT ( 'NONE',  ( -0.4000000000000001887, 0.0000000000000000000, 5.000000000000000000 ) ) ;
#426 = DIRECTION ( 'NONE',  ( 0.0000000000000000000, 0.0000000000000000000, -1.000000000000000000 ) ) ;
#427 = SURFACE_STYLE_FILL_AREA ( #1 ) ;
#428 = VERTEX_POINT ( 'NONE', #173 ) ;
#429 = DIRECTION ( 'NONE',  ( 1.000000000000000000, 0.0000000000000000000, 0.0000000000000000000 ) ) ;
#430 = DIRECTION ( 'NONE',  ( 0.0000000000000000000, 0.0000000000000000000, 1.000000000000000000 ) ) ;
#431 = DIRECTION ( 'NONE',  ( -1.000000000000000000, -0.0000000000000000000, -0.0000000000000000000 ) ) ;
#432 = EDGE_CURVE ( 'NONE', #169, #152, #549, .T. ) ;
#433 = DIRECTION ( 'NONE',  ( 0.0000000000000000000, 0.0000000000000000000, -1.000000000000000000 ) ) ;
#434 = CONICAL_SURFACE ( 'NONE', #77, 7.614999999999999325, 0.7853981633974482790 ) ;
#435 = DIRECTION ( 'NONE',  ( 0.0000000000000000000, 0.0000000000000000000, -1.000000000000000000 ) ) ;
#436 = EDGE_LOOP ( 'NONE', ( #336, #108, #512, #491 ) ) ;
#437 = ADVANCED_FACE ( 'NONE', ( #285 ), #156, .F. ) ;
#438 = ORIENTED_EDGE ( 'NONE', *, *, #422, .F. ) ;
#439 = SURFACE_STYLE_USAGE ( .BOTH. , #182 ) ;
#440 = AXIS2_PLACEMENT_3D ( 'NONE', #129, #344, #441 ) ;
#441 = DIRECTION ( 'NONE',  ( 0.0000000000000000000, 0.0000000000000000000, -1.000000000000000000 ) ) ;
#442 = CARTESIAN_POINT ( 'NONE',  ( 4.400000000000000355, 0.0000000000000000000, 0.0000000000000000000 ) ) ;
#443 = ADVANCED_FACE ( 'NONE', ( #386 ), #9, .F. ) ;
#444 = CARTESIAN_POINT ( 'NONE',  ( -4.099999999999996092, 0.0000000000000000000, 0.0000000000000000000 ) ) ;
#445 = CIRCLE ( 'NONE', #203, 5.000000000000000000 ) ;
#446 = ADVANCED_FACE ( 'NONE', ( #420 ), #305, .T. ) ;
#447 = EDGE_LOOP ( 'NONE', ( #276, #19, #540, #278 ) ) ;
#448 = ORIENTED_EDGE ( 'NONE', *, *, #412, .F. ) ;
#449 = DIRECTION ( 'NONE',  ( 0.0000000000000000000, 0.0000000000000000000, 1.000000000000000000 ) ) ;
#450 = EDGE_CURVE ( 'NONE', #169, #233, #166, .T. ) ;
#451 = DIRECTION ( 'NONE',  ( 1.000000000000000000, -0.0000000000000000000, -0.0000000000000000000 ) ) ;
#452 = CARTESIAN_POINT ( 'NONE',  ( -2.899999999999991029, 0.0000000000000000000, 0.0000000000000000000 ) ) ;
#453 = UNCERTAINTY_MEASURE_WITH_UNIT (LENGTH_MEASURE( 1.000000000000000082E-05 ), #50, 'distance_accuracy_value', 'NONE');
#454 = CIRCLE ( 'NONE', #283, 7.614999999999999325 ) ;
#455 = PRODUCT_CONTEXT ( 'NONE', #140, 'mechanical' ) ;
#456 = LINE ( 'NONE', #56, #197 ) ;
#457 = AXIS2_PLACEMENT_3D ( 'NONE', #488, #279, #2 ) ;
#458 = EDGE_CURVE ( 'NONE', #313, #400, #480, .T. ) ;
#459 = PRESENTATION_STYLE_ASSIGNMENT (( #280 ) ) ;
#460 = LINE ( 'NONE', #536, #253 ) ;
#461 = ORIENTED_EDGE ( 'NONE', *, *, #383, .T. ) ;
#462 = EDGE_LOOP ( 'NONE', ( #461, #358, #177, #126 ) ) ;
#463 = AXIS2_PLACEMENT_3D ( 'NONE', #526, #118, #433 ) ;
#464 = CARTESIAN_POINT ( 'NONE',  ( 0.4000000000000001887, 6.123233995736766282E-16, 5.000000000000000000 ) ) ;
#465 = EDGE_CURVE ( 'NONE', #18, #428, #348, .T. ) ;
#466 = FACE_OUTER_BOUND ( 'NONE', #46, .T. ) ;
#467 = VERTEX_POINT ( 'NONE', #30 ) ;
#468 = DIRECTION ( 'NONE',  ( -0.7071067811865515695, 8.659560562354884787E-17, -0.7071067811865435759 ) ) ;
#469 = AXIS2_PLACEMENT_3D ( 'NONE', #354, #528, #87 ) ;
#470 = DIRECTION ( 'NONE',  ( 0.0000000000000000000, 0.0000000000000000000, -1.000000000000000000 ) ) ;
#471 = CARTESIAN_POINT ( 'NONE',  ( -4.099999999999996092, 0.0000000000000000000, 0.0000000000000000000 ) ) ;
#472 = CIRCLE ( 'NONE', #134, 4.325000000000001066 ) ;
#473 = DIRECTION ( 'NONE',  ( -1.000000000000000000, 0.0000000000000000000, 0.0000000000000000000 ) ) ;
#474 = EDGE_CURVE ( 'NONE', #428, #18, #356, .T. ) ;
#475 = ORIENTED_EDGE ( 'NONE', *, *, #402, .T. ) ;
#476 = EDGE_CURVE ( 'NONE', #33, #245, #324, .T. ) ;
#477 = ADVANCED_FACE ( 'NONE', ( #24 ), #341, .F. ) ;
#478 = AXIS2_PLACEMENT_3D ( 'NONE', #535, #352, #274 ) ;
#479 = DIRECTION ( 'NONE',  ( -1.000000000000000000, 0.0000000000000000000, 0.0000000000000000000 ) ) ;
#480 = LINE ( 'NONE', #125, #83 ) ;
#481 = EDGE_LOOP ( 'NONE', ( #138, #307 ) ) ;
#482 = EDGE_CURVE ( 'NONE', #245, #400, #122, .T. ) ;
#483 =( LENGTH_UNIT ( ) NAMED_UNIT ( * ) SI_UNIT ( .MILLI., .METRE. ) );
#484 = CIRCLE ( 'NONE', #92, 5.000000000000000000 ) ;
#485 = CYLINDRICAL_SURFACE ( 'NONE', #54, 4.325000000000001066 ) ;
#486 = ADVANCED_FACE ( 'NONE', ( #466 ), #66, .T. ) ;
#487 = AXIS2_PLACEMENT_3D ( 'NONE', #444, #91, #399 ) ;
#488 = CARTESIAN_POINT ( 'NONE',  ( -0.4000000000000001887, 0.0000000000000000000, 0.0000000000000000000 ) ) ;
#489 = DIRECTION ( 'NONE',  ( 0.0000000000000000000, 0.0000000000000000000, -1.000000000000000000 ) ) ;
#490 = FACE_OUTER_BOUND ( 'NONE', #198, .T. ) ;
#491 = ORIENTED_EDGE ( 'NONE', *, *, #94, .F. ) ;
#492 = EDGE_CURVE ( 'NONE', #151, #233, #363, .T. ) ;
#493 =( NAMED_UNIT ( * ) PLANE_ANGLE_UNIT ( ) SI_UNIT ( $, .RADIAN. ) );
#494 = CARTESIAN_POINT ( 'NONE',  ( 0.4000000000000001887, 5.296597406312303835E-16, 4.325000000000001066 ) ) ;
#495 = AXIS2_PLACEMENT_3D ( 'NONE', #452, #39, #489 ) ;
#496 = CONICAL_SURFACE ( 'NONE', #229, 6.114999999999988667, 0.7853981633974488341 ) ;
#497 = CYLINDRICAL_SURFACE ( 'NONE', #290, 5.000000000000000000 ) ;
#498 = ORIENTED_EDGE ( 'NONE', *, *, #361, .F. ) ;
#499 = EDGE_CURVE ( 'NONE', #288, #423, #106, .T. ) ;
#500 = DIRECTION ( 'NONE',  ( -1.000000000000000000, -0.0000000000000000000, -0.0000000000000000000 ) ) ;
#501 = EDGE_CURVE ( 'NONE', #400, #245, #454, .T. ) ;
#502 = SURFACE_STYLE_FILL_AREA ( #52 ) ;
#503 = ORIENTED_EDGE ( 'NONE', *, *, #361, .T. ) ;
#504 = DIRECTION ( 'NONE',  ( 1.000000000000000000, 0.0000000000000000000, 0.0000000000000000000 ) ) ;
#505 = ORIENTED_EDGE ( 'NONE', *, *, #533, .T. ) ;
#506 = DIRECTION ( 'NONE',  ( 0.0000000000000000000, 0.0000000000000000000, -1.000000000000000000 ) ) ;
#507 = DIRECTION ( 'NONE',  ( -1.000000000000000000, 0.0000000000000000000, 0.0000000000000000000 ) ) ;
#508 = DIRECTION ( 'NONE',  ( 1.000000000000000000, -0.0000000000000000000, -0.0000000000000000000 ) ) ;
#509 = EDGE_CURVE ( 'NONE', #10, #288, #293, .T. ) ;
#510 = CARTESIAN_POINT ( 'NONE',  ( -0.4000000000000001887, 0.0000000000000000000, 0.0000000000000000000 ) ) ;
#511 = FACE_OUTER_BOUND ( 'NONE', #447, .T. ) ;
#512 = ORIENTED_EDGE ( 'NONE', *, *, #529, .F. ) ;
#513 = DIRECTION ( 'NONE',  ( 1.000000000000000000, 0.0000000000000000000, 0.0000000000000000000 ) ) ;
#514 = CARTESIAN_POINT ( 'NONE',  ( -0.4000000000000001887, 6.123233995736766282E-16, -5.000000000000000000 ) ) ;
#515 = VECTOR ( 'NONE', #98, 1000.000000000000000 ) ;
#516 = CARTESIAN_POINT ( 'NONE',  ( 4.400000000000000355, 0.0000000000000000000, 6.114999999999988667 ) ) ;
#517 = AXIS2_PLACEMENT_3D ( 'NONE', #136, #273, #449 ) ;
#518 = ORIENTED_EDGE ( 'NONE', *, *, #141, .T. ) ;
#519 = CARTESIAN_POINT ( 'NONE',  ( 0.4000000000000001887, 0.0000000000000000000, 0.0000000000000000000 ) ) ;
#520 = EDGE_LOOP ( 'NONE', ( #475, #343 ) ) ;
#521 = ORIENTED_EDGE ( 'NONE', *, *, #86, .F. ) ;
#522 = ADVANCED_FACE ( 'NONE', ( #251, #564 ), #310, .T. ) ;
#523 = DIRECTION ( 'NONE',  ( 1.000000000000000000, -0.0000000000000000000, -0.0000000000000000000 ) ) ;
#524 = AXIS2_PLACEMENT_3D ( 'NONE', #65, #547, #418 ) ;
#525 = CARTESIAN_POINT ( 'NONE',  ( 4.100000000000004974, 0.0000000000000000000, -5.000000000000000000 ) ) ;
#526 = CARTESIAN_POINT ( 'NONE',  ( 4.400000000000000355, 0.0000000000000000000, 0.0000000000000000000 ) ) ;
#527 = CYLINDRICAL_SURFACE ( 'NONE', #457, 5.000000000000000000 ) ;
#528 = DIRECTION ( 'NONE',  ( 1.000000000000000000, 0.0000000000000000000, 0.0000000000000000000 ) ) ;
#529 = EDGE_CURVE ( 'NONE', #423, #288, #175, .T. ) ;
#530 = CIRCLE ( 'NONE', #238, 6.114999999999990443 ) ;
#531 = DIRECTION ( 'NONE',  ( -1.000000000000000000, 0.0000000000000000000, 0.0000000000000000000 ) ) ;
#532 = ORIENTED_EDGE ( 'NONE', *, *, #402, .F. ) ;
#533 = EDGE_CURVE ( 'NONE', #152, #151, #392, .T. ) ;
#534 = EDGE_LOOP ( 'NONE', ( #215, #415 ) ) ;
#535 = CARTESIAN_POINT ( 'NONE',  ( 4.400000000000000355, 0.0000000000000000000, 0.0000000000000000000 ) ) ;
#536 = CARTESIAN_POINT ( 'NONE',  ( 0.4000000000000001887, 0.0000000000000000000, -5.000000000000000000 ) ) ;
#537 =( LENGTH_UNIT ( ) NAMED_UNIT ( * ) SI_UNIT ( .MILLI., .METRE. ) );
#538 = CONICAL_SURFACE ( 'NONE', #292, 5.000000000000000000, 0.7853981633974482790 ) ;
#539 = CIRCLE ( 'NONE', #569, 4.325000000000001066 ) ;
#540 = ORIENTED_EDGE ( 'NONE', *, *, #529, .T. ) ;
#541 = ORIENTED_EDGE ( 'NONE', *, *, #282, .F. ) ;
#542 = EDGE_CURVE ( 'NONE', #312, #318, #51, .T. ) ;
#543 = CYLINDRICAL_SURFACE ( 'NONE', #4, 4.325000000000001066 ) ;
#544 = ORIENTED_EDGE ( 'NONE', *, *, #282, .T. ) ;
#545 = ORIENTED_EDGE ( 'NONE', *, *, #422, .T. ) ;
#546 = CARTESIAN_POINT ( 'NONE',  ( 4.400000000000000355, 8.407200276146572614E-16, -6.114999999999988667 ) ) ;
#547 = DIRECTION ( 'NONE',  ( -1.000000000000000000, -0.0000000000000000000, -0.0000000000000000000 ) ) ;
#548 = AXIS2_PLACEMENT_3D ( 'NONE', #70, #211, #298 ) ;
#549 = CIRCLE ( 'NONE', #555, 5.000000000000000000 ) ;
#550 = DIRECTION ( 'NONE',  ( -1.000000000000000000, -0.0000000000000000000, -0.0000000000000000000 ) ) ;
#551 = EDGE_LOOP ( 'NONE', ( #301, #184 ) ) ;
#552 = LINE ( 'NONE', #372, #287 ) ;
#553 = CARTESIAN_POINT ( 'NONE',  ( 0.4000000000000001887, 0.0000000000000000000, 0.0000000000000000000 ) ) ;
#554 = CARTESIAN_POINT ( 'NONE',  ( 0.4000000000000001887, 6.123233995736766282E-16, 5.000000000000000000 ) ) ;
#555 = AXIS2_PLACEMENT_3D ( 'NONE', #345, #299, #219 ) ;
#556 = DIRECTION ( 'NONE',  ( 0.0000000000000000000, 0.0000000000000000000, -1.000000000000000000 ) ) ;
#557 = VERTEX_POINT ( 'NONE', #494 ) ;
#558 = ORIENTED_EDGE ( 'NONE', *, *, #23, .F. ) ;
#559 = DIRECTION ( 'NONE',  ( 0.0000000000000000000, 0.0000000000000000000, -1.000000000000000000 ) ) ;
#560 = AXIS2_PLACEMENT_3D ( 'NONE', #104, #139, #417 ) ;
#561 = CARTESIAN_POINT ( 'NONE',  ( -0.4000000000000001887, 0.0000000000000000000, -4.325000000000001066 ) ) ;
#562 = AXIS2_PLACEMENT_3D ( 'NONE', #281, #97, #234 ) ;
#563 = CARTESIAN_POINT ( 'NONE',  ( -0.4000000000000001887, 0.0000000000000000000, 0.0000000000000000000 ) ) ;
#564 = FACE_OUTER_BOUND ( 'NONE', #481, .T. ) ;
#565 = ADVANCED_FACE ( 'NONE', ( #183, #207 ), #284, .T. ) ;
#566 = EDGE_LOOP ( 'NONE', ( #167, #117, #150, #286 ) ) ;
#567 = VERTEX_POINT ( 'NONE', #320 ) ;
#568 = CARTESIAN_POINT ( 'NONE',  ( -0.5999999999999998668, 5.296597406312303835E-16, 4.325000000000001066 ) ) ;
#569 = AXIS2_PLACEMENT_3D ( 'NONE', #553, #513, #22 ) ;
#570 = DIRECTION ( 'NONE',  ( -0.7071067811865471286, 0.0000000000000000000, 0.7071067811865479058 ) ) ;
#571 = FACE_OUTER_BOUND ( 'NONE', #335, .T. ) ;
#572 = ORIENTED_EDGE ( 'NONE', *, *, #34, .T. ) ;
#573 = ORIENTED_EDGE ( 'NONE', *, *, #315, .F. ) ;
#574 = CARTESIAN_POINT ( 'NONE',  ( -4.400000000000000355, 0.0000000000000000000, 0.0000000000000000000 ) ) ;
ENDSEC;
END-ISO-10303-21;
