ISO-10303-21;
HEADER;
FILE_DESCRIPTION(('STEP AP203'),
    '1');
FILE_NAME('V-ролик сборка',
    '2025-11-26T13:52:57',
    (''),
    (''),
    'C3D Converter',
    'C3D Toolkit',
    '');
/**/
FILE_SCHEMA(('CONFIG_CONTROL_DESIGN'));
ENDSEC;

DATA;
#1=PRODUCT_DEFINITION('','UNSPECIFIED',#15,#18);
#2=SHAPE_DEFINITION_REPRESENTATION(#13,#3);
#3=SHAPE_REPRESENTATION('NONE',(#4,#40,#109,#177,#203,#271,#297),#8);
#4=AXIS2_PLACEMENT_3D('',#5,#6,#7);
#5=CARTESIAN_POINT('',(0.,0.,0.));
#6=DIRECTION('',(0.,0.,1.));
#7=DIRECTION('',(1.,0.,0.));
#8=(GEOMETRIC_REPRESENTATION_CONTEXT(3)GLOBAL_UNCERTAINTY_ASSIGNED_CONTEXT((#10))
GLOBAL_UNIT_ASSIGNED_CONTEXT((#9,#11,#12))REPRESENTATION_CONTEXT('NONE','NONE'));
#9=(LENGTH_UNIT()NAMED_UNIT(*)SI_UNIT(.MILLI.,.METRE.));
#10=UNCERTAINTY_MEASURE_WITH_UNIT(LENGTH_MEASURE(1.E-5),#9,'NONE','NONE');
#11=(NAMED_UNIT(*)PLANE_ANGLE_UNIT()SI_UNIT($,.RADIAN.));
#12=(NAMED_UNIT(*)SI_UNIT($,.STERADIAN.)SOLID_ANGLE_UNIT());
#13=PRODUCT_DEFINITION_SHAPE('NONE','NONE',#1);
#14=MECHANICAL_CONTEXT('NONE',#19,'mechanical');
#15=PRODUCT_DEFINITION_FORMATION_WITH_SPECIFIED_SOURCE('ANY','UNSPECIFIED',#16,.NOT_KNOWN.);
#16=PRODUCT('V-Wheel Kit reduced','V-Wheel Kit reduced','NONE',(#14));
#17=PRODUCT_RELATED_PRODUCT_CATEGORY('assembly','',(#16));
#18=DESIGN_CONTEXT('detailed design',#19,'design');
#19=APPLICATION_CONTEXT('configuration controlled 3d designs of mechanical parts and assemblies');
#20=APPLICATION_PROTOCOL_DEFINITION('international standard','config_control_design',
1994,#19);
#21=CC_DESIGN_DATE_AND_TIME_ASSIGNMENT(#22,#26,(#1));
#22=DATE_AND_TIME(#23,#24);
#23=CALENDAR_DATE(0,1,1);
#24=LOCAL_TIME(0,0,0.,#25);
#25=COORDINATED_UNIVERSAL_TIME_OFFSET(0,0,.AHEAD.);
#26=DATE_TIME_ROLE('creation_date');
#27=CC_DESIGN_APPROVAL(#28,(#1));
#28=APPROVAL(#29,'UNSPECIFIED');
#29=APPROVAL_STATUS('not_yet_approved');
#30=APPROVAL_DATE_TIME(#31,#28);
#31=DATE_AND_TIME(#32,#33);
#32=CALENDAR_DATE(0,1,1);
#33=LOCAL_TIME(0,0,0.,#34);
#34=COORDINATED_UNIVERSAL_TIME_OFFSET(0,0,.AHEAD.);
#35=PERSON('UNSPECIFIED','UNSPECIFIED','UNSPECIFIED',('UNSPECIFIED'),('UNSPECIFIED'),
('UNSPECIFIED'));
#36=ORGANIZATION('UNSPECIFIED','UNSPECIFIED','UNSPECIFIED');
#37=PERSON_AND_ORGANIZATION(#35,#36);
#38=PERSON_AND_ORGANIZATION_ROLE('creator');
#39=CC_DESIGN_PERSON_AND_ORGANIZATION_ASSIGNMENT(#37,#38,(#15,#1));
#40=AXIS2_PLACEMENT_3D('',#41,#42,#43);
#41=CARTESIAN_POINT('',(-4.61787042890045,1.51916905902608,-9.12460943331921));
#42=DIRECTION('',(0.357631171962146,-8.31933645791811E-16,0.933862915443687));
#43=DIRECTION('',(0.933862915443687,3.23364734724629E-16,-0.357631171962146));
#44=PRODUCT_DEFINITION('','UNSPECIFIED',#62,#65);
#45=SHAPE_DEFINITION_REPRESENTATION(#60,#46);
#46=SHAPE_REPRESENTATION('NONE',(#4),#8);
#47=MANIFOLD_SOLID_BREP('',#48);
#48=CLOSED_SHELL('',(#365,#374,#383,#392,#401,#410));
#49=COLOUR_RGB('',0.745098039215686,0.745098039215686,0.745098039215686);
#50=FILL_AREA_STYLE_COLOUR('',#49);
#51=FILL_AREA_STYLE($,(#50));
#52=SURFACE_STYLE_FILL_AREA(#51);
#53=SURFACE_SIDE_STYLE('',(#52));
#54=SURFACE_STYLE_USAGE(.BOTH.,#53);
#55=PRESENTATION_STYLE_ASSIGNMENT((#54));
#56=MECHANICAL_DESIGN_GEOMETRIC_PRESENTATION_REPRESENTATION('NONE',(#57,#125,#219,
#313,#373,#382,#391,#400,#409,#418,#427,#436,#445,#454,#463,#472,#481,#490,#499,
#508,#517,#526,#535,#544,#553,#562),#8);
#57=STYLED_ITEM('',(#55),#47);
#58=ADVANCED_BREP_SHAPE_REPRESENTATION('NONE',(#47),#8);
#59=SHAPE_REPRESENTATION_RELATIONSHIP('','',#46,#58);
#60=PRODUCT_DEFINITION_SHAPE('NONE','NONE',#44);
#61=MECHANICAL_CONTEXT('NONE',#66,'mechanical');
#62=PRODUCT_DEFINITION_FORMATION_WITH_SPECIFIED_SOURCE('ANY','UNSPECIFIED',#63,.NOT_KNOWN.);
#63=PRODUCT('Solid V-Wheel','Solid V-Wheel','NONE',(#61));
#64=PRODUCT_RELATED_PRODUCT_CATEGORY('detail','',(#63));
#65=DESIGN_CONTEXT('detailed design',#66,'design');
#66=APPLICATION_CONTEXT('configuration controlled 3d designs of mechanical parts and assemblies');
#67=APPLICATION_PROTOCOL_DEFINITION('international standard','config_control_design',
1994,#66);
#68=CC_DESIGN_DATE_AND_TIME_ASSIGNMENT(#69,#73,(#44));
#69=DATE_AND_TIME(#70,#71);
#70=CALENDAR_DATE(0,1,1);
#71=LOCAL_TIME(0,0,0.,#72);
#72=COORDINATED_UNIVERSAL_TIME_OFFSET(0,0,.AHEAD.);
#73=DATE_TIME_ROLE('creation_date');
#74=CC_DESIGN_APPROVAL(#75,(#44));
#75=APPROVAL(#76,'UNSPECIFIED');
#76=APPROVAL_STATUS('not_yet_approved');
#77=APPROVAL_DATE_TIME(#78,#75);
#78=DATE_AND_TIME(#79,#80);
#79=CALENDAR_DATE(0,1,1);
#80=LOCAL_TIME(0,0,0.,#81);
#81=COORDINATED_UNIVERSAL_TIME_OFFSET(0,0,.AHEAD.);
#82=PERSON('UNSPECIFIED','UNSPECIFIED','UNSPECIFIED',('UNSPECIFIED'),('UNSPECIFIED'),
('UNSPECIFIED'));
#83=ORGANIZATION('UNSPECIFIED','UNSPECIFIED','UNSPECIFIED');
#84=PERSON_AND_ORGANIZATION(#82,#83);
#85=PERSON_AND_ORGANIZATION_ROLE('creator');
#86=CC_DESIGN_PERSON_AND_ORGANIZATION_ASSIGNMENT(#84,#85,(#62,#44));
#87=ITEM_DEFINED_TRANSFORMATION('','',#4,#40);
#88=(REPRESENTATION_RELATIONSHIP('','',#46,#3)REPRESENTATION_RELATIONSHIP_WITH_TRANSFORMATION(
#87)SHAPE_REPRESENTATION_RELATIONSHIP());
#89=NEXT_ASSEMBLY_USAGE_OCCURRENCE('V-Wheel Kit reduced','V-Wheel Kit reduced','',
#1,#44,'');
#90=CC_DESIGN_SECURITY_CLASSIFICATION(#91,(#89));
#91=SECURITY_CLASSIFICATION('','',#92);
#92=SECURITY_CLASSIFICATION_LEVEL('unclassified');
#93=CC_DESIGN_DATE_AND_TIME_ASSIGNMENT(#94,#98,(#91));
#94=DATE_AND_TIME(#95,#96);
#95=CALENDAR_DATE(0,1,1);
#96=LOCAL_TIME(0,0,0.,#97);
#97=COORDINATED_UNIVERSAL_TIME_OFFSET(0,0,.AHEAD.);
#98=DATE_TIME_ROLE('classification_date');
#99=CC_DESIGN_APPROVAL(#100,(#91));
#100=APPROVAL(#101,'UNSPECIFIED');
#101=APPROVAL_STATUS('not_yet_approved');
#102=APPROVAL_DATE_TIME(#103,#100);
#103=DATE_AND_TIME(#104,#105);
#104=CALENDAR_DATE(0,1,1);
#105=LOCAL_TIME(0,0,0.,#106);
#106=COORDINATED_UNIVERSAL_TIME_OFFSET(0,0,.AHEAD.);
#107=PRODUCT_DEFINITION_SHAPE('NONE','NONE',#89);
#108=CONTEXT_DEPENDENT_SHAPE_REPRESENTATION(#88,#107);
#109=AXIS2_PLACEMENT_3D('',#110,#111,#112);
#110=CARTESIAN_POINT('',(-4.61787042890045,1.74916905902609,-9.12460943331922));
#111=DIRECTION('',(1.27710605211735E-18,1.,8.79129345751007E-16));
#112=DIRECTION('',(1.,-1.27710605211706E-18,-3.33066907387547E-16));
#113=PRODUCT_DEFINITION('','UNSPECIFIED',#130,#133);
#114=SHAPE_DEFINITION_REPRESENTATION(#128,#115);
#115=SHAPE_REPRESENTATION('NONE',(#4),#8);
#116=MANIFOLD_SOLID_BREP('',#117);
#117=CLOSED_SHELL('',(#419,#428,#437,#446,#455,#464,#473,#482,#491,#500,#509,#518));
#118=COLOUR_RGB('',0.745098039215686,0.745098039215686,0.745098039215686);
#119=FILL_AREA_STYLE_COLOUR('',#118);
#120=FILL_AREA_STYLE($,(#119));
#121=SURFACE_STYLE_FILL_AREA(#120);
#122=SURFACE_SIDE_STYLE('',(#121));
#123=SURFACE_STYLE_USAGE(.BOTH.,#122);
#124=PRESENTATION_STYLE_ASSIGNMENT((#123));
#125=STYLED_ITEM('',(#124),#116);
#126=ADVANCED_BREP_SHAPE_REPRESENTATION('NONE',(#116),#8);
#127=SHAPE_REPRESENTATION_RELATIONSHIP('','',#115,#126);
#128=PRODUCT_DEFINITION_SHAPE('NONE','NONE',#113);
#129=MECHANICAL_CONTEXT('NONE',#134,'mechanical');
#130=PRODUCT_DEFINITION_FORMATION_WITH_SPECIFIED_SOURCE('ANY','UNSPECIFIED',#131,
.NOT_KNOWN.);
#131=PRODUCT('Ball Bearing 625 2RS 5x16x5','Ball Bearing 625 2RS 5x16x5','NONE',
(#129));
#132=PRODUCT_RELATED_PRODUCT_CATEGORY('detail','',(#131));
#133=DESIGN_CONTEXT('detailed design',#134,'design');
#134=APPLICATION_CONTEXT('configuration controlled 3d designs of mechanical parts and assemblies');
#135=APPLICATION_PROTOCOL_DEFINITION('international standard','config_control_design',
1994,#134);
#136=CC_DESIGN_DATE_AND_TIME_ASSIGNMENT(#137,#141,(#113));
#137=DATE_AND_TIME(#138,#139);
#138=CALENDAR_DATE(0,1,1);
#139=LOCAL_TIME(0,0,0.,#140);
#140=COORDINATED_UNIVERSAL_TIME_OFFSET(0,0,.AHEAD.);
#141=DATE_TIME_ROLE('creation_date');
#142=CC_DESIGN_APPROVAL(#143,(#113));
#143=APPROVAL(#144,'UNSPECIFIED');
#144=APPROVAL_STATUS('not_yet_approved');
#145=APPROVAL_DATE_TIME(#146,#143);
#146=DATE_AND_TIME(#147,#148);
#147=CALENDAR_DATE(0,1,1);
#148=LOCAL_TIME(0,0,0.,#149);
#149=COORDINATED_UNIVERSAL_TIME_OFFSET(0,0,.AHEAD.);
#150=PERSON('UNSPECIFIED','UNSPECIFIED','UNSPECIFIED',('UNSPECIFIED'),('UNSPECIFIED'),
('UNSPECIFIED'));
#151=ORGANIZATION('UNSPECIFIED','UNSPECIFIED','UNSPECIFIED');
#152=PERSON_AND_ORGANIZATION(#150,#151);
#153=PERSON_AND_ORGANIZATION_ROLE('creator');
#154=CC_DESIGN_PERSON_AND_ORGANIZATION_ASSIGNMENT(#152,#153,(#130,#113));
#155=ITEM_DEFINED_TRANSFORMATION('','',#4,#109);
#156=(REPRESENTATION_RELATIONSHIP('','',#115,#3)REPRESENTATION_RELATIONSHIP_WITH_TRANSFORMATION(
#155)SHAPE_REPRESENTATION_RELATIONSHIP());
#157=NEXT_ASSEMBLY_USAGE_OCCURRENCE('V-Wheel Kit reduced','V-Wheel Kit reduced',
'',#1,#113,'');
#158=CC_DESIGN_SECURITY_CLASSIFICATION(#159,(#157));
#159=SECURITY_CLASSIFICATION('','',#160);
#160=SECURITY_CLASSIFICATION_LEVEL('unclassified');
#161=CC_DESIGN_DATE_AND_TIME_ASSIGNMENT(#162,#166,(#159));
#162=DATE_AND_TIME(#163,#164);
#163=CALENDAR_DATE(0,1,1);
#164=LOCAL_TIME(0,0,0.,#165);
#165=COORDINATED_UNIVERSAL_TIME_OFFSET(0,0,.AHEAD.);
#166=DATE_TIME_ROLE('classification_date');
#167=CC_DESIGN_APPROVAL(#168,(#159));
#168=APPROVAL(#169,'UNSPECIFIED');
#169=APPROVAL_STATUS('not_yet_approved');
#170=APPROVAL_DATE_TIME(#171,#168);
#171=DATE_AND_TIME(#172,#173);
#172=CALENDAR_DATE(0,1,1);
#173=LOCAL_TIME(0,0,0.,#174);
#174=COORDINATED_UNIVERSAL_TIME_OFFSET(0,0,.AHEAD.);
#175=PRODUCT_DEFINITION_SHAPE('NONE','NONE',#157);
#176=CONTEXT_DEPENDENT_SHAPE_REPRESENTATION(#156,#175);
#177=AXIS2_PLACEMENT_3D('',#178,#179,#180);
#178=CARTESIAN_POINT('',(-4.61787042890045,6.74916905902609,-9.12460943331921));
#179=DIRECTION('',(-2.16521157984071E-16,1.,5.86489803284609E-16));
#180=DIRECTION('',(0.579467252372421,-3.52519643794858E-16,0.81499552356314));
#181=ITEM_DEFINED_TRANSFORMATION('','',#4,#177);
#182=(REPRESENTATION_RELATIONSHIP('','',#115,#3)REPRESENTATION_RELATIONSHIP_WITH_TRANSFORMATION(
#181)SHAPE_REPRESENTATION_RELATIONSHIP());
#183=NEXT_ASSEMBLY_USAGE_OCCURRENCE('V-Wheel Kit reduced','V-Wheel Kit reduced',
'',#1,#113,'');
#184=CC_DESIGN_SECURITY_CLASSIFICATION(#185,(#183));
#185=SECURITY_CLASSIFICATION('','',#186);
#186=SECURITY_CLASSIFICATION_LEVEL('unclassified');
#187=CC_DESIGN_DATE_AND_TIME_ASSIGNMENT(#188,#192,(#185));
#188=DATE_AND_TIME(#189,#190);
#189=CALENDAR_DATE(0,1,1);
#190=LOCAL_TIME(0,0,0.,#191);
#191=COORDINATED_UNIVERSAL_TIME_OFFSET(0,0,.AHEAD.);
#192=DATE_TIME_ROLE('classification_date');
#193=CC_DESIGN_APPROVAL(#194,(#185));
#194=APPROVAL(#195,'UNSPECIFIED');
#195=APPROVAL_STATUS('not_yet_approved');
#196=APPROVAL_DATE_TIME(#197,#194);
#197=DATE_AND_TIME(#198,#199);
#198=CALENDAR_DATE(0,1,1);
#199=LOCAL_TIME(0,0,0.,#200);
#200=COORDINATED_UNIVERSAL_TIME_OFFSET(0,0,.AHEAD.);
#201=PRODUCT_DEFINITION_SHAPE('NONE','NONE',#183);
#202=CONTEXT_DEPENDENT_SHAPE_REPRESENTATION(#182,#201);
#203=AXIS2_PLACEMENT_3D('',#204,#205,#206);
#204=CARTESIAN_POINT('',(-4.61787042890045,1.74916905902609,-9.12460943331921));
#205=DIRECTION('',(-4.98493633794678E-17,-1.,-8.72983175877008E-16));
#206=DIRECTION('',(1.,-4.98493633794675E-17,-2.77555756156289E-16));
#207=PRODUCT_DEFINITION('','UNSPECIFIED',#224,#227);
#208=SHAPE_DEFINITION_REPRESENTATION(#222,#209);
#209=SHAPE_REPRESENTATION('NONE',(#4),#8);
#210=MANIFOLD_SOLID_BREP('',#211);
#211=CLOSED_SHELL('',(#527,#536,#545,#554));
#212=COLOUR_RGB('',0.745098039215686,0.745098039215686,0.745098039215686);
#213=FILL_AREA_STYLE_COLOUR('',#212);
#214=FILL_AREA_STYLE($,(#213));
#215=SURFACE_STYLE_FILL_AREA(#214);
#216=SURFACE_SIDE_STYLE('',(#215));
#217=SURFACE_STYLE_USAGE(.BOTH.,#216);
#218=PRESENTATION_STYLE_ASSIGNMENT((#217));
#219=STYLED_ITEM('',(#218),#210);
#220=ADVANCED_BREP_SHAPE_REPRESENTATION('NONE',(#210),#8);
#221=SHAPE_REPRESENTATION_RELATIONSHIP('','',#209,#220);
#222=PRODUCT_DEFINITION_SHAPE('NONE','NONE',#207);
#223=MECHANICAL_CONTEXT('NONE',#228,'mechanical');
#224=PRODUCT_DEFINITION_FORMATION_WITH_SPECIFIED_SOURCE('ANY','UNSPECIFIED',#225,
.NOT_KNOWN.);
#225=PRODUCT('1mm 5mm shim','1mm 5mm shim','NONE',(#223));
#226=PRODUCT_RELATED_PRODUCT_CATEGORY('detail','',(#225));
#227=DESIGN_CONTEXT('detailed design',#228,'design');
#228=APPLICATION_CONTEXT('configuration controlled 3d designs of mechanical parts and assemblies');
#229=APPLICATION_PROTOCOL_DEFINITION('international standard','config_control_design',
1994,#228);
#230=CC_DESIGN_DATE_AND_TIME_ASSIGNMENT(#231,#235,(#207));
#231=DATE_AND_TIME(#232,#233);
#232=CALENDAR_DATE(0,1,1);
#233=LOCAL_TIME(0,0,0.,#234);
#234=COORDINATED_UNIVERSAL_TIME_OFFSET(0,0,.AHEAD.);
#235=DATE_TIME_ROLE('creation_date');
#236=CC_DESIGN_APPROVAL(#237,(#207));
#237=APPROVAL(#238,'UNSPECIFIED');
#238=APPROVAL_STATUS('not_yet_approved');
#239=APPROVAL_DATE_TIME(#240,#237);
#240=DATE_AND_TIME(#241,#242);
#241=CALENDAR_DATE(0,1,1);
#242=LOCAL_TIME(0,0,0.,#243);
#243=COORDINATED_UNIVERSAL_TIME_OFFSET(0,0,.AHEAD.);
#244=PERSON('UNSPECIFIED','UNSPECIFIED','UNSPECIFIED',('UNSPECIFIED'),('UNSPECIFIED'),
('UNSPECIFIED'));
#245=ORGANIZATION('UNSPECIFIED','UNSPECIFIED','UNSPECIFIED');
#246=PERSON_AND_ORGANIZATION(#244,#245);
#247=PERSON_AND_ORGANIZATION_ROLE('creator');
#248=CC_DESIGN_PERSON_AND_ORGANIZATION_ASSIGNMENT(#246,#247,(#224,#207));
#249=ITEM_DEFINED_TRANSFORMATION('','',#4,#203);
#250=(REPRESENTATION_RELATIONSHIP('','',#209,#3)REPRESENTATION_RELATIONSHIP_WITH_TRANSFORMATION(
#249)SHAPE_REPRESENTATION_RELATIONSHIP());
#251=NEXT_ASSEMBLY_USAGE_OCCURRENCE('V-Wheel Kit reduced','V-Wheel Kit reduced',
'',#1,#207,'');
#252=CC_DESIGN_SECURITY_CLASSIFICATION(#253,(#251));
#253=SECURITY_CLASSIFICATION('','',#254);
#254=SECURITY_CLASSIFICATION_LEVEL('unclassified');
#255=CC_DESIGN_DATE_AND_TIME_ASSIGNMENT(#256,#260,(#253));
#256=DATE_AND_TIME(#257,#258);
#257=CALENDAR_DATE(0,1,1);
#258=LOCAL_TIME(0,0,0.,#259);
#259=COORDINATED_UNIVERSAL_TIME_OFFSET(0,0,.AHEAD.);
#260=DATE_TIME_ROLE('classification_date');
#261=CC_DESIGN_APPROVAL(#262,(#253));
#262=APPROVAL(#263,'UNSPECIFIED');
#263=APPROVAL_STATUS('not_yet_approved');
#264=APPROVAL_DATE_TIME(#265,#262);
#265=DATE_AND_TIME(#266,#267);
#266=CALENDAR_DATE(0,1,1);
#267=LOCAL_TIME(0,0,0.,#268);
#268=COORDINATED_UNIVERSAL_TIME_OFFSET(0,0,.AHEAD.);
#269=PRODUCT_DEFINITION_SHAPE('NONE','NONE',#251);
#270=CONTEXT_DEPENDENT_SHAPE_REPRESENTATION(#250,#269);
#271=AXIS2_PLACEMENT_3D('',#272,#273,#274);
#272=CARTESIAN_POINT('',(-4.61787042890045,12.5491690590261,-9.1246094333192));
#273=DIRECTION('',(-1.95841543847508E-16,-1.,-9.26954444660131E-16));
#274=DIRECTION('',(0.344955433019491,8.02500509607491E-16,-0.938619065026028));
#275=ITEM_DEFINED_TRANSFORMATION('','',#4,#271);
#276=(REPRESENTATION_RELATIONSHIP('','',#209,#3)REPRESENTATION_RELATIONSHIP_WITH_TRANSFORMATION(
#275)SHAPE_REPRESENTATION_RELATIONSHIP());
#277=NEXT_ASSEMBLY_USAGE_OCCURRENCE('V-Wheel Kit reduced','V-Wheel Kit reduced',
'',#1,#207,'');
#278=CC_DESIGN_SECURITY_CLASSIFICATION(#279,(#277));
#279=SECURITY_CLASSIFICATION('','',#280);
#280=SECURITY_CLASSIFICATION_LEVEL('unclassified');
#281=CC_DESIGN_DATE_AND_TIME_ASSIGNMENT(#282,#286,(#279));
#282=DATE_AND_TIME(#283,#284);
#283=CALENDAR_DATE(0,1,1);
#284=LOCAL_TIME(0,0,0.,#285);
#285=COORDINATED_UNIVERSAL_TIME_OFFSET(0,0,.AHEAD.);
#286=DATE_TIME_ROLE('classification_date');
#287=CC_DESIGN_APPROVAL(#288,(#279));
#288=APPROVAL(#289,'UNSPECIFIED');
#289=APPROVAL_STATUS('not_yet_approved');
#290=APPROVAL_DATE_TIME(#291,#288);
#291=DATE_AND_TIME(#292,#293);
#292=CALENDAR_DATE(0,1,1);
#293=LOCAL_TIME(0,0,0.,#294);
#294=COORDINATED_UNIVERSAL_TIME_OFFSET(0,0,.AHEAD.);
#295=PRODUCT_DEFINITION_SHAPE('NONE','NONE',#277);
#296=CONTEXT_DEPENDENT_SHAPE_REPRESENTATION(#276,#295);
#297=AXIS2_PLACEMENT_3D('',#298,#299,#300);
#298=CARTESIAN_POINT('',(-4.61787042890045,-5.05083094097391,-9.12460943331922));
#299=DIRECTION('',(1.73378120373533E-16,-1.,-8.87015951452603E-16));
#300=DIRECTION('',(-0.998435266891743,-1.23505124500865E-16,-0.0559197445167063));
#301=PRODUCT_DEFINITION('','UNSPECIFIED',#318,#321);
#302=SHAPE_DEFINITION_REPRESENTATION(#316,#303);
#303=SHAPE_REPRESENTATION('NONE',(#4),#8);
#304=MANIFOLD_SOLID_BREP('',#305);
#305=CLOSED_SHELL('',(#563,#564,#565,#566,#567,#568,#569,#570));
#306=COLOUR_RGB('',0.952941176470588,0.952941176470588,0.952941176470588);
#307=FILL_AREA_STYLE_COLOUR('',#306);
#308=FILL_AREA_STYLE($,(#307));
#309=SURFACE_STYLE_FILL_AREA(#308);
#310=SURFACE_SIDE_STYLE('',(#309));
#311=SURFACE_STYLE_USAGE(.BOTH.,#310);
#312=PRESENTATION_STYLE_ASSIGNMENT((#311));
#313=STYLED_ITEM('',(#312),#304);
#314=ADVANCED_BREP_SHAPE_REPRESENTATION('NONE',(#304),#8);
#315=SHAPE_REPRESENTATION_RELATIONSHIP('','',#303,#314);
#316=PRODUCT_DEFINITION_SHAPE('NONE','NONE',#301);
#317=MECHANICAL_CONTEXT('NONE',#322,'mechanical');
#318=PRODUCT_DEFINITION_FORMATION_WITH_SPECIFIED_SOURCE('ANY','UNSPECIFIED',#319,
.NOT_KNOWN.);
#319=PRODUCT('Aluminium spacer 6mm','Aluminium spacer 6mm','NONE',(#317));
#320=PRODUCT_RELATED_PRODUCT_CATEGORY('detail','',(#319));
#321=DESIGN_CONTEXT('detailed design',#322,'design');
#322=APPLICATION_CONTEXT('configuration controlled 3d designs of mechanical parts and assemblies');
#323=APPLICATION_PROTOCOL_DEFINITION('international standard','config_control_design',
1994,#322);
#324=CC_DESIGN_DATE_AND_TIME_ASSIGNMENT(#325,#329,(#301));
#325=DATE_AND_TIME(#326,#327);
#326=CALENDAR_DATE(0,1,1);
#327=LOCAL_TIME(0,0,0.,#328);
#328=COORDINATED_UNIVERSAL_TIME_OFFSET(0,0,.AHEAD.);
#329=DATE_TIME_ROLE('creation_date');
#330=CC_DESIGN_APPROVAL(#331,(#301));
#331=APPROVAL(#332,'UNSPECIFIED');
#332=APPROVAL_STATUS('not_yet_approved');
#333=APPROVAL_DATE_TIME(#334,#331);
#334=DATE_AND_TIME(#335,#336);
#335=CALENDAR_DATE(0,1,1);
#336=LOCAL_TIME(0,0,0.,#337);
#337=COORDINATED_UNIVERSAL_TIME_OFFSET(0,0,.AHEAD.);
#338=PERSON('UNSPECIFIED','UNSPECIFIED','UNSPECIFIED',('UNSPECIFIED'),('UNSPECIFIED'),
('UNSPECIFIED'));
#339=ORGANIZATION('UNSPECIFIED','UNSPECIFIED','UNSPECIFIED');
#340=PERSON_AND_ORGANIZATION(#338,#339);
#341=PERSON_AND_ORGANIZATION_ROLE('creator');
#342=CC_DESIGN_PERSON_AND_ORGANIZATION_ASSIGNMENT(#340,#341,(#318,#301));
#343=ITEM_DEFINED_TRANSFORMATION('','',#4,#297);
#344=(REPRESENTATION_RELATIONSHIP('','',#303,#3)REPRESENTATION_RELATIONSHIP_WITH_TRANSFORMATION(
#343)SHAPE_REPRESENTATION_RELATIONSHIP());
#345=NEXT_ASSEMBLY_USAGE_OCCURRENCE('V-Wheel Kit reduced','V-Wheel Kit reduced',
'',#1,#301,'');
#346=CC_DESIGN_SECURITY_CLASSIFICATION(#347,(#345));
#347=SECURITY_CLASSIFICATION('','',#348);
#348=SECURITY_CLASSIFICATION_LEVEL('unclassified');
#349=CC_DESIGN_DATE_AND_TIME_ASSIGNMENT(#350,#354,(#347));
#350=DATE_AND_TIME(#351,#352);
#351=CALENDAR_DATE(0,1,1);
#352=LOCAL_TIME(0,0,0.,#353);
#353=COORDINATED_UNIVERSAL_TIME_OFFSET(0,0,.AHEAD.);
#354=DATE_TIME_ROLE('classification_date');
#355=CC_DESIGN_APPROVAL(#356,(#347));
#356=APPROVAL(#357,'UNSPECIFIED');
#357=APPROVAL_STATUS('not_yet_approved');
#358=APPROVAL_DATE_TIME(#359,#356);
#359=DATE_AND_TIME(#360,#361);
#360=CALENDAR_DATE(0,1,1);
#361=LOCAL_TIME(0,0,0.,#362);
#362=COORDINATED_UNIVERSAL_TIME_OFFSET(0,0,.AHEAD.);
#363=PRODUCT_DEFINITION_SHAPE('NONE','NONE',#345);
#364=CONTEXT_DEPENDENT_SHAPE_REPRESENTATION(#344,#363);
#365=ADVANCED_FACE('',(#571,#573),#575,.F.);
#366=COLOUR_RGB('',0.,0.,0.);
#367=FILL_AREA_STYLE_COLOUR('',#366);
#368=FILL_AREA_STYLE($,(#367));
#369=SURFACE_STYLE_FILL_AREA(#368);
#370=SURFACE_SIDE_STYLE('',(#369));
#371=SURFACE_STYLE_USAGE(.BOTH.,#370);
#372=PRESENTATION_STYLE_ASSIGNMENT((#371));
#373=STYLED_ITEM('',(#372),#365);
#374=ADVANCED_FACE('',(#580,#582),#584,.T.);
#375=COLOUR_RGB('',0.,0.,0.);
#376=FILL_AREA_STYLE_COLOUR('',#375);
#377=FILL_AREA_STYLE($,(#376));
#378=SURFACE_STYLE_FILL_AREA(#377);
#379=SURFACE_SIDE_STYLE('',(#378));
#380=SURFACE_STYLE_USAGE(.BOTH.,#379);
#381=PRESENTATION_STYLE_ASSIGNMENT((#380));
#382=STYLED_ITEM('',(#381),#374);
#383=ADVANCED_FACE('',(#589,#591),#593,.T.);
#384=COLOUR_RGB('',0.,0.,0.);
#385=FILL_AREA_STYLE_COLOUR('',#384);
#386=FILL_AREA_STYLE($,(#385));
#387=SURFACE_STYLE_FILL_AREA(#386);
#388=SURFACE_SIDE_STYLE('',(#387));
#389=SURFACE_STYLE_USAGE(.BOTH.,#388);
#390=PRESENTATION_STYLE_ASSIGNMENT((#389));
#391=STYLED_ITEM('',(#390),#383);
#392=ADVANCED_FACE('',(#598,#600),#602,.T.);
#393=COLOUR_RGB('',0.,0.,0.);
#394=FILL_AREA_STYLE_COLOUR('',#393);
#395=FILL_AREA_STYLE($,(#394));
#396=SURFACE_STYLE_FILL_AREA(#395);
#397=SURFACE_SIDE_STYLE('',(#396));
#398=SURFACE_STYLE_USAGE(.BOTH.,#397);
#399=PRESENTATION_STYLE_ASSIGNMENT((#398));
#400=STYLED_ITEM('',(#399),#392);
#401=ADVANCED_FACE('',(#607,#609),#611,.T.);
#402=COLOUR_RGB('',0.,0.,0.);
#403=FILL_AREA_STYLE_COLOUR('',#402);
#404=FILL_AREA_STYLE($,(#403));
#405=SURFACE_STYLE_FILL_AREA(#404);
#406=SURFACE_SIDE_STYLE('',(#405));
#407=SURFACE_STYLE_USAGE(.BOTH.,#406);
#408=PRESENTATION_STYLE_ASSIGNMENT((#407));
#409=STYLED_ITEM('',(#408),#401);
#410=ADVANCED_FACE('',(#616,#618),#620,.T.);
#411=COLOUR_RGB('',0.,0.,0.);
#412=FILL_AREA_STYLE_COLOUR('',#411);
#413=FILL_AREA_STYLE($,(#412));
#414=SURFACE_STYLE_FILL_AREA(#413);
#415=SURFACE_SIDE_STYLE('',(#414));
#416=SURFACE_STYLE_USAGE(.BOTH.,#415);
#417=PRESENTATION_STYLE_ASSIGNMENT((#416));
#418=STYLED_ITEM('',(#417),#410);
#419=ADVANCED_FACE('',(#625,#627),#629,.T.);
#420=COLOUR_RGB('',0.952941176470588,0.952941176470588,0.952941176470588);
#421=FILL_AREA_STYLE_COLOUR('',#420);
#422=FILL_AREA_STYLE($,(#421));
#423=SURFACE_STYLE_FILL_AREA(#422);
#424=SURFACE_SIDE_STYLE('',(#423));
#425=SURFACE_STYLE_USAGE(.BOTH.,#424);
#426=PRESENTATION_STYLE_ASSIGNMENT((#425));
#427=STYLED_ITEM('',(#426),#419);
#428=ADVANCED_FACE('',(#634,#636),#638,.T.);
#429=COLOUR_RGB('',0.952941176470588,0.952941176470588,0.952941176470588);
#430=FILL_AREA_STYLE_COLOUR('',#429);
#431=FILL_AREA_STYLE($,(#430));
#432=SURFACE_STYLE_FILL_AREA(#431);
#433=SURFACE_SIDE_STYLE('',(#432));
#434=SURFACE_STYLE_USAGE(.BOTH.,#433);
#435=PRESENTATION_STYLE_ASSIGNMENT((#434));
#436=STYLED_ITEM('',(#435),#428);
#437=ADVANCED_FACE('',(#643,#645),#647,.T.);
#438=COLOUR_RGB('',0.270588235294118,0.270588235294118,0.270588235294118);
#439=FILL_AREA_STYLE_COLOUR('',#438);
#440=FILL_AREA_STYLE($,(#439));
#441=SURFACE_STYLE_FILL_AREA(#440);
#442=SURFACE_SIDE_STYLE('',(#441));
#443=SURFACE_STYLE_USAGE(.BOTH.,#442);
#444=PRESENTATION_STYLE_ASSIGNMENT((#443));
#445=STYLED_ITEM('',(#444),#437);
#446=ADVANCED_FACE('',(#652,#654),#656,.F.);
#447=COLOUR_RGB('',0.952941176470588,0.952941176470588,0.952941176470588);
#448=FILL_AREA_STYLE_COLOUR('',#447);
#449=FILL_AREA_STYLE($,(#448));
#450=SURFACE_STYLE_FILL_AREA(#449);
#451=SURFACE_SIDE_STYLE('',(#450));
#452=SURFACE_STYLE_USAGE(.BOTH.,#451);
#453=PRESENTATION_STYLE_ASSIGNMENT((#452));
#454=STYLED_ITEM('',(#453),#446);
#455=ADVANCED_FACE('',(#661,#663),#665,.T.);
#456=COLOUR_RGB('',0.952941176470588,0.952941176470588,0.952941176470588);
#457=FILL_AREA_STYLE_COLOUR('',#456);
#458=FILL_AREA_STYLE($,(#457));
#459=SURFACE_STYLE_FILL_AREA(#458);
#460=SURFACE_SIDE_STYLE('',(#459));
#461=SURFACE_STYLE_USAGE(.BOTH.,#460);
#462=PRESENTATION_STYLE_ASSIGNMENT((#461));
#463=STYLED_ITEM('',(#462),#455);
#464=ADVANCED_FACE('',(#670,#672),#674,.T.);
#465=COLOUR_RGB('',0.952941176470588,0.952941176470588,0.952941176470588);
#466=FILL_AREA_STYLE_COLOUR('',#465);
#467=FILL_AREA_STYLE($,(#466));
#468=SURFACE_STYLE_FILL_AREA(#467);
#469=SURFACE_SIDE_STYLE('',(#468));
#470=SURFACE_STYLE_USAGE(.BOTH.,#469);
#471=PRESENTATION_STYLE_ASSIGNMENT((#470));
#472=STYLED_ITEM('',(#471),#464);
#473=ADVANCED_FACE('',(#679,#681),#683,.T.);
#474=COLOUR_RGB('',0.952941176470588,0.952941176470588,0.952941176470588);
#475=FILL_AREA_STYLE_COLOUR('',#474);
#476=FILL_AREA_STYLE($,(#475));
#477=SURFACE_STYLE_FILL_AREA(#476);
#478=SURFACE_SIDE_STYLE('',(#477));
#479=SURFACE_STYLE_USAGE(.BOTH.,#478);
#480=PRESENTATION_STYLE_ASSIGNMENT((#479));
#481=STYLED_ITEM('',(#480),#473);
#482=ADVANCED_FACE('',(#688,#690),#692,.F.);
#483=COLOUR_RGB('',0.952941176470588,0.952941176470588,0.952941176470588);
#484=FILL_AREA_STYLE_COLOUR('',#483);
#485=FILL_AREA_STYLE($,(#484));
#486=SURFACE_STYLE_FILL_AREA(#485);
#487=SURFACE_SIDE_STYLE('',(#486));
#488=SURFACE_STYLE_USAGE(.BOTH.,#487);
#489=PRESENTATION_STYLE_ASSIGNMENT((#488));
#490=STYLED_ITEM('',(#489),#482);
#491=ADVANCED_FACE('',(#697,#699),#701,.T.);
#492=COLOUR_RGB('',0.270588235294118,0.270588235294118,0.270588235294118);
#493=FILL_AREA_STYLE_COLOUR('',#492);
#494=FILL_AREA_STYLE($,(#493));
#495=SURFACE_STYLE_FILL_AREA(#494);
#496=SURFACE_SIDE_STYLE('',(#495));
#497=SURFACE_STYLE_USAGE(.BOTH.,#496);
#498=PRESENTATION_STYLE_ASSIGNMENT((#497));
#499=STYLED_ITEM('',(#498),#491);
#500=ADVANCED_FACE('',(#706,#708),#710,.T.);
#501=COLOUR_RGB('',0.952941176470588,0.952941176470588,0.952941176470588);
#502=FILL_AREA_STYLE_COLOUR('',#501);
#503=FILL_AREA_STYLE($,(#502));
#504=SURFACE_STYLE_FILL_AREA(#503);
#505=SURFACE_SIDE_STYLE('',(#504));
#506=SURFACE_STYLE_USAGE(.BOTH.,#505);
#507=PRESENTATION_STYLE_ASSIGNMENT((#506));
#508=STYLED_ITEM('',(#507),#500);
#509=ADVANCED_FACE('',(#715,#717),#719,.T.);
#510=COLOUR_RGB('',0.952941176470588,0.952941176470588,0.952941176470588);
#511=FILL_AREA_STYLE_COLOUR('',#510);
#512=FILL_AREA_STYLE($,(#511));
#513=SURFACE_STYLE_FILL_AREA(#512);
#514=SURFACE_SIDE_STYLE('',(#513));
#515=SURFACE_STYLE_USAGE(.BOTH.,#514);
#516=PRESENTATION_STYLE_ASSIGNMENT((#515));
#517=STYLED_ITEM('',(#516),#509);
#518=ADVANCED_FACE('',(#724,#726),#728,.F.);
#519=COLOUR_RGB('',0.952941176470588,0.952941176470588,0.952941176470588);
#520=FILL_AREA_STYLE_COLOUR('',#519);
#521=FILL_AREA_STYLE($,(#520));
#522=SURFACE_STYLE_FILL_AREA(#521);
#523=SURFACE_SIDE_STYLE('',(#522));
#524=SURFACE_STYLE_USAGE(.BOTH.,#523);
#525=PRESENTATION_STYLE_ASSIGNMENT((#524));
#526=STYLED_ITEM('',(#525),#518);
#527=ADVANCED_FACE('',(#733,#735),#737,.F.);
#528=COLOUR_RGB('',0.952941176470588,0.952941176470588,0.952941176470588);
#529=FILL_AREA_STYLE_COLOUR('',#528);
#530=FILL_AREA_STYLE($,(#529));
#531=SURFACE_STYLE_FILL_AREA(#530);
#532=SURFACE_SIDE_STYLE('',(#531));
#533=SURFACE_STYLE_USAGE(.BOTH.,#532);
#534=PRESENTATION_STYLE_ASSIGNMENT((#533));
#535=STYLED_ITEM('',(#534),#527);
#536=ADVANCED_FACE('',(#742,#744),#746,.T.);
#537=COLOUR_RGB('',0.952941176470588,0.952941176470588,0.952941176470588);
#538=FILL_AREA_STYLE_COLOUR('',#537);
#539=FILL_AREA_STYLE($,(#538));
#540=SURFACE_STYLE_FILL_AREA(#539);
#541=SURFACE_SIDE_STYLE('',(#540));
#542=SURFACE_STYLE_USAGE(.BOTH.,#541);
#543=PRESENTATION_STYLE_ASSIGNMENT((#542));
#544=STYLED_ITEM('',(#543),#536);
#545=ADVANCED_FACE('',(#751,#753),#755,.F.);
#546=COLOUR_RGB('',0.952941176470588,0.952941176470588,0.952941176470588);
#547=FILL_AREA_STYLE_COLOUR('',#546);
#548=FILL_AREA_STYLE($,(#547));
#549=SURFACE_STYLE_FILL_AREA(#548);
#550=SURFACE_SIDE_STYLE('',(#549));
#551=SURFACE_STYLE_USAGE(.BOTH.,#550);
#552=PRESENTATION_STYLE_ASSIGNMENT((#551));
#553=STYLED_ITEM('',(#552),#545);
#554=ADVANCED_FACE('',(#760,#762),#764,.T.);
#555=COLOUR_RGB('',0.952941176470588,0.952941176470588,0.952941176470588);
#556=FILL_AREA_STYLE_COLOUR('',#555);
#557=FILL_AREA_STYLE($,(#556));
#558=SURFACE_STYLE_FILL_AREA(#557);
#559=SURFACE_SIDE_STYLE('',(#558));
#560=SURFACE_STYLE_USAGE(.BOTH.,#559);
#561=PRESENTATION_STYLE_ASSIGNMENT((#560));
#562=STYLED_ITEM('',(#561),#554);
#563=ADVANCED_FACE('',(#769,#771),#773,.F.);
#564=ADVANCED_FACE('',(#778,#780),#782,.F.);
#565=ADVANCED_FACE('',(#787,#789),#791,.T.);
#566=ADVANCED_FACE('',(#796,#798),#800,.F.);
#567=ADVANCED_FACE('',(#805,#807),#809,.F.);
#568=ADVANCED_FACE('',(#814,#816),#818,.T.);
#569=ADVANCED_FACE('',(#823,#825),#827,.T.);
#570=ADVANCED_FACE('',(#832,#834),#836,.T.);
#571=FACE_BOUND('',#572,.T.);
#572=EDGE_LOOP('',(#841,#842));
#573=FACE_BOUND('',#574,.T.);
#574=EDGE_LOOP('',(#843,#844));
#575=CYLINDRICAL_SURFACE('',#576,7.987);
#576=AXIS2_PLACEMENT_3D('',#577,#578,#579);
#577=CARTESIAN_POINT('',(0.,5.115,0.));
#578=DIRECTION('',(0.,-1.,0.));
#579=DIRECTION('',(1.,0.,0.));
#580=FACE_BOUND('',#581,.T.);
#581=EDGE_LOOP('',(#845,#846));
#582=FACE_BOUND('',#583,.T.);
#583=EDGE_LOOP('',(#847,#848));
#584=PLANE('',#585);
#585=AXIS2_PLACEMENT_3D('',#586,#587,#588);
#586=CARTESIAN_POINT('',(9.487,10.23,0.));
#587=DIRECTION('',(0.,1.,0.));
#588=DIRECTION('',(0.,0.,1.));
#589=FACE_BOUND('',#590,.T.);
#590=EDGE_LOOP('',(#849,#850));
#591=FACE_BOUND('',#592,.T.);
#592=EDGE_LOOP('',(#851,#852));
#593=CONICAL_SURFACE('',#594,10.7185,0.785398163397448);
#594=AXIS2_PLACEMENT_3D('',#595,#596,#597);
#595=CARTESIAN_POINT('',(0.,8.9985,0.));
#596=DIRECTION('',(0.,-1.,0.));
#597=DIRECTION('',(1.,0.,0.));
#598=FACE_BOUND('',#599,.T.);
#599=EDGE_LOOP('',(#853,#854));
#600=FACE_BOUND('',#601,.T.);
#601=EDGE_LOOP('',(#855,#856));
#602=CYLINDRICAL_SURFACE('',#603,11.95);
#603=AXIS2_PLACEMENT_3D('',#604,#605,#606);
#604=CARTESIAN_POINT('',(0.,5.115,0.));
#605=DIRECTION('',(0.,-1.,0.));
#606=DIRECTION('',(1.,0.,0.));
#607=FACE_BOUND('',#608,.T.);
#608=EDGE_LOOP('',(#857,#858));
#609=FACE_BOUND('',#610,.T.);
#610=EDGE_LOOP('',(#859,#860));
#611=CONICAL_SURFACE('',#612,10.7185,0.785398163397448);
#612=AXIS2_PLACEMENT_3D('',#613,#614,#615);
#613=CARTESIAN_POINT('',(0.,1.2315,0.));
#614=DIRECTION('',(0.,1.,0.));
#615=DIRECTION('',(1.,0.,0.));
#616=FACE_BOUND('',#617,.T.);
#617=EDGE_LOOP('',(#861,#862));
#618=FACE_BOUND('',#619,.T.);
#619=EDGE_LOOP('',(#863,#864));
#620=PLANE('',#621);
#621=AXIS2_PLACEMENT_3D('',#622,#623,#624);
#622=CARTESIAN_POINT('',(7.987,0.,0.));
#623=DIRECTION('',(0.,-1.,0.));
#624=DIRECTION('',(0.,0.,-1.));
#625=FACE_BOUND('',#626,.T.);
#626=EDGE_LOOP('',(#865,#866));
#627=FACE_BOUND('',#628,.T.);
#628=EDGE_LOOP('',(#867,#868));
#629=PLANE('',#630);
#630=AXIS2_PLACEMENT_3D('',#631,#632,#633);
#631=CARTESIAN_POINT('',(0.,3.5,5.));
#632=DIRECTION('',(0.,0.,1.));
#633=DIRECTION('',(1.,0.,0.));
#634=FACE_BOUND('',#635,.T.);
#635=EDGE_LOOP('',(#869,#870));
#636=FACE_BOUND('',#637,.T.);
#637=EDGE_LOOP('',(#871,#872));
#638=CYLINDRICAL_SURFACE('',#639,3.5);
#639=AXIS2_PLACEMENT_3D('',#640,#641,#642);
#640=CARTESIAN_POINT('',(0.,0.,4.875));
#641=DIRECTION('',(0.,0.,-1.));
#642=DIRECTION('',(0.,1.,0.));
#643=FACE_BOUND('',#644,.T.);
#644=EDGE_LOOP('',(#873,#874));
#645=FACE_BOUND('',#646,.T.);
#646=EDGE_LOOP('',(#875,#876));
#647=PLANE('',#648);
#648=AXIS2_PLACEMENT_3D('',#649,#650,#651);
#649=CARTESIAN_POINT('',(0.,7.,4.75));
#650=DIRECTION('',(0.,0.,1.));
#651=DIRECTION('',(1.,0.,0.));
#652=FACE_BOUND('',#653,.T.);
#653=EDGE_LOOP('',(#877,#878));
#654=FACE_BOUND('',#655,.T.);
#655=EDGE_LOOP('',(#879,#880));
#656=CYLINDRICAL_SURFACE('',#657,7.);
#657=AXIS2_PLACEMENT_3D('',#658,#659,#660);
#658=CARTESIAN_POINT('',(0.,0.,4.875));
#659=DIRECTION('',(0.,0.,-1.));
#660=DIRECTION('',(0.,1.,0.));
#661=FACE_BOUND('',#662,.T.);
#662=EDGE_LOOP('',(#881,#882));
#663=FACE_BOUND('',#664,.T.);
#664=EDGE_LOOP('',(#883,#884));
#665=PLANE('',#666);
#666=AXIS2_PLACEMENT_3D('',#667,#668,#669);
#667=CARTESIAN_POINT('',(0.,8.,5.));
#668=DIRECTION('',(0.,0.,1.));
#669=DIRECTION('',(1.,0.,0.));
#670=FACE_BOUND('',#671,.T.);
#671=EDGE_LOOP('',(#885,#886));
#672=FACE_BOUND('',#673,.T.);
#673=EDGE_LOOP('',(#887,#888));
#674=CYLINDRICAL_SURFACE('',#675,8.);
#675=AXIS2_PLACEMENT_3D('',#676,#677,#678);
#676=CARTESIAN_POINT('',(0.,0.,2.5));
#677=DIRECTION('',(0.,0.,-1.));
#678=DIRECTION('',(0.,1.,0.));
#679=FACE_BOUND('',#680,.T.);
#680=EDGE_LOOP('',(#889,#890));
#681=FACE_BOUND('',#682,.T.);
#682=EDGE_LOOP('',(#891,#892));
#683=PLANE('',#684);
#684=AXIS2_PLACEMENT_3D('',#685,#686,#687);
#685=CARTESIAN_POINT('',(0.,7.,0.));
#686=DIRECTION('',(0.,0.,-1.));
#687=DIRECTION('',(-1.,0.,0.));
#688=FACE_BOUND('',#689,.T.);
#689=EDGE_LOOP('',(#893,#894));
#690=FACE_BOUND('',#691,.T.);
#691=EDGE_LOOP('',(#895,#896));
#692=CYLINDRICAL_SURFACE('',#693,7.);
#693=AXIS2_PLACEMENT_3D('',#694,#695,#696);
#694=CARTESIAN_POINT('',(0.,0.,0.125000000000002));
#695=DIRECTION('',(0.,0.,-1.));
#696=DIRECTION('',(0.,1.,0.));
#697=FACE_BOUND('',#698,.T.);
#698=EDGE_LOOP('',(#897,#898));
#699=FACE_BOUND('',#700,.T.);
#700=EDGE_LOOP('',(#899,#900));
#701=PLANE('',#702);
#702=AXIS2_PLACEMENT_3D('',#703,#704,#705);
#703=CARTESIAN_POINT('',(0.,3.5,0.250000000000001));
#704=DIRECTION('',(0.,0.,-1.));
#705=DIRECTION('',(-1.,0.,0.));
#706=FACE_BOUND('',#707,.T.);
#707=EDGE_LOOP('',(#901,#902));
#708=FACE_BOUND('',#709,.T.);
#709=EDGE_LOOP('',(#903,#904));
#710=CYLINDRICAL_SURFACE('',#711,3.5);
#711=AXIS2_PLACEMENT_3D('',#712,#713,#714);
#712=CARTESIAN_POINT('',(0.,0.,0.125000000000001));
#713=DIRECTION('',(0.,0.,-1.));
#714=DIRECTION('',(0.,1.,0.));
#715=FACE_BOUND('',#716,.T.);
#716=EDGE_LOOP('',(#905,#906));
#717=FACE_BOUND('',#718,.T.);
#718=EDGE_LOOP('',(#907,#908));
#719=PLANE('',#720);
#720=AXIS2_PLACEMENT_3D('',#721,#722,#723);
#721=CARTESIAN_POINT('',(0.,2.5,0.));
#722=DIRECTION('',(0.,0.,-1.));
#723=DIRECTION('',(-1.,0.,0.));
#724=FACE_BOUND('',#725,.T.);
#725=EDGE_LOOP('',(#909,#910));
#726=FACE_BOUND('',#727,.T.);
#727=EDGE_LOOP('',(#911,#912));
#728=CYLINDRICAL_SURFACE('',#729,2.5);
#729=AXIS2_PLACEMENT_3D('',#730,#731,#732);
#730=CARTESIAN_POINT('',(0.,0.,2.5));
#731=DIRECTION('',(0.,0.,-1.));
#732=DIRECTION('',(0.,1.,0.));
#733=FACE_OUTER_BOUND('',#734,.T.);
#734=EDGE_LOOP('',(#913));
#735=FACE_OUTER_BOUND('',#736,.T.);
#736=EDGE_LOOP('',(#914));
#737=CYLINDRICAL_SURFACE('',#738,2.5);
#738=AXIS2_PLACEMENT_3D('',#739,#740,#741);
#739=CARTESIAN_POINT('',(0.,0.,0.));
#740=DIRECTION('',(0.,0.,1.));
#741=DIRECTION('',(-1.,0.,0.));
#742=FACE_OUTER_BOUND('',#743,.T.);
#743=EDGE_LOOP('',(#915));
#744=FACE_OUTER_BOUND('',#745,.T.);
#745=EDGE_LOOP('',(#916));
#746=CYLINDRICAL_SURFACE('',#747,5.);
#747=AXIS2_PLACEMENT_3D('',#748,#749,#750);
#748=CARTESIAN_POINT('',(0.,0.,0.));
#749=DIRECTION('',(0.,0.,1.));
#750=DIRECTION('',(-1.,0.,0.));
#751=FACE_BOUND('',#752,.T.);
#752=EDGE_LOOP('',(#917));
#753=FACE_BOUND('',#754,.T.);
#754=EDGE_LOOP('',(#918));
#755=PLANE('',#756);
#756=AXIS2_PLACEMENT_3D('',#757,#758,#759);
#757=CARTESIAN_POINT('',(0.,0.,0.));
#758=DIRECTION('',(0.,0.,1.));
#759=DIRECTION('',(1.,0.,0.));
#760=FACE_BOUND('',#761,.T.);
#761=EDGE_LOOP('',(#919));
#762=FACE_BOUND('',#763,.T.);
#763=EDGE_LOOP('',(#920));
#764=PLANE('',#765);
#765=AXIS2_PLACEMENT_3D('',#766,#767,#768);
#766=CARTESIAN_POINT('',(0.,0.,0.8));
#767=DIRECTION('',(0.,0.,1.));
#768=DIRECTION('',(1.,0.,0.));
#769=FACE_OUTER_BOUND('',#770,.T.);
#770=EDGE_LOOP('',(#921));
#771=FACE_OUTER_BOUND('',#772,.T.);
#772=EDGE_LOOP('',(#922));
#773=CONICAL_SURFACE('',#774,2.55,0.785398163397449);
#774=AXIS2_PLACEMENT_3D('',#775,#776,#777);
#775=CARTESIAN_POINT('',(0.,0.,-0.0499999999999999));
#776=DIRECTION('',(0.,0.,1.));
#777=DIRECTION('',(-1.,0.,0.));
#778=FACE_OUTER_BOUND('',#779,.T.);
#779=EDGE_LOOP('',(#923));
#780=FACE_OUTER_BOUND('',#781,.T.);
#781=EDGE_LOOP('',(#924));
#782=CYLINDRICAL_SURFACE('',#783,2.5);
#783=AXIS2_PLACEMENT_3D('',#784,#785,#786);
#784=CARTESIAN_POINT('',(0.,0.,0.));
#785=DIRECTION('',(0.,0.,-1.));
#786=DIRECTION('',(-1.,0.,0.));
#787=FACE_BOUND('',#788,.T.);
#788=EDGE_LOOP('',(#925));
#789=FACE_BOUND('',#790,.T.);
#790=EDGE_LOOP('',(#926));
#791=PLANE('',#792);
#792=AXIS2_PLACEMENT_3D('',#793,#794,#795);
#793=CARTESIAN_POINT('',(0.,0.,0.));
#794=DIRECTION('',(0.,0.,1.));
#795=DIRECTION('',(1.,0.,0.));
#796=FACE_OUTER_BOUND('',#797,.T.);
#797=EDGE_LOOP('',(#927));
#798=FACE_OUTER_BOUND('',#799,.T.);
#799=EDGE_LOOP('',(#928));
#800=CONICAL_SURFACE('',#801,2.55,0.785398163397448);
#801=AXIS2_PLACEMENT_3D('',#802,#803,#804);
#802=CARTESIAN_POINT('',(0.,0.,-5.95));
#803=DIRECTION('',(0.,0.,-1.));
#804=DIRECTION('',(-1.,0.,0.));
#805=FACE_BOUND('',#806,.T.);
#806=EDGE_LOOP('',(#929));
#807=FACE_BOUND('',#808,.T.);
#808=EDGE_LOOP('',(#930));
#809=PLANE('',#810);
#810=AXIS2_PLACEMENT_3D('',#811,#812,#813);
#811=CARTESIAN_POINT('',(0.,0.,-6.));
#812=DIRECTION('',(0.,0.,1.));
#813=DIRECTION('',(1.,0.,0.));
#814=FACE_OUTER_BOUND('',#815,.T.);
#815=EDGE_LOOP('',(#931));
#816=FACE_OUTER_BOUND('',#817,.T.);
#817=EDGE_LOOP('',(#932));
#818=CONICAL_SURFACE('',#819,4.95,0.785398163397448);
#819=AXIS2_PLACEMENT_3D('',#820,#821,#822);
#820=CARTESIAN_POINT('',(0.,0.,-5.95));
#821=DIRECTION('',(0.,0.,1.));
#822=DIRECTION('',(-1.,0.,0.));
#823=FACE_OUTER_BOUND('',#824,.T.);
#824=EDGE_LOOP('',(#933));
#825=FACE_OUTER_BOUND('',#826,.T.);
#826=EDGE_LOOP('',(#934));
#827=CYLINDRICAL_SURFACE('',#828,5.);
#828=AXIS2_PLACEMENT_3D('',#829,#830,#831);
#829=CARTESIAN_POINT('',(0.,0.,0.));
#830=DIRECTION('',(0.,0.,-1.));
#831=DIRECTION('',(-1.,0.,0.));
#832=FACE_OUTER_BOUND('',#833,.T.);
#833=EDGE_LOOP('',(#935));
#834=FACE_OUTER_BOUND('',#835,.T.);
#835=EDGE_LOOP('',(#936));
#836=CONICAL_SURFACE('',#837,4.95,0.785398163397449);
#837=AXIS2_PLACEMENT_3D('',#838,#839,#840);
#838=CARTESIAN_POINT('',(0.,0.,-0.05));
#839=DIRECTION('',(0.,0.,-1.));
#840=DIRECTION('',(-1.,0.,0.));
#841=ORIENTED_EDGE('',*,*,#937,.F.);
#842=ORIENTED_EDGE('',*,*,#938,.F.);
#843=ORIENTED_EDGE('',*,*,#939,.T.);
#844=ORIENTED_EDGE('',*,*,#940,.T.);
#845=ORIENTED_EDGE('',*,*,#941,.F.);
#846=ORIENTED_EDGE('',*,*,#942,.F.);
#847=ORIENTED_EDGE('',*,*,#938,.T.);
#848=ORIENTED_EDGE('',*,*,#937,.T.);
#849=ORIENTED_EDGE('',*,*,#943,.F.);
#850=ORIENTED_EDGE('',*,*,#944,.F.);
#851=ORIENTED_EDGE('',*,*,#941,.T.);
#852=ORIENTED_EDGE('',*,*,#942,.T.);
#853=ORIENTED_EDGE('',*,*,#944,.T.);
#854=ORIENTED_EDGE('',*,*,#943,.T.);
#855=ORIENTED_EDGE('',*,*,#945,.F.);
#856=ORIENTED_EDGE('',*,*,#946,.F.);
#857=ORIENTED_EDGE('',*,*,#946,.T.);
#858=ORIENTED_EDGE('',*,*,#945,.T.);
#859=ORIENTED_EDGE('',*,*,#947,.F.);
#860=ORIENTED_EDGE('',*,*,#948,.F.);
#861=ORIENTED_EDGE('',*,*,#948,.T.);
#862=ORIENTED_EDGE('',*,*,#947,.T.);
#863=ORIENTED_EDGE('',*,*,#939,.F.);
#864=ORIENTED_EDGE('',*,*,#940,.F.);
#865=ORIENTED_EDGE('',*,*,#949,.F.);
#866=ORIENTED_EDGE('',*,*,#950,.F.);
#867=ORIENTED_EDGE('',*,*,#951,.T.);
#868=ORIENTED_EDGE('',*,*,#952,.T.);
#869=ORIENTED_EDGE('',*,*,#949,.T.);
#870=ORIENTED_EDGE('',*,*,#950,.T.);
#871=ORIENTED_EDGE('',*,*,#953,.F.);
#872=ORIENTED_EDGE('',*,*,#954,.F.);
#873=ORIENTED_EDGE('',*,*,#955,.F.);
#874=ORIENTED_EDGE('',*,*,#956,.F.);
#875=ORIENTED_EDGE('',*,*,#954,.T.);
#876=ORIENTED_EDGE('',*,*,#953,.T.);
#877=ORIENTED_EDGE('',*,*,#957,.F.);
#878=ORIENTED_EDGE('',*,*,#958,.F.);
#879=ORIENTED_EDGE('',*,*,#955,.T.);
#880=ORIENTED_EDGE('',*,*,#956,.T.);
#881=ORIENTED_EDGE('',*,*,#959,.F.);
#882=ORIENTED_EDGE('',*,*,#960,.F.);
#883=ORIENTED_EDGE('',*,*,#958,.T.);
#884=ORIENTED_EDGE('',*,*,#957,.T.);
#885=ORIENTED_EDGE('',*,*,#959,.T.);
#886=ORIENTED_EDGE('',*,*,#960,.T.);
#887=ORIENTED_EDGE('',*,*,#961,.F.);
#888=ORIENTED_EDGE('',*,*,#962,.F.);
#889=ORIENTED_EDGE('',*,*,#962,.T.);
#890=ORIENTED_EDGE('',*,*,#961,.T.);
#891=ORIENTED_EDGE('',*,*,#963,.F.);
#892=ORIENTED_EDGE('',*,*,#964,.F.);
#893=ORIENTED_EDGE('',*,*,#965,.F.);
#894=ORIENTED_EDGE('',*,*,#966,.F.);
#895=ORIENTED_EDGE('',*,*,#963,.T.);
#896=ORIENTED_EDGE('',*,*,#964,.T.);
#897=ORIENTED_EDGE('',*,*,#966,.T.);
#898=ORIENTED_EDGE('',*,*,#965,.T.);
#899=ORIENTED_EDGE('',*,*,#967,.F.);
#900=ORIENTED_EDGE('',*,*,#968,.F.);
#901=ORIENTED_EDGE('',*,*,#967,.T.);
#902=ORIENTED_EDGE('',*,*,#968,.T.);
#903=ORIENTED_EDGE('',*,*,#969,.F.);
#904=ORIENTED_EDGE('',*,*,#970,.F.);
#905=ORIENTED_EDGE('',*,*,#970,.T.);
#906=ORIENTED_EDGE('',*,*,#969,.T.);
#907=ORIENTED_EDGE('',*,*,#971,.F.);
#908=ORIENTED_EDGE('',*,*,#972,.F.);
#909=ORIENTED_EDGE('',*,*,#952,.F.);
#910=ORIENTED_EDGE('',*,*,#951,.F.);
#911=ORIENTED_EDGE('',*,*,#971,.T.);
#912=ORIENTED_EDGE('',*,*,#972,.T.);
#913=ORIENTED_EDGE('',*,*,#973,.F.);
#914=ORIENTED_EDGE('',*,*,#974,.F.);
#915=ORIENTED_EDGE('',*,*,#975,.F.);
#916=ORIENTED_EDGE('',*,*,#976,.F.);
#917=ORIENTED_EDGE('',*,*,#976,.T.);
#918=ORIENTED_EDGE('',*,*,#974,.T.);
#919=ORIENTED_EDGE('',*,*,#975,.T.);
#920=ORIENTED_EDGE('',*,*,#973,.T.);
#921=ORIENTED_EDGE('',*,*,#977,.T.);
#922=ORIENTED_EDGE('',*,*,#978,.T.);
#923=ORIENTED_EDGE('',*,*,#978,.F.);
#924=ORIENTED_EDGE('',*,*,#979,.F.);
#925=ORIENTED_EDGE('',*,*,#980,.F.);
#926=ORIENTED_EDGE('',*,*,#977,.F.);
#927=ORIENTED_EDGE('',*,*,#981,.T.);
#928=ORIENTED_EDGE('',*,*,#979,.T.);
#929=ORIENTED_EDGE('',*,*,#982,.F.);
#930=ORIENTED_EDGE('',*,*,#981,.F.);
#931=ORIENTED_EDGE('',*,*,#983,.T.);
#932=ORIENTED_EDGE('',*,*,#982,.T.);
#933=ORIENTED_EDGE('',*,*,#984,.F.);
#934=ORIENTED_EDGE('',*,*,#983,.F.);
#935=ORIENTED_EDGE('',*,*,#984,.T.);
#936=ORIENTED_EDGE('',*,*,#980,.T.);
#937=EDGE_CURVE('',#985,#986,#987,.T.);
#938=EDGE_CURVE('',#986,#985,#988,.T.);
#939=EDGE_CURVE('',#989,#990,#991,.T.);
#940=EDGE_CURVE('',#990,#989,#992,.T.);
#941=EDGE_CURVE('',#993,#994,#995,.T.);
#942=EDGE_CURVE('',#994,#993,#996,.T.);
#943=EDGE_CURVE('',#997,#998,#999,.T.);
#944=EDGE_CURVE('',#998,#997,#1000,.T.);
#945=EDGE_CURVE('',#1001,#1002,#1003,.T.);
#946=EDGE_CURVE('',#1002,#1001,#1004,.T.);
#947=EDGE_CURVE('',#1005,#1006,#1007,.T.);
#948=EDGE_CURVE('',#1006,#1005,#1008,.T.);
#949=EDGE_CURVE('',#1009,#1010,#1011,.T.);
#950=EDGE_CURVE('',#1010,#1009,#1012,.T.);
#951=EDGE_CURVE('',#1013,#1014,#1015,.T.);
#952=EDGE_CURVE('',#1014,#1013,#1016,.T.);
#953=EDGE_CURVE('',#1017,#1018,#1019,.T.);
#954=EDGE_CURVE('',#1018,#1017,#1020,.T.);
#955=EDGE_CURVE('',#1021,#1022,#1023,.T.);
#956=EDGE_CURVE('',#1022,#1021,#1024,.T.);
#957=EDGE_CURVE('',#1025,#1026,#1027,.T.);
#958=EDGE_CURVE('',#1026,#1025,#1028,.T.);
#959=EDGE_CURVE('',#1029,#1030,#1031,.T.);
#960=EDGE_CURVE('',#1030,#1029,#1032,.T.);
#961=EDGE_CURVE('',#1033,#1034,#1035,.T.);
#962=EDGE_CURVE('',#1034,#1033,#1036,.T.);
#963=EDGE_CURVE('',#1037,#1038,#1039,.T.);
#964=EDGE_CURVE('',#1038,#1037,#1040,.T.);
#965=EDGE_CURVE('',#1041,#1042,#1043,.T.);
#966=EDGE_CURVE('',#1042,#1041,#1044,.T.);
#967=EDGE_CURVE('',#1045,#1046,#1047,.T.);
#968=EDGE_CURVE('',#1046,#1045,#1048,.T.);
#969=EDGE_CURVE('',#1049,#1050,#1051,.T.);
#970=EDGE_CURVE('',#1050,#1049,#1052,.T.);
#971=EDGE_CURVE('',#1053,#1054,#1055,.T.);
#972=EDGE_CURVE('',#1054,#1053,#1056,.T.);
#973=EDGE_CURVE('',#1057,#1057,#1058,.T.);
#974=EDGE_CURVE('',#1059,#1059,#1060,.T.);
#975=EDGE_CURVE('',#1061,#1061,#1062,.T.);
#976=EDGE_CURVE('',#1063,#1063,#1064,.T.);
#977=EDGE_CURVE('',#1065,#1065,#1066,.T.);
#978=EDGE_CURVE('',#1067,#1067,#1068,.T.);
#979=EDGE_CURVE('',#1069,#1069,#1070,.T.);
#980=EDGE_CURVE('',#1071,#1071,#1072,.T.);
#981=EDGE_CURVE('',#1073,#1073,#1074,.T.);
#982=EDGE_CURVE('',#1075,#1075,#1076,.T.);
#983=EDGE_CURVE('',#1077,#1077,#1078,.T.);
#984=EDGE_CURVE('',#1079,#1079,#1080,.T.);
#985=VERTEX_POINT('',#1081);
#986=VERTEX_POINT('',#1082);
#987=CIRCLE('',#1083,7.987);
#988=CIRCLE('',#1087,7.987);
#989=VERTEX_POINT('',#1091);
#990=VERTEX_POINT('',#1092);
#991=CIRCLE('',#1093,7.987);
#992=CIRCLE('',#1097,7.987);
#993=VERTEX_POINT('',#1101);
#994=VERTEX_POINT('',#1102);
#995=CIRCLE('',#1103,9.487);
#996=CIRCLE('',#1107,9.487);
#997=VERTEX_POINT('',#1111);
#998=VERTEX_POINT('',#1112);
#999=CIRCLE('',#1113,11.95);
#1000=CIRCLE('',#1117,11.95);
#1001=VERTEX_POINT('',#1121);
#1002=VERTEX_POINT('',#1122);
#1003=CIRCLE('',#1123,11.95);
#1004=CIRCLE('',#1127,11.95);
#1005=VERTEX_POINT('',#1131);
#1006=VERTEX_POINT('',#1132);
#1007=CIRCLE('',#1133,9.487);
#1008=CIRCLE('',#1137,9.487);
#1009=VERTEX_POINT('',#1141);
#1010=VERTEX_POINT('',#1142);
#1011=CIRCLE('',#1143,3.5);
#1012=CIRCLE('',#1147,3.5);
#1013=VERTEX_POINT('',#1151);
#1014=VERTEX_POINT('',#1152);
#1015=CIRCLE('',#1153,2.5);
#1016=CIRCLE('',#1157,2.5);
#1017=VERTEX_POINT('',#1161);
#1018=VERTEX_POINT('',#1162);
#1019=CIRCLE('',#1163,3.5);
#1020=CIRCLE('',#1167,3.5);
#1021=VERTEX_POINT('',#1171);
#1022=VERTEX_POINT('',#1172);
#1023=CIRCLE('',#1173,7.);
#1024=CIRCLE('',#1177,7.);
#1025=VERTEX_POINT('',#1181);
#1026=VERTEX_POINT('',#1182);
#1027=CIRCLE('',#1183,7.);
#1028=CIRCLE('',#1187,7.);
#1029=VERTEX_POINT('',#1191);
#1030=VERTEX_POINT('',#1192);
#1031=CIRCLE('',#1193,8.);
#1032=CIRCLE('',#1197,8.);
#1033=VERTEX_POINT('',#1201);
#1034=VERTEX_POINT('',#1202);
#1035=CIRCLE('',#1203,8.);
#1036=CIRCLE('',#1207,8.);
#1037=VERTEX_POINT('',#1211);
#1038=VERTEX_POINT('',#1212);
#1039=CIRCLE('',#1213,7.);
#1040=CIRCLE('',#1217,7.);
#1041=VERTEX_POINT('',#1221);
#1042=VERTEX_POINT('',#1222);
#1043=CIRCLE('',#1223,7.);
#1044=CIRCLE('',#1227,7.);
#1045=VERTEX_POINT('',#1231);
#1046=VERTEX_POINT('',#1232);
#1047=CIRCLE('',#1233,3.5);
#1048=CIRCLE('',#1237,3.5);
#1049=VERTEX_POINT('',#1241);
#1050=VERTEX_POINT('',#1242);
#1051=CIRCLE('',#1243,3.5);
#1052=CIRCLE('',#1247,3.5);
#1053=VERTEX_POINT('',#1251);
#1054=VERTEX_POINT('',#1252);
#1055=CIRCLE('',#1253,2.5);
#1056=CIRCLE('',#1257,2.5);
#1057=VERTEX_POINT('',#1261);
#1058=CIRCLE('',#1262,2.5);
#1059=VERTEX_POINT('',#1266);
#1060=CIRCLE('',#1267,2.5);
#1061=VERTEX_POINT('',#1271);
#1062=CIRCLE('',#1272,5.);
#1063=VERTEX_POINT('',#1276);
#1064=CIRCLE('',#1277,5.);
#1065=VERTEX_POINT('',#1281);
#1066=CIRCLE('',#1282,2.6);
#1067=VERTEX_POINT('',#1286);
#1068=CIRCLE('',#1287,2.5);
#1069=VERTEX_POINT('',#1291);
#1070=CIRCLE('',#1292,2.5);
#1071=VERTEX_POINT('',#1296);
#1072=CIRCLE('',#1297,4.9);
#1073=VERTEX_POINT('',#1301);
#1074=CIRCLE('',#1302,2.6);
#1075=VERTEX_POINT('',#1306);
#1076=CIRCLE('',#1307,4.9);
#1077=VERTEX_POINT('',#1311);
#1078=CIRCLE('',#1312,5.);
#1079=VERTEX_POINT('',#1316);
#1080=CIRCLE('',#1317,5.);
#1081=CARTESIAN_POINT('',(-7.987,10.23,-9.78125398478991E-16));
#1082=CARTESIAN_POINT('',(7.987,10.23,0.));
#1083=AXIS2_PLACEMENT_3D('',#1084,#1085,#1086);
#1084=CARTESIAN_POINT('',(0.,10.23,0.));
#1085=DIRECTION('',(0.,-1.,0.));
#1086=DIRECTION('',(-1.,0.,1.22464679914735E-16));
#1087=AXIS2_PLACEMENT_3D('',#1088,#1089,#1090);
#1088=CARTESIAN_POINT('',(0.,10.23,0.));
#1089=DIRECTION('',(0.,-1.,0.));
#1090=DIRECTION('',(1.,0.,0.));
#1091=CARTESIAN_POINT('',(7.987,-7.63278329429795E-16,0.));
#1092=CARTESIAN_POINT('',(-7.987,-1.11022302462516E-15,-9.78125398478991E-16));
#1093=AXIS2_PLACEMENT_3D('',#1094,#1095,#1096);
#1094=CARTESIAN_POINT('',(0.,0.,0.));
#1095=DIRECTION('',(0.,-1.,0.));
#1096=DIRECTION('',(1.,0.,0.));
#1097=AXIS2_PLACEMENT_3D('',#1098,#1099,#1100);
#1098=CARTESIAN_POINT('',(0.,0.,0.));
#1099=DIRECTION('',(0.,-1.,0.));
#1100=DIRECTION('',(-1.,0.,1.22464679914735E-16));
#1101=CARTESIAN_POINT('',(9.487,10.23,0.));
#1102=CARTESIAN_POINT('',(-9.487,10.23,-1.16182241835109E-15));
#1103=AXIS2_PLACEMENT_3D('',#1104,#1105,#1106);
#1104=CARTESIAN_POINT('',(0.,10.23,0.));
#1105=DIRECTION('',(0.,-1.,0.));
#1106=DIRECTION('',(1.,0.,0.));
#1107=AXIS2_PLACEMENT_3D('',#1108,#1109,#1110);
#1108=CARTESIAN_POINT('',(0.,10.23,0.));
#1109=DIRECTION('',(0.,-1.,0.));
#1110=DIRECTION('',(-1.,0.,1.22464679914735E-16));
#1111=CARTESIAN_POINT('',(-11.95,7.767,-1.46345292498109E-15));
#1112=CARTESIAN_POINT('',(11.95,7.767,0.));
#1113=AXIS2_PLACEMENT_3D('',#1114,#1115,#1116);
#1114=CARTESIAN_POINT('',(0.,7.767,0.));
#1115=DIRECTION('',(0.,-1.,0.));
#1116=DIRECTION('',(-1.,0.,-1.22464679914735E-16));
#1117=AXIS2_PLACEMENT_3D('',#1118,#1119,#1120);
#1118=CARTESIAN_POINT('',(0.,7.767,0.));
#1119=DIRECTION('',(0.,-1.,0.));
#1120=DIRECTION('',(1.,0.,0.));
#1121=CARTESIAN_POINT('',(-11.95,2.463,-1.46345292498109E-15));
#1122=CARTESIAN_POINT('',(11.95,2.463,0.));
#1123=AXIS2_PLACEMENT_3D('',#1124,#1125,#1126);
#1124=CARTESIAN_POINT('',(0.,2.463,0.));
#1125=DIRECTION('',(0.,-1.,0.));
#1126=DIRECTION('',(-1.,0.,-3.67394039744206E-16));
#1127=AXIS2_PLACEMENT_3D('',#1128,#1129,#1130);
#1128=CARTESIAN_POINT('',(0.,2.463,0.));
#1129=DIRECTION('',(0.,-1.,0.));
#1130=DIRECTION('',(1.,0.,2.44929359829471E-16));
#1131=CARTESIAN_POINT('',(-9.487,6.93889390390723E-16,-1.16182241835109E-15));
#1132=CARTESIAN_POINT('',(9.487,0.,0.));
#1133=AXIS2_PLACEMENT_3D('',#1134,#1135,#1136);
#1134=CARTESIAN_POINT('',(0.,0.,0.));
#1135=DIRECTION('',(0.,-1.,0.));
#1136=DIRECTION('',(-1.,0.,1.22464679914735E-16));
#1137=AXIS2_PLACEMENT_3D('',#1138,#1139,#1140);
#1138=CARTESIAN_POINT('',(0.,0.,0.));
#1139=DIRECTION('',(0.,-1.,0.));
#1140=DIRECTION('',(1.,0.,0.));
#1141=CARTESIAN_POINT('',(0.,3.5,5.));
#1142=CARTESIAN_POINT('',(-4.28626379701574E-16,-3.5,5.));
#1143=AXIS2_PLACEMENT_3D('',#1144,#1145,#1146);
#1144=CARTESIAN_POINT('',(0.,0.,5.));
#1145=DIRECTION('',(0.,0.,-1.));
#1146=DIRECTION('',(-1.83697019872103E-16,1.,0.));
#1147=AXIS2_PLACEMENT_3D('',#1148,#1149,#1150);
#1148=CARTESIAN_POINT('',(0.,0.,5.));
#1149=DIRECTION('',(0.,0.,-1.));
#1150=DIRECTION('',(-1.60812264967664E-16,-1.,0.));
#1151=CARTESIAN_POINT('',(0.,2.5,5.));
#1152=CARTESIAN_POINT('',(-3.06161699786838E-16,-2.5,5.));
#1153=AXIS2_PLACEMENT_3D('',#1154,#1155,#1156);
#1154=CARTESIAN_POINT('',(0.,0.,5.));
#1155=DIRECTION('',(0.,0.,-1.));
#1156=DIRECTION('',(-1.83697019872103E-16,1.,0.));
#1157=AXIS2_PLACEMENT_3D('',#1158,#1159,#1160);
#1158=CARTESIAN_POINT('',(0.,0.,5.));
#1159=DIRECTION('',(0.,0.,-1.));
#1160=DIRECTION('',(-1.60812264967664E-16,-1.,0.));
#1161=CARTESIAN_POINT('',(-4.28626379701574E-16,-3.5,4.75));
#1162=CARTESIAN_POINT('',(0.,3.5,4.75));
#1163=AXIS2_PLACEMENT_3D('',#1164,#1165,#1166);
#1164=CARTESIAN_POINT('',(0.,0.,4.75));
#1165=DIRECTION('',(0.,0.,-1.));
#1166=DIRECTION('',(-1.60812264967664E-16,-1.,0.));
#1167=AXIS2_PLACEMENT_3D('',#1168,#1169,#1170);
#1168=CARTESIAN_POINT('',(0.,0.,4.75));
#1169=DIRECTION('',(0.,0.,-1.));
#1170=DIRECTION('',(-1.83697019872103E-16,1.,0.));
#1171=CARTESIAN_POINT('',(0.,7.,4.75));
#1172=CARTESIAN_POINT('',(-8.57252759403147E-16,-7.,4.75));
#1173=AXIS2_PLACEMENT_3D('',#1174,#1175,#1176);
#1174=CARTESIAN_POINT('',(0.,0.,4.75));
#1175=DIRECTION('',(0.,0.,-1.));
#1176=DIRECTION('',(-1.83697019872103E-16,1.,0.));
#1177=AXIS2_PLACEMENT_3D('',#1178,#1179,#1180);
#1178=CARTESIAN_POINT('',(0.,0.,4.75));
#1179=DIRECTION('',(0.,0.,-1.));
#1180=DIRECTION('',(-1.60812264967664E-16,-1.,0.));
#1181=CARTESIAN_POINT('',(-8.57252759403147E-16,-7.,5.));
#1182=CARTESIAN_POINT('',(0.,7.,5.));
#1183=AXIS2_PLACEMENT_3D('',#1184,#1185,#1186);
#1184=CARTESIAN_POINT('',(0.,0.,5.));
#1185=DIRECTION('',(0.,0.,-1.));
#1186=DIRECTION('',(-1.60812264967664E-16,-1.,0.));
#1187=AXIS2_PLACEMENT_3D('',#1188,#1189,#1190);
#1188=CARTESIAN_POINT('',(0.,0.,5.));
#1189=DIRECTION('',(0.,0.,-1.));
#1190=DIRECTION('',(-1.83697019872103E-16,1.,0.));
#1191=CARTESIAN_POINT('',(0.,8.,5.));
#1192=CARTESIAN_POINT('',(-9.79717439317883E-16,-8.,5.));
#1193=AXIS2_PLACEMENT_3D('',#1194,#1195,#1196);
#1194=CARTESIAN_POINT('',(0.,0.,5.));
#1195=DIRECTION('',(0.,0.,-1.));
#1196=DIRECTION('',(-1.83697019872103E-16,1.,0.));
#1197=AXIS2_PLACEMENT_3D('',#1198,#1199,#1200);
#1198=CARTESIAN_POINT('',(0.,0.,5.));
#1199=DIRECTION('',(0.,0.,-1.));
#1200=DIRECTION('',(-1.60812264967664E-16,-1.,0.));
#1201=CARTESIAN_POINT('',(-9.79717439317883E-16,-8.,1.66533453693773E-15));
#1202=CARTESIAN_POINT('',(0.,8.,1.66533453693773E-15));
#1203=AXIS2_PLACEMENT_3D('',#1204,#1205,#1206);
#1204=CARTESIAN_POINT('',(0.,0.,0.));
#1205=DIRECTION('',(0.,0.,-1.));
#1206=DIRECTION('',(-1.60812264967664E-16,-1.,0.));
#1207=AXIS2_PLACEMENT_3D('',#1208,#1209,#1210);
#1208=CARTESIAN_POINT('',(0.,0.,0.));
#1209=DIRECTION('',(0.,0.,-1.));
#1210=DIRECTION('',(-1.83697019872103E-16,1.,0.));
#1211=CARTESIAN_POINT('',(0.,7.,1.6306400674182E-15));
#1212=CARTESIAN_POINT('',(-8.57252759403147E-16,-7.,1.6826817716975E-15));
#1213=AXIS2_PLACEMENT_3D('',#1214,#1215,#1216);
#1214=CARTESIAN_POINT('',(0.,0.,0.));
#1215=DIRECTION('',(0.,0.,-1.));
#1216=DIRECTION('',(-1.83697019872103E-16,1.,0.));
#1217=AXIS2_PLACEMENT_3D('',#1218,#1219,#1220);
#1218=CARTESIAN_POINT('',(0.,0.,0.));
#1219=DIRECTION('',(0.,0.,-1.));
#1220=DIRECTION('',(-1.60812264967664E-16,-1.,0.));
#1221=CARTESIAN_POINT('',(-8.57252759403147E-16,-7.,0.250000000000002));
#1222=CARTESIAN_POINT('',(0.,7.,0.250000000000002));
#1223=AXIS2_PLACEMENT_3D('',#1224,#1225,#1226);
#1224=CARTESIAN_POINT('',(0.,0.,0.250000000000001));
#1225=DIRECTION('',(0.,0.,-1.));
#1226=DIRECTION('',(-1.60812264967664E-16,-1.,0.));
#1227=AXIS2_PLACEMENT_3D('',#1228,#1229,#1230);
#1228=CARTESIAN_POINT('',(0.,0.,0.250000000000001));
#1229=DIRECTION('',(0.,0.,-1.));
#1230=DIRECTION('',(-1.83697019872103E-16,1.,0.));
#1231=CARTESIAN_POINT('',(0.,3.5,0.250000000000001));
#1232=CARTESIAN_POINT('',(-4.28626379701574E-16,-3.5,0.250000000000001));
#1233=AXIS2_PLACEMENT_3D('',#1234,#1235,#1236);
#1234=CARTESIAN_POINT('',(0.,0.,0.250000000000001));
#1235=DIRECTION('',(0.,0.,-1.));
#1236=DIRECTION('',(-1.83697019872103E-16,1.,0.));
#1237=AXIS2_PLACEMENT_3D('',#1238,#1239,#1240);
#1238=CARTESIAN_POINT('',(0.,0.,0.250000000000001));
#1239=DIRECTION('',(0.,0.,-1.));
#1240=DIRECTION('',(-1.60812264967664E-16,-1.,0.));
#1241=CARTESIAN_POINT('',(-4.28626379701574E-16,-3.5,1.11022302462516E-15));
#1242=CARTESIAN_POINT('',(0.,3.5,1.00613961606655E-15));
#1243=AXIS2_PLACEMENT_3D('',#1244,#1245,#1246);
#1244=CARTESIAN_POINT('',(0.,0.,0.));
#1245=DIRECTION('',(0.,0.,-1.));
#1246=DIRECTION('',(-1.60812264967664E-16,-1.,0.));
#1247=AXIS2_PLACEMENT_3D('',#1248,#1249,#1250);
#1248=CARTESIAN_POINT('',(0.,0.,0.));
#1249=DIRECTION('',(0.,0.,-1.));
#1250=DIRECTION('',(-1.83697019872103E-16,1.,0.));
#1251=CARTESIAN_POINT('',(0.,2.5,7.97972798949331E-16));
#1252=CARTESIAN_POINT('',(-3.06161699786838E-16,-2.5,1.11022302462516E-15));
#1253=AXIS2_PLACEMENT_3D('',#1254,#1255,#1256);
#1254=CARTESIAN_POINT('',(0.,0.,0.));
#1255=DIRECTION('',(0.,0.,-1.));
#1256=DIRECTION('',(-1.83697019872103E-16,1.,0.));
#1257=AXIS2_PLACEMENT_3D('',#1258,#1259,#1260);
#1258=CARTESIAN_POINT('',(0.,0.,0.));
#1259=DIRECTION('',(0.,0.,-1.));
#1260=DIRECTION('',(-1.60812264967664E-16,-1.,0.));
#1261=CARTESIAN_POINT('',(2.5,3.06161699786838E-16,0.8));
#1262=AXIS2_PLACEMENT_3D('',#1263,#1264,#1265);
#1263=CARTESIAN_POINT('',(0.,0.,0.8));
#1264=DIRECTION('',(0.,0.,-1.));
#1265=DIRECTION('',(1.,1.22464679914735E-16,0.));
#1266=CARTESIAN_POINT('',(2.5,3.06161699786838E-16,0.));
#1267=AXIS2_PLACEMENT_3D('',#1268,#1269,#1270);
#1268=CARTESIAN_POINT('',(0.,0.,0.));
#1269=DIRECTION('',(0.,0.,1.));
#1270=DIRECTION('',(1.,-1.22464679914735E-16,0.));
#1271=CARTESIAN_POINT('',(5.,6.12323399573677E-16,0.8));
#1272=AXIS2_PLACEMENT_3D('',#1273,#1274,#1275);
#1273=CARTESIAN_POINT('',(0.,0.,0.8));
#1274=DIRECTION('',(0.,0.,1.));
#1275=DIRECTION('',(1.,-1.22464679914735E-16,0.));
#1276=CARTESIAN_POINT('',(5.,6.12323399573677E-16,0.));
#1277=AXIS2_PLACEMENT_3D('',#1278,#1279,#1280);
#1278=CARTESIAN_POINT('',(0.,0.,0.));
#1279=DIRECTION('',(0.,0.,-1.));
#1280=DIRECTION('',(1.,1.22464679914735E-16,0.));
#1281=CARTESIAN_POINT('',(2.6,3.18408167778312E-16,0.));
#1282=AXIS2_PLACEMENT_3D('',#1283,#1284,#1285);
#1283=CARTESIAN_POINT('',(0.,0.,0.));
#1284=DIRECTION('',(0.,0.,1.));
#1285=DIRECTION('',(1.,-1.22464679914735E-16,0.));
#1286=CARTESIAN_POINT('',(2.5,-3.06161699786838E-16,-0.1));
#1287=AXIS2_PLACEMENT_3D('',#1288,#1289,#1290);
#1288=CARTESIAN_POINT('',(0.,0.,-0.0999999999999998));
#1289=DIRECTION('',(0.,0.,-1.));
#1290=DIRECTION('',(1.,7.66951701058567E-17,0.));
#1291=CARTESIAN_POINT('',(2.5,3.06161699786838E-16,-5.9));
#1292=AXIS2_PLACEMENT_3D('',#1293,#1294,#1295);
#1293=CARTESIAN_POINT('',(0.,0.,-5.9));
#1294=DIRECTION('',(0.,0.,1.));
#1295=DIRECTION('',(1.,-7.66951701058567E-17,0.));
#1296=CARTESIAN_POINT('',(4.9,-6.00076931582203E-16,0.));
#1297=AXIS2_PLACEMENT_3D('',#1298,#1299,#1300);
#1298=CARTESIAN_POINT('',(0.,0.,0.));
#1299=DIRECTION('',(0.,0.,-1.));
#1300=DIRECTION('',(1.,1.22464679914735E-16,0.));
#1301=CARTESIAN_POINT('',(2.6,-3.18408167778312E-16,-6.));
#1302=AXIS2_PLACEMENT_3D('',#1303,#1304,#1305);
#1303=CARTESIAN_POINT('',(0.,0.,-6.));
#1304=DIRECTION('',(0.,0.,-1.));
#1305=DIRECTION('',(1.,1.22464679914735E-16,0.));
#1306=CARTESIAN_POINT('',(4.9,6.00076931582203E-16,-6.));
#1307=AXIS2_PLACEMENT_3D('',#1308,#1309,#1310);
#1308=CARTESIAN_POINT('',(0.,0.,-6.));
#1309=DIRECTION('',(0.,0.,1.));
#1310=DIRECTION('',(1.,-1.22464679914735E-16,0.));
#1311=CARTESIAN_POINT('',(5.,-6.12323399573677E-16,-5.9));
#1312=AXIS2_PLACEMENT_3D('',#1313,#1314,#1315);
#1313=CARTESIAN_POINT('',(0.,0.,-5.9));
#1314=DIRECTION('',(0.,0.,-1.));
#1315=DIRECTION('',(1.,7.66951701058567E-17,0.));
#1316=CARTESIAN_POINT('',(5.,6.12323399573677E-16,-0.1));
#1317=AXIS2_PLACEMENT_3D('',#1318,#1319,#1320);
#1318=CARTESIAN_POINT('',(0.,0.,-0.1));
#1319=DIRECTION('',(0.,0.,1.));
#1320=DIRECTION('',(1.,-3.21624529935327E-16,0.));
ENDSEC;
END-ISO-10303-21;
