ISO-10303-21;
HEADER;
FILE_DESCRIPTION(('STEP AP203'),
    '1');
FILE_NAME('Ролик гладкий GT2',
    '',
    ('UNSPECIFIED'),
    ('UNSPECIFIED'),
    'C3D Converter',
    'C3D Toolkit',
    '');
FILE_SCHEMA(('CONFIG_CONTROL_DESIGN'));
ENDSEC;

DATA;
#1=PRODUCT_DEFINITION('','UNSPECIFIED',#28,#31);
#2=SHAPE_DEFINITION_REPRESENTATION(#26,#3);
#3=SHAPE_REPRESENTATION('NONE',(#4),#8);
#4=AXIS2_PLACEMENT_3D('',#5,#6,#7);
#5=CARTESIAN_POINT('',(0.,0.,0.));
#6=DIRECTION('',(0.,0.,1.));
#7=DIRECTION('',(1.,0.,0.));
#8=(GEOMETRIC_REPRESENTATION_CONTEXT(3)GLOBAL_UNCERTAINTY_ASSIGNED_CONTEXT((#10))
GLOBAL_UNIT_ASSIGNED_CONTEXT((#9,#11,#12))REPRESENTATION_CONTEXT('NONE','NONE'));
#9=(LENGTH_UNIT()NAMED_UNIT(*)SI_UNIT(.MILLI.,.METRE.));
#10=UNCERTAINTY_MEASURE_WITH_UNIT(LENGTH_MEASURE(1.E-5),#9,'NONE','NONE');
#11=(NAMED_UNIT(*)PLANE_ANGLE_UNIT()SI_UNIT($,.RADIAN.));
#12=(NAMED_UNIT(*)SI_UNIT($,.STERADIAN.)SOLID_ANGLE_UNIT());
#13=MANIFOLD_SOLID_BREP('',#14);
#14=CLOSED_SHELL('',(#53,#54,#55,#56,#57,#58,#59,#60,#61,#62,#63,#64,#65,#66,#67,
#68,#69,#70));
#15=COLOUR_RGB('',0.796078431372549,0.823529411764706,0.937254901960784);
#16=FILL_AREA_STYLE_COLOUR('',#15);
#17=FILL_AREA_STYLE($,(#16));
#18=SURFACE_STYLE_FILL_AREA(#17);
#19=SURFACE_SIDE_STYLE('',(#18));
#20=SURFACE_STYLE_USAGE(.BOTH.,#19);
#21=PRESENTATION_STYLE_ASSIGNMENT((#20));
#22=MECHANICAL_DESIGN_GEOMETRIC_PRESENTATION_REPRESENTATION('NONE',(#23),#8);
#23=STYLED_ITEM('',(#21),#13);
#24=ADVANCED_BREP_SHAPE_REPRESENTATION('NONE',(#13),#8);
#25=SHAPE_REPRESENTATION_RELATIONSHIP('','',#3,#24);
#26=PRODUCT_DEFINITION_SHAPE('NONE','NONE',#1);
#27=MECHANICAL_CONTEXT('NONE',#32,'mechanical');
#28=PRODUCT_DEFINITION_FORMATION_WITH_SPECIFIED_SOURCE('ANY','UNSPECIFIED',#29,.NOT_KNOWN.);
#29=PRODUCT('Body, GT2 Idler Pulley, Configurable_20T W6 B5 Without T','Body, GT2 Idler Pulley, Configurable_20T W6 B5 Without T',
'NONE',(#27));
#30=PRODUCT_RELATED_PRODUCT_CATEGORY('detail','',(#29));
#31=DESIGN_CONTEXT('detailed design',#32,'design');
#32=APPLICATION_CONTEXT('configuration controlled 3d designs of mechanical parts and assemblies');
#33=APPLICATION_PROTOCOL_DEFINITION('international standard','config_control_design',
1994,#32);
#34=CC_DESIGN_DATE_AND_TIME_ASSIGNMENT(#35,#39,(#1));
#35=DATE_AND_TIME(#36,#37);
#36=CALENDAR_DATE(0,1,1);
#37=LOCAL_TIME(0,0,0.,#38);
#38=COORDINATED_UNIVERSAL_TIME_OFFSET(0,0,.AHEAD.);
#39=DATE_TIME_ROLE('creation_date');
#40=CC_DESIGN_APPROVAL(#41,(#1));
#41=APPROVAL(#42,'UNSPECIFIED');
#42=APPROVAL_STATUS('not_yet_approved');
#43=APPROVAL_DATE_TIME(#44,#41);
#44=DATE_AND_TIME(#45,#46);
#45=CALENDAR_DATE(0,1,1);
#46=LOCAL_TIME(0,0,0.,#47);
#47=COORDINATED_UNIVERSAL_TIME_OFFSET(0,0,.AHEAD.);
#48=PERSON('UNSPECIFIED','user','UNSPECIFIED',('UNSPECIFIED'),('UNSPECIFIED'),('UNSPECIFIED'));
#49=ORGANIZATION('UNSPECIFIED','UNSPECIFIED','UNSPECIFIED');
#50=PERSON_AND_ORGANIZATION(#48,#49);
#51=PERSON_AND_ORGANIZATION_ROLE('creator');
#52=CC_DESIGN_PERSON_AND_ORGANIZATION_ASSIGNMENT(#50,#51,(#28,#1));
#53=ADVANCED_FACE('',(#71,#73),#75,.T.);
#54=ADVANCED_FACE('',(#80,#82),#84,.T.);
#55=ADVANCED_FACE('',(#89,#91),#93,.T.);
#56=ADVANCED_FACE('',(#98,#100),#102,.T.);
#57=ADVANCED_FACE('',(#107,#109),#111,.F.);
#58=ADVANCED_FACE('',(#116,#118),#120,.F.);
#59=ADVANCED_FACE('',(#125,#127),#129,.T.);
#60=ADVANCED_FACE('',(#134,#136),#138,.T.);
#61=ADVANCED_FACE('',(#143,#145),#147,.F.);
#62=ADVANCED_FACE('',(#152,#154),#156,.F.);
#63=ADVANCED_FACE('',(#161,#163),#165,.F.);
#64=ADVANCED_FACE('',(#170,#172),#174,.T.);
#65=ADVANCED_FACE('',(#179,#181),#183,.F.);
#66=ADVANCED_FACE('',(#188,#190),#192,.F.);
#67=ADVANCED_FACE('',(#197,#199),#201,.F.);
#68=ADVANCED_FACE('',(#206,#208),#210,.F.);
#69=ADVANCED_FACE('',(#215,#217),#219,.F.);
#70=ADVANCED_FACE('',(#224,#226),#228,.F.);
#71=FACE_OUTER_BOUND('',#72,.T.);
#72=EDGE_LOOP('',(#233));
#73=FACE_BOUND('',#74,.T.);
#74=EDGE_LOOP('',(#234,#235));
#75=CONICAL_SURFACE('',#76,8.95,0.785398163397448);
#76=AXIS2_PLACEMENT_3D('',#77,#78,#79);
#77=CARTESIAN_POINT('',(1.73472347597681E-15,4.2,0.));
#78=DIRECTION('',(0.,-1.,0.));
#79=DIRECTION('',(0.,0.,-1.));
#80=FACE_OUTER_BOUND('',#81,.T.);
#81=EDGE_LOOP('',(#236));
#82=FACE_OUTER_BOUND('',#83,.T.);
#83=EDGE_LOOP('',(#237));
#84=CONICAL_SURFACE('',#85,8.95,0.785398163397457);
#85=AXIS2_PLACEMENT_3D('',#86,#87,#88);
#86=CARTESIAN_POINT('',(1.73472347597681E-15,3.29999999999999,0.));
#87=DIRECTION('',(0.,1.,0.));
#88=DIRECTION('',(1.22464679914735E-16,0.,-1.));
#89=FACE_OUTER_BOUND('',#90,.T.);
#90=EDGE_LOOP('',(#238));
#91=FACE_BOUND('',#92,.T.);
#92=EDGE_LOOP('',(#239,#240));
#93=CONICAL_SURFACE('',#94,8.95,0.785398163397448);
#94=AXIS2_PLACEMENT_3D('',#95,#96,#97);
#95=CARTESIAN_POINT('',(1.73472347597681E-15,-3.3,0.));
#96=DIRECTION('',(0.,-1.,0.));
#97=DIRECTION('',(0.,0.,-1.));
#98=FACE_OUTER_BOUND('',#99,.T.);
#99=EDGE_LOOP('',(#241));
#100=FACE_OUTER_BOUND('',#101,.T.);
#101=EDGE_LOOP('',(#242));
#102=CONICAL_SURFACE('',#103,8.94999999999999,0.785398163397448);
#103=AXIS2_PLACEMENT_3D('',#104,#105,#106);
#104=CARTESIAN_POINT('',(1.73472347597681E-15,-4.2,0.));
#105=DIRECTION('',(0.,1.,0.));
#106=DIRECTION('',(1.22464679914735E-16,0.,-1.));
#107=FACE_OUTER_BOUND('',#108,.T.);
#108=EDGE_LOOP('',(#243));
#109=FACE_OUTER_BOUND('',#110,.T.);
#110=EDGE_LOOP('',(#244));
#111=CONICAL_SURFACE('',#112,4.7,0.785398163397453);
#112=AXIS2_PLACEMENT_3D('',#113,#114,#115);
#113=CARTESIAN_POINT('',(1.73472347597681E-15,4.05,0.));
#114=DIRECTION('',(0.,1.,0.));
#115=DIRECTION('',(1.22464679914735E-16,0.,-1.));
#116=FACE_BOUND('',#117,.T.);
#117=EDGE_LOOP('',(#245,#246));
#118=FACE_OUTER_BOUND('',#119,.T.);
#119=EDGE_LOOP('',(#247));
#120=CONICAL_SURFACE('',#121,4.7,0.785398163397444);
#121=AXIS2_PLACEMENT_3D('',#122,#123,#124);
#122=CARTESIAN_POINT('',(1.73472347597681E-15,-4.05,0.));
#123=DIRECTION('',(0.,-1.,0.));
#124=DIRECTION('',(0.,0.,-1.));
#125=FACE_OUTER_BOUND('',#126,.T.);
#126=EDGE_LOOP('',(#248));
#127=FACE_OUTER_BOUND('',#128,.T.);
#128=EDGE_LOOP('',(#249));
#129=CYLINDRICAL_SURFACE('',#130,6.);
#130=AXIS2_PLACEMENT_3D('',#131,#132,#133);
#131=CARTESIAN_POINT('',(1.73472347597681E-15,4.25,0.));
#132=DIRECTION('',(0.,1.,0.));
#133=DIRECTION('',(0.,0.,1.));
#134=FACE_BOUND('',#135,.T.);
#135=EDGE_LOOP('',(#250,#251));
#136=FACE_OUTER_BOUND('',#137,.T.);
#137=EDGE_LOOP('',(#252));
#138=CYLINDRICAL_SURFACE('',#139,9.);
#139=AXIS2_PLACEMENT_3D('',#140,#141,#142);
#140=CARTESIAN_POINT('',(1.73472347597681E-15,4.25,0.));
#141=DIRECTION('',(0.,1.,0.));
#142=DIRECTION('',(0.,0.,1.));
#143=FACE_OUTER_BOUND('',#144,.T.);
#144=EDGE_LOOP('',(#253));
#145=FACE_BOUND('',#146,.T.);
#146=EDGE_LOOP('',(#254,#255));
#147=CYLINDRICAL_SURFACE('',#148,4.5);
#148=AXIS2_PLACEMENT_3D('',#149,#150,#151);
#149=CARTESIAN_POINT('',(1.73472347597681E-15,4.25,0.));
#150=DIRECTION('',(0.,1.,0.));
#151=DIRECTION('',(0.,0.,1.));
#152=FACE_OUTER_BOUND('',#153,.T.);
#153=EDGE_LOOP('',(#256));
#154=FACE_OUTER_BOUND('',#155,.T.);
#155=EDGE_LOOP('',(#257));
#156=CYLINDRICAL_SURFACE('',#157,4.);
#157=AXIS2_PLACEMENT_3D('',#158,#159,#160);
#158=CARTESIAN_POINT('',(1.73472347597681E-15,4.25,0.));
#159=DIRECTION('',(0.,1.,0.));
#160=DIRECTION('',(0.,0.,1.));
#161=FACE_OUTER_BOUND('',#162,.T.);
#162=EDGE_LOOP('',(#258));
#163=FACE_OUTER_BOUND('',#164,.T.);
#164=EDGE_LOOP('',(#259));
#165=CYLINDRICAL_SURFACE('',#166,4.5);
#166=AXIS2_PLACEMENT_3D('',#167,#168,#169);
#167=CARTESIAN_POINT('',(1.73472347597681E-15,4.25,0.));
#168=DIRECTION('',(0.,1.,0.));
#169=DIRECTION('',(0.,0.,1.));
#170=FACE_BOUND('',#171,.T.);
#171=EDGE_LOOP('',(#260,#261));
#172=FACE_OUTER_BOUND('',#173,.T.);
#173=EDGE_LOOP('',(#262));
#174=CYLINDRICAL_SURFACE('',#175,9.);
#175=AXIS2_PLACEMENT_3D('',#176,#177,#178);
#176=CARTESIAN_POINT('',(1.73472347597681E-15,4.25,0.));
#177=DIRECTION('',(0.,1.,0.));
#178=DIRECTION('',(0.,0.,1.));
#179=FACE_BOUND('',#180,.T.);
#180=EDGE_LOOP('',(#263));
#181=FACE_BOUND('',#182,.T.);
#182=EDGE_LOOP('',(#264));
#183=PLANE('',#184);
#184=AXIS2_PLACEMENT_3D('',#185,#186,#187);
#185=CARTESIAN_POINT('',(6.,3.25,0.));
#186=DIRECTION('',(0.,1.,0.));
#187=DIRECTION('',(0.,0.,1.));
#188=FACE_BOUND('',#189,.T.);
#189=EDGE_LOOP('',(#265));
#190=FACE_BOUND('',#191,.T.);
#191=EDGE_LOOP('',(#266));
#192=PLANE('',#193);
#193=AXIS2_PLACEMENT_3D('',#194,#195,#196);
#194=CARTESIAN_POINT('',(9.,4.25,0.));
#195=DIRECTION('',(0.,-1.,0.));
#196=DIRECTION('',(0.,0.,-1.));
#197=FACE_BOUND('',#198,.T.);
#198=EDGE_LOOP('',(#267));
#199=FACE_BOUND('',#200,.T.);
#200=EDGE_LOOP('',(#268));
#201=PLANE('',#202);
#202=AXIS2_PLACEMENT_3D('',#203,#204,#205);
#203=CARTESIAN_POINT('',(4.5,1.25,0.));
#204=DIRECTION('',(0.,-1.,0.));
#205=DIRECTION('',(0.,0.,-1.));
#206=FACE_BOUND('',#207,.T.);
#207=EDGE_LOOP('',(#269));
#208=FACE_BOUND('',#209,.T.);
#209=EDGE_LOOP('',(#270));
#210=PLANE('',#211);
#211=AXIS2_PLACEMENT_3D('',#212,#213,#214);
#212=CARTESIAN_POINT('',(4.,-1.25,0.));
#213=DIRECTION('',(0.,1.,0.));
#214=DIRECTION('',(0.,0.,1.));
#215=FACE_BOUND('',#216,.T.);
#216=EDGE_LOOP('',(#271));
#217=FACE_BOUND('',#218,.T.);
#218=EDGE_LOOP('',(#272));
#219=PLANE('',#220);
#220=AXIS2_PLACEMENT_3D('',#221,#222,#223);
#221=CARTESIAN_POINT('',(4.5,-4.25,0.));
#222=DIRECTION('',(0.,1.,0.));
#223=DIRECTION('',(0.,0.,1.));
#224=FACE_BOUND('',#225,.T.);
#225=EDGE_LOOP('',(#273));
#226=FACE_BOUND('',#227,.T.);
#227=EDGE_LOOP('',(#274));
#228=PLANE('',#229);
#229=AXIS2_PLACEMENT_3D('',#230,#231,#232);
#230=CARTESIAN_POINT('',(9.,-3.25,0.));
#231=DIRECTION('',(0.,-1.,0.));
#232=DIRECTION('',(0.,0.,-1.));
#233=ORIENTED_EDGE('',*,*,#275,.F.);
#234=ORIENTED_EDGE('',*,*,#276,.F.);
#235=ORIENTED_EDGE('',*,*,#277,.F.);
#236=ORIENTED_EDGE('',*,*,#278,.F.);
#237=ORIENTED_EDGE('',*,*,#279,.F.);
#238=ORIENTED_EDGE('',*,*,#280,.F.);
#239=ORIENTED_EDGE('',*,*,#281,.F.);
#240=ORIENTED_EDGE('',*,*,#282,.F.);
#241=ORIENTED_EDGE('',*,*,#283,.F.);
#242=ORIENTED_EDGE('',*,*,#284,.F.);
#243=ORIENTED_EDGE('',*,*,#285,.F.);
#244=ORIENTED_EDGE('',*,*,#286,.F.);
#245=ORIENTED_EDGE('',*,*,#287,.F.);
#246=ORIENTED_EDGE('',*,*,#288,.F.);
#247=ORIENTED_EDGE('',*,*,#289,.F.);
#248=ORIENTED_EDGE('',*,*,#290,.F.);
#249=ORIENTED_EDGE('',*,*,#291,.T.);
#250=ORIENTED_EDGE('',*,*,#282,.T.);
#251=ORIENTED_EDGE('',*,*,#281,.T.);
#252=ORIENTED_EDGE('',*,*,#283,.T.);
#253=ORIENTED_EDGE('',*,*,#292,.T.);
#254=ORIENTED_EDGE('',*,*,#288,.T.);
#255=ORIENTED_EDGE('',*,*,#287,.T.);
#256=ORIENTED_EDGE('',*,*,#293,.T.);
#257=ORIENTED_EDGE('',*,*,#294,.F.);
#258=ORIENTED_EDGE('',*,*,#286,.T.);
#259=ORIENTED_EDGE('',*,*,#295,.F.);
#260=ORIENTED_EDGE('',*,*,#277,.T.);
#261=ORIENTED_EDGE('',*,*,#276,.T.);
#262=ORIENTED_EDGE('',*,*,#278,.T.);
#263=ORIENTED_EDGE('',*,*,#279,.T.);
#264=ORIENTED_EDGE('',*,*,#290,.T.);
#265=ORIENTED_EDGE('',*,*,#275,.T.);
#266=ORIENTED_EDGE('',*,*,#285,.T.);
#267=ORIENTED_EDGE('',*,*,#295,.T.);
#268=ORIENTED_EDGE('',*,*,#293,.F.);
#269=ORIENTED_EDGE('',*,*,#292,.F.);
#270=ORIENTED_EDGE('',*,*,#294,.T.);
#271=ORIENTED_EDGE('',*,*,#284,.T.);
#272=ORIENTED_EDGE('',*,*,#289,.T.);
#273=ORIENTED_EDGE('',*,*,#280,.T.);
#274=ORIENTED_EDGE('',*,*,#291,.F.);
#275=EDGE_CURVE('',#296,#296,#297,.T.);
#276=EDGE_CURVE('',#298,#299,#300,.T.);
#277=EDGE_CURVE('',#299,#298,#301,.T.);
#278=EDGE_CURVE('',#302,#302,#303,.T.);
#279=EDGE_CURVE('',#304,#304,#305,.T.);
#280=EDGE_CURVE('',#306,#306,#307,.T.);
#281=EDGE_CURVE('',#308,#309,#310,.T.);
#282=EDGE_CURVE('',#309,#308,#311,.T.);
#283=EDGE_CURVE('',#312,#312,#313,.T.);
#284=EDGE_CURVE('',#314,#314,#315,.T.);
#285=EDGE_CURVE('',#316,#316,#317,.T.);
#286=EDGE_CURVE('',#318,#318,#319,.T.);
#287=EDGE_CURVE('',#320,#321,#322,.T.);
#288=EDGE_CURVE('',#321,#320,#323,.T.);
#289=EDGE_CURVE('',#324,#324,#325,.T.);
#290=EDGE_CURVE('',#326,#326,#327,.T.);
#291=EDGE_CURVE('',#328,#328,#329,.T.);
#292=EDGE_CURVE('',#330,#330,#331,.T.);
#293=EDGE_CURVE('',#332,#332,#333,.T.);
#294=EDGE_CURVE('',#334,#334,#335,.T.);
#295=EDGE_CURVE('',#336,#336,#337,.T.);
#296=VERTEX_POINT('',#338);
#297=CIRCLE('',#339,8.9);
#298=VERTEX_POINT('',#343);
#299=VERTEX_POINT('',#344);
#300=CIRCLE('',#345,9.);
#301=CIRCLE('',#349,9.);
#302=VERTEX_POINT('',#353);
#303=B_SPLINE_CURVE_WITH_KNOTS('',3,
(#354,#355,#356,#357,#358,#359,#360,#361,#362,#363,#364,#365,#366,#367,#368,#369,
#370,#371,#372,#373,#374,#375,#376,#377,#378,#379,#380,#381,#382,#383,#384,#385,
#386,#387,#388,#389,#390,#391,#392,#393,#394,#395,#396,#397,#398,#399,#400,#401,
#402,#403,#404,#405,#406,#407,#408,#409,#410,#411,#412,#413,#414,#415,#416,#417,
#418,#419,#420,#421,#422,#423,#424,#425,#426,#427,#428,#429,#430,#431,#432,#433,
#434,#435,#436,#437,#438,#439,#440,#441,#442,#443,#444,#445,#446,#447,#448,#449,
#450,#451,#452,#453,#454,#455,#456,#457,#458),
.UNSPECIFIED.,.T.,.F.,
(4,1,1,1,1,1,1,1,1,1,1,1,1,1,1,1,1,1,1,1,1,1,1,1,1,1,1,1,1,1,1,1,1,1,1,1,1,1,1,1,
1,1,1,1,1,1,1,1,1,1,3,1,1,1,1,1,1,1,1,1,1,1,1,1,1,1,1,1,1,1,1,1,1,1,1,1,1,1,1,1,
1,1,1,1,1,1,1,1,1,1,1,1,1,1,1,1,1,1,1,1,4),
(0.,0.0100015915494356,0.0200031830988712,0.0300047746483068,0.0400063661977423,
0.0500079577471779,0.0600095492966135,0.0700111408460491,0.0800127323954847,0.0900143239449203,
0.100015915494356,0.110017507043791,0.120019098593227,0.130020690142663,0.140022281692098,
0.150023873241534,0.160025464790969,0.170027056340405,0.180028647889841,0.190030239439276,
0.200031830988712,0.210033422538147,0.220035014087583,0.230036605637019,0.240038197186454,
0.25003978873589,0.260041380285325,0.270042971834761,0.280044563384196,0.290046154933632,
0.300047746483068,0.310049338032503,0.320050929581939,0.330052521131374,0.34005411268081,
0.350055704230246,0.360057295779681,0.370058887329117,0.380060478878552,0.390062070427988,
0.400063661977424,0.410065253526859,0.420066845076295,0.43006843662573,0.440070028175166,
0.450071619724601,0.460073211274037,0.470074802823473,0.480076394372908,0.490077985922344,
0.500000000000233,0.51000159154966,0.520003183099086,0.530004774648512,0.540006366197938,
0.550007957747365,0.560009549296791,0.570011140846217,0.580012732395643,0.59001432394507,
0.600015915494496,0.610017507043922,0.620019098593348,0.630020690142775,0.640022281692201,
0.650023873241627,0.660025464791053,0.67002705634048,0.680028647889906,0.690030239439332,
0.700031830988759,0.710033422538185,0.720035014087611,0.730036605637037,0.740038197186463,
0.75003978873589,0.760041380285316,0.770042971834742,0.780044563384168,0.790046154933595,
0.800047746483021,0.810049338032447,0.820050929581873,0.8300525211313,0.840054112680726,
0.850055704230152,0.860057295779578,0.870058887329005,0.880060478878431,0.890062070427857,
0.900063661977284,0.91006525352671,0.920066845076136,0.930068436625562,0.940070028174989,
0.950071619724415,0.960073211273841,0.970074802823268,0.980076394372694,0.99007798592212,
1.),
.UNSPECIFIED.);
#304=VERTEX_POINT('',#459);
#305=CIRCLE('',#460,8.9);
#306=VERTEX_POINT('',#464);
#307=CIRCLE('',#465,8.9);
#308=VERTEX_POINT('',#469);
#309=VERTEX_POINT('',#470);
#310=CIRCLE('',#471,9.);
#311=CIRCLE('',#475,9.);
#312=VERTEX_POINT('',#479);
#313=B_SPLINE_CURVE_WITH_KNOTS('',3,
(#480,#481,#482,#483,#484,#485,#486,#487,#488,#489,#490,#491,#492,#493,#494,#495,
#496,#497,#498,#499,#500,#501,#502,#503,#504,#505,#506,#507,#508,#509,#510,#511,
#512,#513,#514,#515,#516,#517,#518,#519,#520,#521,#522,#523,#524,#525,#526,#527,
#528,#529,#530,#531,#532,#533,#534,#535,#536,#537,#538,#539,#540,#541,#542,#543,
#544,#545,#546,#547,#548,#549,#550,#551,#552,#553,#554,#555,#556,#557,#558,#559,
#560,#561,#562,#563,#564,#565,#566,#567,#568,#569,#570,#571,#572,#573,#574,#575,
#576,#577,#578,#579,#580,#581,#582,#583,#584),
.UNSPECIFIED.,.T.,.F.,
(4,1,1,1,1,1,1,1,1,1,1,1,1,1,1,1,1,1,1,1,1,1,1,1,1,1,1,1,1,1,1,1,1,1,1,1,1,1,1,1,
1,1,1,1,1,1,1,1,1,1,3,1,1,1,1,1,1,1,1,1,1,1,1,1,1,1,1,1,1,1,1,1,1,1,1,1,1,1,1,1,
1,1,1,1,1,1,1,1,1,1,1,1,1,1,1,1,1,1,1,1,4),
(0.,0.0100015915494356,0.0200031830988712,0.0300047746483068,0.0400063661977423,
0.0500079577471779,0.0600095492966135,0.0700111408460491,0.0800127323954847,0.0900143239449203,
0.100015915494356,0.110017507043791,0.120019098593227,0.130020690142663,0.140022281692098,
0.150023873241534,0.160025464790969,0.170027056340405,0.180028647889841,0.190030239439276,
0.200031830988712,0.210033422538147,0.220035014087583,0.230036605637019,0.240038197186454,
0.25003978873589,0.260041380285325,0.270042971834761,0.280044563384196,0.290046154933632,
0.300047746483068,0.310049338032503,0.320050929581939,0.330052521131374,0.34005411268081,
0.350055704230246,0.360057295779681,0.370058887329117,0.380060478878552,0.390062070427988,
0.400063661977424,0.410065253526859,0.420066845076295,0.43006843662573,0.440070028175166,
0.450071619724601,0.460073211274037,0.470074802823473,0.480076394372908,0.490077985922344,
0.500000000000233,0.51000159154966,0.520003183099086,0.530004774648512,0.540006366197938,
0.550007957747365,0.560009549296791,0.570011140846217,0.580012732395643,0.59001432394507,
0.600015915494496,0.610017507043922,0.620019098593348,0.630020690142775,0.640022281692201,
0.650023873241627,0.660025464791053,0.67002705634048,0.680028647889906,0.690030239439332,
0.700031830988759,0.710033422538185,0.720035014087611,0.730036605637037,0.740038197186463,
0.75003978873589,0.760041380285316,0.770042971834742,0.780044563384168,0.790046154933595,
0.800047746483021,0.810049338032447,0.820050929581873,0.8300525211313,0.840054112680726,
0.850055704230152,0.860057295779578,0.870058887329005,0.880060478878431,0.890062070427857,
0.900063661977284,0.91006525352671,0.920066845076136,0.930068436625562,0.940070028174989,
0.950071619724415,0.960073211273841,0.970074802823268,0.980076394372694,0.99007798592212,
1.),
.UNSPECIFIED.);
#314=VERTEX_POINT('',#585);
#315=CIRCLE('',#586,8.9);
#316=VERTEX_POINT('',#590);
#317=CIRCLE('',#591,4.9);
#318=VERTEX_POINT('',#595);
#319=B_SPLINE_CURVE_WITH_KNOTS('',3,
(#596,#597,#598,#599,#600,#601,#602,#603,#604,#605,#606,#607,#608,#609,#610,#611,
#612,#613,#614,#615,#616,#617,#618,#619,#620,#621,#622,#623,#624,#625,#626,#627,
#628,#629,#630,#631,#632,#633,#634,#635,#636,#637,#638,#639,#640,#641,#642,#643,
#644,#645,#646,#647,#648,#649,#650,#651,#652,#653,#654,#655,#656,#657,#658,#659,
#660,#661,#662,#663,#664,#665,#666,#667,#668,#669,#670,#671,#672,#673,#674,#675,
#676,#677,#678,#679,#680,#681,#682,#683,#684,#685,#686,#687,#688,#689,#690,#691,
#692,#693,#694,#695,#696,#697,#698,#699,#700),
.UNSPECIFIED.,.T.,.F.,
(4,1,1,1,1,1,1,1,1,1,1,1,1,1,1,1,1,1,1,1,1,1,1,1,1,1,1,1,1,1,1,1,1,1,1,1,1,1,1,1,
1,1,1,1,1,1,1,1,1,1,3,1,1,1,1,1,1,1,1,1,1,1,1,1,1,1,1,1,1,1,1,1,1,1,1,1,1,1,1,1,
1,1,1,1,1,1,1,1,1,1,1,1,1,1,1,1,1,1,1,1,4),
(0.,0.0100015915494356,0.0200031830988712,0.0300047746483068,0.0400063661977423,
0.0500079577471779,0.0600095492966135,0.0700111408460491,0.0800127323954847,0.0900143239449203,
0.100015915494356,0.110017507043791,0.120019098593227,0.130020690142663,0.140022281692098,
0.150023873241534,0.160025464790969,0.170027056340405,0.180028647889841,0.190030239439276,
0.200031830988712,0.210033422538147,0.220035014087583,0.230036605637019,0.240038197186454,
0.25003978873589,0.260041380285325,0.270042971834761,0.280044563384196,0.290046154933632,
0.300047746483068,0.310049338032503,0.320050929581939,0.330052521131374,0.34005411268081,
0.350055704230246,0.360057295779681,0.370058887329117,0.380060478878552,0.390062070427988,
0.400063661977423,0.410065253526859,0.420066845076295,0.43006843662573,0.440070028175166,
0.450071619724601,0.460073211274037,0.470074802823473,0.480076394372908,0.490077985922344,
0.500000000000233,0.510001591549659,0.520003183099086,0.530004774648512,0.540006366197938,
0.550007957747365,0.560009549296791,0.570011140846217,0.580012732395643,0.59001432394507,
0.600015915494496,0.610017507043922,0.620019098593348,0.630020690142775,0.640022281692201,
0.650023873241627,0.660025464791053,0.67002705634048,0.680028647889906,0.690030239439332,
0.700031830988758,0.710033422538185,0.720035014087611,0.730036605637037,0.740038197186463,
0.75003978873589,0.760041380285316,0.770042971834742,0.780044563384168,0.790046154933595,
0.800047746483021,0.810049338032447,0.820050929581873,0.8300525211313,0.840054112680726,
0.850055704230152,0.860057295779578,0.870058887329005,0.880060478878431,0.890062070427857,
0.900063661977283,0.91006525352671,0.920066845076136,0.930068436625562,0.940070028174989,
0.950071619724415,0.960073211273841,0.970074802823267,0.980076394372694,0.99007798592212,
1.),
.UNSPECIFIED.);
#320=VERTEX_POINT('',#701);
#321=VERTEX_POINT('',#702);
#322=CIRCLE('',#703,4.5);
#323=CIRCLE('',#707,4.5);
#324=VERTEX_POINT('',#711);
#325=CIRCLE('',#712,4.9);
#326=VERTEX_POINT('',#716);
#327=CIRCLE('',#717,6.);
#328=VERTEX_POINT('',#721);
#329=CIRCLE('',#722,6.);
#330=VERTEX_POINT('',#726);
#331=CIRCLE('',#727,4.5);
#332=VERTEX_POINT('',#731);
#333=CIRCLE('',#732,4.);
#334=VERTEX_POINT('',#736);
#335=CIRCLE('',#737,4.);
#336=VERTEX_POINT('',#741);
#337=CIRCLE('',#742,4.5);
#338=CARTESIAN_POINT('',(1.3180369695239E-15,4.25,-8.9));
#339=AXIS2_PLACEMENT_3D('',#340,#341,#342);
#340=CARTESIAN_POINT('',(0.,4.25,0.));
#341=DIRECTION('',(0.,1.,0.));
#342=DIRECTION('',(2.44929359829471E-16,0.,-1.));
#343=CARTESIAN_POINT('',(1.3673294362326E-15,4.15,-9.));
#344=CARTESIAN_POINT('',(1.3673294362326E-15,4.15,9.));
#345=AXIS2_PLACEMENT_3D('',#346,#347,#348);
#346=CARTESIAN_POINT('',(1.73472347597681E-15,4.15,0.));
#347=DIRECTION('',(0.,-1.,0.));
#348=DIRECTION('',(1.22464679914735E-16,0.,-1.));
#349=AXIS2_PLACEMENT_3D('',#350,#351,#352);
#350=CARTESIAN_POINT('',(1.73472347597681E-15,4.15,0.));
#351=DIRECTION('',(0.,-1.,0.));
#352=DIRECTION('',(-2.44929359829471E-16,0.,1.));
#353=CARTESIAN_POINT('',(5.52556357048741E-15,3.35,9.));
#354=CARTESIAN_POINT('',(1.73472347597681E-15,3.35,9.));
#355=CARTESIAN_POINT('',(0.188526390498768,3.35,9.00001121946662));
#356=CARTESIAN_POINT('',(0.565576235236819,3.35,8.98814359817717));
#357=CARTESIAN_POINT('',(1.12892057976973,3.35,8.93489000273143));
#358=CARTESIAN_POINT('',(1.68780754068046,3.35,8.84635489127184));
#359=CARTESIAN_POINT('',(2.24003154593014,3.35,8.72289838993123));
#360=CARTESIAN_POINT('',(2.78341231138523,3.35,8.56500503795036));
#361=CARTESIAN_POINT('',(3.31580473651037,3.35,8.37329892812485));
#362=CARTESIAN_POINT('',(3.83510702757667,3.35,8.14853667359156));
#363=CARTESIAN_POINT('',(4.33926908762182,3.35,7.89160564524452));
#364=CARTESIAN_POINT('',(4.82630058503541,3.35,7.60352014050328));
#365=CARTESIAN_POINT('',(5.29427881762945,3.35,7.28541746697656));
#366=CARTESIAN_POINT('',(5.74135630130069,3.35,6.93855342904596));
#367=CARTESIAN_POINT('',(6.16576806400349,3.35,6.56429737651405));
#368=CARTESIAN_POINT('',(6.56583861337699,3.35,6.16412679699529));
#369=CARTESIAN_POINT('',(6.9399885512865,3.35,5.73962148354505));
#370=CARTESIAN_POINT('',(7.28674080896081,3.34999999999999,5.29245729783262));
#371=CARTESIAN_POINT('',(7.60472647816534,3.35,4.82439955420862));
#372=CARTESIAN_POINT('',(7.89269021537608,3.35,4.33729605059001));
#373=CARTESIAN_POINT('',(8.14949519762382,3.35,3.8330697737275));
#374=CARTESIAN_POINT('',(8.37412761044265,3.35,3.31371130763969));
#375=CARTESIAN_POINT('',(8.56570065020583,3.35,2.78127097518751));
#376=CARTESIAN_POINT('',(8.72345802504828,3.35,2.23785074381154));
#377=CARTESIAN_POINT('',(8.84677694055488,3.35,1.68559592738694));
#378=CARTESIAN_POINT('',(8.93517055842772,3.35,1.12668671695537));
#379=CARTESIAN_POINT('',(8.98828991842578,3.35,0.56332957376884));
#380=CARTESIAN_POINT('',(9.00592531598996,3.35,-0.00225148137590522));
#381=CARTESIAN_POINT('',(8.98800713011442,3.35,-0.567823648124608));
#382=CARTESIAN_POINT('',(8.93460609819641,3.35,-1.1311541612126));
#383=CARTESIAN_POINT('',(8.84593303677921,3.35,-1.69001910497343));
#384=CARTESIAN_POINT('',(8.72233800929076,3.35,-2.242212192911));
#385=CARTESIAN_POINT('',(8.56430894406362,3.35,-2.7855534776753));
#386=CARTESIAN_POINT('',(8.37246970809193,3.35,-3.31789795705655));
#387=CARTESIAN_POINT('',(8.14757764412993,3.35,-3.83714404202283));
#388=CARTESIAN_POINT('',(7.89052058085489,3.35,-4.34124185337128));
#389=CARTESIAN_POINT('',(7.60231332789795,3.35,-4.82820131423934));
#390=CARTESIAN_POINT('',(7.28409366957956,3.35,-5.29610000652815));
#391=CARTESIAN_POINT('',(6.93711787316575,3.35,-5.74309076022344));
#392=CARTESIAN_POINT('',(6.5627557293771,3.35,-6.16740894564936));
#393=CARTESIAN_POINT('',(6.16248514473099,3.35,-6.56737943988042));
#394=CARTESIAN_POINT('',(5.7378863070612,3.35,-6.94142323975793));
#395=CARTESIAN_POINT('',(5.29063544726287,3.35,-7.2880636955976));
#396=CARTESIAN_POINT('',(4.82249822183608,3.35,-7.60593234025643));
#397=CARTESIAN_POINT('',(4.33532274255466,3.35,-7.89377429324287));
#398=CARTESIAN_POINT('',(3.83103228002241,3.35,-8.15045320847471));
#399=CARTESIAN_POINT('',(3.31161767274088,3.35,-8.37495578370079));
#400=CARTESIAN_POINT('',(2.77912946113416,3.35,-8.56639567364973));
#401=CARTESIAN_POINT('',(2.23566981685325,3.35,-8.72401731444707));
#402=CARTESIAN_POINT('',(1.68338415266601,3.35,-8.84719769237816));
#403=CARTESIAN_POINT('',(1.12445299300783,3.35,-8.93545333432283));
#404=CARTESIAN_POINT('',(0.562576245947627,3.35,-8.988284816693));
#405=CARTESIAN_POINT('',(0.187026368258333,3.35,-9.00001096520108));
#406=CARTESIAN_POINT('',(-1.15989729344114E-15,3.35,-9.));
#407=CARTESIAN_POINT('',(-0.188526390498765,3.35,-9.00001121946661));
#408=CARTESIAN_POINT('',(-0.565576235236815,3.35,-8.98814359817716));
#409=CARTESIAN_POINT('',(-1.12892057976973,3.35,-8.93489000273143));
#410=CARTESIAN_POINT('',(-1.68780754068046,3.35,-8.84635489127183));
#411=CARTESIAN_POINT('',(-2.24003154593013,3.35,-8.72289838993124));
#412=CARTESIAN_POINT('',(-2.78341231138523,3.35,-8.56500503795035));
#413=CARTESIAN_POINT('',(-3.31580473651037,3.35,-8.37329892812484));
#414=CARTESIAN_POINT('',(-3.83510702757667,3.35,-8.14853667359156));
#415=CARTESIAN_POINT('',(-4.33926908762181,3.35,-7.89160564524452));
#416=CARTESIAN_POINT('',(-4.82630058503541,3.35,-7.60352014050328));
#417=CARTESIAN_POINT('',(-5.29427881762944,3.35,-7.28541746697656));
#418=CARTESIAN_POINT('',(-5.74135630130069,3.35,-6.93855342904596));
#419=CARTESIAN_POINT('',(-6.16576806400349,3.35,-6.56429737651404));
#420=CARTESIAN_POINT('',(-6.56583861337699,3.35,-6.16412679699529));
#421=CARTESIAN_POINT('',(-6.93998855128649,3.35,-5.73962148354504));
#422=CARTESIAN_POINT('',(-7.28674080896081,3.35,-5.29245729783261));
#423=CARTESIAN_POINT('',(-7.60472647816534,3.35,-4.82439955420861));
#424=CARTESIAN_POINT('',(-7.89269021537608,3.35,-4.33729605059001));
#425=CARTESIAN_POINT('',(-8.14949519762382,3.35,-3.8330697737275));
#426=CARTESIAN_POINT('',(-8.37412761044265,3.35,-3.31371130763969));
#427=CARTESIAN_POINT('',(-8.56570065020583,3.35,-2.78127097518751));
#428=CARTESIAN_POINT('',(-8.72345802504828,3.35,-2.23785074381154));
#429=CARTESIAN_POINT('',(-8.84677694055488,3.35,-1.68559592738695));
#430=CARTESIAN_POINT('',(-8.93517055842771,3.35,-1.12668671695537));
#431=CARTESIAN_POINT('',(-8.98828991842578,3.35,-0.563329573768839));
#432=CARTESIAN_POINT('',(-9.00592531598995,3.35,0.00225148137590164));
#433=CARTESIAN_POINT('',(-8.98800713011441,3.35,0.567823648124608));
#434=CARTESIAN_POINT('',(-8.93460609819641,3.35,1.1311541612126));
#435=CARTESIAN_POINT('',(-8.84593303677921,3.35,1.69001910497343));
#436=CARTESIAN_POINT('',(-8.72233800929076,3.35,2.24221219291099));
#437=CARTESIAN_POINT('',(-8.56430894406362,3.35,2.7855534776753));
#438=CARTESIAN_POINT('',(-8.37246970809194,3.35,3.31789795705654));
#439=CARTESIAN_POINT('',(-8.14757764412993,3.35,3.83714404202282));
#440=CARTESIAN_POINT('',(-7.89052058085489,3.35,4.34124185337127));
#441=CARTESIAN_POINT('',(-7.60231332789794,3.35,4.82820131423935));
#442=CARTESIAN_POINT('',(-7.28409366957956,3.35,5.29610000652815));
#443=CARTESIAN_POINT('',(-6.93711787316574,3.35,5.74309076022344));
#444=CARTESIAN_POINT('',(-6.56275572937709,3.35,6.16740894564937));
#445=CARTESIAN_POINT('',(-6.16248514473099,3.35,6.56737943988042));
#446=CARTESIAN_POINT('',(-5.7378863070612,3.35,6.94142323975793));
#447=CARTESIAN_POINT('',(-5.29063544726286,3.35,7.2880636955976));
#448=CARTESIAN_POINT('',(-4.82249822183608,3.35,7.60593234025643));
#449=CARTESIAN_POINT('',(-4.33532274255465,3.35,7.89377429324288));
#450=CARTESIAN_POINT('',(-3.8310322800224,3.35,8.15045320847472));
#451=CARTESIAN_POINT('',(-3.31161767274087,3.35,8.37495578370079));
#452=CARTESIAN_POINT('',(-2.77912946113414,3.35,8.56639567364973));
#453=CARTESIAN_POINT('',(-2.23566981685324,3.35,8.72401731444708));
#454=CARTESIAN_POINT('',(-1.68338415266599,3.35,8.84719769237816));
#455=CARTESIAN_POINT('',(-1.12445299300782,3.35,8.93545333432284));
#456=CARTESIAN_POINT('',(-0.562576245947613,3.35,8.98828481669299));
#457=CARTESIAN_POINT('',(-0.187026368258323,3.35,9.00001096520108));
#458=CARTESIAN_POINT('',(1.73472347597681E-15,3.35,9.));
#459=CARTESIAN_POINT('',(7.76957736986682E-15,3.25,8.9));
#460=AXIS2_PLACEMENT_3D('',#461,#462,#463);
#461=CARTESIAN_POINT('',(1.77635683940025E-15,3.25,0.));
#462=DIRECTION('',(0.,-1.,0.));
#463=DIRECTION('',(2.44929359829471E-16,0.,1.));
#464=CARTESIAN_POINT('',(1.3180369695239E-15,-3.25,-8.9));
#465=AXIS2_PLACEMENT_3D('',#466,#467,#468);
#466=CARTESIAN_POINT('',(0.,-3.25,0.));
#467=DIRECTION('',(0.,1.,0.));
#468=DIRECTION('',(2.44929359829471E-16,0.,-1.));
#469=CARTESIAN_POINT('',(1.3673294362326E-15,-3.35,-9.));
#470=CARTESIAN_POINT('',(1.3673294362326E-15,-3.35,9.));
#471=AXIS2_PLACEMENT_3D('',#472,#473,#474);
#472=CARTESIAN_POINT('',(1.73472347597681E-15,-3.35,0.));
#473=DIRECTION('',(0.,-1.,0.));
#474=DIRECTION('',(1.22464679914735E-16,0.,-1.));
#475=AXIS2_PLACEMENT_3D('',#476,#477,#478);
#476=CARTESIAN_POINT('',(1.73472347597681E-15,-3.35,0.));
#477=DIRECTION('',(0.,-1.,0.));
#478=DIRECTION('',(-2.44929359829471E-16,0.,1.));
#479=CARTESIAN_POINT('',(5.52556357048741E-15,-4.15,9.));
#480=CARTESIAN_POINT('',(1.73472347597681E-15,-4.15,9.));
#481=CARTESIAN_POINT('',(0.188526390498768,-4.15,9.00001121946662));
#482=CARTESIAN_POINT('',(0.565576235236819,-4.15,8.98814359817717));
#483=CARTESIAN_POINT('',(1.12892057976973,-4.15,8.93489000273143));
#484=CARTESIAN_POINT('',(1.68780754068046,-4.15,8.84635489127184));
#485=CARTESIAN_POINT('',(2.24003154593014,-4.15,8.72289838993123));
#486=CARTESIAN_POINT('',(2.78341231138523,-4.15,8.56500503795036));
#487=CARTESIAN_POINT('',(3.31580473651037,-4.15,8.37329892812485));
#488=CARTESIAN_POINT('',(3.83510702757667,-4.15,8.14853667359156));
#489=CARTESIAN_POINT('',(4.33926908762182,-4.15,7.89160564524452));
#490=CARTESIAN_POINT('',(4.82630058503541,-4.15,7.60352014050328));
#491=CARTESIAN_POINT('',(5.29427881762945,-4.15,7.28541746697656));
#492=CARTESIAN_POINT('',(5.74135630130069,-4.15,6.93855342904596));
#493=CARTESIAN_POINT('',(6.16576806400349,-4.15,6.56429737651405));
#494=CARTESIAN_POINT('',(6.56583861337699,-4.15,6.16412679699529));
#495=CARTESIAN_POINT('',(6.9399885512865,-4.15,5.73962148354505));
#496=CARTESIAN_POINT('',(7.28674080896081,-4.15,5.29245729783262));
#497=CARTESIAN_POINT('',(7.60472647816534,-4.15,4.82439955420862));
#498=CARTESIAN_POINT('',(7.89269021537608,-4.15,4.33729605059001));
#499=CARTESIAN_POINT('',(8.14949519762382,-4.15,3.8330697737275));
#500=CARTESIAN_POINT('',(8.37412761044265,-4.15,3.31371130763969));
#501=CARTESIAN_POINT('',(8.56570065020583,-4.15,2.78127097518751));
#502=CARTESIAN_POINT('',(8.72345802504828,-4.15,2.23785074381154));
#503=CARTESIAN_POINT('',(8.84677694055488,-4.15,1.68559592738694));
#504=CARTESIAN_POINT('',(8.93517055842772,-4.15,1.12668671695537));
#505=CARTESIAN_POINT('',(8.98828991842578,-4.15,0.56332957376884));
#506=CARTESIAN_POINT('',(9.00592531598996,-4.15,-0.00225148137590522));
#507=CARTESIAN_POINT('',(8.98800713011442,-4.15,-0.567823648124608));
#508=CARTESIAN_POINT('',(8.93460609819641,-4.15,-1.1311541612126));
#509=CARTESIAN_POINT('',(8.84593303677921,-4.15,-1.69001910497343));
#510=CARTESIAN_POINT('',(8.72233800929076,-4.15,-2.242212192911));
#511=CARTESIAN_POINT('',(8.56430894406362,-4.15,-2.7855534776753));
#512=CARTESIAN_POINT('',(8.37246970809193,-4.15,-3.31789795705655));
#513=CARTESIAN_POINT('',(8.14757764412993,-4.15,-3.83714404202283));
#514=CARTESIAN_POINT('',(7.89052058085489,-4.15,-4.34124185337128));
#515=CARTESIAN_POINT('',(7.60231332789795,-4.15,-4.82820131423934));
#516=CARTESIAN_POINT('',(7.28409366957956,-4.15,-5.29610000652815));
#517=CARTESIAN_POINT('',(6.93711787316575,-4.15,-5.74309076022344));
#518=CARTESIAN_POINT('',(6.5627557293771,-4.15,-6.16740894564936));
#519=CARTESIAN_POINT('',(6.16248514473099,-4.15,-6.56737943988042));
#520=CARTESIAN_POINT('',(5.7378863070612,-4.15,-6.94142323975793));
#521=CARTESIAN_POINT('',(5.29063544726287,-4.15,-7.2880636955976));
#522=CARTESIAN_POINT('',(4.82249822183608,-4.15,-7.60593234025643));
#523=CARTESIAN_POINT('',(4.33532274255466,-4.15,-7.89377429324287));
#524=CARTESIAN_POINT('',(3.83103228002241,-4.15,-8.15045320847471));
#525=CARTESIAN_POINT('',(3.31161767274088,-4.15,-8.37495578370079));
#526=CARTESIAN_POINT('',(2.77912946113416,-4.15,-8.56639567364973));
#527=CARTESIAN_POINT('',(2.23566981685325,-4.15,-8.72401731444707));
#528=CARTESIAN_POINT('',(1.68338415266601,-4.15,-8.84719769237816));
#529=CARTESIAN_POINT('',(1.12445299300783,-4.15,-8.93545333432283));
#530=CARTESIAN_POINT('',(0.562576245947627,-4.15,-8.988284816693));
#531=CARTESIAN_POINT('',(0.187026368258333,-4.15,-9.00001096520108));
#532=CARTESIAN_POINT('',(-1.15989729344114E-15,-4.15,-9.));
#533=CARTESIAN_POINT('',(-0.188526390498765,-4.15,-9.00001121946661));
#534=CARTESIAN_POINT('',(-0.565576235236815,-4.15,-8.98814359817716));
#535=CARTESIAN_POINT('',(-1.12892057976973,-4.15,-8.93489000273143));
#536=CARTESIAN_POINT('',(-1.68780754068046,-4.15,-8.84635489127183));
#537=CARTESIAN_POINT('',(-2.24003154593013,-4.15,-8.72289838993124));
#538=CARTESIAN_POINT('',(-2.78341231138523,-4.15,-8.56500503795035));
#539=CARTESIAN_POINT('',(-3.31580473651037,-4.15,-8.37329892812484));
#540=CARTESIAN_POINT('',(-3.83510702757667,-4.15,-8.14853667359156));
#541=CARTESIAN_POINT('',(-4.33926908762181,-4.15,-7.89160564524452));
#542=CARTESIAN_POINT('',(-4.82630058503541,-4.15,-7.60352014050328));
#543=CARTESIAN_POINT('',(-5.29427881762944,-4.15,-7.28541746697656));
#544=CARTESIAN_POINT('',(-5.74135630130069,-4.15,-6.93855342904596));
#545=CARTESIAN_POINT('',(-6.16576806400349,-4.15,-6.56429737651404));
#546=CARTESIAN_POINT('',(-6.56583861337699,-4.15,-6.16412679699529));
#547=CARTESIAN_POINT('',(-6.93998855128649,-4.15,-5.73962148354504));
#548=CARTESIAN_POINT('',(-7.28674080896081,-4.15,-5.29245729783261));
#549=CARTESIAN_POINT('',(-7.60472647816534,-4.15,-4.82439955420861));
#550=CARTESIAN_POINT('',(-7.89269021537608,-4.15,-4.33729605059001));
#551=CARTESIAN_POINT('',(-8.14949519762382,-4.15,-3.8330697737275));
#552=CARTESIAN_POINT('',(-8.37412761044265,-4.15,-3.31371130763969));
#553=CARTESIAN_POINT('',(-8.56570065020583,-4.15,-2.78127097518751));
#554=CARTESIAN_POINT('',(-8.72345802504828,-4.15,-2.23785074381154));
#555=CARTESIAN_POINT('',(-8.84677694055488,-4.15,-1.68559592738695));
#556=CARTESIAN_POINT('',(-8.93517055842771,-4.15,-1.12668671695537));
#557=CARTESIAN_POINT('',(-8.98828991842578,-4.15,-0.563329573768839));
#558=CARTESIAN_POINT('',(-9.00592531598995,-4.15,0.00225148137590164));
#559=CARTESIAN_POINT('',(-8.98800713011441,-4.15,0.567823648124608));
#560=CARTESIAN_POINT('',(-8.93460609819641,-4.15,1.1311541612126));
#561=CARTESIAN_POINT('',(-8.84593303677921,-4.15,1.69001910497343));
#562=CARTESIAN_POINT('',(-8.72233800929076,-4.15,2.24221219291099));
#563=CARTESIAN_POINT('',(-8.56430894406362,-4.15,2.7855534776753));
#564=CARTESIAN_POINT('',(-8.37246970809194,-4.15,3.31789795705654));
#565=CARTESIAN_POINT('',(-8.14757764412993,-4.15,3.83714404202282));
#566=CARTESIAN_POINT('',(-7.89052058085489,-4.15,4.34124185337127));
#567=CARTESIAN_POINT('',(-7.60231332789794,-4.15,4.82820131423935));
#568=CARTESIAN_POINT('',(-7.28409366957956,-4.15,5.29610000652815));
#569=CARTESIAN_POINT('',(-6.93711787316574,-4.15,5.74309076022344));
#570=CARTESIAN_POINT('',(-6.56275572937709,-4.15,6.16740894564937));
#571=CARTESIAN_POINT('',(-6.16248514473099,-4.15,6.56737943988042));
#572=CARTESIAN_POINT('',(-5.7378863070612,-4.15,6.94142323975793));
#573=CARTESIAN_POINT('',(-5.29063544726286,-4.15,7.2880636955976));
#574=CARTESIAN_POINT('',(-4.82249822183608,-4.15,7.60593234025643));
#575=CARTESIAN_POINT('',(-4.33532274255465,-4.15,7.89377429324288));
#576=CARTESIAN_POINT('',(-3.8310322800224,-4.15,8.15045320847472));
#577=CARTESIAN_POINT('',(-3.31161767274087,-4.15,8.37495578370079));
#578=CARTESIAN_POINT('',(-2.77912946113414,-4.15,8.56639567364973));
#579=CARTESIAN_POINT('',(-2.23566981685324,-4.15,8.72401731444708));
#580=CARTESIAN_POINT('',(-1.68338415266599,-4.15,8.84719769237816));
#581=CARTESIAN_POINT('',(-1.12445299300782,-4.15,8.93545333432284));
#582=CARTESIAN_POINT('',(-0.562576245947613,-4.15,8.98828481669299));
#583=CARTESIAN_POINT('',(-0.187026368258323,-4.15,9.00001096520108));
#584=CARTESIAN_POINT('',(1.73472347597681E-15,-4.15,9.));
#585=CARTESIAN_POINT('',(7.32548816001675E-15,-4.25,8.89999999999999));
#586=AXIS2_PLACEMENT_3D('',#587,#588,#589);
#587=CARTESIAN_POINT('',(-1.77635683940025E-15,-4.25,-8.88178419700125E-16));
#588=DIRECTION('',(0.,-1.,0.));
#589=DIRECTION('',(2.44929359829471E-16,0.,1.));
#590=CARTESIAN_POINT('',(2.29519829269713E-15,4.25,4.9));
#591=AXIS2_PLACEMENT_3D('',#592,#593,#594);
#592=CARTESIAN_POINT('',(0.,4.25,4.44089209850063E-16));
#593=DIRECTION('',(0.,-1.,0.));
#594=DIRECTION('',(0.,0.,-1.));
#595=CARTESIAN_POINT('',(1.63174207890683E-15,3.85,4.5));
#596=CARTESIAN_POINT('',(1.1836324163605E-15,3.85,4.5));
#597=CARTESIAN_POINT('',(0.0942631952493828,3.85,4.50000560973331));
#598=CARTESIAN_POINT('',(0.282788117618408,3.85,4.49407179908858));
#599=CARTESIAN_POINT('',(0.564460289884865,3.85,4.46744500136571));
#600=CARTESIAN_POINT('',(0.843903770340231,3.85,4.42317744563592));
#601=CARTESIAN_POINT('',(1.12001577296507,3.85,4.36144919496562));
#602=CARTESIAN_POINT('',(1.39170615569262,3.85,4.28250251897518));
#603=CARTESIAN_POINT('',(1.65790236825518,3.85,4.18664946406242));
#604=CARTESIAN_POINT('',(1.91755351378833,3.85,4.07426833679578));
#605=CARTESIAN_POINT('',(2.16963454381091,3.85,3.94580282262226));
#606=CARTESIAN_POINT('',(2.41315029251771,3.85,3.80176007025164));
#607=CARTESIAN_POINT('',(2.64713940881472,3.85,3.64270873348828));
#608=CARTESIAN_POINT('',(2.87067815065034,3.85,3.46927671452298));
#609=CARTESIAN_POINT('',(3.08288403200174,3.85,3.28214868825702));
#610=CARTESIAN_POINT('',(3.28291930668849,3.85,3.08206339849764));
#611=CARTESIAN_POINT('',(3.46999427564325,3.85,2.86981074177252));
#612=CARTESIAN_POINT('',(3.6433704044804,3.85,2.64622864891631));
#613=CARTESIAN_POINT('',(3.80236323908267,3.85,2.41219977710431));
#614=CARTESIAN_POINT('',(3.94634510768804,3.85,2.16864802529501));
#615=CARTESIAN_POINT('',(4.07474759881191,3.85,1.91653488686375));
#616=CARTESIAN_POINT('',(4.18706380522133,3.85,1.65685565381985));
#617=CARTESIAN_POINT('',(4.28285032510292,3.85,1.39063548759376));
#618=CARTESIAN_POINT('',(4.36172901252414,3.85,1.11892537190577));
#619=CARTESIAN_POINT('',(4.42338847027744,3.85,0.842797963693476));
#620=CARTESIAN_POINT('',(4.46758527921386,3.85,0.563343358477683));
#621=CARTESIAN_POINT('',(4.49414495921289,3.85,0.281664786884423));
#622=CARTESIAN_POINT('',(4.50296265799498,3.85,-0.00112574068795197));
#623=CARTESIAN_POINT('',(4.49400356505721,3.85,-0.283911824062303));
#624=CARTESIAN_POINT('',(4.46730304909821,3.85,-0.565577080606301));
#625=CARTESIAN_POINT('',(4.42296651838961,3.85,-0.845009552486716));
#626=CARTESIAN_POINT('',(4.36116900464538,3.85,-1.1211060964555));
#627=CARTESIAN_POINT('',(4.28215447203181,3.85,-1.39277673883765));
#628=CARTESIAN_POINT('',(4.18623485404597,3.85,-1.65894897852827));
#629=CARTESIAN_POINT('',(4.07378882206497,3.85,-1.91857202101141));
#630=CARTESIAN_POINT('',(3.94526029042745,3.85,-2.17062092668564));
#631=CARTESIAN_POINT('',(3.80115666394897,3.85,-2.41410065711967));
#632=CARTESIAN_POINT('',(3.64204683478978,3.85,-2.64805000326407));
#633=CARTESIAN_POINT('',(3.46855893658287,3.85,-2.87154538011172));
#634=CARTESIAN_POINT('',(3.28137786468855,3.85,-3.08370447282468));
#635=CARTESIAN_POINT('',(3.0812425723655,3.85,-3.28368971994021));
#636=CARTESIAN_POINT('',(2.8689431535306,3.85,-3.47071161987897));
#637=CARTESIAN_POINT('',(2.64531772363144,3.85,-3.6440318477988));
#638=CARTESIAN_POINT('',(2.41124911091804,3.85,-3.80296617012821));
#639=CARTESIAN_POINT('',(2.16766137127733,3.85,-3.94688714662144));
#640=CARTESIAN_POINT('',(1.9155161400112,3.85,-4.07522660423736));
#641=CARTESIAN_POINT('',(1.65580883637044,3.85,-4.18747789185039));
#642=CARTESIAN_POINT('',(1.38956473056708,3.85,-4.28319783682486));
#643=CARTESIAN_POINT('',(1.11783490842662,3.85,-4.36200865722354));
#644=CARTESIAN_POINT('',(0.841692076333003,3.85,-4.42359884618908));
#645=CARTESIAN_POINT('',(0.562226496503918,3.85,-4.46772666716142));
#646=CARTESIAN_POINT('',(0.281288122973814,3.85,-4.4941424083465));
#647=CARTESIAN_POINT('',(0.0935131841291674,3.85,-4.50000548260054));
#648=CARTESIAN_POINT('',(8.38504150884144E-16,3.85,-4.5));
#649=CARTESIAN_POINT('',(-0.0942631952493809,3.85,-4.50000560973331));
#650=CARTESIAN_POINT('',(-0.282788117618407,3.85,-4.49407179908858));
#651=CARTESIAN_POINT('',(-0.564460289884864,3.85,-4.46744500136572));
#652=CARTESIAN_POINT('',(-0.843903770340231,3.85,-4.42317744563592));
#653=CARTESIAN_POINT('',(-1.12001577296506,3.85,-4.36144919496562));
#654=CARTESIAN_POINT('',(-1.39170615569262,3.85,-4.28250251897518));
#655=CARTESIAN_POINT('',(-1.65790236825518,3.85,-4.18664946406242));
#656=CARTESIAN_POINT('',(-1.91755351378833,3.85,-4.07426833679578));
#657=CARTESIAN_POINT('',(-2.1696345438109,3.85,-3.94580282262226));
#658=CARTESIAN_POINT('',(-2.4131502925177,3.85,-3.80176007025164));
#659=CARTESIAN_POINT('',(-2.64713940881472,3.85,-3.64270873348828));
#660=CARTESIAN_POINT('',(-2.87067815065034,3.85,-3.46927671452298));
#661=CARTESIAN_POINT('',(-3.08288403200174,3.85,-3.28214868825702));
#662=CARTESIAN_POINT('',(-3.28291930668849,3.85,-3.08206339849764));
#663=CARTESIAN_POINT('',(-3.46999427564325,3.85,-2.86981074177252));
#664=CARTESIAN_POINT('',(-3.6433704044804,3.85,-2.64622864891631));
#665=CARTESIAN_POINT('',(-3.80236323908267,3.85,-2.41219977710431));
#666=CARTESIAN_POINT('',(-3.94634510768804,3.85,-2.168648025295));
#667=CARTESIAN_POINT('',(-4.07474759881191,3.85,-1.91653488686375));
#668=CARTESIAN_POINT('',(-4.18706380522132,3.85,-1.65685565381984));
#669=CARTESIAN_POINT('',(-4.28285032510291,3.85,-1.39063548759376));
#670=CARTESIAN_POINT('',(-4.36172901252414,3.85,-1.11892537190577));
#671=CARTESIAN_POINT('',(-4.42338847027744,3.85,-0.842797963693471));
#672=CARTESIAN_POINT('',(-4.46758527921386,3.85,-0.563343358477686));
#673=CARTESIAN_POINT('',(-4.49414495921289,3.85,-0.281664786884423));
#674=CARTESIAN_POINT('',(-4.50296265799498,3.85,0.00112574068795167));
#675=CARTESIAN_POINT('',(-4.4940035650572,3.85,0.283911824062304));
#676=CARTESIAN_POINT('',(-4.4673030490982,3.85,0.5655770806063));
#677=CARTESIAN_POINT('',(-4.4229665183896,3.85,0.845009552486713));
#678=CARTESIAN_POINT('',(-4.36116900464538,3.85,1.12110609645549));
#679=CARTESIAN_POINT('',(-4.28215447203181,3.85,1.39277673883765));
#680=CARTESIAN_POINT('',(-4.18623485404597,3.85,1.65894897852827));
#681=CARTESIAN_POINT('',(-4.07378882206496,3.85,1.91857202101142));
#682=CARTESIAN_POINT('',(-3.94526029042744,3.85,2.17062092668563));
#683=CARTESIAN_POINT('',(-3.80115666394897,3.85,2.41410065711967));
#684=CARTESIAN_POINT('',(-3.64204683478978,3.85,2.64805000326407));
#685=CARTESIAN_POINT('',(-3.46855893658287,3.85,2.87154538011172));
#686=CARTESIAN_POINT('',(-3.28137786468855,3.85,3.08370447282468));
#687=CARTESIAN_POINT('',(-3.08124257236549,3.85,3.28368971994021));
#688=CARTESIAN_POINT('',(-2.8689431535306,3.85,3.47071161987896));
#689=CARTESIAN_POINT('',(-2.64531772363143,3.85,3.6440318477988));
#690=CARTESIAN_POINT('',(-2.41124911091804,3.85,3.80296617012821));
#691=CARTESIAN_POINT('',(-2.16766137127732,3.85,3.94688714662144));
#692=CARTESIAN_POINT('',(-1.9155161400112,3.85,4.07522660423736));
#693=CARTESIAN_POINT('',(-1.65580883637043,3.85,4.18747789185039));
#694=CARTESIAN_POINT('',(-1.38956473056707,3.85,4.28319783682487));
#695=CARTESIAN_POINT('',(-1.11783490842662,3.85,4.36200865722354));
#696=CARTESIAN_POINT('',(-0.841692076332987,3.85,4.42359884618908));
#697=CARTESIAN_POINT('',(-0.562226496503909,3.85,4.46772666716142));
#698=CARTESIAN_POINT('',(-0.281288122973808,3.85,4.49414240834649));
#699=CARTESIAN_POINT('',(-0.0935131841291624,3.85,4.50000548260054));
#700=CARTESIAN_POINT('',(1.1836324163605E-15,3.85,4.5));
#701=CARTESIAN_POINT('',(1.5510264561047E-15,-3.84999999999999,-4.5));
#702=CARTESIAN_POINT('',(1.5510264561047E-15,-3.84999999999999,4.5));
#703=AXIS2_PLACEMENT_3D('',#704,#705,#706);
#704=CARTESIAN_POINT('',(1.73472347597681E-15,-3.84999999999999,0.));
#705=DIRECTION('',(0.,-1.,0.));
#706=DIRECTION('',(1.22464679914735E-16,0.,-1.));
#707=AXIS2_PLACEMENT_3D('',#708,#709,#710);
#708=CARTESIAN_POINT('',(1.73472347597681E-15,-3.84999999999999,0.));
#709=DIRECTION('',(0.,-1.,0.));
#710=DIRECTION('',(-2.44929359829471E-16,0.,1.));
#711=CARTESIAN_POINT('',(1.79263918591322E-15,-4.25,-4.9));
#712=AXIS2_PLACEMENT_3D('',#713,#714,#715);
#713=CARTESIAN_POINT('',(1.77635683940025E-15,-4.25,0.));
#714=DIRECTION('',(0.,1.,0.));
#715=DIRECTION('',(0.,0.,1.));
#716=CARTESIAN_POINT('',(9.62683070892306E-16,3.25,6.));
#717=AXIS2_PLACEMENT_3D('',#718,#719,#720);
#718=CARTESIAN_POINT('',(1.77635683940025E-15,3.25,0.));
#719=DIRECTION('',(0.,1.,0.));
#720=DIRECTION('',(0.,0.,1.));
#721=CARTESIAN_POINT('',(9.62683070892306E-16,-3.25,6.));
#722=AXIS2_PLACEMENT_3D('',#723,#724,#725);
#723=CARTESIAN_POINT('',(1.77635683940025E-15,-3.25,0.));
#724=DIRECTION('',(0.,1.,0.));
#725=DIRECTION('',(0.,0.,1.));
#726=CARTESIAN_POINT('',(1.08514775080704E-15,-1.25,4.5));
#727=AXIS2_PLACEMENT_3D('',#728,#729,#730);
#728=CARTESIAN_POINT('',(1.77635683940025E-15,-1.25,0.));
#729=DIRECTION('',(0.,1.,0.));
#730=DIRECTION('',(1.22464679914735E-16,0.,-1.));
#731=CARTESIAN_POINT('',(1.12596931077862E-15,1.25,4.));
#732=AXIS2_PLACEMENT_3D('',#733,#734,#735);
#733=CARTESIAN_POINT('',(1.77635683940025E-15,1.25,0.));
#734=DIRECTION('',(0.,1.,0.));
#735=DIRECTION('',(1.22464679914735E-16,0.,-1.));
#736=CARTESIAN_POINT('',(1.12596931077862E-15,-1.25,4.));
#737=AXIS2_PLACEMENT_3D('',#738,#739,#740);
#738=CARTESIAN_POINT('',(1.77635683940025E-15,-1.25,0.));
#739=DIRECTION('',(0.,1.,0.));
#740=DIRECTION('',(1.22464679914735E-16,0.,-1.));
#741=CARTESIAN_POINT('',(1.08514775080704E-15,1.25,4.5));
#742=AXIS2_PLACEMENT_3D('',#743,#744,#745);
#743=CARTESIAN_POINT('',(1.77635683940025E-15,1.25,0.));
#744=DIRECTION('',(0.,1.,0.));
#745=DIRECTION('',(1.22464679914735E-16,0.,-1.));
ENDSEC;
END-ISO-10303-21;
